G04 #@! TF.GenerationSoftware,KiCad,Pcbnew,7.0.8*
G04 #@! TF.CreationDate,2023-11-12T13:04:05-06:00*
G04 #@! TF.ProjectId,WALL-E Carrier Board,57414c4c-2d45-4204-9361-727269657220,rev?*
G04 #@! TF.SameCoordinates,PX53d00e0PY8a12ae0*
G04 #@! TF.FileFunction,Copper,L2,Bot*
G04 #@! TF.FilePolarity,Positive*
%FSLAX46Y46*%
G04 Gerber Fmt 4.6, Leading zero omitted, Abs format (unit mm)*
G04 Created by KiCad (PCBNEW 7.0.8) date 2023-11-12 13:04:05*
%MOMM*%
%LPD*%
G01*
G04 APERTURE LIST*
G04 #@! TA.AperFunction,ComponentPad*
%ADD10R,2.800000X2.800000*%
G04 #@! TD*
G04 #@! TA.AperFunction,ComponentPad*
%ADD11C,2.800000*%
G04 #@! TD*
G04 #@! TA.AperFunction,ComponentPad*
%ADD12R,1.700000X1.700000*%
G04 #@! TD*
G04 #@! TA.AperFunction,ComponentPad*
%ADD13C,1.700000*%
G04 #@! TD*
G04 #@! TA.AperFunction,ComponentPad*
%ADD14O,1.700000X1.700000*%
G04 #@! TD*
G04 #@! TA.AperFunction,WasherPad*
%ADD15C,3.000000*%
G04 #@! TD*
G04 #@! TA.AperFunction,ComponentPad*
%ADD16C,2.000000*%
G04 #@! TD*
G04 #@! TA.AperFunction,ComponentPad*
%ADD17C,7.400000*%
G04 #@! TD*
G04 #@! TA.AperFunction,ComponentPad*
%ADD18C,1.600000*%
G04 #@! TD*
G04 #@! TA.AperFunction,ComponentPad*
%ADD19O,1.600000X1.600000*%
G04 #@! TD*
G04 #@! TA.AperFunction,ViaPad*
%ADD20C,1.778000*%
G04 #@! TD*
G04 #@! TA.AperFunction,Conductor*
%ADD21C,1.524000*%
G04 #@! TD*
G04 #@! TA.AperFunction,Conductor*
%ADD22C,2.540000*%
G04 #@! TD*
G04 #@! TA.AperFunction,Conductor*
%ADD23C,1.143000*%
G04 #@! TD*
G04 #@! TA.AperFunction,Conductor*
%ADD24C,0.406400*%
G04 #@! TD*
G04 APERTURE END LIST*
D10*
G04 #@! TO.P,J3,1,Pin_1*
G04 #@! TO.N,GND*
X16002000Y23582000D03*
D11*
G04 #@! TO.P,J3,2,Pin_2*
G04 #@! TO.N,+5V*
X16002000Y18582000D03*
G04 #@! TD*
D12*
G04 #@! TO.P,U3,1,VCC*
G04 #@! TO.N,+5V*
X114554000Y51181000D03*
D13*
G04 #@! TO.P,U3,2,RX*
G04 #@! TO.N,MCU_TX*
X114554000Y48641000D03*
G04 #@! TO.P,U3,3,TX*
G04 #@! TO.N,MCU_RX*
X114554000Y46101000D03*
G04 #@! TO.P,U3,4,DAC_R*
G04 #@! TO.N,unconnected-(U3-DAC_R-Pad4)*
X114554000Y43561000D03*
G04 #@! TO.P,U3,5,DAC_L*
G04 #@! TO.N,unconnected-(U3-DAC_L-Pad5)*
X114554000Y41021000D03*
G04 #@! TO.P,U3,6,SPK1*
G04 #@! TO.N,DFP_SPK1*
X114554000Y38481000D03*
G04 #@! TO.P,U3,7,GND*
G04 #@! TO.N,GND*
X114554000Y35941000D03*
G04 #@! TO.P,U3,8,SPK2*
G04 #@! TO.N,DFP_SPK2*
X114554000Y33401000D03*
G04 #@! TO.P,U3,9,IO1*
G04 #@! TO.N,Net-(J11-Pin_1)*
X132588000Y33401000D03*
G04 #@! TO.P,U3,10,GND*
G04 #@! TO.N,GND*
X132588000Y35941000D03*
G04 #@! TO.P,U3,11,IO2*
G04 #@! TO.N,Net-(J11-Pin_2)*
X132588000Y38481000D03*
G04 #@! TO.P,U3,12,ADKEY1*
G04 #@! TO.N,Net-(J10-Pin_1)*
X132588000Y41021000D03*
G04 #@! TO.P,U3,13,ADKEY2*
G04 #@! TO.N,Net-(J10-Pin_2)*
X132588000Y43561000D03*
G04 #@! TO.P,U3,14,USB+*
G04 #@! TO.N,unconnected-(U3-USB+-Pad14)*
X132588000Y46101000D03*
G04 #@! TO.P,U3,15,USB-*
G04 #@! TO.N,unconnected-(U3-USB--Pad15)*
X132588000Y48641000D03*
G04 #@! TO.P,U3,16,BUSY*
G04 #@! TO.N,unconnected-(U3-BUSY-Pad16)*
X132588000Y51181000D03*
G04 #@! TD*
D12*
G04 #@! TO.P,J9,1,Pin_1*
G04 #@! TO.N,GND*
X73024999Y56186399D03*
D14*
G04 #@! TO.P,J9,2,Pin_2*
G04 #@! TO.N,SPI_MOSI*
X73024999Y53646399D03*
G04 #@! TO.P,J9,3,Pin_3*
G04 #@! TO.N,SCL*
X73024999Y51106399D03*
G04 #@! TO.P,J9,4,Pin_4*
G04 #@! TO.N,ESP32_TX*
X73024999Y48566399D03*
G04 #@! TO.P,J9,5,Pin_5*
G04 #@! TO.N,ESP32_RX*
X73024999Y46026399D03*
G04 #@! TO.P,J9,6,Pin_6*
G04 #@! TO.N,SDA*
X73024999Y43486399D03*
G04 #@! TO.P,J9,7,Pin_7*
G04 #@! TO.N,GND*
X73024999Y40946399D03*
G04 #@! TO.P,J9,8,Pin_8*
G04 #@! TO.N,SPI_MISO*
X73024999Y38406399D03*
G04 #@! TO.P,J9,9,Pin_9*
G04 #@! TO.N,SPI_CLK*
X73024999Y35866399D03*
G04 #@! TO.P,J9,10,Pin_10*
G04 #@! TO.N,LCD_DC*
X73024999Y33326399D03*
G04 #@! TO.P,J9,11,Pin_11*
G04 #@! TO.N,MCU_TX*
X73024999Y30786399D03*
G04 #@! TO.P,J9,12,Pin_12*
G04 #@! TO.N,MCU_RX*
X73024999Y28246399D03*
G04 #@! TO.P,J9,13,Pin_13*
G04 #@! TO.N,LCD_~{RST}*
X73024999Y25706399D03*
G04 #@! TO.P,J9,14,Pin_14*
G04 #@! TO.N,ESP32_P0*
X73024999Y23166399D03*
G04 #@! TO.P,J9,15,Pin_15*
G04 #@! TO.N,SD_~{CS}*
X73024999Y20626399D03*
G04 #@! TO.P,J9,16,Pin_16*
G04 #@! TO.N,LCD_~{CS}*
X73024999Y18086399D03*
G04 #@! TO.P,J9,17,Pin_17*
G04 #@! TO.N,ESP32_SD1*
X73024999Y15546399D03*
G04 #@! TO.P,J9,18,Pin_18*
G04 #@! TO.N,ESP32_SD0*
X73024999Y13006399D03*
G04 #@! TO.P,J9,19,Pin_19*
G04 #@! TO.N,ESP32_CLK*
X73024999Y10466399D03*
G04 #@! TD*
D10*
G04 #@! TO.P,J6,1,Pin_1*
G04 #@! TO.N,GND*
X16022000Y60158000D03*
D11*
G04 #@! TO.P,J6,2,Pin_2*
G04 #@! TO.N,+3.3V*
X16022000Y55158000D03*
G04 #@! TD*
D12*
G04 #@! TO.P,J10,1,Pin_1*
G04 #@! TO.N,Net-(J10-Pin_1)*
X129413000Y56388000D03*
D14*
G04 #@! TO.P,J10,2,Pin_2*
G04 #@! TO.N,Net-(J10-Pin_2)*
X131953000Y56388000D03*
G04 #@! TD*
D10*
G04 #@! TO.P,J14,1,Pin_1*
G04 #@! TO.N,DFP_SPK2*
X124968000Y71374000D03*
D11*
G04 #@! TO.P,J14,2,Pin_2*
G04 #@! TO.N,DFP_SPK1*
X119968000Y71374000D03*
G04 #@! TD*
D15*
G04 #@! TO.P,U2,*
G04 #@! TO.N,*
X105664000Y63525400D03*
X86614000Y63500000D03*
X105664000Y7620000D03*
X86614000Y7620000D03*
D16*
G04 #@! TO.P,U2,1,V+*
G04 #@! TO.N,+5V*
X89916000Y64770000D03*
G04 #@! TO.P,U2,2,VCC*
G04 #@! TO.N,+3.3V*
X92456000Y64770000D03*
G04 #@! TO.P,U2,3,SDA*
G04 #@! TO.N,SDA*
X94996000Y64770000D03*
G04 #@! TO.P,U2,4,SCL*
G04 #@! TO.N,SCL*
X97536000Y64770000D03*
G04 #@! TO.P,U2,5,OE*
G04 #@! TO.N,unconnected-(U2-OE-Pad5)*
X100076000Y64770000D03*
G04 #@! TO.P,U2,6,GND*
G04 #@! TO.N,GND*
X102616000Y64770000D03*
G04 #@! TO.P,U2,7,GND*
X102616000Y6350000D03*
G04 #@! TO.P,U2,8,OE*
G04 #@! TO.N,unconnected-(U2-OE-Pad8)*
X100076000Y6350000D03*
G04 #@! TO.P,U2,9,SCL*
G04 #@! TO.N,unconnected-(U2-SCL-Pad9)*
X97536000Y6350000D03*
G04 #@! TO.P,U2,10,SDA*
G04 #@! TO.N,unconnected-(U2-SDA-Pad10)*
X94996000Y6350000D03*
G04 #@! TO.P,U2,11,VCC*
G04 #@! TO.N,+3.3V*
X92456000Y6350000D03*
G04 #@! TO.P,U2,12,V+*
G04 #@! TO.N,+5V*
X89916000Y6350000D03*
G04 #@! TD*
D10*
G04 #@! TO.P,J1,1,Pin_1*
G04 #@! TO.N,GND*
X16022000Y11389999D03*
D11*
G04 #@! TO.P,J1,2,Pin_2*
G04 #@! TO.N,+5V*
X16022000Y6389999D03*
G04 #@! TD*
D17*
G04 #@! TO.P,H4,1,1*
G04 #@! TO.N,unconnected-(H4-Pad1)*
X146812000Y14986000D03*
G04 #@! TD*
D12*
G04 #@! TO.P,J13,1,Pin_1*
G04 #@! TO.N,SD_~{CS}*
X99040000Y74168000D03*
D14*
G04 #@! TO.P,J13,2,Pin_2*
G04 #@! TO.N,SPI_MOSI*
X96500000Y74168000D03*
G04 #@! TO.P,J13,3,Pin_3*
G04 #@! TO.N,SPI_MISO*
X93960000Y74168000D03*
G04 #@! TO.P,J13,4,Pin_4*
G04 #@! TO.N,SPI_CLK*
X91420000Y74168000D03*
G04 #@! TD*
D12*
G04 #@! TO.P,J8,1,Pin_1*
G04 #@! TO.N,BUTTON0*
X34798000Y74168000D03*
D14*
G04 #@! TO.P,J8,2,Pin_2*
G04 #@! TO.N,BUTTON1*
X37338000Y74168000D03*
G04 #@! TO.P,J8,3,Pin_3*
G04 #@! TO.N,BUTTON2*
X39878000Y74168000D03*
G04 #@! TO.P,J8,4,Pin_4*
G04 #@! TO.N,BUTTON3*
X42418000Y74168000D03*
G04 #@! TO.P,J8,5,Pin_5*
G04 #@! TO.N,GND*
X44958000Y74168000D03*
G04 #@! TD*
D17*
G04 #@! TO.P,H3,1,1*
G04 #@! TO.N,unconnected-(H3-Pad1)*
X146812000Y63754000D03*
G04 #@! TD*
D12*
G04 #@! TO.P,J7,1,Pin_1*
G04 #@! TO.N,+3.3V*
X34925001Y56186399D03*
D14*
G04 #@! TO.P,J7,2,Pin_2*
G04 #@! TO.N,ESP32_EN*
X34925001Y53646399D03*
G04 #@! TO.P,J7,3,Pin_3*
G04 #@! TO.N,ESP32_SVP*
X34925001Y51106399D03*
G04 #@! TO.P,J7,4,Pin_4*
G04 #@! TO.N,ESP32_SVN*
X34925001Y48566399D03*
G04 #@! TO.P,J7,5,Pin_5*
G04 #@! TO.N,BUTTON0*
X34925001Y46026399D03*
G04 #@! TO.P,J7,6,Pin_6*
G04 #@! TO.N,BUTTON1*
X34925001Y43486399D03*
G04 #@! TO.P,J7,7,Pin_7*
G04 #@! TO.N,BUTTON2*
X34925001Y40946399D03*
G04 #@! TO.P,J7,8,Pin_8*
G04 #@! TO.N,BUTTON3*
X34925001Y38406399D03*
G04 #@! TO.P,J7,9,Pin_9*
G04 #@! TO.N,ESP32_P25*
X34925001Y35866399D03*
G04 #@! TO.P,J7,10,Pin_10*
G04 #@! TO.N,ESP32_P26*
X34925001Y33326399D03*
G04 #@! TO.P,J7,11,Pin_11*
G04 #@! TO.N,ESP32_P27*
X34925001Y30786399D03*
G04 #@! TO.P,J7,12,Pin_12*
G04 #@! TO.N,ESP32_P14*
X34925001Y28246399D03*
G04 #@! TO.P,J7,13,Pin_13*
G04 #@! TO.N,ESP32_P12*
X34925001Y25706399D03*
G04 #@! TO.P,J7,14,Pin_14*
G04 #@! TO.N,GND*
X34925001Y23166399D03*
G04 #@! TO.P,J7,15,Pin_15*
G04 #@! TO.N,ESP32_P13*
X34925001Y20626399D03*
G04 #@! TO.P,J7,16,Pin_16*
G04 #@! TO.N,ESP32_SD2*
X34925001Y18086399D03*
G04 #@! TO.P,J7,17,Pin_17*
G04 #@! TO.N,ESP32_SD3*
X34925001Y15546399D03*
G04 #@! TO.P,J7,18,Pin_18*
G04 #@! TO.N,ESP32_CMD*
X34925001Y13006399D03*
G04 #@! TO.P,J7,19,Pin_19*
G04 #@! TO.N,+5V*
X34925001Y10466399D03*
G04 #@! TD*
D18*
G04 #@! TO.P,R1,1*
G04 #@! TO.N,+5V*
X80010000Y56388000D03*
D19*
G04 #@! TO.P,R1,2*
G04 #@! TO.N,/LCD_LED*
X80010000Y66548000D03*
G04 #@! TD*
D10*
G04 #@! TO.P,J5,1,Pin_1*
G04 #@! TO.N,GND*
X16022000Y72350000D03*
D11*
G04 #@! TO.P,J5,2,Pin_2*
G04 #@! TO.N,+3.3V*
X16022000Y67350000D03*
G04 #@! TD*
D12*
G04 #@! TO.P,U1,1,3.3V*
G04 #@! TO.N,+3.3V*
X42545000Y56186400D03*
D13*
G04 #@! TO.P,U1,2,EN*
G04 #@! TO.N,ESP32_EN*
X42545000Y53646400D03*
G04 #@! TO.P,U1,3,SVP*
G04 #@! TO.N,ESP32_SVP*
X42545000Y51106400D03*
G04 #@! TO.P,U1,4,SVN*
G04 #@! TO.N,ESP32_SVN*
X42545000Y48566400D03*
G04 #@! TO.P,U1,5,P34*
G04 #@! TO.N,BUTTON0*
X42545000Y46026400D03*
G04 #@! TO.P,U1,6,P35*
G04 #@! TO.N,BUTTON1*
X42545000Y43486400D03*
G04 #@! TO.P,U1,7,P32*
G04 #@! TO.N,BUTTON2*
X42545000Y40946400D03*
G04 #@! TO.P,U1,8,P33*
G04 #@! TO.N,BUTTON3*
X42545000Y38406400D03*
G04 #@! TO.P,U1,9,P25*
G04 #@! TO.N,ESP32_P25*
X42545000Y35866400D03*
G04 #@! TO.P,U1,10,P26*
G04 #@! TO.N,ESP32_P26*
X42545000Y33326400D03*
G04 #@! TO.P,U1,11,P27*
G04 #@! TO.N,ESP32_P27*
X42545000Y30786400D03*
G04 #@! TO.P,U1,12,P14*
G04 #@! TO.N,ESP32_P14*
X42545000Y28246400D03*
G04 #@! TO.P,U1,13,P12*
G04 #@! TO.N,ESP32_P12*
X42545000Y25706400D03*
G04 #@! TO.P,U1,14,GND*
G04 #@! TO.N,GND*
X42545000Y23166400D03*
G04 #@! TO.P,U1,15,P13*
G04 #@! TO.N,ESP32_P13*
X42545000Y20626400D03*
G04 #@! TO.P,U1,16,SD2*
G04 #@! TO.N,ESP32_SD2*
X42545000Y18086400D03*
G04 #@! TO.P,U1,17,SD3*
G04 #@! TO.N,ESP32_SD3*
X42545000Y15546400D03*
G04 #@! TO.P,U1,18,CMD*
G04 #@! TO.N,ESP32_CMD*
X42545000Y13006400D03*
G04 #@! TO.P,U1,19,5V*
G04 #@! TO.N,+5V*
X42545000Y10466400D03*
G04 #@! TO.P,U1,20,CLK*
G04 #@! TO.N,ESP32_CLK*
X65405000Y10466400D03*
G04 #@! TO.P,U1,21,SD0*
G04 #@! TO.N,ESP32_SD0*
X65405000Y13006400D03*
G04 #@! TO.P,U1,22,SD1*
G04 #@! TO.N,ESP32_SD1*
X65405000Y15546400D03*
G04 #@! TO.P,U1,23,P15*
G04 #@! TO.N,LCD_~{CS}*
X65405000Y18086400D03*
G04 #@! TO.P,U1,24,P2*
G04 #@! TO.N,SD_~{CS}*
X65405000Y20626400D03*
G04 #@! TO.P,U1,25,P0*
G04 #@! TO.N,ESP32_P0*
X65405000Y23166400D03*
G04 #@! TO.P,U1,26,P4*
G04 #@! TO.N,LCD_~{RST}*
X65405000Y25706400D03*
G04 #@! TO.P,U1,27,P16*
G04 #@! TO.N,MCU_RX*
X65405000Y28246400D03*
G04 #@! TO.P,U1,28,P17*
G04 #@! TO.N,MCU_TX*
X65405000Y30786400D03*
G04 #@! TO.P,U1,29,P5*
G04 #@! TO.N,LCD_DC*
X65405000Y33326400D03*
G04 #@! TO.P,U1,30,P18*
G04 #@! TO.N,SPI_CLK*
X65405000Y35866400D03*
G04 #@! TO.P,U1,31,P19*
G04 #@! TO.N,SPI_MISO*
X65405000Y38406400D03*
G04 #@! TO.P,U1,32,GND*
G04 #@! TO.N,GND*
X65405000Y40946400D03*
G04 #@! TO.P,U1,33,P21*
G04 #@! TO.N,SDA*
X65405000Y43486400D03*
G04 #@! TO.P,U1,34,RX*
G04 #@! TO.N,ESP32_RX*
X65405000Y46026400D03*
G04 #@! TO.P,U1,35,TX*
G04 #@! TO.N,ESP32_TX*
X65405000Y48566400D03*
G04 #@! TO.P,U1,36,P22*
G04 #@! TO.N,SCL*
X65405000Y51106400D03*
G04 #@! TO.P,U1,37,P23*
G04 #@! TO.N,SPI_MOSI*
X65405000Y53646400D03*
G04 #@! TO.P,U1,38,GND*
G04 #@! TO.N,GND*
X65405000Y56186400D03*
G04 #@! TD*
D17*
G04 #@! TO.P,H2,1,1*
G04 #@! TO.N,unconnected-(H2-Pad1)*
X5080000Y63754000D03*
G04 #@! TD*
G04 #@! TO.P,H1,1,1*
G04 #@! TO.N,unconnected-(H1-Pad1)*
X5080000Y14986000D03*
G04 #@! TD*
D10*
G04 #@! TO.P,J4,1,Pin_1*
G04 #@! TO.N,GND*
X16022000Y47966000D03*
D11*
G04 #@! TO.P,J4,2,Pin_2*
G04 #@! TO.N,+5V*
X16022000Y42966000D03*
G04 #@! TD*
D12*
G04 #@! TO.P,J11,1,Pin_1*
G04 #@! TO.N,Net-(J11-Pin_1)*
X111252000Y26924000D03*
D14*
G04 #@! TO.P,J11,2,Pin_2*
G04 #@! TO.N,Net-(J11-Pin_2)*
X111252000Y24384000D03*
G04 #@! TD*
D12*
G04 #@! TO.P,J12,1,Pin_1*
G04 #@! TO.N,+3.3V*
X62230000Y74168000D03*
D14*
G04 #@! TO.P,J12,2,Pin_2*
G04 #@! TO.N,GND*
X64770000Y74168000D03*
G04 #@! TO.P,J12,3,Pin_3*
G04 #@! TO.N,LCD_~{CS}*
X67310000Y74168000D03*
G04 #@! TO.P,J12,4,Pin_4*
G04 #@! TO.N,LCD_~{RST}*
X69850000Y74168000D03*
G04 #@! TO.P,J12,5,Pin_5*
G04 #@! TO.N,LCD_DC*
X72390000Y74168000D03*
G04 #@! TO.P,J12,6,Pin_6*
G04 #@! TO.N,SPI_MOSI*
X74930000Y74168000D03*
G04 #@! TO.P,J12,7,Pin_7*
G04 #@! TO.N,SPI_CLK*
X77470000Y74168000D03*
G04 #@! TO.P,J12,8,Pin_8*
G04 #@! TO.N,/LCD_LED*
X80010000Y74168000D03*
G04 #@! TO.P,J12,9,Pin_9*
G04 #@! TO.N,SPI_MISO*
X82550000Y74168000D03*
G04 #@! TD*
D10*
G04 #@! TO.P,J2,1,Pin_1*
G04 #@! TO.N,GND*
X16022000Y35774000D03*
D11*
G04 #@! TO.P,J2,2,Pin_2*
G04 #@! TO.N,+5V*
X16022000Y30774000D03*
G04 #@! TD*
D20*
G04 #@! TO.N,GND*
X25654000Y27305000D03*
X105664000Y68707000D03*
X29972000Y27305000D03*
X104140000Y70866000D03*
X102870000Y68707000D03*
X27813000Y39370000D03*
G04 #@! TO.N,SD_~{CS}*
X77724000Y20574000D03*
X75890233Y53624867D03*
G04 #@! TD*
D21*
G04 #@! TO.N,+5V*
X89916000Y59944000D02*
X89154000Y59182000D01*
D22*
X13676001Y6389999D02*
X12446000Y7620000D01*
X16022000Y30774000D02*
X12486000Y30774000D01*
D21*
X89916000Y64770000D02*
X89916000Y59944000D01*
D22*
X12486000Y30774000D02*
X12446000Y30734000D01*
D21*
X89154000Y59182000D02*
X82804000Y59182000D01*
D22*
X12446000Y7620000D02*
X12446000Y18542000D01*
X12446000Y30734000D02*
X12446000Y39390000D01*
X12486000Y18582000D02*
X12446000Y18542000D01*
D21*
X82804000Y59182000D02*
X80010000Y56388000D01*
D22*
X12446000Y18542000D02*
X12446000Y30734000D01*
X12446000Y39390000D02*
X16022000Y42966000D01*
X16002000Y18582000D02*
X12486000Y18582000D01*
X16022000Y6389999D02*
X13676001Y6389999D01*
D23*
G04 #@! TO.N,+3.3V*
X95774000Y60452000D02*
X92456000Y63770000D01*
X100622100Y77685900D02*
X109728000Y68580000D01*
X76053672Y76962000D02*
X76777572Y77685900D01*
D22*
X34925001Y56186399D02*
X42125000Y56186399D01*
D21*
X62230000Y74676000D02*
X60071000Y76835000D01*
D22*
X34925001Y56186399D02*
X21844000Y56186399D01*
D21*
X60071000Y76835000D02*
X25507000Y76835000D01*
D22*
X21844000Y61528000D02*
X21844000Y56186399D01*
D23*
X109728000Y68580000D02*
X109728000Y62484000D01*
X109728000Y62484000D02*
X107696000Y60452000D01*
D22*
X21844000Y56186399D02*
X17050399Y56186399D01*
D23*
X76777572Y77685900D02*
X100622100Y77685900D01*
D22*
X16022000Y67350000D02*
X21844000Y61528000D01*
D21*
X62230000Y74168000D02*
X62230000Y74676000D01*
D23*
X60071000Y76835000D02*
X60198000Y76962000D01*
D21*
X25507000Y76835000D02*
X16022000Y67350000D01*
D23*
X60198000Y76962000D02*
X76053672Y76962000D01*
X92456000Y63770000D02*
X92456000Y64770000D01*
D22*
X17050399Y56186399D02*
X16022000Y55158000D01*
D23*
X107696000Y60452000D02*
X95774000Y60452000D01*
D22*
G04 #@! TO.N,DFP_SPK1*
X115824000Y38481000D02*
X114554000Y38481000D01*
X119968000Y71374000D02*
X119968000Y42625000D01*
X119968000Y42625000D02*
X115824000Y38481000D01*
G04 #@! TO.N,DFP_SPK2*
X124968000Y71374000D02*
X125730000Y70612000D01*
X117983000Y33401000D02*
X114554000Y33401000D01*
X125730000Y70612000D02*
X125730000Y41148000D01*
X125730000Y41148000D02*
X117983000Y33401000D01*
D24*
G04 #@! TO.N,BUTTON0*
X44069000Y47550400D02*
X42545000Y46026400D01*
X34925001Y46026399D02*
X42545000Y46026400D01*
X34798000Y74168000D02*
X34798000Y69342000D01*
X44069000Y60071000D02*
X44069000Y47550400D01*
X34798000Y69342000D02*
X44069000Y60071000D01*
G04 #@! TO.N,BUTTON1*
X37338000Y68199000D02*
X44881800Y60655200D01*
X42545000Y43486400D02*
X34925001Y43486399D01*
X37338000Y74168000D02*
X37338000Y68199000D01*
X44881800Y60655200D02*
X44881800Y45823200D01*
X44881800Y45823200D02*
X42545000Y43486400D01*
G04 #@! TO.N,BUTTON2*
X39878000Y67056000D02*
X45720000Y61214000D01*
X39878000Y74168000D02*
X39878000Y67056000D01*
X34925001Y40946399D02*
X42545000Y40946400D01*
X45720000Y61214000D02*
X45720000Y44121400D01*
X45720000Y44121400D02*
X42545000Y40946400D01*
G04 #@! TO.N,BUTTON3*
X46532800Y61671200D02*
X46532800Y42394200D01*
X42418000Y65786000D02*
X46532800Y61671200D01*
X46532800Y42394200D02*
X42545000Y38406400D01*
X42418000Y74168000D02*
X42418000Y65786000D01*
X42545000Y38406400D02*
X34925001Y38406399D01*
G04 #@! TO.N,LCD_~{CS}*
X65405000Y18086400D02*
X58928000Y24563400D01*
X58928000Y65659000D02*
X67310000Y74041000D01*
X73024999Y18086399D02*
X65405000Y18086400D01*
X58928000Y24563400D02*
X58928000Y65659000D01*
X67310000Y74041000D02*
X67310000Y74168000D01*
G04 #@! TO.N,LCD_~{RST}*
X59740800Y64058800D02*
X69850000Y74168000D01*
X65405000Y25706400D02*
X73024999Y25706399D01*
X65405000Y25706400D02*
X59740800Y31370600D01*
X59740800Y31370600D02*
X59740800Y64058800D01*
G04 #@! TO.N,LCD_DC*
X64795400Y33502600D02*
X64795400Y33326400D01*
X65352600Y33326400D02*
X65405000Y33326400D01*
X60553600Y38177800D02*
X65405000Y33326400D01*
X60553600Y62331600D02*
X60553600Y38177800D01*
X65405000Y33326400D02*
X73024999Y33326399D01*
X72390000Y74168000D02*
X60553600Y62331600D01*
G04 #@! TO.N,SPI_MOSI*
X74484599Y55083893D02*
X73047105Y53646399D01*
X96500000Y74148000D02*
X92405200Y70053200D01*
X77266800Y76504800D02*
X94163200Y76504800D01*
X74484599Y57854071D02*
X74484599Y55083893D01*
X94163200Y76504800D02*
X96500000Y74168000D01*
X74930000Y74168000D02*
X77266800Y76504800D01*
X73047105Y53646399D02*
X73024999Y53646399D01*
X96500000Y74168000D02*
X96500000Y74148000D01*
X92405200Y70053200D02*
X86683728Y70053200D01*
X86683728Y70053200D02*
X74484599Y57854071D01*
X65405000Y53646400D02*
X73024999Y53646399D01*
G04 #@! TO.N,/LCD_LED*
X80010000Y74168000D02*
X80010000Y66548000D01*
G04 #@! TO.N,SPI_MISO*
X63754000Y38354000D02*
X62179200Y39928800D01*
X82988028Y67506972D02*
X86347056Y70866000D01*
X90678000Y70866000D02*
X93960000Y74148000D01*
X82550000Y67945000D02*
X82988028Y67506972D01*
X62179200Y58997728D02*
X64395472Y61214000D01*
X93960000Y74148000D02*
X93960000Y74168000D01*
X76695056Y61214000D02*
X82988028Y67506972D01*
X64395472Y61214000D02*
X76695056Y61214000D01*
X65405000Y38406400D02*
X65352600Y38354000D01*
X86347056Y70866000D02*
X90678000Y70866000D01*
X82550000Y74168000D02*
X82550000Y67945000D01*
X65405000Y38406400D02*
X73024999Y38406399D01*
X65352600Y38354000D02*
X63754000Y38354000D01*
X62179200Y39928800D02*
X62179200Y58997728D01*
G04 #@! TO.N,ESP32_EN*
X42545000Y53646400D02*
X34925001Y53646399D01*
G04 #@! TO.N,ESP32_SVP*
X34925001Y51106399D02*
X42545000Y51106400D01*
G04 #@! TO.N,ESP32_SVN*
X42545000Y48566400D02*
X34925001Y48566399D01*
G04 #@! TO.N,ESP32_P25*
X34925001Y35866399D02*
X42545000Y35866400D01*
G04 #@! TO.N,ESP32_P26*
X42545000Y33326400D02*
X34925001Y33326399D01*
G04 #@! TO.N,ESP32_P27*
X34925001Y30786399D02*
X42545000Y30786400D01*
G04 #@! TO.N,ESP32_P14*
X34925001Y28246399D02*
X42545000Y28246400D01*
G04 #@! TO.N,ESP32_P12*
X42545000Y25706400D02*
X34925001Y25706399D01*
G04 #@! TO.N,ESP32_P13*
X34925001Y20626399D02*
X42545000Y20626400D01*
G04 #@! TO.N,ESP32_SD2*
X42545000Y18086400D02*
X34925001Y18086399D01*
G04 #@! TO.N,ESP32_SD3*
X34925001Y15546399D02*
X42545000Y15546400D01*
G04 #@! TO.N,ESP32_CMD*
X42545000Y13006400D02*
X34925001Y13006399D01*
G04 #@! TO.N,SCL*
X77419200Y53035200D02*
X77419200Y58489728D01*
X95377000Y67411600D02*
X97536000Y65252600D01*
X65405000Y51106400D02*
X73024999Y51106399D01*
X77419200Y58489728D02*
X86341072Y67411600D01*
X86341072Y67411600D02*
X95377000Y67411600D01*
X73024999Y51106399D02*
X75490399Y51106399D01*
X97536000Y65252600D02*
X97536000Y64770000D01*
X75490399Y51106399D02*
X77419200Y53035200D01*
G04 #@! TO.N,ESP32_TX*
X73024999Y48566399D02*
X65405000Y48566400D01*
G04 #@! TO.N,ESP32_RX*
X65405000Y46026400D02*
X73024999Y46026399D01*
G04 #@! TO.N,SDA*
X78232000Y46863000D02*
X74855399Y43486399D01*
X86677744Y66598800D02*
X78232000Y58153056D01*
X78232000Y58153056D02*
X78232000Y46863000D01*
X93167200Y66598800D02*
X86677744Y66598800D01*
X74855399Y43486399D02*
X73024999Y43486399D01*
X65405000Y43486400D02*
X73024999Y43486399D01*
X94996000Y64770000D02*
X93167200Y66598800D01*
G04 #@! TO.N,SPI_CLK*
X65328800Y62026800D02*
X77470000Y74168000D01*
X61366400Y59334400D02*
X64058800Y62026800D01*
X64058800Y62026800D02*
X65328800Y62026800D01*
X65405000Y35866400D02*
X64717600Y35866400D01*
X89896000Y75692000D02*
X78994000Y75692000D01*
X64717600Y35866400D02*
X61366400Y39217600D01*
X78994000Y75692000D02*
X77470000Y74168000D01*
X77470000Y74168000D02*
X76962000Y74168000D01*
X61366400Y39217600D02*
X61366400Y59334400D01*
X65405000Y35866400D02*
X73024999Y35866399D01*
X91420000Y74168000D02*
X89896000Y75692000D01*
G04 #@! TO.N,MCU_TX*
X65405000Y30786400D02*
X73024999Y30786399D01*
X114427000Y48514000D02*
X102362000Y48514000D01*
X114554000Y48641000D02*
X114427000Y48514000D01*
X84634399Y30786399D02*
X73024999Y30786399D01*
X102362000Y48514000D02*
X84634399Y30786399D01*
G04 #@! TO.N,MCU_RX*
X114554000Y46101000D02*
X101098472Y46101000D01*
X83243871Y28246399D02*
X73024999Y28246399D01*
X65405000Y28246400D02*
X73024999Y28246399D01*
X101098472Y46101000D02*
X83243871Y28246399D01*
G04 #@! TO.N,SD_~{CS}*
X75946000Y58166000D02*
X86004400Y68224400D01*
X77671601Y20626399D02*
X73024999Y20626399D01*
X75946000Y53680634D02*
X75946000Y58166000D01*
X65405000Y20626400D02*
X73024999Y20626399D01*
X94894400Y68224400D02*
X99040000Y72370000D01*
X75890233Y53624867D02*
X75946000Y53680634D01*
X86004400Y68224400D02*
X94894400Y68224400D01*
X99040000Y72370000D02*
X99040000Y74168000D01*
X77724000Y20574000D02*
X77671601Y20626399D01*
G04 #@! TO.N,ESP32_P0*
X65405000Y23166400D02*
X73024999Y23166399D01*
G04 #@! TO.N,ESP32_SD1*
X65405000Y15546400D02*
X73024999Y15546399D01*
G04 #@! TO.N,ESP32_SD0*
X73024999Y13006399D02*
X65405000Y13006400D01*
G04 #@! TO.N,ESP32_CLK*
X65405000Y10466400D02*
X73024999Y10466399D01*
G04 #@! TO.N,Net-(J10-Pin_2)*
X131953000Y56388000D02*
X130810000Y55245000D01*
X130810000Y55245000D02*
X130810000Y45339000D01*
X130810000Y45339000D02*
X132588000Y43561000D01*
G04 #@! TO.N,Net-(J10-Pin_1)*
X132588000Y41021000D02*
X129413000Y44196000D01*
X129413000Y44196000D02*
X129413000Y56388000D01*
G04 #@! TO.N,Net-(J11-Pin_1)*
X126111000Y26924000D02*
X132588000Y33401000D01*
X111252000Y26924000D02*
X126111000Y26924000D01*
G04 #@! TO.N,Net-(J11-Pin_2)*
X125984000Y24384000D02*
X134047600Y32447600D01*
X111252000Y24384000D02*
X125984000Y24384000D01*
X134047600Y37021400D02*
X132588000Y38481000D01*
X134047600Y32447600D02*
X134047600Y37021400D01*
G04 #@! TD*
G04 #@! TA.AperFunction,Conductor*
G04 #@! TO.N,GND*
G36*
X75778012Y78415015D02*
G01*
X75823767Y78362211D01*
X75833711Y78293053D01*
X75804686Y78229497D01*
X75798668Y78223034D01*
X75645953Y78070318D01*
X75584632Y78036834D01*
X75558274Y78034000D01*
X60491807Y78034000D01*
X60448237Y78041907D01*
X60408229Y78056922D01*
X60408232Y78056922D01*
X60403778Y78057730D01*
X60384986Y78062691D01*
X60380733Y78064179D01*
X60380722Y78064182D01*
X60312133Y78075046D01*
X60282488Y78079741D01*
X60261708Y78083512D01*
X60184631Y78097500D01*
X60184627Y78097500D01*
X60180120Y78097500D01*
X60160733Y78099026D01*
X60156271Y78099732D01*
X60156265Y78099732D01*
X60056819Y78097500D01*
X25581385Y78097500D01*
X25574446Y78097890D01*
X25550863Y78100547D01*
X25535446Y78102284D01*
X25535438Y78102285D01*
X25466575Y78097641D01*
X25462402Y78097500D01*
X25450294Y78097500D01*
X25407924Y78093687D01*
X25308710Y78086997D01*
X25308697Y78086995D01*
X25304318Y78085892D01*
X25285165Y78082638D01*
X25280664Y78082233D01*
X25280658Y78082232D01*
X25184770Y78055770D01*
X25088339Y78031470D01*
X25088337Y78031469D01*
X25084222Y78029601D01*
X25065949Y78022976D01*
X25061596Y78021775D01*
X24971989Y77978622D01*
X24881425Y77937486D01*
X24877708Y77934911D01*
X24860912Y77925131D01*
X24856851Y77923176D01*
X24856845Y77923172D01*
X24776386Y77864714D01*
X24694627Y77808073D01*
X24691423Y77804869D01*
X24676651Y77792254D01*
X24673006Y77789606D01*
X24672994Y77789596D01*
X24604261Y77717707D01*
X18133681Y71247128D01*
X18072358Y71213643D01*
X18002666Y71218627D01*
X17946733Y71260499D01*
X17922316Y71325963D01*
X17922000Y71334809D01*
X17922000Y71943600D01*
X16597152Y71943600D01*
X16602320Y71949434D01*
X16681318Y72099954D01*
X16722000Y72265005D01*
X16722000Y72434995D01*
X16681318Y72600046D01*
X16602320Y72750566D01*
X16597152Y72756400D01*
X17922000Y72756400D01*
X17922000Y73797828D01*
X17921999Y73797845D01*
X17915598Y73857373D01*
X17915596Y73857380D01*
X17865354Y73992087D01*
X17865350Y73992094D01*
X17779190Y74107188D01*
X17779187Y74107191D01*
X17664093Y74193351D01*
X17664086Y74193355D01*
X17529379Y74243597D01*
X17529372Y74243599D01*
X17469844Y74250000D01*
X16428400Y74250000D01*
X16428400Y72920046D01*
X16349695Y72974371D01*
X16190751Y73034651D01*
X16064340Y73050000D01*
X15979660Y73050000D01*
X15853249Y73034651D01*
X15694305Y72974371D01*
X15615600Y72920046D01*
X15615600Y74250000D01*
X14574155Y74250000D01*
X14514627Y74243599D01*
X14514620Y74243597D01*
X14379913Y74193355D01*
X14379906Y74193351D01*
X14264812Y74107191D01*
X14264809Y74107188D01*
X14178649Y73992094D01*
X14178645Y73992087D01*
X14128403Y73857380D01*
X14128401Y73857373D01*
X14122000Y73797845D01*
X14122000Y72756400D01*
X15446848Y72756400D01*
X15441680Y72750566D01*
X15362682Y72600046D01*
X15322000Y72434995D01*
X15322000Y72265005D01*
X15362682Y72099954D01*
X15441680Y71949434D01*
X15446848Y71943600D01*
X14122000Y71943600D01*
X14122000Y70902156D01*
X14128401Y70842628D01*
X14128403Y70842621D01*
X14178645Y70707914D01*
X14178649Y70707907D01*
X14264809Y70592813D01*
X14264812Y70592810D01*
X14379906Y70506650D01*
X14379913Y70506646D01*
X14514620Y70456404D01*
X14514627Y70456402D01*
X14574155Y70450001D01*
X14574172Y70450000D01*
X15615600Y70450000D01*
X15615600Y71779955D01*
X15694305Y71725629D01*
X15853249Y71665349D01*
X15979660Y71650000D01*
X16064340Y71650000D01*
X16190751Y71665349D01*
X16349695Y71725629D01*
X16428400Y71779955D01*
X16428400Y70450000D01*
X17037192Y70450000D01*
X17104231Y70430315D01*
X17149986Y70377511D01*
X17159930Y70308353D01*
X17130905Y70244797D01*
X17124873Y70238319D01*
X16173948Y69287395D01*
X16112625Y69253910D01*
X16077423Y69251392D01*
X16022003Y69255355D01*
X16021999Y69255355D01*
X15750839Y69235961D01*
X15750832Y69235960D01*
X15485206Y69178177D01*
X15485202Y69178176D01*
X15485199Y69178175D01*
X15380969Y69139299D01*
X15230480Y69083170D01*
X14991892Y68952891D01*
X14991891Y68952890D01*
X14774259Y68789972D01*
X14774247Y68789962D01*
X14582038Y68597753D01*
X14582028Y68597741D01*
X14419110Y68380109D01*
X14419109Y68380108D01*
X14288830Y68141520D01*
X14246139Y68027061D01*
X14193825Y67886801D01*
X14193824Y67886798D01*
X14193823Y67886794D01*
X14136040Y67621168D01*
X14136039Y67621161D01*
X14116645Y67350002D01*
X14116645Y67349999D01*
X14136039Y67078840D01*
X14136040Y67078833D01*
X14193823Y66813207D01*
X14193825Y66813199D01*
X14240442Y66688215D01*
X14288830Y66558481D01*
X14419109Y66319893D01*
X14419110Y66319892D01*
X14419113Y66319887D01*
X14582029Y66102258D01*
X14582033Y66102254D01*
X14582038Y66102248D01*
X14774247Y65910039D01*
X14774253Y65910034D01*
X14774258Y65910029D01*
X14991887Y65747113D01*
X14991891Y65747111D01*
X14991891Y65747110D01*
X15230487Y65616828D01*
X15238413Y65613872D01*
X15282766Y65585369D01*
X20037181Y60830954D01*
X20070666Y60769631D01*
X20073500Y60743273D01*
X20073500Y58080899D01*
X20053815Y58013860D01*
X20001011Y57968105D01*
X19949500Y57956899D01*
X17083530Y57956899D01*
X16984011Y57960624D01*
X16885071Y57949475D01*
X16785785Y57942036D01*
X16785782Y57942035D01*
X16756745Y57935409D01*
X16749891Y57934245D01*
X16720321Y57930912D01*
X16720319Y57930912D01*
X16624150Y57905143D01*
X16527072Y57882986D01*
X16499364Y57872112D01*
X16492759Y57869938D01*
X16464003Y57862232D01*
X16463998Y57862231D01*
X16372735Y57822413D01*
X16280047Y57786036D01*
X16280046Y57786035D01*
X16254268Y57771152D01*
X16248060Y57768018D01*
X16220787Y57756119D01*
X16220782Y57756116D01*
X16220780Y57756115D01*
X16136473Y57703142D01*
X16050242Y57653356D01*
X16026973Y57634801D01*
X16021302Y57630777D01*
X15996103Y57614943D01*
X15996096Y57614938D01*
X15920622Y57549988D01*
X15842778Y57487909D01*
X15842776Y57487908D01*
X15842776Y57487907D01*
X15785793Y57426494D01*
X15775045Y57414911D01*
X15282764Y56922631D01*
X15238420Y56894131D01*
X15230485Y56891172D01*
X14991897Y56760894D01*
X14991891Y56760890D01*
X14774259Y56597972D01*
X14774247Y56597962D01*
X14582038Y56405753D01*
X14582028Y56405741D01*
X14419110Y56188109D01*
X14419109Y56188108D01*
X14288830Y55949520D01*
X14246848Y55836960D01*
X14193825Y55694801D01*
X14193824Y55694798D01*
X14193823Y55694794D01*
X14136040Y55429168D01*
X14136039Y55429161D01*
X14116645Y55158002D01*
X14116645Y55157999D01*
X14136039Y54886840D01*
X14136040Y54886833D01*
X14189710Y54640115D01*
X14193825Y54621199D01*
X14232391Y54517801D01*
X14288830Y54366481D01*
X14419109Y54127893D01*
X14419110Y54127892D01*
X14419113Y54127887D01*
X14582029Y53910258D01*
X14582033Y53910254D01*
X14582038Y53910248D01*
X14774247Y53718039D01*
X14774253Y53718034D01*
X14774258Y53718029D01*
X14991887Y53555113D01*
X14991891Y53555111D01*
X14991892Y53555110D01*
X15230481Y53424831D01*
X15230480Y53424831D01*
X15230484Y53424830D01*
X15230487Y53424828D01*
X15485199Y53329825D01*
X15750840Y53272039D01*
X16002605Y53254033D01*
X16021999Y53252645D01*
X16022000Y53252645D01*
X16022001Y53252645D01*
X16040100Y53253940D01*
X16293160Y53272039D01*
X16558801Y53329825D01*
X16813513Y53424828D01*
X16813517Y53424831D01*
X16813519Y53424831D01*
X16932813Y53489971D01*
X17052113Y53555113D01*
X17269742Y53718029D01*
X17461971Y53910258D01*
X17624887Y54127887D01*
X17732097Y54324228D01*
X17746894Y54351326D01*
X17796299Y54400731D01*
X17855726Y54415899D01*
X21711319Y54415899D01*
X21777745Y54415899D01*
X33599072Y54415899D01*
X33666111Y54396214D01*
X33711866Y54343410D01*
X33721810Y54274252D01*
X33711454Y54239494D01*
X33651098Y54110064D01*
X33651095Y54110055D01*
X33589939Y53881813D01*
X33589937Y53881803D01*
X33569342Y53646400D01*
X33569342Y53646399D01*
X33589937Y53410996D01*
X33589939Y53410986D01*
X33651095Y53182744D01*
X33651097Y53182740D01*
X33651098Y53182736D01*
X33656033Y53172153D01*
X33750966Y52968569D01*
X33750968Y52968565D01*
X33859282Y52813878D01*
X33886505Y52774999D01*
X33886507Y52774997D01*
X34053598Y52607906D01*
X34053604Y52607901D01*
X34239159Y52477974D01*
X34282784Y52423397D01*
X34289978Y52353899D01*
X34258455Y52291544D01*
X34239159Y52274824D01*
X34053598Y52144894D01*
X33886506Y51977802D01*
X33750966Y51784230D01*
X33750965Y51784228D01*
X33657402Y51583583D01*
X33651099Y51570063D01*
X33651095Y51570055D01*
X33589939Y51341813D01*
X33589937Y51341803D01*
X33569342Y51106400D01*
X33569342Y51106399D01*
X33589937Y50870996D01*
X33589939Y50870986D01*
X33651095Y50642744D01*
X33651097Y50642740D01*
X33651098Y50642736D01*
X33737879Y50456634D01*
X33750966Y50428569D01*
X33750968Y50428565D01*
X33834270Y50309599D01*
X33886505Y50234999D01*
X33886507Y50234997D01*
X34053598Y50067906D01*
X34053604Y50067901D01*
X34239159Y49937974D01*
X34282784Y49883397D01*
X34289978Y49813899D01*
X34258455Y49751544D01*
X34239159Y49734824D01*
X34053598Y49604894D01*
X33886506Y49437802D01*
X33750966Y49244230D01*
X33750965Y49244228D01*
X33674872Y49081046D01*
X33651099Y49030063D01*
X33651095Y49030055D01*
X33589939Y48801813D01*
X33589937Y48801803D01*
X33569342Y48566400D01*
X33569342Y48566399D01*
X33589937Y48330996D01*
X33589939Y48330986D01*
X33651095Y48102744D01*
X33651097Y48102740D01*
X33651098Y48102736D01*
X33716179Y47963170D01*
X33750966Y47888569D01*
X33750968Y47888565D01*
X33834270Y47769599D01*
X33886505Y47694999D01*
X33886507Y47694997D01*
X34053598Y47527906D01*
X34053604Y47527901D01*
X34239159Y47397974D01*
X34282784Y47343397D01*
X34289978Y47273899D01*
X34258455Y47211544D01*
X34239159Y47194824D01*
X34053598Y47064894D01*
X33886506Y46897802D01*
X33750966Y46704230D01*
X33750965Y46704228D01*
X33658344Y46505601D01*
X33651099Y46490063D01*
X33651095Y46490055D01*
X33589939Y46261813D01*
X33589937Y46261803D01*
X33569342Y46026400D01*
X33569342Y46026399D01*
X33589937Y45790996D01*
X33589939Y45790986D01*
X33651095Y45562744D01*
X33651097Y45562740D01*
X33651098Y45562736D01*
X33716179Y45423170D01*
X33750966Y45348569D01*
X33750968Y45348565D01*
X33834270Y45229599D01*
X33886505Y45154999D01*
X33886507Y45154997D01*
X34053598Y44987906D01*
X34053604Y44987901D01*
X34239159Y44857974D01*
X34282784Y44803397D01*
X34289978Y44733899D01*
X34258455Y44671544D01*
X34239159Y44654824D01*
X34053598Y44524894D01*
X33886506Y44357802D01*
X33750966Y44164230D01*
X33750965Y44164228D01*
X33672572Y43996113D01*
X33651099Y43950063D01*
X33651095Y43950055D01*
X33589939Y43721813D01*
X33589937Y43721803D01*
X33569342Y43486400D01*
X33569342Y43486399D01*
X33589937Y43250996D01*
X33589939Y43250986D01*
X33651095Y43022744D01*
X33651097Y43022740D01*
X33651098Y43022736D01*
X33737879Y42836634D01*
X33750966Y42808569D01*
X33750968Y42808565D01*
X33834270Y42689599D01*
X33886505Y42614999D01*
X33886507Y42614997D01*
X34053598Y42447906D01*
X34053604Y42447901D01*
X34239159Y42317974D01*
X34282784Y42263397D01*
X34289978Y42193899D01*
X34258455Y42131544D01*
X34239159Y42114824D01*
X34053598Y41984894D01*
X33886506Y41817802D01*
X33750966Y41624230D01*
X33750965Y41624228D01*
X33651099Y41410064D01*
X33651095Y41410055D01*
X33589939Y41181813D01*
X33589937Y41181803D01*
X33569342Y40946400D01*
X33569342Y40946399D01*
X33589937Y40710996D01*
X33589939Y40710986D01*
X33651095Y40482744D01*
X33651097Y40482740D01*
X33651098Y40482736D01*
X33716179Y40343170D01*
X33750966Y40268569D01*
X33750968Y40268565D01*
X33834270Y40149599D01*
X33886505Y40074999D01*
X33886507Y40074997D01*
X34053598Y39907906D01*
X34053604Y39907901D01*
X34239159Y39777974D01*
X34282784Y39723397D01*
X34289978Y39653899D01*
X34258455Y39591544D01*
X34239159Y39574824D01*
X34053598Y39444894D01*
X33886506Y39277802D01*
X33750966Y39084230D01*
X33750965Y39084228D01*
X33685886Y38944665D01*
X33653902Y38876074D01*
X33651099Y38870064D01*
X33651095Y38870055D01*
X33589939Y38641813D01*
X33589937Y38641803D01*
X33569342Y38406400D01*
X33569342Y38406399D01*
X33589937Y38170996D01*
X33589939Y38170986D01*
X33651095Y37942744D01*
X33651097Y37942740D01*
X33651098Y37942736D01*
X33716179Y37803170D01*
X33750966Y37728569D01*
X33750968Y37728565D01*
X33845700Y37593275D01*
X33886505Y37534999D01*
X33886507Y37534997D01*
X34053598Y37367906D01*
X34053604Y37367901D01*
X34239159Y37237974D01*
X34282784Y37183397D01*
X34289978Y37113899D01*
X34258455Y37051544D01*
X34239159Y37034824D01*
X34053598Y36904894D01*
X33886506Y36737802D01*
X33750966Y36544230D01*
X33750965Y36544228D01*
X33685806Y36404493D01*
X33651099Y36330063D01*
X33651095Y36330055D01*
X33589939Y36101813D01*
X33589937Y36101803D01*
X33569342Y35866400D01*
X33569342Y35866399D01*
X33589937Y35630996D01*
X33589939Y35630986D01*
X33651095Y35402744D01*
X33651097Y35402740D01*
X33651098Y35402736D01*
X33691029Y35317105D01*
X33750966Y35188569D01*
X33750968Y35188565D01*
X33831188Y35074000D01*
X33886505Y34994999D01*
X33886507Y34994997D01*
X34053598Y34827906D01*
X34053604Y34827901D01*
X34239159Y34697974D01*
X34282784Y34643397D01*
X34289978Y34573899D01*
X34258455Y34511544D01*
X34239159Y34494824D01*
X34053598Y34364894D01*
X33886506Y34197802D01*
X33750966Y34004230D01*
X33750965Y34004228D01*
X33690239Y33874000D01*
X33651099Y33790063D01*
X33651095Y33790055D01*
X33589939Y33561813D01*
X33589937Y33561803D01*
X33569342Y33326400D01*
X33569342Y33326399D01*
X33589937Y33090996D01*
X33589939Y33090986D01*
X33651095Y32862744D01*
X33651097Y32862740D01*
X33651098Y32862736D01*
X33736610Y32679355D01*
X33750966Y32648569D01*
X33750968Y32648565D01*
X33845700Y32513275D01*
X33886505Y32454999D01*
X33886507Y32454997D01*
X34053598Y32287906D01*
X34053604Y32287901D01*
X34239159Y32157974D01*
X34282784Y32103397D01*
X34289978Y32033899D01*
X34258455Y31971544D01*
X34239159Y31954824D01*
X34053598Y31824894D01*
X33886506Y31657802D01*
X33750966Y31464230D01*
X33750965Y31464228D01*
X33679421Y31310801D01*
X33651099Y31250063D01*
X33651095Y31250055D01*
X33589939Y31021813D01*
X33589937Y31021803D01*
X33569342Y30786400D01*
X33569342Y30786399D01*
X33589937Y30550996D01*
X33589939Y30550986D01*
X33651095Y30322744D01*
X33651097Y30322740D01*
X33651098Y30322736D01*
X33683992Y30252195D01*
X33750966Y30108569D01*
X33750968Y30108565D01*
X33839250Y29982487D01*
X33886505Y29914999D01*
X33886507Y29914997D01*
X34053598Y29747906D01*
X34053604Y29747901D01*
X34239159Y29617974D01*
X34282784Y29563397D01*
X34289978Y29493899D01*
X34258455Y29431544D01*
X34239159Y29414824D01*
X34053598Y29284894D01*
X33886506Y29117802D01*
X33750966Y28924230D01*
X33750965Y28924228D01*
X33657402Y28723583D01*
X33651099Y28710063D01*
X33651095Y28710055D01*
X33589939Y28481813D01*
X33589937Y28481803D01*
X33569342Y28246400D01*
X33569342Y28246399D01*
X33589937Y28010996D01*
X33589939Y28010986D01*
X33651095Y27782744D01*
X33651097Y27782740D01*
X33651098Y27782736D01*
X33737879Y27596634D01*
X33750966Y27568569D01*
X33750968Y27568565D01*
X33859282Y27413878D01*
X33886505Y27374999D01*
X33886507Y27374997D01*
X34053598Y27207906D01*
X34053604Y27207901D01*
X34239159Y27077974D01*
X34282784Y27023397D01*
X34289978Y26953899D01*
X34258455Y26891544D01*
X34239159Y26874824D01*
X34053598Y26744894D01*
X33886506Y26577802D01*
X33750966Y26384230D01*
X33750965Y26384228D01*
X33672718Y26216426D01*
X33651099Y26170063D01*
X33651095Y26170055D01*
X33589939Y25941813D01*
X33589937Y25941803D01*
X33569342Y25706400D01*
X33569342Y25706399D01*
X33589937Y25470996D01*
X33589939Y25470986D01*
X33651095Y25242744D01*
X33651097Y25242740D01*
X33651098Y25242736D01*
X33722071Y25090534D01*
X33750966Y25028569D01*
X33750968Y25028565D01*
X33836619Y24906244D01*
X33886506Y24834998D01*
X34053600Y24667904D01*
X34175162Y24582785D01*
X34239595Y24537669D01*
X34283220Y24483092D01*
X34290414Y24413594D01*
X34258891Y24351239D01*
X34239596Y24334519D01*
X34053923Y24204509D01*
X34053921Y24204508D01*
X33886892Y24037479D01*
X33886887Y24037473D01*
X33751401Y23843979D01*
X33751400Y23843977D01*
X33651569Y23629890D01*
X33651568Y23629886D01*
X33636273Y23572800D01*
X33636273Y23572799D01*
X34630491Y23572799D01*
X34543240Y23497197D01*
X34465508Y23376243D01*
X34425001Y23238288D01*
X34425001Y23094510D01*
X34465508Y22956555D01*
X34543240Y22835601D01*
X34630491Y22759999D01*
X33636273Y22759999D01*
X33651568Y22702913D01*
X33651569Y22702909D01*
X33751400Y22488821D01*
X33886895Y22295317D01*
X34053918Y22128294D01*
X34239596Y21998280D01*
X34283220Y21943703D01*
X34290413Y21874204D01*
X34258891Y21811850D01*
X34239596Y21795130D01*
X34053595Y21664891D01*
X33886506Y21497802D01*
X33750966Y21304230D01*
X33750965Y21304228D01*
X33719894Y21237595D01*
X33651099Y21090063D01*
X33651095Y21090055D01*
X33589939Y20861813D01*
X33589937Y20861803D01*
X33569342Y20626400D01*
X33569342Y20626399D01*
X33589937Y20390996D01*
X33589939Y20390986D01*
X33651095Y20162744D01*
X33651097Y20162740D01*
X33651098Y20162736D01*
X33691539Y20076010D01*
X33750966Y19948569D01*
X33750968Y19948565D01*
X33834170Y19829741D01*
X33886505Y19754999D01*
X33886507Y19754997D01*
X34053598Y19587906D01*
X34053604Y19587901D01*
X34239159Y19457974D01*
X34282784Y19403397D01*
X34289978Y19333899D01*
X34258455Y19271544D01*
X34239159Y19254824D01*
X34053598Y19124894D01*
X33886506Y18957802D01*
X33750966Y18764230D01*
X33750965Y18764228D01*
X33665846Y18581690D01*
X33651099Y18550063D01*
X33651095Y18550055D01*
X33589939Y18321813D01*
X33589937Y18321803D01*
X33569342Y18086400D01*
X33569342Y18086399D01*
X33589937Y17850996D01*
X33589939Y17850986D01*
X33651095Y17622744D01*
X33651097Y17622740D01*
X33651098Y17622736D01*
X33684136Y17551887D01*
X33750966Y17408569D01*
X33750968Y17408565D01*
X33859282Y17253878D01*
X33886505Y17214999D01*
X33886507Y17214997D01*
X34053598Y17047906D01*
X34053604Y17047901D01*
X34239159Y16917974D01*
X34282784Y16863397D01*
X34289978Y16793899D01*
X34258455Y16731544D01*
X34239159Y16714824D01*
X34053598Y16584894D01*
X33886506Y16417802D01*
X33750966Y16224230D01*
X33750965Y16224228D01*
X33669008Y16048470D01*
X33651099Y16010063D01*
X33651095Y16010055D01*
X33589939Y15781813D01*
X33589937Y15781803D01*
X33569342Y15546400D01*
X33569342Y15546399D01*
X33589937Y15310996D01*
X33589939Y15310986D01*
X33651095Y15082744D01*
X33651097Y15082740D01*
X33651098Y15082736D01*
X33696207Y14986000D01*
X33750966Y14868569D01*
X33750968Y14868565D01*
X33820677Y14769011D01*
X33886505Y14674999D01*
X33886507Y14674997D01*
X34053598Y14507906D01*
X34053604Y14507901D01*
X34239159Y14377974D01*
X34282784Y14323397D01*
X34289978Y14253899D01*
X34258455Y14191544D01*
X34239159Y14174824D01*
X34053597Y14044893D01*
X34018542Y14009838D01*
X33957219Y13976353D01*
X33887527Y13981339D01*
X33863820Y13993206D01*
X33861702Y13994568D01*
X33730829Y14054337D01*
X33663792Y14074022D01*
X33663786Y14074024D01*
X33578333Y14086310D01*
X33521367Y14094500D01*
X23024823Y14094500D01*
X22997784Y14093051D01*
X22997776Y14093051D01*
X22997773Y14093050D01*
X22997772Y14093050D01*
X22957964Y14088769D01*
X22904554Y14080115D01*
X22904552Y14080115D01*
X22769747Y14029834D01*
X22769744Y14029833D01*
X22769743Y14029832D01*
X22759404Y14024187D01*
X22708422Y13996349D01*
X22593240Y13910124D01*
X22593228Y13910114D01*
X17860935Y9177819D01*
X17799612Y9144334D01*
X17773254Y9141500D01*
X16420822Y9141500D01*
X16393782Y9140050D01*
X16368981Y9137384D01*
X16353961Y9135769D01*
X16353962Y9135769D01*
X16300561Y9127116D01*
X16300555Y9127115D01*
X16165759Y9076840D01*
X16165748Y9076835D01*
X16104441Y9043359D01*
X16104423Y9043350D01*
X15989249Y8957133D01*
X15989238Y8957123D01*
X15873942Y8841828D01*
X15806141Y8757694D01*
X15806130Y8757679D01*
X15777640Y8713348D01*
X15777639Y8713347D01*
X15729260Y8616695D01*
X15729257Y8616688D01*
X15698679Y8476117D01*
X15698678Y8476105D01*
X15693694Y8406415D01*
X15693694Y8406410D01*
X15696091Y8372889D01*
X15681238Y8304617D01*
X15631832Y8255212D01*
X15598765Y8242879D01*
X15485205Y8218176D01*
X15485200Y8218175D01*
X15485199Y8218174D01*
X15427942Y8196818D01*
X15351527Y8168317D01*
X15308194Y8160499D01*
X14460728Y8160499D01*
X14393689Y8180184D01*
X14373047Y8196818D01*
X14252819Y8317046D01*
X14219334Y8378369D01*
X14216500Y8404727D01*
X14216500Y9429001D01*
X14236185Y9496040D01*
X14288989Y9541795D01*
X14358147Y9551739D01*
X14383833Y9545183D01*
X14514620Y9496403D01*
X14514627Y9496401D01*
X14574155Y9490000D01*
X14574172Y9489999D01*
X15615600Y9489999D01*
X15615600Y10819954D01*
X15694305Y10765628D01*
X15853249Y10705348D01*
X15979660Y10689999D01*
X16064340Y10689999D01*
X16190751Y10705348D01*
X16349695Y10765628D01*
X16428400Y10819954D01*
X16428400Y9489999D01*
X17469828Y9489999D01*
X17469844Y9490000D01*
X17529372Y9496401D01*
X17529379Y9496403D01*
X17664086Y9546645D01*
X17664093Y9546649D01*
X17779187Y9632809D01*
X17779190Y9632812D01*
X17865350Y9747906D01*
X17865354Y9747913D01*
X17915596Y9882620D01*
X17915598Y9882627D01*
X17921999Y9942155D01*
X17922000Y9942172D01*
X17922000Y10983599D01*
X16597152Y10983599D01*
X16602320Y10989433D01*
X16681318Y11139953D01*
X16722000Y11305004D01*
X16722000Y11474994D01*
X16681318Y11640045D01*
X16602320Y11790565D01*
X16597152Y11796399D01*
X17922000Y11796399D01*
X17922000Y12837827D01*
X17921999Y12837844D01*
X17915598Y12897372D01*
X17915596Y12897379D01*
X17865354Y13032086D01*
X17865350Y13032093D01*
X17779190Y13147187D01*
X17779187Y13147190D01*
X17664093Y13233350D01*
X17664086Y13233354D01*
X17529379Y13283596D01*
X17529372Y13283598D01*
X17469844Y13289999D01*
X16428400Y13289999D01*
X16428400Y11960045D01*
X16349695Y12014370D01*
X16190751Y12074650D01*
X16064340Y12089999D01*
X15979660Y12089999D01*
X15853249Y12074650D01*
X15694305Y12014370D01*
X15615600Y11960045D01*
X15615600Y13289999D01*
X14574155Y13289999D01*
X14514627Y13283598D01*
X14514619Y13283596D01*
X14383833Y13234816D01*
X14314141Y13229832D01*
X14252818Y13263318D01*
X14219334Y13324641D01*
X14216500Y13350998D01*
X14216500Y16687500D01*
X14236185Y16754539D01*
X14288989Y16800294D01*
X14340500Y16811500D01*
X15288194Y16811500D01*
X15331527Y16803682D01*
X15340611Y16800294D01*
X15465199Y16753825D01*
X15465202Y16753825D01*
X15465203Y16753824D01*
X15553746Y16734563D01*
X15730840Y16696039D01*
X15982605Y16678033D01*
X16001999Y16676645D01*
X16002000Y16676645D01*
X16002001Y16676645D01*
X16020100Y16677940D01*
X16273160Y16696039D01*
X16538801Y16753825D01*
X16793513Y16848828D01*
X16793517Y16848831D01*
X16793519Y16848831D01*
X17012658Y16968490D01*
X17032113Y16979113D01*
X17249742Y17142029D01*
X17441971Y17334258D01*
X17604887Y17551887D01*
X17735172Y17790487D01*
X17830175Y18045199D01*
X17887961Y18310840D01*
X17907355Y18582000D01*
X17887961Y18853160D01*
X17830175Y19118801D01*
X17735172Y19373513D01*
X17735170Y19373516D01*
X17735169Y19373520D01*
X17604890Y19612108D01*
X17604889Y19612109D01*
X17604887Y19612113D01*
X17441971Y19829742D01*
X17441966Y19829747D01*
X17441961Y19829753D01*
X17249752Y20021962D01*
X17249746Y20021967D01*
X17249742Y20021971D01*
X17032113Y20184887D01*
X17032108Y20184890D01*
X17032107Y20184891D01*
X16793518Y20315170D01*
X16793519Y20315170D01*
X16743920Y20333670D01*
X16538801Y20410175D01*
X16538794Y20410177D01*
X16538793Y20410177D01*
X16273167Y20467960D01*
X16273160Y20467961D01*
X16002001Y20487355D01*
X16001999Y20487355D01*
X15730839Y20467961D01*
X15730832Y20467960D01*
X15465203Y20410177D01*
X15331527Y20360318D01*
X15288194Y20352500D01*
X14340500Y20352500D01*
X14273461Y20372185D01*
X14227706Y20424989D01*
X14216500Y20476500D01*
X14216500Y21613543D01*
X14236185Y21680582D01*
X14288989Y21726337D01*
X14358147Y21736281D01*
X14383834Y21729725D01*
X14494623Y21688403D01*
X14494627Y21688402D01*
X14554155Y21682001D01*
X14554172Y21682000D01*
X15595600Y21682000D01*
X15595600Y23011955D01*
X15674305Y22957629D01*
X15833249Y22897349D01*
X15959660Y22882000D01*
X16044340Y22882000D01*
X16170751Y22897349D01*
X16329695Y22957629D01*
X16408400Y23011955D01*
X16408400Y21682000D01*
X17449828Y21682000D01*
X17449844Y21682001D01*
X17509372Y21688402D01*
X17509379Y21688404D01*
X17644086Y21738646D01*
X17644093Y21738650D01*
X17759187Y21824810D01*
X17759190Y21824813D01*
X17845350Y21939907D01*
X17845354Y21939914D01*
X17895596Y22074621D01*
X17895598Y22074628D01*
X17901999Y22134156D01*
X17902000Y22134173D01*
X17902000Y23175600D01*
X16577152Y23175600D01*
X16582320Y23181434D01*
X16661318Y23331954D01*
X16702000Y23497005D01*
X16702000Y23666995D01*
X16661318Y23832046D01*
X16582320Y23982566D01*
X16577152Y23988400D01*
X17902000Y23988400D01*
X17902000Y25029828D01*
X17901999Y25029845D01*
X17895598Y25089373D01*
X17895596Y25089380D01*
X17845354Y25224087D01*
X17845350Y25224094D01*
X17759190Y25339188D01*
X17759187Y25339191D01*
X17644093Y25425351D01*
X17644086Y25425355D01*
X17509379Y25475597D01*
X17509372Y25475599D01*
X17449844Y25482000D01*
X16408400Y25482000D01*
X16408400Y24152046D01*
X16329695Y24206371D01*
X16170751Y24266651D01*
X16044340Y24282000D01*
X15959660Y24282000D01*
X15833249Y24266651D01*
X15674305Y24206371D01*
X15595600Y24152046D01*
X15595600Y25482000D01*
X14554155Y25482000D01*
X14494627Y25475599D01*
X14494620Y25475597D01*
X14383833Y25434276D01*
X14314141Y25429292D01*
X14252818Y25462777D01*
X14219334Y25524101D01*
X14216500Y25550458D01*
X14216500Y28879500D01*
X14236185Y28946539D01*
X14288989Y28992294D01*
X14340500Y29003500D01*
X15308194Y29003500D01*
X15351527Y28995682D01*
X15360611Y28992294D01*
X15485199Y28945825D01*
X15485202Y28945825D01*
X15485203Y28945824D01*
X15573746Y28926563D01*
X15750840Y28888039D01*
X16002605Y28870033D01*
X16021999Y28868645D01*
X16022000Y28868645D01*
X16022001Y28868645D01*
X16040100Y28869940D01*
X16293160Y28888039D01*
X16558801Y28945825D01*
X16813513Y29040828D01*
X16813517Y29040831D01*
X16813519Y29040831D01*
X16954486Y29117805D01*
X17052113Y29171113D01*
X17269742Y29334029D01*
X17461971Y29526258D01*
X17624887Y29743887D01*
X17755172Y29982487D01*
X17850175Y30237199D01*
X17907961Y30502840D01*
X17927355Y30774000D01*
X17907961Y31045160D01*
X17850175Y31310801D01*
X17755172Y31565513D01*
X17755170Y31565516D01*
X17755169Y31565520D01*
X17624890Y31804108D01*
X17624889Y31804109D01*
X17624887Y31804113D01*
X17461971Y32021742D01*
X17461966Y32021747D01*
X17461961Y32021753D01*
X17269752Y32213962D01*
X17269746Y32213967D01*
X17269742Y32213971D01*
X17052113Y32376887D01*
X17052108Y32376890D01*
X17052107Y32376891D01*
X16813518Y32507170D01*
X16813519Y32507170D01*
X16763920Y32525670D01*
X16558801Y32602175D01*
X16558794Y32602177D01*
X16558793Y32602177D01*
X16293167Y32659960D01*
X16293160Y32659961D01*
X16022001Y32679355D01*
X16021999Y32679355D01*
X15750839Y32659961D01*
X15750832Y32659960D01*
X15485203Y32602177D01*
X15351527Y32552318D01*
X15308194Y32544500D01*
X14340500Y32544500D01*
X14273461Y32564185D01*
X14227706Y32616989D01*
X14216500Y32668500D01*
X14216500Y33813002D01*
X14236185Y33880041D01*
X14288989Y33925796D01*
X14358147Y33935740D01*
X14383833Y33929184D01*
X14514620Y33880404D01*
X14514627Y33880402D01*
X14574155Y33874001D01*
X14574172Y33874000D01*
X15615600Y33874000D01*
X15615600Y35203955D01*
X15694305Y35149629D01*
X15853249Y35089349D01*
X15979660Y35074000D01*
X16064340Y35074000D01*
X16190751Y35089349D01*
X16349695Y35149629D01*
X16428400Y35203955D01*
X16428400Y33874000D01*
X17469828Y33874000D01*
X17469844Y33874001D01*
X17529372Y33880402D01*
X17529379Y33880404D01*
X17664086Y33930646D01*
X17664093Y33930650D01*
X17779187Y34016810D01*
X17779190Y34016813D01*
X17865350Y34131907D01*
X17865354Y34131914D01*
X17915596Y34266621D01*
X17915598Y34266628D01*
X17921999Y34326156D01*
X17922000Y34326173D01*
X17922000Y35367600D01*
X16597152Y35367600D01*
X16602320Y35373434D01*
X16681318Y35523954D01*
X16722000Y35689005D01*
X16722000Y35858995D01*
X16681318Y36024046D01*
X16602320Y36174566D01*
X16597152Y36180400D01*
X17922000Y36180400D01*
X17922000Y37221828D01*
X17921999Y37221845D01*
X17915598Y37281373D01*
X17915596Y37281380D01*
X17865354Y37416087D01*
X17865350Y37416094D01*
X17779190Y37531188D01*
X17779187Y37531191D01*
X17664093Y37617351D01*
X17664086Y37617355D01*
X17529379Y37667597D01*
X17529372Y37667599D01*
X17469844Y37674000D01*
X16428400Y37674000D01*
X16428400Y36344046D01*
X16349695Y36398371D01*
X16190751Y36458651D01*
X16064340Y36474000D01*
X15979660Y36474000D01*
X15853249Y36458651D01*
X15694305Y36398371D01*
X15615600Y36344046D01*
X15615600Y37674000D01*
X14574155Y37674000D01*
X14514627Y37667599D01*
X14514619Y37667597D01*
X14383833Y37618817D01*
X14314141Y37613833D01*
X14252818Y37647319D01*
X14219334Y37708642D01*
X14216500Y37734999D01*
X14216500Y38605274D01*
X14236185Y38672313D01*
X14252814Y38692950D01*
X16761234Y41201371D01*
X16805585Y41229872D01*
X16813513Y41232828D01*
X17027454Y41349648D01*
X17052108Y41363110D01*
X17052108Y41363111D01*
X17052113Y41363113D01*
X17269742Y41526029D01*
X17461971Y41718258D01*
X17624887Y41935887D01*
X17725657Y42120434D01*
X17755169Y42174481D01*
X17755169Y42174483D01*
X17755172Y42174487D01*
X17850175Y42429199D01*
X17907961Y42694840D01*
X17927355Y42966000D01*
X17907961Y43237160D01*
X17850175Y43502801D01*
X17755172Y43757513D01*
X17755170Y43757516D01*
X17755169Y43757520D01*
X17624890Y43996108D01*
X17624889Y43996109D01*
X17624887Y43996113D01*
X17461971Y44213742D01*
X17461966Y44213747D01*
X17461961Y44213753D01*
X17269752Y44405962D01*
X17269746Y44405967D01*
X17269742Y44405971D01*
X17052113Y44568887D01*
X17052108Y44568890D01*
X17052107Y44568891D01*
X16813518Y44699170D01*
X16813519Y44699170D01*
X16763920Y44717670D01*
X16558801Y44794175D01*
X16558794Y44794177D01*
X16558793Y44794177D01*
X16293167Y44851960D01*
X16293160Y44851961D01*
X16022001Y44871355D01*
X16021999Y44871355D01*
X15750839Y44851961D01*
X15750832Y44851960D01*
X15485206Y44794177D01*
X15485202Y44794176D01*
X15485199Y44794175D01*
X15357843Y44746674D01*
X15230480Y44699170D01*
X14991892Y44568891D01*
X14991891Y44568890D01*
X14774259Y44405972D01*
X14774247Y44405962D01*
X14582038Y44213753D01*
X14582028Y44213741D01*
X14419110Y43996109D01*
X14419106Y43996103D01*
X14288828Y43757515D01*
X14285869Y43749580D01*
X14257369Y43705236D01*
X11217488Y40665354D01*
X11144494Y40597626D01*
X11144490Y40597621D01*
X11082416Y40519783D01*
X11017465Y40444309D01*
X11001625Y40419102D01*
X10997603Y40413433D01*
X10979041Y40390154D01*
X10979036Y40390146D01*
X10929258Y40303929D01*
X10876289Y40219630D01*
X10876281Y40219615D01*
X10864381Y40192339D01*
X10861247Y40186131D01*
X10846364Y40160353D01*
X10846363Y40160352D01*
X10809986Y40067664D01*
X10770168Y39976401D01*
X10770166Y39976396D01*
X10762461Y39947641D01*
X10760287Y39941036D01*
X10749414Y39913330D01*
X10727257Y39816253D01*
X10701487Y39720080D01*
X10698155Y39690502D01*
X10696989Y39683643D01*
X10690365Y39654622D01*
X10690363Y39654614D01*
X10682924Y39555329D01*
X10671775Y39456387D01*
X10675500Y39356870D01*
X10675500Y30836922D01*
X10675110Y30829974D01*
X10671776Y30800387D01*
X10675500Y30700870D01*
X10675500Y18644922D01*
X10675110Y18637974D01*
X10671776Y18608387D01*
X10675500Y18508870D01*
X10675500Y7653131D01*
X10671775Y7553614D01*
X10682924Y7454672D01*
X10690364Y7355383D01*
X10696989Y7326357D01*
X10698155Y7319498D01*
X10701487Y7289923D01*
X10701488Y7289920D01*
X10727257Y7193748D01*
X10749414Y7096673D01*
X10749416Y7096668D01*
X10760286Y7068972D01*
X10762461Y7062362D01*
X10770167Y7033603D01*
X10770168Y7033601D01*
X10809986Y6942337D01*
X10845553Y6851713D01*
X10846362Y6849653D01*
X10861242Y6823880D01*
X10864377Y6817670D01*
X10876281Y6790387D01*
X10876286Y6790377D01*
X10891856Y6765598D01*
X10929259Y6706071D01*
X10943850Y6680798D01*
X10979043Y6619844D01*
X10997601Y6596572D01*
X11001626Y6590898D01*
X11017464Y6565693D01*
X11017465Y6565692D01*
X11082416Y6490218D01*
X11144492Y6412377D01*
X11217488Y6344647D01*
X12400647Y5161488D01*
X12443588Y5115209D01*
X12468370Y5088499D01*
X12468371Y5088497D01*
X12468376Y5088493D01*
X12468378Y5088491D01*
X12546218Y5026416D01*
X12621693Y4961464D01*
X12621695Y4961462D01*
X12646900Y4945625D01*
X12652573Y4941600D01*
X12675846Y4923041D01*
X12762083Y4873252D01*
X12846382Y4820284D01*
X12873662Y4808382D01*
X12879870Y4805248D01*
X12905656Y4790360D01*
X12998346Y4753982D01*
X13089602Y4714167D01*
X13089603Y4714167D01*
X13089605Y4714166D01*
X13118356Y4706463D01*
X13124968Y4704288D01*
X13152674Y4693413D01*
X13152675Y4693413D01*
X13152677Y4693412D01*
X13249748Y4671257D01*
X13345921Y4645487D01*
X13375500Y4642155D01*
X13382345Y4640992D01*
X13411382Y4634364D01*
X13411387Y4634364D01*
X13411390Y4634363D01*
X13476764Y4629465D01*
X13542145Y4604828D01*
X13583827Y4548753D01*
X13591500Y4505812D01*
X13591500Y429300D01*
X13571815Y362261D01*
X13519011Y316506D01*
X13467500Y305300D01*
X11177878Y305300D01*
X11174134Y305413D01*
X10910383Y321367D01*
X10902944Y322271D01*
X10644887Y369562D01*
X10637611Y371355D01*
X10451658Y429300D01*
X10387149Y449402D01*
X10380147Y452058D01*
X10140905Y559731D01*
X10134270Y563214D01*
X9909757Y698937D01*
X9903590Y703194D01*
X9697071Y864991D01*
X9691470Y869953D01*
X9505951Y1055472D01*
X9500990Y1061072D01*
X9339193Y1267591D01*
X9334936Y1273758D01*
X9199213Y1498271D01*
X9195730Y1504906D01*
X9088057Y1744148D01*
X9085404Y1751141D01*
X9007352Y2001618D01*
X9005561Y2008888D01*
X8958270Y2266945D01*
X8957366Y2274384D01*
X8941413Y2538134D01*
X8941300Y2541878D01*
X8941300Y8032020D01*
X8941299Y8032045D01*
X8941299Y8134701D01*
X8929890Y8228661D01*
X8909068Y8400146D01*
X8845076Y8659773D01*
X8750255Y8909793D01*
X8625990Y9146561D01*
X8582221Y9209972D01*
X8474093Y9366623D01*
X8474088Y9366629D01*
X8296775Y9566774D01*
X8296773Y9566776D01*
X8096628Y9744089D01*
X8096622Y9744094D01*
X7876569Y9895985D01*
X7876565Y9895987D01*
X7876561Y9895990D01*
X7639793Y10020255D01*
X7389773Y10115076D01*
X7154806Y10172990D01*
X7130151Y10179067D01*
X7130149Y10179068D01*
X7130146Y10179068D01*
X6966098Y10198987D01*
X6864700Y10211299D01*
X6864698Y10211299D01*
X6798072Y10211299D01*
X6798060Y10211300D01*
X6788070Y10211300D01*
X5081389Y10211300D01*
X5078631Y10211362D01*
X4730649Y10226990D01*
X4654785Y10230397D01*
X4649242Y10230896D01*
X4230202Y10287658D01*
X4224725Y10288652D01*
X3812469Y10382748D01*
X3807104Y10384229D01*
X3404935Y10514900D01*
X3399724Y10516856D01*
X3010904Y10683046D01*
X3005889Y10685461D01*
X2633509Y10885848D01*
X2628730Y10888703D01*
X2551383Y10939759D01*
X2476131Y10989433D01*
X2275829Y11121651D01*
X2271326Y11124923D01*
X1940721Y11388571D01*
X1936530Y11392233D01*
X1630880Y11684464D01*
X1627033Y11688487D01*
X1532753Y11796399D01*
X1348808Y12006941D01*
X1345357Y12011269D01*
X1096794Y12353388D01*
X1093736Y12358021D01*
X876850Y12721028D01*
X874212Y12725929D01*
X820325Y12837827D01*
X690736Y13106920D01*
X688552Y13112032D01*
X631773Y13263318D01*
X539962Y13507946D01*
X538253Y13513208D01*
X425749Y13920859D01*
X424515Y13926268D01*
X405720Y14029834D01*
X349009Y14342338D01*
X348263Y14347846D01*
X310358Y14769012D01*
X310108Y14774572D01*
X310108Y14986000D01*
X874434Y14986000D01*
X894685Y14573782D01*
X894685Y14573777D01*
X894686Y14573773D01*
X955244Y14165529D01*
X998068Y13994568D01*
X1027316Y13877801D01*
X1055527Y13765179D01*
X1194555Y13376621D01*
X1194562Y13376605D01*
X1194564Y13376600D01*
X1371022Y13003510D01*
X1583200Y12649513D01*
X1799958Y12357248D01*
X1829058Y12318012D01*
X2106215Y12012216D01*
X2412011Y11735059D01*
X2412017Y11735054D01*
X2743513Y11489200D01*
X3097510Y11277022D01*
X3470600Y11100564D01*
X3470609Y11100561D01*
X3470620Y11100556D01*
X3781189Y10989433D01*
X3859189Y10961524D01*
X4259535Y10861243D01*
X4667782Y10800685D01*
X5080000Y10780434D01*
X5492218Y10800685D01*
X5900465Y10861243D01*
X6300811Y10961524D01*
X6481380Y11026134D01*
X6689379Y11100556D01*
X6689385Y11100559D01*
X6689400Y11100564D01*
X7062490Y11277022D01*
X7416487Y11489200D01*
X7747983Y11735054D01*
X8053784Y12012216D01*
X8330946Y12318017D01*
X8576800Y12649513D01*
X8788978Y13003510D01*
X8965436Y13376600D01*
X9104476Y13765189D01*
X9204757Y14165535D01*
X9265315Y14573782D01*
X9285566Y14986000D01*
X9265315Y15398218D01*
X9204757Y15806465D01*
X9104476Y16206811D01*
X9085677Y16259351D01*
X8965444Y16595380D01*
X8965437Y16595396D01*
X8965436Y16595400D01*
X8788978Y16968490D01*
X8576800Y17322487D01*
X8330946Y17653983D01*
X8330941Y17653989D01*
X8053784Y17959785D01*
X7747988Y18236942D01*
X7685194Y18283513D01*
X7416487Y18482800D01*
X7062490Y18694978D01*
X6689400Y18871436D01*
X6689396Y18871438D01*
X6689395Y18871438D01*
X6689379Y18871445D01*
X6300821Y19010473D01*
X6300815Y19010475D01*
X6300811Y19010476D01*
X6102205Y19060224D01*
X5900471Y19110756D01*
X5900466Y19110757D01*
X5900465Y19110757D01*
X5799577Y19125723D01*
X5492227Y19171314D01*
X5492223Y19171315D01*
X5492218Y19171315D01*
X5080000Y19191566D01*
X4667782Y19171315D01*
X4667776Y19171315D01*
X4667772Y19171314D01*
X4259528Y19110756D01*
X3957316Y19035056D01*
X3859189Y19010476D01*
X3859186Y19010476D01*
X3859178Y19010473D01*
X3470620Y18871445D01*
X3470604Y18871438D01*
X3419099Y18847078D01*
X3141237Y18715659D01*
X3097506Y18694976D01*
X2743515Y18482802D01*
X2412011Y18236942D01*
X2106215Y17959785D01*
X1829058Y17653989D01*
X1583198Y17322485D01*
X1418619Y17047901D01*
X1371022Y16968490D01*
X1296771Y16811500D01*
X1194562Y16595396D01*
X1194555Y16595380D01*
X1055527Y16206822D01*
X955244Y15806472D01*
X916666Y15546399D01*
X894685Y15398218D01*
X874434Y14986000D01*
X310108Y14986000D01*
X310108Y15197429D01*
X310358Y15202989D01*
X348263Y15624155D01*
X349010Y15629670D01*
X424515Y16045736D01*
X425747Y16051137D01*
X538254Y16458800D01*
X539960Y16464048D01*
X688553Y16859973D01*
X690733Y16865074D01*
X874218Y17246085D01*
X876850Y17250973D01*
X923961Y17329824D01*
X1093738Y17613984D01*
X1096786Y17618604D01*
X1345365Y17960743D01*
X1348799Y17965050D01*
X1627040Y18283523D01*
X1630880Y18287537D01*
X1936530Y18579768D01*
X1940711Y18583422D01*
X2271330Y18847082D01*
X2275814Y18850340D01*
X2628746Y19083308D01*
X2633509Y19086153D01*
X2705502Y19124894D01*
X3005893Y19286543D01*
X3010886Y19288947D01*
X3399746Y19455154D01*
X3404916Y19457095D01*
X3807104Y19587773D01*
X3812462Y19589252D01*
X4224737Y19683352D01*
X4230193Y19684342D01*
X4649252Y19741106D01*
X4654767Y19741603D01*
X5078631Y19760639D01*
X5081389Y19760700D01*
X6762313Y19760700D01*
X6762333Y19760701D01*
X6864700Y19760701D01*
X6904108Y19765487D01*
X7130146Y19792932D01*
X7389773Y19856924D01*
X7639793Y19951745D01*
X7876561Y20076010D01*
X8096625Y20227909D01*
X8296774Y20405226D01*
X8301159Y20410175D01*
X8352352Y20467960D01*
X8474091Y20605375D01*
X8625990Y20825439D01*
X8750255Y21062207D01*
X8845076Y21312227D01*
X8909068Y21571854D01*
X8937498Y21805996D01*
X8941299Y21837300D01*
X8941299Y46518156D01*
X14122000Y46518156D01*
X14128401Y46458628D01*
X14128403Y46458621D01*
X14178645Y46323914D01*
X14178649Y46323907D01*
X14264809Y46208813D01*
X14264812Y46208810D01*
X14379906Y46122650D01*
X14379913Y46122646D01*
X14514620Y46072404D01*
X14514627Y46072402D01*
X14574155Y46066001D01*
X14574172Y46066000D01*
X15615600Y46066000D01*
X15615600Y47395955D01*
X15694305Y47341629D01*
X15853249Y47281349D01*
X15979660Y47266000D01*
X16064340Y47266000D01*
X16190751Y47281349D01*
X16349695Y47341629D01*
X16428400Y47395955D01*
X16428400Y46066000D01*
X17469828Y46066000D01*
X17469844Y46066001D01*
X17529372Y46072402D01*
X17529379Y46072404D01*
X17664086Y46122646D01*
X17664093Y46122650D01*
X17779187Y46208810D01*
X17779190Y46208813D01*
X17865350Y46323907D01*
X17865354Y46323914D01*
X17915596Y46458621D01*
X17915598Y46458628D01*
X17921999Y46518156D01*
X17922000Y46518173D01*
X17922000Y47559600D01*
X16597152Y47559600D01*
X16602320Y47565434D01*
X16681318Y47715954D01*
X16722000Y47881005D01*
X16722000Y48050995D01*
X16681318Y48216046D01*
X16602320Y48366566D01*
X16597152Y48372400D01*
X17922000Y48372400D01*
X17922000Y49413828D01*
X17921999Y49413845D01*
X17915598Y49473373D01*
X17915596Y49473380D01*
X17865354Y49608087D01*
X17865350Y49608094D01*
X17779190Y49723188D01*
X17779187Y49723191D01*
X17664093Y49809351D01*
X17664086Y49809355D01*
X17529379Y49859597D01*
X17529372Y49859599D01*
X17469844Y49866000D01*
X16428400Y49866000D01*
X16428400Y48536046D01*
X16349695Y48590371D01*
X16190751Y48650651D01*
X16064340Y48666000D01*
X15979660Y48666000D01*
X15853249Y48650651D01*
X15694305Y48590371D01*
X15615600Y48536046D01*
X15615600Y49866000D01*
X14574155Y49866000D01*
X14514627Y49859599D01*
X14514620Y49859597D01*
X14379913Y49809355D01*
X14379906Y49809351D01*
X14264812Y49723191D01*
X14264809Y49723188D01*
X14178649Y49608094D01*
X14178645Y49608087D01*
X14128403Y49473380D01*
X14128401Y49473373D01*
X14122000Y49413845D01*
X14122000Y48372400D01*
X15446848Y48372400D01*
X15441680Y48366566D01*
X15362682Y48216046D01*
X15322000Y48050995D01*
X15322000Y47881005D01*
X15362682Y47715954D01*
X15441680Y47565434D01*
X15446848Y47559600D01*
X14122000Y47559600D01*
X14122000Y46518156D01*
X8941299Y46518156D01*
X8941299Y56902701D01*
X8929890Y56996661D01*
X8909068Y57168146D01*
X8845076Y57427773D01*
X8750255Y57677793D01*
X8625990Y57914561D01*
X8622581Y57919500D01*
X8474093Y58134623D01*
X8474088Y58134629D01*
X8296775Y58334774D01*
X8296773Y58334776D01*
X8096628Y58512089D01*
X8096622Y58512094D01*
X7876569Y58663985D01*
X7876565Y58663987D01*
X7876561Y58663990D01*
X7788599Y58710156D01*
X14122000Y58710156D01*
X14128401Y58650628D01*
X14128403Y58650621D01*
X14178645Y58515914D01*
X14178649Y58515907D01*
X14264809Y58400813D01*
X14264812Y58400810D01*
X14379906Y58314650D01*
X14379913Y58314646D01*
X14514620Y58264404D01*
X14514627Y58264402D01*
X14574155Y58258001D01*
X14574172Y58258000D01*
X15615600Y58258000D01*
X15615600Y59587955D01*
X15694305Y59533629D01*
X15853249Y59473349D01*
X15979660Y59458000D01*
X16064340Y59458000D01*
X16190751Y59473349D01*
X16349695Y59533629D01*
X16428400Y59587955D01*
X16428400Y58258000D01*
X17469828Y58258000D01*
X17469844Y58258001D01*
X17529372Y58264402D01*
X17529379Y58264404D01*
X17664086Y58314646D01*
X17664093Y58314650D01*
X17779187Y58400810D01*
X17779190Y58400813D01*
X17865350Y58515907D01*
X17865354Y58515914D01*
X17915596Y58650621D01*
X17915598Y58650628D01*
X17921999Y58710156D01*
X17922000Y58710173D01*
X17922000Y59751600D01*
X16597152Y59751600D01*
X16602320Y59757434D01*
X16681318Y59907954D01*
X16722000Y60073005D01*
X16722000Y60242995D01*
X16681318Y60408046D01*
X16602320Y60558566D01*
X16597152Y60564400D01*
X17922000Y60564400D01*
X17922000Y61605828D01*
X17921999Y61605845D01*
X17915598Y61665373D01*
X17915596Y61665380D01*
X17865354Y61800087D01*
X17865350Y61800094D01*
X17779190Y61915188D01*
X17779187Y61915191D01*
X17664093Y62001351D01*
X17664086Y62001355D01*
X17529379Y62051597D01*
X17529372Y62051599D01*
X17469844Y62058000D01*
X16428400Y62058000D01*
X16428400Y60728046D01*
X16349695Y60782371D01*
X16190751Y60842651D01*
X16064340Y60858000D01*
X15979660Y60858000D01*
X15853249Y60842651D01*
X15694305Y60782371D01*
X15615600Y60728046D01*
X15615600Y62058000D01*
X14574155Y62058000D01*
X14514627Y62051599D01*
X14514620Y62051597D01*
X14379913Y62001355D01*
X14379906Y62001351D01*
X14264812Y61915191D01*
X14264809Y61915188D01*
X14178649Y61800094D01*
X14178645Y61800087D01*
X14128403Y61665380D01*
X14128401Y61665373D01*
X14122000Y61605845D01*
X14122000Y60564400D01*
X15446848Y60564400D01*
X15441680Y60558566D01*
X15362682Y60408046D01*
X15322000Y60242995D01*
X15322000Y60073005D01*
X15362682Y59907954D01*
X15441680Y59757434D01*
X15446848Y59751600D01*
X14122000Y59751600D01*
X14122000Y58710156D01*
X7788599Y58710156D01*
X7639793Y58788255D01*
X7389773Y58883076D01*
X7154806Y58940990D01*
X7130151Y58947067D01*
X7130149Y58947068D01*
X7130146Y58947068D01*
X6966098Y58966987D01*
X6864700Y58979299D01*
X6864698Y58979299D01*
X6798072Y58979299D01*
X6798060Y58979300D01*
X6788070Y58979300D01*
X5081389Y58979300D01*
X5078631Y58979362D01*
X4730649Y58994990D01*
X4654785Y58998397D01*
X4649242Y58998896D01*
X4230202Y59055658D01*
X4224725Y59056652D01*
X3812469Y59150748D01*
X3807104Y59152229D01*
X3404935Y59282900D01*
X3399724Y59284856D01*
X3010904Y59451046D01*
X3005889Y59453461D01*
X2633509Y59653848D01*
X2628730Y59656703D01*
X2551383Y59707759D01*
X2387652Y59815837D01*
X2275829Y59889651D01*
X2271326Y59892923D01*
X1940721Y60156571D01*
X1936530Y60160233D01*
X1630880Y60452464D01*
X1627033Y60456487D01*
X1529170Y60568500D01*
X1348808Y60774941D01*
X1345357Y60779269D01*
X1096794Y61121388D01*
X1093736Y61126021D01*
X876850Y61489028D01*
X874212Y61493929D01*
X873990Y61494390D01*
X690736Y61874920D01*
X688552Y61880032D01*
X628470Y62040118D01*
X539962Y62275946D01*
X538253Y62281208D01*
X425749Y62688859D01*
X424515Y62694268D01*
X381094Y62933535D01*
X349009Y63110338D01*
X348263Y63115846D01*
X310358Y63537012D01*
X310108Y63542572D01*
X310108Y63754000D01*
X874434Y63754000D01*
X894685Y63341782D01*
X894685Y63341777D01*
X894686Y63341773D01*
X914714Y63206759D01*
X951263Y62960363D01*
X955244Y62933529D01*
X977906Y62843059D01*
X1050956Y62551425D01*
X1055527Y62533179D01*
X1194555Y62144621D01*
X1194562Y62144605D01*
X1194564Y62144600D01*
X1371022Y61771510D01*
X1583200Y61417513D01*
X1799958Y61125248D01*
X1829058Y61086012D01*
X2106215Y60780216D01*
X2403251Y60510999D01*
X2412017Y60503054D01*
X2743513Y60257200D01*
X3097510Y60045022D01*
X3470600Y59868564D01*
X3470609Y59868561D01*
X3470620Y59868556D01*
X3781186Y59757434D01*
X3859189Y59729524D01*
X4259535Y59629243D01*
X4667782Y59568685D01*
X5080000Y59548434D01*
X5492218Y59568685D01*
X5900465Y59629243D01*
X6300811Y59729524D01*
X6542039Y59815837D01*
X6689379Y59868556D01*
X6689385Y59868559D01*
X6689400Y59868564D01*
X7062490Y60045022D01*
X7416487Y60257200D01*
X7747983Y60503054D01*
X8053784Y60780216D01*
X8330946Y61086017D01*
X8576800Y61417513D01*
X8788978Y61771510D01*
X8965436Y62144600D01*
X8980463Y62186595D01*
X9071520Y62441083D01*
X9104476Y62533189D01*
X9204757Y62933535D01*
X9265315Y63341782D01*
X9285566Y63754000D01*
X9265315Y64166218D01*
X9204757Y64574465D01*
X9104476Y64974811D01*
X9080741Y65041146D01*
X8965444Y65363380D01*
X8965437Y65363396D01*
X8965436Y65363400D01*
X8788978Y65736490D01*
X8576800Y66090487D01*
X8330946Y66421983D01*
X8326795Y66426563D01*
X8053784Y66727785D01*
X7747988Y67004942D01*
X7685194Y67051513D01*
X7416487Y67250800D01*
X7062490Y67462978D01*
X6689400Y67639436D01*
X6689396Y67639438D01*
X6689395Y67639438D01*
X6689379Y67639445D01*
X6300821Y67778473D01*
X6300815Y67778475D01*
X6300811Y67778476D01*
X6066231Y67837235D01*
X5900471Y67878756D01*
X5900466Y67878757D01*
X5900465Y67878757D01*
X5742399Y67902204D01*
X5492227Y67939314D01*
X5492223Y67939315D01*
X5492218Y67939315D01*
X5080000Y67959566D01*
X4667782Y67939315D01*
X4667776Y67939315D01*
X4667772Y67939314D01*
X4259528Y67878756D01*
X3957316Y67803056D01*
X3859189Y67778476D01*
X3859186Y67778476D01*
X3859178Y67778473D01*
X3470620Y67639445D01*
X3470604Y67639438D01*
X3361019Y67587608D01*
X3141237Y67483659D01*
X3097506Y67462976D01*
X2743515Y67250802D01*
X2412011Y67004942D01*
X2106215Y66727785D01*
X1829058Y66421989D01*
X1583198Y66090485D01*
X1381189Y65753453D01*
X1371022Y65736490D01*
X1353552Y65699553D01*
X1194562Y65363396D01*
X1194555Y65363380D01*
X1055527Y64974822D01*
X1055524Y64974814D01*
X1055524Y64974811D01*
X1051254Y64957763D01*
X955244Y64574472D01*
X900352Y64204421D01*
X894685Y64166218D01*
X874434Y63754000D01*
X310108Y63754000D01*
X310108Y63965429D01*
X310358Y63970989D01*
X348263Y64392155D01*
X349010Y64397670D01*
X424515Y64813736D01*
X425747Y64819137D01*
X538254Y65226800D01*
X539960Y65232048D01*
X688553Y65627973D01*
X690733Y65633074D01*
X874218Y66014085D01*
X876850Y66018973D01*
X911076Y66076258D01*
X1093738Y66381984D01*
X1096786Y66386604D01*
X1345365Y66728743D01*
X1348799Y66733050D01*
X1627040Y67051523D01*
X1630880Y67055537D01*
X1936530Y67347768D01*
X1940711Y67351422D01*
X2271330Y67615082D01*
X2275814Y67618340D01*
X2628746Y67851308D01*
X2633509Y67854153D01*
X2694179Y67886801D01*
X3005893Y68054543D01*
X3010886Y68056947D01*
X3399746Y68223154D01*
X3404916Y68225095D01*
X3807104Y68355773D01*
X3812462Y68357252D01*
X4224737Y68451352D01*
X4230193Y68452342D01*
X4649252Y68509106D01*
X4654767Y68509603D01*
X5078631Y68528639D01*
X5081389Y68528700D01*
X6864701Y68528700D01*
X6904810Y68533571D01*
X7130146Y68560931D01*
X7389773Y68624923D01*
X7639793Y68719744D01*
X7876562Y68844009D01*
X8096625Y68995908D01*
X8295795Y69172357D01*
X8296774Y69173224D01*
X8296776Y69173226D01*
X8352354Y69235961D01*
X8474092Y69373375D01*
X8625991Y69593438D01*
X8750256Y69830207D01*
X8845077Y70080227D01*
X8909069Y70339854D01*
X8941300Y70605301D01*
X8941300Y70739000D01*
X8941300Y70787355D01*
X8941300Y76198123D01*
X8941413Y76201867D01*
X8950965Y76359789D01*
X8957366Y76465624D01*
X8958270Y76473056D01*
X9005561Y76731113D01*
X9007351Y76738379D01*
X9085406Y76988866D01*
X9088057Y76995853D01*
X9102240Y77027368D01*
X9195736Y77235107D01*
X9199213Y77241730D01*
X9228735Y77290565D01*
X9334943Y77466254D01*
X9339186Y77472401D01*
X9500999Y77678940D01*
X9505943Y77684521D01*
X9691479Y77870057D01*
X9697060Y77875001D01*
X9903599Y78036814D01*
X9909746Y78041057D01*
X10134274Y78176790D01*
X10140893Y78180264D01*
X10380147Y78287943D01*
X10387134Y78290594D01*
X10637621Y78368649D01*
X10644887Y78370439D01*
X10902944Y78417730D01*
X10910376Y78418634D01*
X11110876Y78430761D01*
X11174134Y78434587D01*
X11177878Y78434700D01*
X11224355Y78434700D01*
X75710973Y78434700D01*
X75778012Y78415015D01*
G37*
G04 #@! TD.AperFunction*
G04 #@! TA.AperFunction,Conductor*
G36*
X59563732Y75552815D02*
G01*
X59584374Y75536181D01*
X60843181Y74277374D01*
X60876666Y74216051D01*
X60879500Y74189693D01*
X60879500Y73270130D01*
X60879501Y73270124D01*
X60885908Y73210517D01*
X60936202Y73075672D01*
X60936206Y73075665D01*
X61022452Y72960456D01*
X61022455Y72960453D01*
X61137664Y72874207D01*
X61137671Y72874203D01*
X61272517Y72823909D01*
X61272516Y72823909D01*
X61279444Y72823165D01*
X61332127Y72817500D01*
X63127872Y72817501D01*
X63187483Y72823909D01*
X63322331Y72874204D01*
X63437546Y72960454D01*
X63523796Y73075669D01*
X63573002Y73207599D01*
X63614872Y73263532D01*
X63680337Y73287950D01*
X63748610Y73273099D01*
X63776865Y73251947D01*
X63898917Y73129895D01*
X64092421Y72994400D01*
X64306509Y72894569D01*
X64306513Y72894568D01*
X64363599Y72879273D01*
X64363600Y72879273D01*
X64363600Y73875542D01*
X64388239Y73837202D01*
X64496900Y73743048D01*
X64627685Y73683320D01*
X64734237Y73668000D01*
X64805763Y73668000D01*
X64912315Y73683320D01*
X65043100Y73743048D01*
X65151761Y73837202D01*
X65176400Y73875542D01*
X65176400Y72953946D01*
X65156715Y72886907D01*
X65140081Y72866265D01*
X58446766Y66172950D01*
X58444040Y66170383D01*
X58397407Y66129069D01*
X58397404Y66129065D01*
X58362018Y66077802D01*
X58359800Y66074786D01*
X58321365Y66025728D01*
X58321361Y66025721D01*
X58317162Y66016390D01*
X58306140Y65996847D01*
X58300333Y65988434D01*
X58300325Y65988419D01*
X58278235Y65930173D01*
X58276803Y65926716D01*
X58251230Y65869891D01*
X58251228Y65869886D01*
X58249385Y65859827D01*
X58243362Y65838223D01*
X58239730Y65828645D01*
X58232215Y65766765D01*
X58231652Y65763064D01*
X58220426Y65701805D01*
X58220426Y65701800D01*
X58224187Y65639617D01*
X58224300Y65635873D01*
X58224300Y24586529D01*
X58224187Y24582785D01*
X58220425Y24520604D01*
X58220426Y24520600D01*
X58231652Y24459336D01*
X58232215Y24455635D01*
X58239729Y24393759D01*
X58239730Y24393757D01*
X58243360Y24384186D01*
X58249386Y24362571D01*
X58251230Y24352510D01*
X58276807Y24295677D01*
X58278224Y24292255D01*
X58295978Y24245445D01*
X58300327Y24233978D01*
X58300330Y24233971D01*
X58306139Y24225555D01*
X58317163Y24206010D01*
X58321364Y24196675D01*
X58359813Y24147599D01*
X58362010Y24144612D01*
X58378552Y24120647D01*
X58397402Y24093337D01*
X58397404Y24093335D01*
X58397405Y24093334D01*
X58444052Y24052008D01*
X58446742Y24049476D01*
X61258623Y21237595D01*
X64041391Y18454827D01*
X64074876Y18393504D01*
X64073487Y18335061D01*
X64069937Y18321810D01*
X64049341Y18086401D01*
X64049341Y18086400D01*
X64069936Y17850997D01*
X64069938Y17850987D01*
X64131094Y17622745D01*
X64131096Y17622741D01*
X64131097Y17622737D01*
X64164133Y17551892D01*
X64230965Y17408570D01*
X64230967Y17408566D01*
X64286104Y17329823D01*
X64366505Y17214999D01*
X64533599Y17047905D01*
X64533601Y17047904D01*
X64533603Y17047902D01*
X64719158Y16917975D01*
X64762783Y16863398D01*
X64769977Y16793900D01*
X64738454Y16731545D01*
X64719158Y16714825D01*
X64533597Y16584895D01*
X64366505Y16417803D01*
X64230965Y16224231D01*
X64230964Y16224229D01*
X64147730Y16045733D01*
X64131098Y16010064D01*
X64131094Y16010056D01*
X64069938Y15781814D01*
X64069936Y15781804D01*
X64049341Y15546401D01*
X64049341Y15546400D01*
X64069936Y15310997D01*
X64069938Y15310987D01*
X64131094Y15082745D01*
X64131096Y15082741D01*
X64131097Y15082737D01*
X64230965Y14868570D01*
X64230967Y14868566D01*
X64286104Y14789823D01*
X64366505Y14674999D01*
X64533599Y14507905D01*
X64533601Y14507904D01*
X64533603Y14507902D01*
X64719158Y14377975D01*
X64762783Y14323398D01*
X64769977Y14253900D01*
X64738454Y14191545D01*
X64719158Y14174825D01*
X64533596Y14044894D01*
X64498541Y14009839D01*
X64437218Y13976354D01*
X64367526Y13981340D01*
X64343822Y13993205D01*
X64341701Y13994569D01*
X64210831Y14054336D01*
X64210826Y14054338D01*
X64210825Y14054338D01*
X64188224Y14060975D01*
X64143791Y14074022D01*
X64143785Y14074024D01*
X64058332Y14086310D01*
X64001366Y14094500D01*
X43941114Y14094500D01*
X43933596Y14094277D01*
X43926078Y14094053D01*
X43903851Y14092728D01*
X43873901Y14090048D01*
X43734928Y14052811D01*
X43734917Y14052807D01*
X43670705Y14025310D01*
X43670694Y14025305D01*
X43608138Y13987175D01*
X43540649Y13969092D01*
X43474097Y13990367D01*
X43455920Y14005376D01*
X43416402Y14044894D01*
X43416396Y14044899D01*
X43230842Y14174825D01*
X43187217Y14229402D01*
X43180023Y14298900D01*
X43211546Y14361255D01*
X43230842Y14377975D01*
X43416395Y14507901D01*
X43416401Y14507905D01*
X43583495Y14674999D01*
X43719035Y14868570D01*
X43818903Y15082737D01*
X43880063Y15310992D01*
X43900659Y15546400D01*
X43880063Y15781808D01*
X43818903Y16010063D01*
X43719035Y16224229D01*
X43719034Y16224231D01*
X43583494Y16417803D01*
X43416402Y16584894D01*
X43416396Y16584899D01*
X43230842Y16714825D01*
X43187217Y16769402D01*
X43180023Y16838900D01*
X43211546Y16901255D01*
X43230842Y16917975D01*
X43302990Y16968494D01*
X43416401Y17047905D01*
X43583495Y17214999D01*
X43719035Y17408570D01*
X43818903Y17622737D01*
X43880063Y17850992D01*
X43900659Y18086400D01*
X43880063Y18321808D01*
X43833626Y18495115D01*
X43818905Y18550056D01*
X43818904Y18550057D01*
X43818903Y18550063D01*
X43719035Y18764229D01*
X43719034Y18764231D01*
X43583494Y18957803D01*
X43416402Y19124894D01*
X43416396Y19124899D01*
X43230842Y19254825D01*
X43187217Y19309402D01*
X43180023Y19378900D01*
X43211546Y19441255D01*
X43230842Y19457975D01*
X43359706Y19548207D01*
X43416401Y19587905D01*
X43583495Y19754999D01*
X43719035Y19948570D01*
X43818903Y20162737D01*
X43880063Y20390992D01*
X43900659Y20626400D01*
X43880063Y20861808D01*
X43818903Y21090063D01*
X43719035Y21304229D01*
X43719034Y21304231D01*
X43583494Y21497803D01*
X43416402Y21664894D01*
X43416396Y21664898D01*
X43328653Y21726337D01*
X43222827Y21800438D01*
X43222289Y21800748D01*
X43222099Y21800947D01*
X43218396Y21803540D01*
X43218917Y21804285D01*
X43174075Y21851316D01*
X43160854Y21919923D01*
X43162176Y21929666D01*
X43168894Y21967769D01*
X42545001Y22591664D01*
X42545000Y22591664D01*
X41921103Y21967768D01*
X41927822Y21929664D01*
X41920078Y21860224D01*
X41876021Y21805996D01*
X41867720Y21800753D01*
X41867176Y21800439D01*
X41673597Y21664895D01*
X41506505Y21497802D01*
X41426103Y21382976D01*
X41371526Y21339351D01*
X41324529Y21330100D01*
X36145471Y21330100D01*
X36078432Y21349785D01*
X36043896Y21382977D01*
X35963495Y21497802D01*
X35796403Y21664893D01*
X35796402Y21664894D01*
X35610843Y21794824D01*
X35610406Y21795130D01*
X35566782Y21849707D01*
X35559589Y21919206D01*
X35591111Y21981560D01*
X35610406Y21998280D01*
X35796083Y22128294D01*
X35963106Y22295317D01*
X36098601Y22488821D01*
X36198432Y22702909D01*
X36198433Y22702913D01*
X36213728Y22759999D01*
X35219511Y22759999D01*
X35306762Y22835601D01*
X35384494Y22956555D01*
X35425001Y23094510D01*
X35425001Y23166399D01*
X41189843Y23166399D01*
X41210430Y22931085D01*
X41210432Y22931074D01*
X41271566Y22702917D01*
X41271570Y22702908D01*
X41346367Y22542505D01*
X41898374Y23094511D01*
X42045000Y23094511D01*
X42085507Y22956556D01*
X42163239Y22835602D01*
X42271900Y22741448D01*
X42402685Y22681720D01*
X42509237Y22666400D01*
X42580763Y22666400D01*
X42687315Y22681720D01*
X42818100Y22741448D01*
X42926761Y22835602D01*
X43004493Y22956556D01*
X43045000Y23094511D01*
X43045000Y23166400D01*
X43119736Y23166400D01*
X43743631Y22542506D01*
X43818432Y22702913D01*
X43879567Y22931074D01*
X43879569Y22931085D01*
X43900157Y23166399D01*
X43900157Y23166402D01*
X43879569Y23401716D01*
X43879567Y23401727D01*
X43818433Y23629884D01*
X43818430Y23629893D01*
X43743632Y23790297D01*
X43119736Y23166400D01*
X43045000Y23166400D01*
X43045000Y23238289D01*
X43004493Y23376244D01*
X42926761Y23497198D01*
X42818100Y23591352D01*
X42687315Y23651080D01*
X42580763Y23666400D01*
X42509237Y23666400D01*
X42402685Y23651080D01*
X42271900Y23591352D01*
X42163239Y23497198D01*
X42085507Y23376244D01*
X42045000Y23238289D01*
X42045000Y23094511D01*
X41898374Y23094511D01*
X41970263Y23166400D01*
X41346367Y23790296D01*
X41271570Y23629893D01*
X41271566Y23629884D01*
X41210432Y23401727D01*
X41210430Y23401716D01*
X41189843Y23166402D01*
X41189843Y23166399D01*
X35425001Y23166399D01*
X35425001Y23238288D01*
X35384494Y23376243D01*
X35306762Y23497197D01*
X35219511Y23572799D01*
X36213729Y23572799D01*
X36213728Y23572800D01*
X36198433Y23629886D01*
X36198432Y23629890D01*
X36098601Y23843977D01*
X36098600Y23843979D01*
X35963114Y24037473D01*
X35963109Y24037479D01*
X35796079Y24204509D01*
X35610406Y24334520D01*
X35566781Y24389097D01*
X35559589Y24458595D01*
X35591111Y24520950D01*
X35610407Y24537669D01*
X35610844Y24537975D01*
X35796402Y24667904D01*
X35963496Y24834998D01*
X35994927Y24879886D01*
X36043897Y24949823D01*
X36098474Y24993448D01*
X36145472Y25002700D01*
X41324529Y25002700D01*
X41391568Y24983015D01*
X41426103Y24949824D01*
X41497642Y24847656D01*
X41506505Y24834999D01*
X41673599Y24667905D01*
X41673605Y24667901D01*
X41867162Y24532370D01*
X41867166Y24532368D01*
X41867170Y24532365D01*
X41867173Y24532364D01*
X41867696Y24532062D01*
X41867884Y24531865D01*
X41871604Y24529260D01*
X41871080Y24528513D01*
X41915916Y24481499D01*
X41929146Y24412894D01*
X41927822Y24403137D01*
X41921103Y24365034D01*
X42545000Y23741137D01*
X42545001Y23741137D01*
X43168894Y24365033D01*
X43162176Y24403135D01*
X43169920Y24472574D01*
X43213976Y24526804D01*
X43222304Y24532062D01*
X43222821Y24532362D01*
X43222830Y24532365D01*
X43416401Y24667905D01*
X43583495Y24834999D01*
X43719035Y25028570D01*
X43818903Y25242737D01*
X43880063Y25470992D01*
X43900659Y25706400D01*
X43899779Y25716453D01*
X43880063Y25941804D01*
X43880063Y25941808D01*
X43818903Y26170063D01*
X43719035Y26384229D01*
X43719034Y26384231D01*
X43583494Y26577803D01*
X43416402Y26744894D01*
X43416396Y26744899D01*
X43230842Y26874825D01*
X43187217Y26929402D01*
X43180023Y26998900D01*
X43211546Y27061255D01*
X43230842Y27077975D01*
X43416395Y27207901D01*
X43416401Y27207905D01*
X43583495Y27374999D01*
X43719035Y27568570D01*
X43818903Y27782737D01*
X43880063Y28010992D01*
X43900659Y28246400D01*
X43880063Y28481808D01*
X43818903Y28710063D01*
X43719035Y28924229D01*
X43719034Y28924231D01*
X43583494Y29117803D01*
X43416402Y29284894D01*
X43416396Y29284899D01*
X43230842Y29414825D01*
X43187217Y29469402D01*
X43180023Y29538900D01*
X43211546Y29601255D01*
X43230842Y29617975D01*
X43253026Y29633509D01*
X43416401Y29747905D01*
X43583495Y29914999D01*
X43719035Y30108570D01*
X43818903Y30322737D01*
X43880063Y30550992D01*
X43900659Y30786400D01*
X43880063Y31021808D01*
X43818903Y31250063D01*
X43719035Y31464229D01*
X43719034Y31464231D01*
X43583494Y31657803D01*
X43416402Y31824894D01*
X43416396Y31824899D01*
X43230842Y31954825D01*
X43187217Y32009402D01*
X43180023Y32078900D01*
X43211546Y32141255D01*
X43230842Y32157975D01*
X43253026Y32173509D01*
X43416401Y32287905D01*
X43583495Y32454999D01*
X43719035Y32648570D01*
X43818903Y32862737D01*
X43880063Y33090992D01*
X43900659Y33326400D01*
X43880063Y33561808D01*
X43818903Y33790063D01*
X43719035Y34004229D01*
X43719034Y34004231D01*
X43583494Y34197803D01*
X43416402Y34364894D01*
X43416396Y34364899D01*
X43230842Y34494825D01*
X43187217Y34549402D01*
X43180023Y34618900D01*
X43211546Y34681255D01*
X43230842Y34697975D01*
X43285237Y34736063D01*
X43416401Y34827905D01*
X43583495Y34994999D01*
X43719035Y35188570D01*
X43818903Y35402737D01*
X43880063Y35630992D01*
X43900659Y35866400D01*
X43880063Y36101808D01*
X43818903Y36330063D01*
X43719035Y36544229D01*
X43719034Y36544231D01*
X43583494Y36737803D01*
X43416402Y36904894D01*
X43416396Y36904899D01*
X43230842Y37034825D01*
X43187217Y37089402D01*
X43180023Y37158900D01*
X43211546Y37221255D01*
X43230842Y37237975D01*
X43256726Y37256099D01*
X43416401Y37367905D01*
X43583495Y37534999D01*
X43719035Y37728570D01*
X43818903Y37942737D01*
X43880063Y38170992D01*
X43900659Y38406400D01*
X43880063Y38641808D01*
X43876515Y38655050D01*
X43878174Y38724897D01*
X43908605Y38774825D01*
X47014062Y41880282D01*
X47016758Y41882818D01*
X47027575Y41892401D01*
X47063395Y41924134D01*
X47098787Y41975412D01*
X47100990Y41978405D01*
X47139436Y42027475D01*
X47143636Y42036810D01*
X47154664Y42056361D01*
X47160471Y42064773D01*
X47182573Y42123055D01*
X47183975Y42126441D01*
X47209571Y42183310D01*
X47211414Y42193370D01*
X47217440Y42214989D01*
X47221070Y42224557D01*
X47228582Y42286432D01*
X47229144Y42290123D01*
X47240374Y42351399D01*
X47240374Y42351402D01*
X47236613Y42413585D01*
X47236500Y42417329D01*
X47236500Y61648073D01*
X47236613Y61651817D01*
X47240374Y61714001D01*
X47229144Y61775279D01*
X47228580Y61778985D01*
X47224477Y61812776D01*
X47221070Y61840843D01*
X47217441Y61850412D01*
X47211414Y61872027D01*
X47209571Y61882090D01*
X47183992Y61938924D01*
X47182564Y61942371D01*
X47160471Y62000627D01*
X47160469Y62000629D01*
X47160469Y62000631D01*
X47160467Y62000635D01*
X47154660Y62009048D01*
X47143635Y62028595D01*
X47139436Y62037925D01*
X47101004Y62086979D01*
X47098783Y62089997D01*
X47063395Y62141266D01*
X47016757Y62182584D01*
X47014030Y62185152D01*
X43158019Y66041163D01*
X43124534Y66102486D01*
X43121700Y66128844D01*
X43121700Y72947530D01*
X43141385Y73014569D01*
X43174577Y73049105D01*
X43289401Y73129505D01*
X43456495Y73296599D01*
X43586730Y73482595D01*
X43641307Y73526219D01*
X43710805Y73533413D01*
X43773160Y73501890D01*
X43789879Y73482595D01*
X43919890Y73296922D01*
X44086917Y73129895D01*
X44280421Y72994400D01*
X44494509Y72894569D01*
X44494513Y72894568D01*
X44551599Y72879273D01*
X44551600Y72879273D01*
X44551600Y73875542D01*
X44576239Y73837202D01*
X44684900Y73743048D01*
X44815685Y73683320D01*
X44922237Y73668000D01*
X44993763Y73668000D01*
X45100315Y73683320D01*
X45231100Y73743048D01*
X45252510Y73761600D01*
X45364400Y73761600D01*
X45364400Y72879273D01*
X45421486Y72894568D01*
X45421490Y72894569D01*
X45635578Y72994400D01*
X45829082Y73129895D01*
X45996105Y73296918D01*
X46131600Y73490422D01*
X46231431Y73704510D01*
X46231432Y73704514D01*
X46246727Y73761600D01*
X45364400Y73761600D01*
X45252510Y73761600D01*
X45339761Y73837202D01*
X45417493Y73958156D01*
X45458000Y74096111D01*
X45458000Y74239889D01*
X45417493Y74377844D01*
X45339761Y74498798D01*
X45252510Y74574400D01*
X46246728Y74574400D01*
X46246727Y74574401D01*
X46231432Y74631487D01*
X46231431Y74631491D01*
X46131600Y74845578D01*
X46131599Y74845580D01*
X45996113Y75039074D01*
X45996108Y75039080D01*
X45829082Y75206106D01*
X45631144Y75344705D01*
X45631928Y75345826D01*
X45588206Y75391682D01*
X45574985Y75460289D01*
X45600954Y75525153D01*
X45657869Y75565681D01*
X45698423Y75572500D01*
X59496693Y75572500D01*
X59563732Y75552815D01*
G37*
G04 #@! TD.AperFunction*
G04 #@! TA.AperFunction,Conductor*
G36*
X130743293Y72753815D02*
G01*
X130763935Y72737181D01*
X133570181Y69930935D01*
X133603666Y69869612D01*
X133606500Y69843254D01*
X133606500Y52354698D01*
X133586815Y52287659D01*
X133534011Y52241904D01*
X133464853Y52231960D01*
X133411377Y52253123D01*
X133265834Y52355033D01*
X133265830Y52355035D01*
X133220015Y52376399D01*
X133051663Y52454903D01*
X133051659Y52454904D01*
X133051655Y52454906D01*
X132823413Y52516062D01*
X132823403Y52516064D01*
X132588001Y52536659D01*
X132587999Y52536659D01*
X132352596Y52516064D01*
X132352586Y52516062D01*
X132124344Y52454906D01*
X132124335Y52454902D01*
X131910171Y52355036D01*
X131910169Y52355035D01*
X131712164Y52216390D01*
X131711367Y52217528D01*
X131653388Y52192158D01*
X131584397Y52203203D01*
X131532329Y52249794D01*
X131513700Y52315162D01*
X131513700Y54902156D01*
X131533385Y54969195D01*
X131550019Y54989837D01*
X131584574Y55024392D01*
X131645897Y55057877D01*
X131704346Y55056487D01*
X131717592Y55052937D01*
X131894034Y55037500D01*
X131952999Y55032341D01*
X131953000Y55032341D01*
X131953001Y55032341D01*
X132011966Y55037500D01*
X132188408Y55052937D01*
X132416663Y55114097D01*
X132630830Y55213965D01*
X132824401Y55349505D01*
X132991495Y55516599D01*
X133127035Y55710170D01*
X133226903Y55924337D01*
X133288063Y56152592D01*
X133308659Y56388000D01*
X133288063Y56623408D01*
X133226903Y56851663D01*
X133127035Y57065829D01*
X133088339Y57121094D01*
X132991494Y57259403D01*
X132824402Y57426494D01*
X132824395Y57426499D01*
X132822571Y57427776D01*
X132748345Y57479750D01*
X132630834Y57562033D01*
X132630830Y57562035D01*
X132629642Y57562589D01*
X132416663Y57661903D01*
X132416659Y57661904D01*
X132416655Y57661906D01*
X132188413Y57723062D01*
X132188403Y57723064D01*
X131953001Y57743659D01*
X131952999Y57743659D01*
X131717596Y57723064D01*
X131717586Y57723062D01*
X131489344Y57661906D01*
X131489335Y57661902D01*
X131275171Y57562036D01*
X131275169Y57562035D01*
X131081600Y57426497D01*
X130959673Y57304570D01*
X130898350Y57271086D01*
X130828658Y57276070D01*
X130772725Y57317942D01*
X130755810Y57348919D01*
X130706797Y57480329D01*
X130706793Y57480336D01*
X130620547Y57595545D01*
X130620544Y57595548D01*
X130505335Y57681794D01*
X130505328Y57681798D01*
X130370482Y57732092D01*
X130370483Y57732092D01*
X130310883Y57738499D01*
X130310881Y57738500D01*
X130310873Y57738500D01*
X130310864Y57738500D01*
X128515129Y57738500D01*
X128515123Y57738499D01*
X128455516Y57732092D01*
X128320671Y57681798D01*
X128320664Y57681794D01*
X128205455Y57595548D01*
X128205452Y57595545D01*
X128119206Y57480336D01*
X128119202Y57480329D01*
X128068908Y57345483D01*
X128062501Y57285884D01*
X128062500Y57285865D01*
X128062500Y55490130D01*
X128062501Y55490124D01*
X128068908Y55430517D01*
X128119202Y55295672D01*
X128119206Y55295665D01*
X128205452Y55180456D01*
X128205455Y55180453D01*
X128320664Y55094207D01*
X128320671Y55094203D01*
X128351963Y55082532D01*
X128455517Y55043909D01*
X128515127Y55037500D01*
X128585300Y55037501D01*
X128652338Y55017817D01*
X128698094Y54965014D01*
X128709300Y54913501D01*
X128709300Y44219129D01*
X128709187Y44215385D01*
X128705425Y44153204D01*
X128705426Y44153200D01*
X128716652Y44091936D01*
X128717215Y44088235D01*
X128724729Y44026359D01*
X128724730Y44026357D01*
X128728360Y44016786D01*
X128734386Y43995171D01*
X128736230Y43985110D01*
X128761807Y43928277D01*
X128763230Y43924842D01*
X128785327Y43866578D01*
X128785330Y43866571D01*
X128791139Y43858155D01*
X128802163Y43838610D01*
X128806364Y43829275D01*
X128844813Y43780199D01*
X128847010Y43777212D01*
X128860608Y43757513D01*
X128882402Y43725937D01*
X128882404Y43725935D01*
X128882405Y43725934D01*
X128929052Y43684608D01*
X128931742Y43682076D01*
X130091311Y42522507D01*
X131224391Y41389427D01*
X131257876Y41328104D01*
X131256487Y41269661D01*
X131252937Y41256410D01*
X131232341Y41021001D01*
X131232341Y41021000D01*
X131252936Y40785597D01*
X131252938Y40785587D01*
X131314094Y40557345D01*
X131314096Y40557341D01*
X131314097Y40557337D01*
X131412802Y40345663D01*
X131413965Y40343170D01*
X131413967Y40343166D01*
X131549501Y40149605D01*
X131549506Y40149598D01*
X131716597Y39982507D01*
X131716603Y39982502D01*
X131902158Y39852575D01*
X131945783Y39797998D01*
X131952977Y39728500D01*
X131921454Y39666145D01*
X131902158Y39649425D01*
X131716597Y39519495D01*
X131549505Y39352403D01*
X131413965Y39158831D01*
X131413964Y39158829D01*
X131314098Y38944665D01*
X131314094Y38944656D01*
X131252938Y38716414D01*
X131252936Y38716404D01*
X131232341Y38481001D01*
X131232341Y38481000D01*
X131252936Y38245597D01*
X131252938Y38245587D01*
X131314094Y38017345D01*
X131314096Y38017341D01*
X131314097Y38017337D01*
X131413965Y37803170D01*
X131413967Y37803166D01*
X131504411Y37674000D01*
X131549505Y37609599D01*
X131716599Y37442505D01*
X131754318Y37416094D01*
X131910162Y37306970D01*
X131910166Y37306968D01*
X131910170Y37306965D01*
X131910173Y37306964D01*
X131910696Y37306662D01*
X131910884Y37306465D01*
X131914604Y37303860D01*
X131914080Y37303113D01*
X131958916Y37256099D01*
X131972146Y37187494D01*
X131970822Y37177737D01*
X131964103Y37139634D01*
X132588000Y36515736D01*
X132669280Y36434456D01*
X132623763Y36441000D01*
X132552237Y36441000D01*
X132445685Y36425680D01*
X132314900Y36365952D01*
X132206239Y36271798D01*
X132128507Y36150844D01*
X132088000Y36012889D01*
X132088000Y35869111D01*
X132128507Y35731156D01*
X132206239Y35610202D01*
X132314900Y35516048D01*
X132445685Y35456320D01*
X132552237Y35441000D01*
X132623763Y35441000D01*
X132669280Y35447545D01*
X131964103Y34742368D01*
X131970822Y34704264D01*
X131963078Y34634824D01*
X131919021Y34580596D01*
X131910720Y34575353D01*
X131910176Y34575039D01*
X131716597Y34439495D01*
X131549505Y34272403D01*
X131413965Y34078831D01*
X131413964Y34078829D01*
X131314098Y33864665D01*
X131314094Y33864656D01*
X131252938Y33636414D01*
X131252936Y33636404D01*
X131232341Y33401001D01*
X131232341Y33401000D01*
X131252937Y33165592D01*
X131256486Y33152345D01*
X131254820Y33082495D01*
X131224391Y33032575D01*
X125855837Y27664019D01*
X125794514Y27630534D01*
X125768156Y27627700D01*
X112726499Y27627700D01*
X112659460Y27647385D01*
X112613705Y27700189D01*
X112602499Y27751700D01*
X112602499Y27821871D01*
X112602498Y27821877D01*
X112602497Y27821884D01*
X112596091Y27881483D01*
X112547787Y28010992D01*
X112545797Y28016329D01*
X112545793Y28016336D01*
X112459547Y28131545D01*
X112459544Y28131548D01*
X112344335Y28217794D01*
X112344328Y28217798D01*
X112209482Y28268092D01*
X112209483Y28268092D01*
X112149883Y28274499D01*
X112149881Y28274500D01*
X112149873Y28274500D01*
X112149864Y28274500D01*
X110354129Y28274500D01*
X110354123Y28274499D01*
X110294516Y28268092D01*
X110159671Y28217798D01*
X110159664Y28217794D01*
X110044455Y28131548D01*
X110044452Y28131545D01*
X109958206Y28016336D01*
X109958202Y28016329D01*
X109907908Y27881483D01*
X109901501Y27821884D01*
X109901501Y27821877D01*
X109901500Y27821865D01*
X109901500Y26026130D01*
X109901501Y26026124D01*
X109907908Y25966517D01*
X109958202Y25831672D01*
X109958206Y25831665D01*
X110044452Y25716456D01*
X110044455Y25716453D01*
X110159664Y25630207D01*
X110159671Y25630203D01*
X110291081Y25581190D01*
X110347015Y25539319D01*
X110371432Y25473855D01*
X110356580Y25405582D01*
X110335430Y25377327D01*
X110213503Y25255400D01*
X110077965Y25061831D01*
X110077964Y25061829D01*
X109978098Y24847665D01*
X109978094Y24847656D01*
X109916938Y24619414D01*
X109916936Y24619404D01*
X109896341Y24384001D01*
X109896341Y24384000D01*
X109916936Y24148597D01*
X109916938Y24148587D01*
X109978094Y23920345D01*
X109978096Y23920341D01*
X109978097Y23920337D01*
X110061660Y23741137D01*
X110077965Y23706170D01*
X110077967Y23706166D01*
X110158362Y23591351D01*
X110213505Y23512599D01*
X110380599Y23345505D01*
X110399952Y23331954D01*
X110574165Y23209968D01*
X110574167Y23209967D01*
X110574170Y23209965D01*
X110788337Y23110097D01*
X111016592Y23048937D01*
X111204918Y23032461D01*
X111251999Y23028341D01*
X111252000Y23028341D01*
X111252001Y23028341D01*
X111291234Y23031774D01*
X111487408Y23048937D01*
X111715663Y23110097D01*
X111929830Y23209965D01*
X112123401Y23345505D01*
X112290495Y23512599D01*
X112370897Y23627424D01*
X112425474Y23671049D01*
X112472471Y23680300D01*
X125960872Y23680300D01*
X125964616Y23680187D01*
X126026798Y23676426D01*
X126026798Y23676427D01*
X126026800Y23676426D01*
X126088072Y23687656D01*
X126091762Y23688217D01*
X126153643Y23695730D01*
X126163204Y23699357D01*
X126184834Y23705388D01*
X126194890Y23707230D01*
X126251715Y23732806D01*
X126255149Y23734228D01*
X126313427Y23756329D01*
X126321838Y23762136D01*
X126341392Y23773165D01*
X126350725Y23777364D01*
X126399810Y23815822D01*
X126402788Y23818013D01*
X126454066Y23853405D01*
X126495384Y23900045D01*
X126497918Y23902738D01*
X133394821Y30799640D01*
X133456142Y30833123D01*
X133525834Y30828139D01*
X133581767Y30786267D01*
X133606184Y30720803D01*
X133606500Y30711957D01*
X133606500Y27057746D01*
X133586815Y26990707D01*
X133570181Y26970065D01*
X120730935Y14130819D01*
X120669612Y14097334D01*
X120643254Y14094500D01*
X74421112Y14094500D01*
X74413594Y14094277D01*
X74406076Y14094053D01*
X74389251Y14093050D01*
X74383849Y14092728D01*
X74353904Y14090048D01*
X74353901Y14090048D01*
X74214934Y14052813D01*
X74214920Y14052808D01*
X74150695Y14025306D01*
X74088134Y13987174D01*
X74020645Y13969092D01*
X73954094Y13990368D01*
X73935918Y14005376D01*
X73896401Y14044893D01*
X73896395Y14044898D01*
X73710841Y14174824D01*
X73667216Y14229401D01*
X73660022Y14298899D01*
X73691545Y14361254D01*
X73710841Y14377974D01*
X73733025Y14393508D01*
X73896400Y14507904D01*
X74063494Y14674998D01*
X74199034Y14868569D01*
X74298902Y15082736D01*
X74360062Y15310991D01*
X74380658Y15546399D01*
X74360062Y15781807D01*
X74298902Y16010062D01*
X74199034Y16224228D01*
X74199033Y16224230D01*
X74063493Y16417802D01*
X73896401Y16584893D01*
X73896395Y16584898D01*
X73710841Y16714824D01*
X73667216Y16769401D01*
X73660022Y16838899D01*
X73691545Y16901254D01*
X73710841Y16917974D01*
X73798152Y16979110D01*
X73896400Y17047904D01*
X74063494Y17214998D01*
X74199034Y17408569D01*
X74298902Y17622736D01*
X74360062Y17850991D01*
X74380658Y18086399D01*
X74360062Y18321807D01*
X74298902Y18550062D01*
X74199034Y18764228D01*
X74199033Y18764230D01*
X74063493Y18957802D01*
X73896401Y19124893D01*
X73896395Y19124898D01*
X73710841Y19254824D01*
X73667216Y19309401D01*
X73660022Y19378899D01*
X73691545Y19441254D01*
X73710841Y19457974D01*
X73733025Y19473508D01*
X73896400Y19587904D01*
X74063494Y19754998D01*
X74143896Y19869823D01*
X74198473Y19913448D01*
X74245470Y19922699D01*
X76422645Y19922699D01*
X76489684Y19903014D01*
X76526453Y19866522D01*
X76623731Y19717627D01*
X76779692Y19548208D01*
X76961411Y19406771D01*
X77163931Y19297172D01*
X77238580Y19271545D01*
X77381725Y19222403D01*
X77381727Y19222403D01*
X77381729Y19222402D01*
X77608863Y19184500D01*
X77608864Y19184500D01*
X77839136Y19184500D01*
X77839137Y19184500D01*
X78066271Y19222402D01*
X78284069Y19297172D01*
X78486589Y19406771D01*
X78668308Y19548208D01*
X78824269Y19717627D01*
X78950217Y19910405D01*
X79042717Y20121284D01*
X79099246Y20344512D01*
X79118262Y20574000D01*
X79115662Y20605372D01*
X79099246Y20803485D01*
X79099246Y20803488D01*
X79042717Y21026716D01*
X78950217Y21237595D01*
X78901458Y21312227D01*
X78824271Y21430371D01*
X78762195Y21497803D01*
X78668308Y21599792D01*
X78600036Y21652930D01*
X78486591Y21741228D01*
X78284069Y21850828D01*
X78284061Y21850831D01*
X78066274Y21925598D01*
X77895920Y21954025D01*
X77839137Y21963500D01*
X77608863Y21963500D01*
X77563436Y21955920D01*
X77381725Y21925598D01*
X77163938Y21850831D01*
X77163930Y21850828D01*
X76961408Y21741228D01*
X76779694Y21599794D01*
X76779689Y21599789D01*
X76623728Y21430371D01*
X76594922Y21386278D01*
X76541775Y21340921D01*
X76491113Y21330099D01*
X74245469Y21330099D01*
X74178430Y21349784D01*
X74143894Y21382976D01*
X74063494Y21497800D01*
X73896400Y21664894D01*
X73896398Y21664895D01*
X73896395Y21664898D01*
X73710841Y21794824D01*
X73667216Y21849401D01*
X73660022Y21918899D01*
X73691545Y21981254D01*
X73710841Y21997974D01*
X73820314Y22074628D01*
X73896400Y22127904D01*
X74063494Y22294998D01*
X74199034Y22488569D01*
X74298902Y22702736D01*
X74360062Y22930991D01*
X74380658Y23166399D01*
X74360062Y23401807D01*
X74298902Y23630062D01*
X74199034Y23844228D01*
X74199033Y23844230D01*
X74063493Y24037802D01*
X73896401Y24204893D01*
X73896395Y24204898D01*
X73710841Y24334824D01*
X73667216Y24389401D01*
X73660022Y24458899D01*
X73691545Y24521254D01*
X73710841Y24537974D01*
X73733025Y24553508D01*
X73896400Y24667904D01*
X74063494Y24834998D01*
X74199034Y25028569D01*
X74298902Y25242736D01*
X74360062Y25470991D01*
X74380658Y25706399D01*
X74360062Y25941807D01*
X74313625Y26115114D01*
X74298904Y26170055D01*
X74298903Y26170056D01*
X74298902Y26170062D01*
X74199034Y26384228D01*
X74199033Y26384230D01*
X74063493Y26577802D01*
X73896401Y26744893D01*
X73896395Y26744898D01*
X73710841Y26874824D01*
X73667216Y26929401D01*
X73660022Y26998899D01*
X73691545Y27061254D01*
X73710841Y27077974D01*
X73733025Y27093508D01*
X73896400Y27207904D01*
X74063494Y27374998D01*
X74143896Y27489823D01*
X74198473Y27533448D01*
X74245470Y27542699D01*
X83220743Y27542699D01*
X83224487Y27542586D01*
X83286669Y27538825D01*
X83286669Y27538826D01*
X83286671Y27538825D01*
X83347943Y27550055D01*
X83351633Y27550616D01*
X83413514Y27558129D01*
X83423075Y27561756D01*
X83444705Y27567787D01*
X83454761Y27569629D01*
X83511586Y27595205D01*
X83515020Y27596627D01*
X83573298Y27618728D01*
X83581709Y27624535D01*
X83601263Y27635564D01*
X83610596Y27639763D01*
X83659681Y27678221D01*
X83662659Y27680412D01*
X83713937Y27715804D01*
X83755255Y27762444D01*
X83757789Y27765137D01*
X91933652Y35940999D01*
X113198843Y35940999D01*
X113219430Y35705685D01*
X113219432Y35705674D01*
X113280566Y35477517D01*
X113280570Y35477508D01*
X113355367Y35317105D01*
X113979263Y35941000D01*
X113979263Y35941001D01*
X113355367Y36564896D01*
X113280570Y36404493D01*
X113280566Y36404484D01*
X113219432Y36176327D01*
X113219430Y36176316D01*
X113198843Y35941002D01*
X113198843Y35940999D01*
X91933652Y35940999D01*
X101353635Y45360981D01*
X101414958Y45394466D01*
X101441316Y45397300D01*
X113333529Y45397300D01*
X113400568Y45377615D01*
X113435103Y45344424D01*
X113515505Y45229599D01*
X113682597Y45062507D01*
X113682603Y45062502D01*
X113868158Y44932575D01*
X113911783Y44877998D01*
X113918977Y44808500D01*
X113887454Y44746145D01*
X113868158Y44729425D01*
X113682597Y44599495D01*
X113515505Y44432403D01*
X113379965Y44238831D01*
X113379964Y44238829D01*
X113280098Y44024665D01*
X113280094Y44024656D01*
X113218938Y43796414D01*
X113218936Y43796404D01*
X113198341Y43561001D01*
X113198341Y43561000D01*
X113218936Y43325597D01*
X113218938Y43325587D01*
X113280094Y43097345D01*
X113280096Y43097341D01*
X113280097Y43097337D01*
X113324348Y43002441D01*
X113379965Y42883170D01*
X113379967Y42883166D01*
X113515501Y42689605D01*
X113515506Y42689598D01*
X113682597Y42522507D01*
X113682603Y42522502D01*
X113868158Y42392575D01*
X113911783Y42337998D01*
X113918977Y42268500D01*
X113887454Y42206145D01*
X113868158Y42189425D01*
X113682597Y42059495D01*
X113515505Y41892403D01*
X113379965Y41698831D01*
X113379964Y41698829D01*
X113280098Y41484665D01*
X113280094Y41484656D01*
X113218938Y41256414D01*
X113218936Y41256404D01*
X113198341Y41021001D01*
X113198341Y41021000D01*
X113218936Y40785597D01*
X113218938Y40785587D01*
X113280094Y40557345D01*
X113280096Y40557341D01*
X113280097Y40557337D01*
X113378802Y40345663D01*
X113379965Y40343170D01*
X113379967Y40343166D01*
X113515501Y40149605D01*
X113515506Y40149598D01*
X113546580Y40118524D01*
X113580065Y40057201D01*
X113575081Y39987509D01*
X113536212Y39933897D01*
X113427204Y39846965D01*
X113346377Y39782508D01*
X113346375Y39782506D01*
X113165883Y39587981D01*
X113016404Y39368737D01*
X113016397Y39368726D01*
X112901268Y39129656D01*
X112901261Y39129637D01*
X112823051Y38876084D01*
X112823048Y38876074D01*
X112783500Y38613689D01*
X112783500Y38348312D01*
X112823048Y38085927D01*
X112823051Y38085917D01*
X112901261Y37832364D01*
X112901268Y37832345D01*
X113016397Y37593277D01*
X113016398Y37593275D01*
X113016400Y37593272D01*
X113016402Y37593268D01*
X113165886Y37374016D01*
X113346377Y37179492D01*
X113553845Y37014042D01*
X113783655Y36881361D01*
X114030673Y36784414D01*
X114289381Y36725365D01*
X114302941Y36724349D01*
X114368320Y36699715D01*
X114381360Y36688377D01*
X114554000Y36515736D01*
X114635280Y36434456D01*
X114589763Y36441000D01*
X114518237Y36441000D01*
X114411685Y36425680D01*
X114280900Y36365952D01*
X114172239Y36271798D01*
X114094507Y36150844D01*
X114054000Y36012889D01*
X114054000Y35869111D01*
X114094507Y35731156D01*
X114172239Y35610202D01*
X114280900Y35516048D01*
X114411685Y35456320D01*
X114518237Y35441000D01*
X114589763Y35441000D01*
X114635279Y35447545D01*
X114381359Y35193624D01*
X114320036Y35160139D01*
X114302950Y35157652D01*
X114293595Y35156951D01*
X114289381Y35156635D01*
X114289377Y35156634D01*
X114030686Y35097590D01*
X114030667Y35097584D01*
X113783654Y35000639D01*
X113553845Y34867958D01*
X113346377Y34702508D01*
X113346375Y34702506D01*
X113165883Y34507981D01*
X113016404Y34288737D01*
X113016397Y34288726D01*
X112901268Y34049656D01*
X112901261Y34049637D01*
X112823051Y33796084D01*
X112823048Y33796074D01*
X112783500Y33533689D01*
X112783500Y33268312D01*
X112823048Y33005927D01*
X112823051Y33005917D01*
X112901261Y32752364D01*
X112901268Y32752345D01*
X113016397Y32513277D01*
X113016398Y32513275D01*
X113016400Y32513272D01*
X113016402Y32513268D01*
X113165886Y32294016D01*
X113346377Y32099492D01*
X113553845Y31934042D01*
X113783655Y31801361D01*
X114030673Y31704414D01*
X114289381Y31645365D01*
X114289387Y31645365D01*
X114289390Y31645364D01*
X114487739Y31630500D01*
X114487745Y31630500D01*
X117949869Y31630500D01*
X118049386Y31626776D01*
X118049386Y31626777D01*
X118049387Y31626776D01*
X118148328Y31637925D01*
X118247619Y31645365D01*
X118276663Y31651995D01*
X118283491Y31653155D01*
X118313080Y31656488D01*
X118409252Y31682258D01*
X118430406Y31687086D01*
X118506325Y31704413D01*
X118506325Y31704414D01*
X118506327Y31704414D01*
X118534029Y31715287D01*
X118540644Y31717464D01*
X118569396Y31725167D01*
X118569396Y31725168D01*
X118569399Y31725168D01*
X118660663Y31764987D01*
X118753345Y31801361D01*
X118779138Y31816255D01*
X118785327Y31819378D01*
X118812619Y31831284D01*
X118846080Y31852309D01*
X118896928Y31884259D01*
X118944485Y31911716D01*
X118983155Y31934042D01*
X119006424Y31952599D01*
X119012096Y31956623D01*
X119020891Y31962151D01*
X119037308Y31972465D01*
X119112782Y32037417D01*
X119136585Y32056399D01*
X119190611Y32099482D01*
X119190613Y32099485D01*
X119190623Y32099492D01*
X119258353Y32172489D01*
X123026863Y35940999D01*
X131232843Y35940999D01*
X131253430Y35705685D01*
X131253432Y35705674D01*
X131314566Y35477517D01*
X131314570Y35477508D01*
X131389367Y35317105D01*
X132013263Y35941000D01*
X131389367Y36564896D01*
X131314570Y36404493D01*
X131314566Y36404484D01*
X131253432Y36176327D01*
X131253430Y36176316D01*
X131232843Y35941002D01*
X131232843Y35940999D01*
X123026863Y35940999D01*
X126958524Y39872659D01*
X127031508Y39940377D01*
X127093578Y40018211D01*
X127158535Y40093692D01*
X127174382Y40118915D01*
X127178390Y40124564D01*
X127196958Y40147845D01*
X127246742Y40234075D01*
X127299715Y40318380D01*
X127309635Y40341121D01*
X127311618Y40345663D01*
X127314755Y40351877D01*
X127329639Y40377655D01*
X127366018Y40470350D01*
X127405831Y40561600D01*
X127413534Y40590351D01*
X127415711Y40596966D01*
X127423025Y40615601D01*
X127426586Y40624673D01*
X127448744Y40721755D01*
X127474512Y40817920D01*
X127477844Y40847495D01*
X127479010Y40854356D01*
X127485635Y40883383D01*
X127485636Y40883394D01*
X127493076Y40982689D01*
X127499237Y41037367D01*
X127504223Y41081613D01*
X127500500Y41181105D01*
X127500500Y70578870D01*
X127504224Y70678387D01*
X127493074Y70777338D01*
X127485635Y70876619D01*
X127479006Y70905660D01*
X127477847Y70912486D01*
X127474513Y70942079D01*
X127448740Y71038264D01*
X127426586Y71135327D01*
X127415709Y71163041D01*
X127413541Y71169626D01*
X127405832Y71198399D01*
X127366013Y71289664D01*
X127332914Y71374000D01*
X127329640Y71382343D01*
X127329636Y71382351D01*
X127326587Y71387631D01*
X127314742Y71408146D01*
X127311628Y71414315D01*
X127299716Y71441619D01*
X127246742Y71525926D01*
X127196958Y71612155D01*
X127196954Y71612159D01*
X127196951Y71612165D01*
X127186479Y71625295D01*
X127178388Y71635440D01*
X127174372Y71641101D01*
X127159137Y71665349D01*
X127158540Y71666300D01*
X127158537Y71666303D01*
X127158535Y71666307D01*
X127093589Y71741776D01*
X127031508Y71819623D01*
X126958511Y71887354D01*
X126904818Y71941047D01*
X126871333Y72002370D01*
X126868499Y72028728D01*
X126868499Y72649500D01*
X126888184Y72716539D01*
X126940988Y72762294D01*
X126992499Y72773500D01*
X130676254Y72773500D01*
X130743293Y72753815D01*
G37*
G04 #@! TD.AperFunction*
G04 #@! TA.AperFunction,Conductor*
G36*
X87829539Y57899815D02*
G01*
X87875294Y57847011D01*
X87886500Y57795500D01*
X87886500Y57060827D01*
X87887950Y57033773D01*
X87887950Y57033772D01*
X87892231Y56993964D01*
X87900885Y56940555D01*
X87900885Y56940553D01*
X87934040Y56851663D01*
X87951168Y56805743D01*
X87984653Y56744420D01*
X88070877Y56629239D01*
X88070881Y56629235D01*
X88070886Y56629229D01*
X94992819Y49707296D01*
X94992820Y49707296D01*
X95012956Y49689209D01*
X95012955Y49689209D01*
X95044139Y49664080D01*
X95044142Y49664078D01*
X95088026Y49632433D01*
X95218903Y49572662D01*
X95247129Y49564374D01*
X95285937Y49552978D01*
X95285942Y49552977D01*
X95285946Y49552976D01*
X95428362Y49532500D01*
X95428365Y49532500D01*
X113114577Y49532500D01*
X113114581Y49532500D01*
X113141620Y49533949D01*
X113141627Y49533950D01*
X113141631Y49533950D01*
X113141632Y49533950D01*
X113181440Y49538231D01*
X113234852Y49546886D01*
X113273749Y49561395D01*
X113343438Y49566380D01*
X113404762Y49532896D01*
X113438249Y49471574D01*
X113433266Y49401882D01*
X113418659Y49374091D01*
X113379964Y49318829D01*
X113379962Y49318825D01*
X113366193Y49289296D01*
X113320021Y49236856D01*
X113253811Y49217700D01*
X102385128Y49217700D01*
X102381384Y49217813D01*
X102319202Y49221575D01*
X102319195Y49221574D01*
X102257929Y49210347D01*
X102254228Y49209784D01*
X102192356Y49202270D01*
X102182778Y49198638D01*
X102161173Y49192616D01*
X102158674Y49192158D01*
X102151108Y49190771D01*
X102094293Y49165201D01*
X102090834Y49163768D01*
X102032572Y49141671D01*
X102032571Y49141671D01*
X102024150Y49135858D01*
X102004619Y49124843D01*
X101995282Y49120641D01*
X101995270Y49120633D01*
X101946214Y49082200D01*
X101943198Y49079982D01*
X101891935Y49044596D01*
X101891931Y49044593D01*
X101850617Y48997960D01*
X101848050Y48995234D01*
X84379236Y31526418D01*
X84317913Y31492933D01*
X84291555Y31490099D01*
X74245469Y31490099D01*
X74178430Y31509784D01*
X74143894Y31542976D01*
X74063494Y31657800D01*
X73896400Y31824894D01*
X73896398Y31824895D01*
X73896395Y31824898D01*
X73710841Y31954824D01*
X73667216Y32009401D01*
X73660022Y32078899D01*
X73691545Y32141254D01*
X73710841Y32157974D01*
X73790814Y32213972D01*
X73896400Y32287904D01*
X74063494Y32454998D01*
X74199034Y32648569D01*
X74298902Y32862736D01*
X74360062Y33090991D01*
X74380658Y33326399D01*
X74360062Y33561807D01*
X74298902Y33790062D01*
X74199034Y34004228D01*
X74199033Y34004230D01*
X74063493Y34197802D01*
X73896401Y34364893D01*
X73896395Y34364898D01*
X73710841Y34494824D01*
X73667216Y34549401D01*
X73660022Y34618899D01*
X73691545Y34681254D01*
X73710841Y34697974D01*
X73733025Y34713508D01*
X73896400Y34827904D01*
X74063494Y34994998D01*
X74199034Y35188569D01*
X74298902Y35402736D01*
X74360062Y35630991D01*
X74380658Y35866399D01*
X74360062Y36101807D01*
X74298902Y36330062D01*
X74199034Y36544228D01*
X74199033Y36544230D01*
X74063493Y36737802D01*
X73896401Y36904893D01*
X73896395Y36904898D01*
X73710841Y37034824D01*
X73667216Y37089401D01*
X73660022Y37158899D01*
X73691545Y37221254D01*
X73710841Y37237974D01*
X73803869Y37303113D01*
X73896400Y37367904D01*
X74063494Y37534998D01*
X74199034Y37728569D01*
X74298902Y37942736D01*
X74360062Y38170991D01*
X74380658Y38406399D01*
X74360062Y38641807D01*
X74298902Y38870062D01*
X74199034Y39084228D01*
X74199033Y39084230D01*
X74063493Y39277802D01*
X73896401Y39444893D01*
X73896400Y39444894D01*
X73710841Y39574824D01*
X73710404Y39575130D01*
X73666780Y39629707D01*
X73659587Y39699206D01*
X73691109Y39761560D01*
X73710404Y39778280D01*
X73896081Y39908294D01*
X74063104Y40075317D01*
X74198599Y40268821D01*
X74298430Y40482909D01*
X74298431Y40482913D01*
X74313726Y40539999D01*
X73319509Y40539999D01*
X73406760Y40615601D01*
X73484492Y40736555D01*
X73524999Y40874510D01*
X73524999Y41018288D01*
X73484492Y41156243D01*
X73406760Y41277197D01*
X73319509Y41352799D01*
X74313727Y41352799D01*
X74313726Y41352800D01*
X74298431Y41409886D01*
X74298430Y41409890D01*
X74198599Y41623977D01*
X74198598Y41623979D01*
X74063112Y41817473D01*
X74063107Y41817479D01*
X73896077Y41984509D01*
X73710404Y42114520D01*
X73666779Y42169097D01*
X73659587Y42238595D01*
X73691109Y42300950D01*
X73710405Y42317669D01*
X73725101Y42327959D01*
X73896400Y42447904D01*
X74063494Y42614998D01*
X74143896Y42729823D01*
X74198473Y42773448D01*
X74245470Y42782699D01*
X74832271Y42782699D01*
X74836015Y42782586D01*
X74898197Y42778825D01*
X74898197Y42778826D01*
X74898199Y42778825D01*
X74959471Y42790055D01*
X74963161Y42790616D01*
X75025042Y42798129D01*
X75034603Y42801756D01*
X75056233Y42807787D01*
X75066289Y42809629D01*
X75123114Y42835205D01*
X75126548Y42836627D01*
X75184826Y42858728D01*
X75193237Y42864535D01*
X75212791Y42875564D01*
X75222124Y42879763D01*
X75271209Y42918221D01*
X75274187Y42920412D01*
X75325465Y42955804D01*
X75366783Y43002444D01*
X75369317Y43005137D01*
X78713262Y46349082D01*
X78715958Y46351618D01*
X78741000Y46373803D01*
X78762595Y46392934D01*
X78797987Y46444212D01*
X78800190Y46447205D01*
X78838636Y46496275D01*
X78842836Y46505610D01*
X78853864Y46525161D01*
X78859671Y46533573D01*
X78881773Y46591855D01*
X78883175Y46595241D01*
X78908771Y46652110D01*
X78910614Y46662170D01*
X78916640Y46683789D01*
X78920270Y46693357D01*
X78927782Y46755232D01*
X78928344Y46758923D01*
X78939574Y46820199D01*
X78939574Y46820202D01*
X78935813Y46882385D01*
X78935700Y46886129D01*
X78935700Y55323751D01*
X78955385Y55390790D01*
X79008189Y55436545D01*
X79077347Y55446489D01*
X79140903Y55417464D01*
X79147381Y55411432D01*
X79170858Y55387955D01*
X79170861Y55387953D01*
X79357266Y55257432D01*
X79563504Y55161261D01*
X79563509Y55161260D01*
X79563511Y55161259D01*
X79575674Y55158000D01*
X79783308Y55102365D01*
X79945230Y55088199D01*
X80009998Y55082532D01*
X80010000Y55082532D01*
X80010002Y55082532D01*
X80066673Y55087491D01*
X80236692Y55102365D01*
X80456496Y55161261D01*
X80662734Y55257432D01*
X80849139Y55387953D01*
X81010047Y55548861D01*
X81129345Y55719240D01*
X81143228Y55735785D01*
X83290626Y57883181D01*
X83351949Y57916666D01*
X83378307Y57919500D01*
X87762500Y57919500D01*
X87829539Y57899815D01*
G37*
G04 #@! TD.AperFunction*
G04 #@! TA.AperFunction,Conductor*
G36*
X115074540Y35967358D02*
G01*
X115069556Y35897666D01*
X115054000Y35873462D01*
X115054000Y36004975D01*
X115074540Y35967358D01*
G37*
G04 #@! TD.AperFunction*
G04 #@! TA.AperFunction,Conductor*
G36*
X133108540Y35967358D02*
G01*
X133103556Y35897666D01*
X133088000Y35873462D01*
X133088000Y36004975D01*
X133108540Y35967358D01*
G37*
G04 #@! TD.AperFunction*
G04 #@! TA.AperFunction,Conductor*
G36*
X75913323Y60490615D02*
G01*
X75959078Y60437811D01*
X75969022Y60368653D01*
X75939997Y60305097D01*
X75933965Y60298619D01*
X74003365Y58368021D01*
X74000639Y58365454D01*
X73954006Y58324140D01*
X73954003Y58324136D01*
X73918617Y58272873D01*
X73916399Y58269857D01*
X73877964Y58220799D01*
X73877960Y58220792D01*
X73873761Y58211461D01*
X73862739Y58191918D01*
X73856932Y58183505D01*
X73856924Y58183490D01*
X73834834Y58125244D01*
X73833402Y58121787D01*
X73807829Y58064962D01*
X73807827Y58064957D01*
X73805984Y58054898D01*
X73799961Y58033294D01*
X73796329Y58023716D01*
X73788814Y57961836D01*
X73788251Y57958135D01*
X73777025Y57896876D01*
X73777025Y57896871D01*
X73780786Y57834688D01*
X73780899Y57830944D01*
X73780899Y57660399D01*
X73761214Y57593360D01*
X73708410Y57547605D01*
X73656899Y57536399D01*
X73431399Y57536399D01*
X73431399Y56478858D01*
X73406760Y56517197D01*
X73298099Y56611351D01*
X73167314Y56671079D01*
X73060762Y56686399D01*
X72989236Y56686399D01*
X72882684Y56671079D01*
X72751899Y56611351D01*
X72643238Y56517197D01*
X72565506Y56396243D01*
X72524999Y56258288D01*
X72524999Y56114510D01*
X72565506Y55976555D01*
X72643238Y55855601D01*
X72730489Y55779999D01*
X71674999Y55779999D01*
X71674999Y55288555D01*
X71681400Y55229027D01*
X71681402Y55229020D01*
X71731644Y55094313D01*
X71731648Y55094306D01*
X71817808Y54979212D01*
X71817811Y54979209D01*
X71932905Y54893049D01*
X71932912Y54893045D01*
X72064469Y54843978D01*
X72120402Y54802107D01*
X72144820Y54736643D01*
X72129969Y54668370D01*
X72108818Y54640115D01*
X71986505Y54517802D01*
X71986504Y54517800D01*
X71906102Y54402975D01*
X71851527Y54359351D01*
X71804529Y54350100D01*
X66625470Y54350100D01*
X66558431Y54369785D01*
X66523895Y54402977D01*
X66514847Y54415899D01*
X66443495Y54517801D01*
X66276401Y54684895D01*
X66225299Y54720677D01*
X66082827Y54820438D01*
X66082289Y54820748D01*
X66082099Y54820947D01*
X66078396Y54823540D01*
X66078917Y54824285D01*
X66034075Y54871316D01*
X66020854Y54939923D01*
X66022176Y54949666D01*
X66028894Y54987769D01*
X65405001Y55611664D01*
X65405000Y55611664D01*
X64781103Y54987768D01*
X64787822Y54949664D01*
X64780078Y54880224D01*
X64736021Y54825996D01*
X64727720Y54820753D01*
X64727176Y54820439D01*
X64533597Y54684895D01*
X64366505Y54517803D01*
X64230965Y54324231D01*
X64230964Y54324229D01*
X64191452Y54239494D01*
X64131098Y54110064D01*
X64131094Y54110056D01*
X64069938Y53881814D01*
X64069936Y53881804D01*
X64049341Y53646401D01*
X64049341Y53646400D01*
X64069936Y53410997D01*
X64069938Y53410987D01*
X64131094Y53182745D01*
X64131096Y53182741D01*
X64131097Y53182737D01*
X64230965Y52968570D01*
X64230967Y52968566D01*
X64286104Y52889823D01*
X64366505Y52774999D01*
X64533599Y52607905D01*
X64533601Y52607904D01*
X64533603Y52607902D01*
X64719158Y52477975D01*
X64762783Y52423398D01*
X64769977Y52353900D01*
X64738454Y52291545D01*
X64719158Y52274825D01*
X64533597Y52144895D01*
X64366505Y51977803D01*
X64230965Y51784231D01*
X64230964Y51784229D01*
X64137401Y51583584D01*
X64131098Y51570064D01*
X64131094Y51570056D01*
X64069938Y51341814D01*
X64069936Y51341804D01*
X64049341Y51106401D01*
X64049341Y51106400D01*
X64069936Y50870997D01*
X64069938Y50870987D01*
X64131094Y50642745D01*
X64131096Y50642741D01*
X64131097Y50642737D01*
X64207576Y50478728D01*
X64230965Y50428570D01*
X64230967Y50428566D01*
X64286104Y50349823D01*
X64366505Y50234999D01*
X64533599Y50067905D01*
X64533601Y50067904D01*
X64533603Y50067902D01*
X64719158Y49937975D01*
X64762783Y49883398D01*
X64769977Y49813900D01*
X64738454Y49751545D01*
X64719158Y49734825D01*
X64533597Y49604895D01*
X64366505Y49437803D01*
X64230965Y49244231D01*
X64230964Y49244229D01*
X64137401Y49043584D01*
X64131098Y49030064D01*
X64131094Y49030056D01*
X64069938Y48801814D01*
X64069936Y48801804D01*
X64049341Y48566401D01*
X64049341Y48566400D01*
X64069936Y48330997D01*
X64069938Y48330987D01*
X64131094Y48102745D01*
X64131096Y48102741D01*
X64131097Y48102737D01*
X64196180Y47963166D01*
X64230965Y47888570D01*
X64230967Y47888566D01*
X64299554Y47790615D01*
X64366505Y47694999D01*
X64533599Y47527905D01*
X64533601Y47527904D01*
X64533603Y47527902D01*
X64719158Y47397975D01*
X64762783Y47343398D01*
X64769977Y47273900D01*
X64738454Y47211545D01*
X64719158Y47194825D01*
X64533597Y47064895D01*
X64366505Y46897803D01*
X64230965Y46704231D01*
X64230964Y46704229D01*
X64151387Y46533574D01*
X64131098Y46490064D01*
X64131094Y46490056D01*
X64069938Y46261814D01*
X64069936Y46261804D01*
X64049341Y46026401D01*
X64049341Y46026400D01*
X64069936Y45790997D01*
X64069938Y45790987D01*
X64131094Y45562745D01*
X64131096Y45562741D01*
X64131097Y45562737D01*
X64196180Y45423166D01*
X64230965Y45348570D01*
X64230967Y45348566D01*
X64286104Y45269823D01*
X64366505Y45154999D01*
X64533599Y44987905D01*
X64533601Y44987904D01*
X64533603Y44987902D01*
X64719158Y44857975D01*
X64762783Y44803398D01*
X64769977Y44733900D01*
X64738454Y44671545D01*
X64719158Y44654825D01*
X64533597Y44524895D01*
X64366505Y44357803D01*
X64230965Y44164231D01*
X64230964Y44164229D01*
X64152569Y43996109D01*
X64131098Y43950064D01*
X64131094Y43950056D01*
X64069938Y43721814D01*
X64069936Y43721804D01*
X64049341Y43486401D01*
X64049341Y43486400D01*
X64069936Y43250997D01*
X64069938Y43250987D01*
X64131094Y43022745D01*
X64131096Y43022741D01*
X64131097Y43022737D01*
X64207576Y42858728D01*
X64230965Y42808570D01*
X64230967Y42808566D01*
X64314265Y42689605D01*
X64366505Y42614999D01*
X64533599Y42447905D01*
X64560314Y42429199D01*
X64727162Y42312370D01*
X64727166Y42312368D01*
X64727170Y42312365D01*
X64727173Y42312364D01*
X64727696Y42312062D01*
X64727884Y42311865D01*
X64731604Y42309260D01*
X64731080Y42308513D01*
X64775916Y42261499D01*
X64789146Y42192894D01*
X64787822Y42183137D01*
X64781103Y42145034D01*
X65405000Y41521137D01*
X65405001Y41521137D01*
X66028894Y42145033D01*
X66022176Y42183135D01*
X66029920Y42252574D01*
X66073976Y42306804D01*
X66082304Y42312062D01*
X66082821Y42312362D01*
X66082830Y42312365D01*
X66276401Y42447905D01*
X66443495Y42614999D01*
X66523895Y42729824D01*
X66578471Y42773448D01*
X66625470Y42782700D01*
X71804528Y42782700D01*
X71871567Y42763015D01*
X71906103Y42729823D01*
X71986504Y42614997D01*
X72153596Y42447906D01*
X72153602Y42447901D01*
X72232616Y42392575D01*
X72320031Y42331366D01*
X72339593Y42317669D01*
X72383218Y42263092D01*
X72390412Y42193594D01*
X72358889Y42131239D01*
X72339594Y42114519D01*
X72153921Y41984509D01*
X72153919Y41984508D01*
X71986890Y41817479D01*
X71986885Y41817473D01*
X71851399Y41623979D01*
X71851398Y41623977D01*
X71751567Y41409890D01*
X71751566Y41409886D01*
X71736271Y41352800D01*
X71736271Y41352799D01*
X72730489Y41352799D01*
X72643238Y41277197D01*
X72565506Y41156243D01*
X72524999Y41018288D01*
X72524999Y40874510D01*
X72565506Y40736555D01*
X72643238Y40615601D01*
X72730489Y40539999D01*
X71736271Y40539999D01*
X71751566Y40482913D01*
X71751567Y40482909D01*
X71851398Y40268821D01*
X71986893Y40075317D01*
X72153916Y39908294D01*
X72339594Y39778280D01*
X72383218Y39723703D01*
X72390411Y39654204D01*
X72358889Y39591850D01*
X72339594Y39575130D01*
X72153593Y39444891D01*
X71986508Y39277805D01*
X71986507Y39277803D01*
X71986504Y39277800D01*
X71906102Y39162975D01*
X71851527Y39119351D01*
X71804529Y39110100D01*
X66625470Y39110100D01*
X66558431Y39129785D01*
X66523895Y39162977D01*
X66443495Y39277801D01*
X66276401Y39444895D01*
X66241001Y39469683D01*
X66082827Y39580438D01*
X66082289Y39580748D01*
X66082099Y39580947D01*
X66078396Y39583540D01*
X66078917Y39584285D01*
X66034075Y39631316D01*
X66020854Y39699923D01*
X66022176Y39709666D01*
X66028894Y39747769D01*
X65405001Y40371664D01*
X65405000Y40371664D01*
X64781103Y39747768D01*
X64787822Y39709664D01*
X64780078Y39640224D01*
X64736021Y39585996D01*
X64727720Y39580753D01*
X64727176Y39580439D01*
X64533597Y39444895D01*
X64366506Y39277804D01*
X64249414Y39110577D01*
X64194837Y39066952D01*
X64147839Y39057700D01*
X64096844Y39057700D01*
X64029805Y39077385D01*
X64009163Y39094019D01*
X62919219Y40183963D01*
X62885734Y40245286D01*
X62882900Y40271644D01*
X62882900Y40946399D01*
X64049843Y40946399D01*
X64070430Y40711085D01*
X64070432Y40711074D01*
X64131566Y40482917D01*
X64131570Y40482908D01*
X64206367Y40322505D01*
X64758374Y40874511D01*
X64905000Y40874511D01*
X64945507Y40736556D01*
X65023239Y40615602D01*
X65131900Y40521448D01*
X65262685Y40461720D01*
X65369237Y40446400D01*
X65440763Y40446400D01*
X65547315Y40461720D01*
X65678100Y40521448D01*
X65786761Y40615602D01*
X65864493Y40736556D01*
X65905000Y40874511D01*
X65905000Y40946400D01*
X65979736Y40946400D01*
X66603631Y40322506D01*
X66678432Y40482913D01*
X66739567Y40711074D01*
X66739569Y40711085D01*
X66760157Y40946399D01*
X66760157Y40946402D01*
X66739569Y41181716D01*
X66739567Y41181727D01*
X66678433Y41409884D01*
X66678430Y41409893D01*
X66603632Y41570297D01*
X65979736Y40946400D01*
X65905000Y40946400D01*
X65905000Y41018289D01*
X65864493Y41156244D01*
X65786761Y41277198D01*
X65678100Y41371352D01*
X65547315Y41431080D01*
X65440763Y41446400D01*
X65369237Y41446400D01*
X65262685Y41431080D01*
X65131900Y41371352D01*
X65023239Y41277198D01*
X64945507Y41156244D01*
X64905000Y41018289D01*
X64905000Y40874511D01*
X64758374Y40874511D01*
X64830263Y40946400D01*
X64206367Y41570296D01*
X64131570Y41409893D01*
X64131566Y41409884D01*
X64070432Y41181727D01*
X64070430Y41181716D01*
X64049843Y40946402D01*
X64049843Y40946399D01*
X62882900Y40946399D01*
X62882900Y56186399D01*
X64049843Y56186399D01*
X64070430Y55951085D01*
X64070432Y55951074D01*
X64131566Y55722917D01*
X64131570Y55722908D01*
X64206367Y55562505D01*
X64758374Y56114511D01*
X64905000Y56114511D01*
X64945507Y55976556D01*
X65023239Y55855602D01*
X65131900Y55761448D01*
X65262685Y55701720D01*
X65369237Y55686400D01*
X65440763Y55686400D01*
X65547315Y55701720D01*
X65678100Y55761448D01*
X65786761Y55855602D01*
X65864493Y55976556D01*
X65905000Y56114511D01*
X65905000Y56186400D01*
X65979736Y56186400D01*
X66603631Y55562506D01*
X66678432Y55722913D01*
X66739567Y55951074D01*
X66739569Y55951085D01*
X66760157Y56186399D01*
X66760157Y56186402D01*
X66739569Y56421716D01*
X66739567Y56421727D01*
X66693729Y56592799D01*
X71674999Y56592799D01*
X72618599Y56592799D01*
X72618599Y57536399D01*
X72127154Y57536399D01*
X72067626Y57529998D01*
X72067619Y57529996D01*
X71932912Y57479754D01*
X71932905Y57479750D01*
X71817811Y57393590D01*
X71817808Y57393587D01*
X71731648Y57278493D01*
X71731644Y57278486D01*
X71681402Y57143779D01*
X71681400Y57143772D01*
X71674999Y57084244D01*
X71674999Y56592799D01*
X66693729Y56592799D01*
X66678433Y56649884D01*
X66678430Y56649893D01*
X66603632Y56810297D01*
X65979736Y56186400D01*
X65905000Y56186400D01*
X65905000Y56258289D01*
X65864493Y56396244D01*
X65786761Y56517198D01*
X65678100Y56611352D01*
X65547315Y56671080D01*
X65440763Y56686400D01*
X65369237Y56686400D01*
X65262685Y56671080D01*
X65131900Y56611352D01*
X65023239Y56517198D01*
X64945507Y56396244D01*
X64905000Y56258289D01*
X64905000Y56114511D01*
X64758374Y56114511D01*
X64830263Y56186400D01*
X64206367Y56810296D01*
X64131570Y56649893D01*
X64131566Y56649884D01*
X64070432Y56421727D01*
X64070430Y56421716D01*
X64049843Y56186402D01*
X64049843Y56186399D01*
X62882900Y56186399D01*
X62882900Y57385033D01*
X64781104Y57385033D01*
X65405000Y56761137D01*
X65405001Y56761137D01*
X66028895Y57385033D01*
X65868492Y57459830D01*
X65868483Y57459834D01*
X65640326Y57520968D01*
X65640315Y57520970D01*
X65405002Y57541557D01*
X65404998Y57541557D01*
X65169684Y57520970D01*
X65169673Y57520968D01*
X64941516Y57459834D01*
X64941507Y57459830D01*
X64781104Y57385033D01*
X62882900Y57385033D01*
X62882900Y58654884D01*
X62902585Y58721923D01*
X62919219Y58742565D01*
X64650635Y60473981D01*
X64711958Y60507466D01*
X64738316Y60510300D01*
X75846284Y60510300D01*
X75913323Y60490615D01*
G37*
G04 #@! TD.AperFunction*
G04 #@! TA.AperFunction,Conductor*
G36*
X73411714Y55836960D02*
G01*
X73358910Y55791205D01*
X73323569Y55783517D01*
X73406760Y55855601D01*
X73425960Y55885478D01*
X73411714Y55836960D01*
G37*
G04 #@! TD.AperFunction*
G04 #@! TA.AperFunction,Conductor*
G36*
X100193740Y76594215D02*
G01*
X100214382Y76577581D01*
X108619681Y68172282D01*
X108653166Y68110959D01*
X108656000Y68084601D01*
X108656000Y62979399D01*
X108636315Y62912360D01*
X108619681Y62891718D01*
X107288283Y61560319D01*
X107226960Y61526834D01*
X107200602Y61524000D01*
X106658777Y61524000D01*
X106591738Y61543685D01*
X106545983Y61596489D01*
X106536039Y61665647D01*
X106565064Y61729203D01*
X106599350Y61756832D01*
X106705685Y61814896D01*
X106748315Y61838174D01*
X106977395Y62009661D01*
X107179739Y62212005D01*
X107351226Y62441085D01*
X107488367Y62692239D01*
X107588369Y62960354D01*
X107592512Y62979399D01*
X107649195Y63239967D01*
X107649195Y63239968D01*
X107649196Y63239972D01*
X107669610Y63525400D01*
X107649196Y63810828D01*
X107643935Y63835011D01*
X107588371Y64090438D01*
X107588370Y64090440D01*
X107588369Y64090446D01*
X107488367Y64358561D01*
X107467011Y64397671D01*
X107351229Y64609710D01*
X107351224Y64609718D01*
X107179745Y64838788D01*
X107179729Y64838806D01*
X106977405Y65041130D01*
X106977387Y65041146D01*
X106748317Y65212625D01*
X106748309Y65212630D01*
X106497166Y65349765D01*
X106497167Y65349765D01*
X106352194Y65403837D01*
X106229046Y65449769D01*
X106229043Y65449770D01*
X106229037Y65449772D01*
X105949433Y65510596D01*
X105664001Y65531010D01*
X105663999Y65531010D01*
X105378566Y65510596D01*
X105098962Y65449772D01*
X104830833Y65349765D01*
X104579690Y65212630D01*
X104579682Y65212625D01*
X104350612Y65041146D01*
X104350594Y65041130D01*
X104300711Y64991247D01*
X104239388Y64957763D01*
X104169696Y64962748D01*
X104113763Y65004620D01*
X104092825Y65048489D01*
X104039588Y65258717D01*
X103939732Y65486366D01*
X103939727Y65486376D01*
X103926839Y65506103D01*
X103114816Y64694082D01*
X103116000Y64698111D01*
X103116000Y64841889D01*
X103075493Y64979844D01*
X102997761Y65100798D01*
X102889100Y65194952D01*
X102758315Y65254680D01*
X102651763Y65270000D01*
X102580237Y65270000D01*
X102473685Y65254680D01*
X102342900Y65194952D01*
X102234239Y65100798D01*
X102156507Y64979844D01*
X102116000Y64841889D01*
X102116000Y64698111D01*
X102156507Y64560156D01*
X102234239Y64439202D01*
X102342900Y64345048D01*
X102473685Y64285320D01*
X102580237Y64270000D01*
X102651763Y64270000D01*
X102697279Y64276545D01*
X101882254Y63461519D01*
X102011390Y63391633D01*
X102011396Y63391631D01*
X102246506Y63310917D01*
X102491707Y63270000D01*
X102740293Y63270000D01*
X102985493Y63310917D01*
X103220603Y63391631D01*
X103220614Y63391636D01*
X103439228Y63509943D01*
X103439233Y63509947D01*
X103464599Y63529690D01*
X103529592Y63555335D01*
X103598132Y63541770D01*
X103648459Y63493303D01*
X103664448Y63440686D01*
X103678804Y63239967D01*
X103739628Y62960363D01*
X103739630Y62960357D01*
X103739631Y62960354D01*
X103835407Y62703569D01*
X103839635Y62692234D01*
X103976770Y62441091D01*
X103976775Y62441083D01*
X104148254Y62212013D01*
X104148270Y62211995D01*
X104350594Y62009671D01*
X104350612Y62009655D01*
X104579682Y61838176D01*
X104579690Y61838171D01*
X104728650Y61756832D01*
X104778055Y61707427D01*
X104792907Y61639154D01*
X104768490Y61573689D01*
X104712556Y61531818D01*
X104669223Y61524000D01*
X96269399Y61524000D01*
X96202360Y61543685D01*
X96181718Y61560319D01*
X94666293Y63075744D01*
X94632808Y63137067D01*
X94637792Y63206759D01*
X94679664Y63262692D01*
X94745128Y63287109D01*
X94774375Y63285735D01*
X94871665Y63269500D01*
X94871666Y63269500D01*
X95120335Y63269500D01*
X95365614Y63310429D01*
X95600810Y63391172D01*
X95819509Y63509526D01*
X96015744Y63662262D01*
X96174771Y63835012D01*
X96234657Y63871001D01*
X96304495Y63868901D01*
X96357228Y63835012D01*
X96516256Y63662262D01*
X96712491Y63509526D01*
X96801200Y63461519D01*
X96930332Y63391636D01*
X96931190Y63391172D01*
X97119247Y63326612D01*
X97164964Y63310917D01*
X97166386Y63310429D01*
X97411665Y63269500D01*
X97660335Y63269500D01*
X97905614Y63310429D01*
X98140810Y63391172D01*
X98359509Y63509526D01*
X98555744Y63662262D01*
X98714771Y63835012D01*
X98774657Y63871001D01*
X98844495Y63868901D01*
X98897228Y63835012D01*
X99056256Y63662262D01*
X99252491Y63509526D01*
X99341200Y63461519D01*
X99470332Y63391636D01*
X99471190Y63391172D01*
X99659247Y63326612D01*
X99704964Y63310917D01*
X99706386Y63310429D01*
X99951665Y63269500D01*
X100200335Y63269500D01*
X100445614Y63310429D01*
X100680810Y63391172D01*
X100899509Y63509526D01*
X101095744Y63662262D01*
X101264164Y63845215D01*
X101400173Y64053393D01*
X101449809Y64166553D01*
X101475682Y64204421D01*
X102041263Y64770000D01*
X101475682Y65335581D01*
X101449807Y65373452D01*
X101445533Y65383195D01*
X101400173Y65486607D01*
X101360094Y65547953D01*
X101264166Y65694783D01*
X101215995Y65747110D01*
X101095744Y65877738D01*
X100899509Y66030474D01*
X100899507Y66030475D01*
X100899506Y66030476D01*
X100810797Y66078483D01*
X101882253Y66078483D01*
X102616000Y65344737D01*
X102616001Y65344737D01*
X103349745Y66078483D01*
X103349744Y66078484D01*
X103220614Y66148365D01*
X103220603Y66148370D01*
X102985493Y66229084D01*
X102740293Y66270000D01*
X102491707Y66270000D01*
X102246506Y66229084D01*
X102011400Y66148371D01*
X102011386Y66148365D01*
X101882253Y66078483D01*
X100810797Y66078483D01*
X100680811Y66148828D01*
X100680802Y66148831D01*
X100445616Y66229571D01*
X100200335Y66270500D01*
X99951665Y66270500D01*
X99706383Y66229571D01*
X99471197Y66148831D01*
X99471188Y66148828D01*
X99252493Y66030476D01*
X99056257Y65877739D01*
X98897230Y65704990D01*
X98837342Y65668999D01*
X98767504Y65671100D01*
X98714770Y65704990D01*
X98661309Y65763064D01*
X98555744Y65877738D01*
X98359509Y66030474D01*
X98359507Y66030475D01*
X98359506Y66030476D01*
X98140811Y66148828D01*
X98140802Y66148831D01*
X97905616Y66229571D01*
X97660335Y66270500D01*
X97564645Y66270500D01*
X97497606Y66290185D01*
X97476964Y66306819D01*
X97095568Y66688215D01*
X95890924Y67892858D01*
X95888392Y67895548D01*
X95847066Y67942195D01*
X95847065Y67942196D01*
X95847064Y67942197D01*
X95837527Y67948780D01*
X95827709Y67955556D01*
X95783719Y68009836D01*
X95776058Y68079284D01*
X95807159Y68141850D01*
X95810441Y68145261D01*
X99521262Y71856082D01*
X99523958Y71858618D01*
X99570595Y71899934D01*
X99605994Y71951221D01*
X99608184Y71954198D01*
X99646636Y72003276D01*
X99650833Y72012602D01*
X99661861Y72032156D01*
X99662176Y72032613D01*
X99667671Y72040573D01*
X99689767Y72098838D01*
X99691184Y72102262D01*
X99716771Y72159110D01*
X99718614Y72169170D01*
X99724640Y72190789D01*
X99728270Y72200357D01*
X99735782Y72262232D01*
X99736344Y72265923D01*
X99747574Y72327199D01*
X99747574Y72327202D01*
X99743813Y72389385D01*
X99743700Y72393129D01*
X99743700Y72693501D01*
X99763385Y72760540D01*
X99816189Y72806295D01*
X99867700Y72817501D01*
X99937871Y72817501D01*
X99937872Y72817501D01*
X99997483Y72823909D01*
X100132331Y72874204D01*
X100247546Y72960454D01*
X100333796Y73075669D01*
X100384091Y73210517D01*
X100390500Y73270127D01*
X100390499Y75065872D01*
X100384091Y75125483D01*
X100383002Y75128402D01*
X100333797Y75260329D01*
X100333793Y75260336D01*
X100247547Y75375545D01*
X100247544Y75375548D01*
X100132335Y75461794D01*
X100132328Y75461798D01*
X99997482Y75512092D01*
X99997483Y75512092D01*
X99937883Y75518499D01*
X99937881Y75518500D01*
X99937873Y75518500D01*
X99937864Y75518500D01*
X98142129Y75518500D01*
X98142123Y75518499D01*
X98082516Y75512092D01*
X97947671Y75461798D01*
X97947664Y75461794D01*
X97832455Y75375548D01*
X97832452Y75375545D01*
X97746206Y75260336D01*
X97746203Y75260331D01*
X97697189Y75128917D01*
X97655317Y75072984D01*
X97589853Y75048567D01*
X97521580Y75063419D01*
X97493326Y75084570D01*
X97371402Y75206494D01*
X97371395Y75206499D01*
X97177834Y75342033D01*
X97177830Y75342035D01*
X97168328Y75346466D01*
X96963663Y75441903D01*
X96963659Y75441904D01*
X96963655Y75441906D01*
X96735413Y75503062D01*
X96735403Y75503064D01*
X96500001Y75523659D01*
X96499999Y75523659D01*
X96264590Y75503063D01*
X96251339Y75499513D01*
X96181490Y75501181D01*
X96131573Y75531609D01*
X95260963Y76402219D01*
X95227478Y76463542D01*
X95232462Y76533234D01*
X95274334Y76589167D01*
X95339798Y76613584D01*
X95348644Y76613900D01*
X100126701Y76613900D01*
X100193740Y76594215D01*
G37*
G04 #@! TD.AperFunction*
G04 #@! TA.AperFunction,Conductor*
G36*
X75424494Y75870315D02*
G01*
X75470249Y75817511D01*
X75480193Y75748353D01*
X75451168Y75684797D01*
X75445142Y75678326D01*
X75364562Y75597745D01*
X75298425Y75531608D01*
X75237102Y75498124D01*
X75178655Y75499514D01*
X75165408Y75503063D01*
X74930001Y75523659D01*
X74929999Y75523659D01*
X74694596Y75503064D01*
X74694586Y75503062D01*
X74466344Y75441906D01*
X74466335Y75441902D01*
X74252171Y75342036D01*
X74252169Y75342035D01*
X74058597Y75206495D01*
X73891505Y75039403D01*
X73761575Y74853842D01*
X73706998Y74810217D01*
X73637500Y74803023D01*
X73575145Y74834546D01*
X73558425Y74853842D01*
X73428494Y75039403D01*
X73261402Y75206494D01*
X73261395Y75206499D01*
X73067834Y75342033D01*
X73067830Y75342035D01*
X73058328Y75346466D01*
X72853663Y75441903D01*
X72853659Y75441904D01*
X72853655Y75441906D01*
X72625413Y75503062D01*
X72625403Y75503064D01*
X72390001Y75523659D01*
X72389999Y75523659D01*
X72154596Y75503064D01*
X72154586Y75503062D01*
X71926344Y75441906D01*
X71926335Y75441902D01*
X71712171Y75342036D01*
X71712169Y75342035D01*
X71518597Y75206495D01*
X71351505Y75039403D01*
X71221575Y74853842D01*
X71166998Y74810217D01*
X71097500Y74803023D01*
X71035145Y74834546D01*
X71018425Y74853842D01*
X70888494Y75039403D01*
X70721402Y75206494D01*
X70721395Y75206499D01*
X70527834Y75342033D01*
X70527830Y75342035D01*
X70518328Y75346466D01*
X70313663Y75441903D01*
X70313659Y75441904D01*
X70313655Y75441906D01*
X70085413Y75503062D01*
X70085403Y75503064D01*
X69850001Y75523659D01*
X69849999Y75523659D01*
X69614596Y75503064D01*
X69614586Y75503062D01*
X69386344Y75441906D01*
X69386335Y75441902D01*
X69172171Y75342036D01*
X69172169Y75342035D01*
X68978597Y75206495D01*
X68811505Y75039403D01*
X68681575Y74853842D01*
X68626998Y74810217D01*
X68557500Y74803023D01*
X68495145Y74834546D01*
X68478425Y74853842D01*
X68348494Y75039403D01*
X68181402Y75206494D01*
X68181395Y75206499D01*
X67987834Y75342033D01*
X67987830Y75342035D01*
X67978328Y75346466D01*
X67773663Y75441903D01*
X67773659Y75441904D01*
X67773655Y75441906D01*
X67545413Y75503062D01*
X67545403Y75503064D01*
X67310001Y75523659D01*
X67309999Y75523659D01*
X67074596Y75503064D01*
X67074586Y75503062D01*
X66846344Y75441906D01*
X66846335Y75441902D01*
X66632171Y75342036D01*
X66632169Y75342035D01*
X66438597Y75206495D01*
X66271508Y75039406D01*
X66141269Y74853405D01*
X66086692Y74809781D01*
X66017193Y74802588D01*
X65954839Y74834110D01*
X65938119Y74853406D01*
X65808113Y75039074D01*
X65808108Y75039080D01*
X65641082Y75206106D01*
X65447578Y75341601D01*
X65233490Y75441432D01*
X65233487Y75441433D01*
X65176400Y75456730D01*
X65176400Y74460459D01*
X65151761Y74498798D01*
X65043100Y74592952D01*
X64912315Y74652680D01*
X64805763Y74668000D01*
X64734237Y74668000D01*
X64627685Y74652680D01*
X64496900Y74592952D01*
X64388239Y74498798D01*
X64363600Y74460459D01*
X64363600Y75456729D01*
X64363599Y75456730D01*
X64306512Y75441433D01*
X64306509Y75441432D01*
X64092422Y75341601D01*
X64092420Y75341600D01*
X63898926Y75206114D01*
X63776865Y75084053D01*
X63715542Y75050569D01*
X63645850Y75055553D01*
X63589917Y75097425D01*
X63573002Y75128402D01*
X63523797Y75260329D01*
X63523793Y75260336D01*
X63437547Y75375545D01*
X63437544Y75375548D01*
X63322335Y75461794D01*
X63322328Y75461798D01*
X63203084Y75506273D01*
X63160728Y75532826D01*
X63112706Y75578739D01*
X63013126Y75678319D01*
X62979641Y75739642D01*
X62984625Y75809334D01*
X63026497Y75865267D01*
X63091961Y75889684D01*
X63100807Y75890000D01*
X75357455Y75890000D01*
X75424494Y75870315D01*
G37*
G04 #@! TD.AperFunction*
G04 #@! TA.AperFunction,Conductor*
G36*
X44576239Y74498798D02*
G01*
X44557038Y74468922D01*
X44571285Y74517439D01*
X44624089Y74563194D01*
X44659429Y74570883D01*
X44576239Y74498798D01*
G37*
G04 #@! TD.AperFunction*
G04 #@! TD*
G04 #@! TA.AperFunction,Conductor*
G04 #@! TO.N,+5V*
G36*
X140717866Y78434587D02*
G01*
X140789001Y78430285D01*
X140981621Y78418634D01*
X140989055Y78417730D01*
X141247112Y78370439D01*
X141254382Y78368648D01*
X141504859Y78290596D01*
X141511852Y78287943D01*
X141649153Y78226150D01*
X141751099Y78180267D01*
X141757729Y78176787D01*
X141956009Y78056922D01*
X141982242Y78041064D01*
X141988408Y78036808D01*
X142133453Y77923172D01*
X142194928Y77875010D01*
X142200528Y77870049D01*
X142386047Y77684530D01*
X142391009Y77678929D01*
X142552806Y77472410D01*
X142557063Y77466243D01*
X142692786Y77241730D01*
X142696269Y77235095D01*
X142803942Y76995853D01*
X142806600Y76988846D01*
X142884645Y76738389D01*
X142886438Y76731113D01*
X142933729Y76473056D01*
X142934633Y76465617D01*
X142950587Y76201867D01*
X142950700Y76198123D01*
X142950700Y70707688D01*
X142950701Y70707667D01*
X142950701Y70605300D01*
X142982932Y70339854D01*
X142998397Y70277110D01*
X143002000Y70247436D01*
X143002000Y65550743D01*
X142990095Y65497727D01*
X142926568Y65363409D01*
X142926559Y65363387D01*
X142787526Y64974818D01*
X142687244Y64574472D01*
X142642080Y64270000D01*
X142626685Y64166218D01*
X142606434Y63754000D01*
X142626685Y63341782D01*
X142626685Y63341777D01*
X142626686Y63341773D01*
X142687244Y62933529D01*
X142688620Y62928037D01*
X142775220Y62582308D01*
X142787527Y62533179D01*
X142926555Y62144621D01*
X142926562Y62144605D01*
X142926564Y62144600D01*
X142990095Y62010274D01*
X143002000Y61957259D01*
X143002000Y57260567D01*
X142998397Y57230892D01*
X142982933Y57168152D01*
X142950701Y56902701D01*
X142950701Y21837300D01*
X142982932Y21571854D01*
X142998397Y21509110D01*
X143002000Y21479436D01*
X143002000Y16782743D01*
X142990095Y16729727D01*
X142926568Y16595409D01*
X142926559Y16595387D01*
X142787526Y16206818D01*
X142687244Y15806472D01*
X142648666Y15546399D01*
X142626685Y15398218D01*
X142606434Y14986000D01*
X142626685Y14573782D01*
X142626685Y14573777D01*
X142626686Y14573773D01*
X142687244Y14165529D01*
X142717462Y14044894D01*
X142759316Y13877801D01*
X142787527Y13765179D01*
X142926555Y13376621D01*
X142926562Y13376605D01*
X142926564Y13376600D01*
X142990095Y13242274D01*
X143002000Y13189259D01*
X143002000Y8492567D01*
X142998397Y8462892D01*
X142982933Y8400152D01*
X142950701Y8134701D01*
X142950701Y8068073D01*
X142950700Y8068059D01*
X142950700Y2541878D01*
X142950587Y2538134D01*
X142934633Y2274384D01*
X142933729Y2266945D01*
X142886438Y2008888D01*
X142884645Y2001612D01*
X142806600Y1751155D01*
X142803942Y1744148D01*
X142696269Y1504906D01*
X142692786Y1498271D01*
X142557063Y1273758D01*
X142552806Y1267591D01*
X142391009Y1061072D01*
X142386040Y1055463D01*
X142200537Y869960D01*
X142194928Y864991D01*
X141988409Y703194D01*
X141982242Y698937D01*
X141757729Y563214D01*
X141751094Y559731D01*
X141511852Y452058D01*
X141504845Y449400D01*
X141254388Y371355D01*
X141247112Y369562D01*
X140989055Y322271D01*
X140981616Y321367D01*
X140717866Y305413D01*
X140714122Y305300D01*
X14221000Y305300D01*
X14153961Y324985D01*
X14108206Y377789D01*
X14097000Y429300D01*
X14097000Y5465011D01*
X14116685Y5532050D01*
X14169489Y5577805D01*
X14238647Y5587749D01*
X14302203Y5558724D01*
X14329832Y5524438D01*
X14419532Y5360164D01*
X14419537Y5360156D01*
X14513320Y5234875D01*
X14513321Y5234875D01*
X15381859Y6103413D01*
X15441680Y5989433D01*
X15554405Y5862193D01*
X15694305Y5765628D01*
X15735542Y5749989D01*
X14866874Y4881322D01*
X14866875Y4881321D01*
X14992156Y4787537D01*
X14992164Y4787532D01*
X15230689Y4657287D01*
X15230693Y4657285D01*
X15485345Y4562305D01*
X15750902Y4504537D01*
X15750909Y4504536D01*
X16021999Y4485146D01*
X16022001Y4485146D01*
X16293090Y4504536D01*
X16293097Y4504537D01*
X16558654Y4562305D01*
X16813306Y4657285D01*
X16813310Y4657287D01*
X17051835Y4787532D01*
X17051843Y4787537D01*
X17177123Y4881321D01*
X17177124Y4881322D01*
X16308458Y5749989D01*
X16349695Y5765628D01*
X16489595Y5862193D01*
X16602320Y5989433D01*
X16662140Y6103412D01*
X17530677Y5234875D01*
X17530678Y5234876D01*
X17624462Y5360156D01*
X17624467Y5360164D01*
X17754712Y5598689D01*
X17754714Y5598693D01*
X17849694Y5853345D01*
X17907462Y6118902D01*
X17907463Y6118909D01*
X17926853Y6389998D01*
X17926853Y6390001D01*
X17907463Y6661090D01*
X17907462Y6661097D01*
X17849694Y6926654D01*
X17754714Y7181306D01*
X17754712Y7181310D01*
X17624467Y7419835D01*
X17624462Y7419843D01*
X17530678Y7545124D01*
X17530677Y7545125D01*
X16662139Y6676587D01*
X16602320Y6790565D01*
X16489595Y6917805D01*
X16349695Y7014370D01*
X16308457Y7030010D01*
X16898445Y7619999D01*
X84608390Y7619999D01*
X84628804Y7334567D01*
X84689628Y7054963D01*
X84789635Y6786834D01*
X84926770Y6535691D01*
X84926775Y6535683D01*
X85098254Y6306613D01*
X85098270Y6306595D01*
X85300594Y6104271D01*
X85300612Y6104255D01*
X85529682Y5932776D01*
X85529690Y5932771D01*
X85780833Y5795636D01*
X85780832Y5795636D01*
X85780836Y5795635D01*
X85780839Y5795633D01*
X86048954Y5695631D01*
X86048960Y5695630D01*
X86048962Y5695629D01*
X86328566Y5634805D01*
X86328568Y5634805D01*
X86328572Y5634804D01*
X86582220Y5616663D01*
X86613999Y5614390D01*
X86614000Y5614390D01*
X86614001Y5614390D01*
X86642595Y5616436D01*
X86899428Y5634804D01*
X87179046Y5695631D01*
X87447161Y5795633D01*
X87698315Y5932774D01*
X87927395Y6104261D01*
X88129739Y6306605D01*
X88190225Y6387406D01*
X88246158Y6429277D01*
X88315850Y6434261D01*
X88377173Y6400777D01*
X88410658Y6339454D01*
X88413068Y6323335D01*
X88431385Y6102271D01*
X88431387Y6102262D01*
X88492412Y5861283D01*
X88592266Y5633636D01*
X88692564Y5480118D01*
X89432923Y6220477D01*
X89456507Y6140156D01*
X89534239Y6019202D01*
X89642900Y5925048D01*
X89773685Y5865320D01*
X89783466Y5863914D01*
X89045942Y5126391D01*
X89092768Y5089945D01*
X89092770Y5089944D01*
X89311385Y4971636D01*
X89311396Y4971631D01*
X89546506Y4890917D01*
X89791707Y4850000D01*
X90040293Y4850000D01*
X90285493Y4890917D01*
X90520603Y4971631D01*
X90520614Y4971636D01*
X90739228Y5089943D01*
X90739231Y5089945D01*
X90786056Y5126391D01*
X90048533Y5863914D01*
X90058315Y5865320D01*
X90189100Y5925048D01*
X90297761Y6019202D01*
X90375493Y6140156D01*
X90399076Y6220476D01*
X91139434Y5480118D01*
X91150861Y5481303D01*
X91219573Y5468640D01*
X91264092Y5428806D01*
X91264683Y5429265D01*
X91267218Y5426008D01*
X91267456Y5425795D01*
X91267831Y5425220D01*
X91267836Y5425215D01*
X91436256Y5242262D01*
X91632491Y5089526D01*
X91632493Y5089525D01*
X91850332Y4971636D01*
X91851190Y4971172D01*
X92070141Y4896006D01*
X92084964Y4890917D01*
X92086386Y4890429D01*
X92331665Y4849500D01*
X92580335Y4849500D01*
X92825614Y4890429D01*
X93060810Y4971172D01*
X93279509Y5089526D01*
X93475744Y5242262D01*
X93634771Y5415012D01*
X93694657Y5451001D01*
X93764495Y5448901D01*
X93817228Y5415012D01*
X93976256Y5242262D01*
X94172491Y5089526D01*
X94172493Y5089525D01*
X94390332Y4971636D01*
X94391190Y4971172D01*
X94610141Y4896006D01*
X94624964Y4890917D01*
X94626386Y4890429D01*
X94871665Y4849500D01*
X95120335Y4849500D01*
X95365614Y4890429D01*
X95600810Y4971172D01*
X95819509Y5089526D01*
X96015744Y5242262D01*
X96174771Y5415012D01*
X96234657Y5451001D01*
X96304495Y5448901D01*
X96357228Y5415012D01*
X96516256Y5242262D01*
X96712491Y5089526D01*
X96712493Y5089525D01*
X96930332Y4971636D01*
X96931190Y4971172D01*
X97150141Y4896006D01*
X97164964Y4890917D01*
X97166386Y4890429D01*
X97411665Y4849500D01*
X97660335Y4849500D01*
X97905614Y4890429D01*
X98140810Y4971172D01*
X98359509Y5089526D01*
X98555744Y5242262D01*
X98714771Y5415012D01*
X98774657Y5451001D01*
X98844495Y5448901D01*
X98897228Y5415012D01*
X99056256Y5242262D01*
X99252491Y5089526D01*
X99252493Y5089525D01*
X99470332Y4971636D01*
X99471190Y4971172D01*
X99690141Y4896006D01*
X99704964Y4890917D01*
X99706386Y4890429D01*
X99951665Y4849500D01*
X100200335Y4849500D01*
X100445614Y4890429D01*
X100680810Y4971172D01*
X100899509Y5089526D01*
X101095744Y5242262D01*
X101254771Y5415012D01*
X101314657Y5451001D01*
X101384495Y5448901D01*
X101437228Y5415012D01*
X101596256Y5242262D01*
X101792491Y5089526D01*
X101792493Y5089525D01*
X102010332Y4971636D01*
X102011190Y4971172D01*
X102230141Y4896006D01*
X102244964Y4890917D01*
X102246386Y4890429D01*
X102491665Y4849500D01*
X102740335Y4849500D01*
X102985614Y4890429D01*
X103220810Y4971172D01*
X103439509Y5089526D01*
X103635744Y5242262D01*
X103804164Y5425215D01*
X103940173Y5633393D01*
X104040063Y5861119D01*
X104098370Y6091368D01*
X104133910Y6151523D01*
X104196330Y6182915D01*
X104265814Y6175577D01*
X104306257Y6148608D01*
X104350594Y6104271D01*
X104350612Y6104255D01*
X104579682Y5932776D01*
X104579690Y5932771D01*
X104830833Y5795636D01*
X104830832Y5795636D01*
X104830836Y5795635D01*
X104830839Y5795633D01*
X105098954Y5695631D01*
X105098960Y5695630D01*
X105098962Y5695629D01*
X105378566Y5634805D01*
X105378568Y5634805D01*
X105378572Y5634804D01*
X105632220Y5616663D01*
X105663999Y5614390D01*
X105664000Y5614390D01*
X105664001Y5614390D01*
X105692595Y5616436D01*
X105949428Y5634804D01*
X106229046Y5695631D01*
X106497161Y5795633D01*
X106748315Y5932774D01*
X106977395Y6104261D01*
X107179739Y6306605D01*
X107351226Y6535685D01*
X107488367Y6786839D01*
X107588369Y7054954D01*
X107649196Y7334572D01*
X107669610Y7620000D01*
X107649196Y7905428D01*
X107638925Y7952642D01*
X107588371Y8185038D01*
X107588370Y8185040D01*
X107588369Y8185046D01*
X107488367Y8453161D01*
X107483053Y8462892D01*
X107351229Y8704310D01*
X107351224Y8704318D01*
X107179745Y8933388D01*
X107179729Y8933406D01*
X106977405Y9135730D01*
X106977387Y9135746D01*
X106748317Y9307225D01*
X106748309Y9307230D01*
X106497166Y9444365D01*
X106497167Y9444365D01*
X106376155Y9489500D01*
X106229046Y9544369D01*
X106229043Y9544370D01*
X106229037Y9544372D01*
X105949433Y9605196D01*
X105664001Y9625610D01*
X105663999Y9625610D01*
X105378566Y9605196D01*
X105098962Y9544372D01*
X104830833Y9444365D01*
X104579690Y9307230D01*
X104579682Y9307225D01*
X104350612Y9135746D01*
X104350594Y9135730D01*
X104148270Y8933406D01*
X104148254Y8933388D01*
X103976775Y8704318D01*
X103976770Y8704310D01*
X103839635Y8453167D01*
X103739628Y8185038D01*
X103678804Y7905434D01*
X103662770Y7681255D01*
X103638353Y7615791D01*
X103582419Y7573920D01*
X103512727Y7568936D01*
X103462926Y7592248D01*
X103439509Y7610474D01*
X103410624Y7626106D01*
X103220811Y7728828D01*
X103220802Y7728831D01*
X102985616Y7809571D01*
X102740335Y7850500D01*
X102491665Y7850500D01*
X102246383Y7809571D01*
X102011197Y7728831D01*
X102011188Y7728828D01*
X101792493Y7610476D01*
X101596257Y7457739D01*
X101437230Y7284990D01*
X101377342Y7248999D01*
X101307504Y7251100D01*
X101254770Y7284990D01*
X101209126Y7334572D01*
X101095744Y7457738D01*
X100899509Y7610474D01*
X100899507Y7610475D01*
X100899506Y7610476D01*
X100680811Y7728828D01*
X100680802Y7728831D01*
X100445616Y7809571D01*
X100200335Y7850500D01*
X99951665Y7850500D01*
X99706383Y7809571D01*
X99471197Y7728831D01*
X99471188Y7728828D01*
X99252493Y7610476D01*
X99056257Y7457739D01*
X98897230Y7284990D01*
X98837342Y7248999D01*
X98767504Y7251100D01*
X98714770Y7284990D01*
X98669126Y7334572D01*
X98555744Y7457738D01*
X98359509Y7610474D01*
X98359507Y7610475D01*
X98359506Y7610476D01*
X98140811Y7728828D01*
X98140802Y7728831D01*
X97905616Y7809571D01*
X97660335Y7850500D01*
X97411665Y7850500D01*
X97166383Y7809571D01*
X96931197Y7728831D01*
X96931188Y7728828D01*
X96712493Y7610476D01*
X96516257Y7457739D01*
X96357230Y7284990D01*
X96297342Y7248999D01*
X96227504Y7251100D01*
X96174770Y7284990D01*
X96129126Y7334572D01*
X96015744Y7457738D01*
X95819509Y7610474D01*
X95819507Y7610475D01*
X95819506Y7610476D01*
X95600811Y7728828D01*
X95600802Y7728831D01*
X95365616Y7809571D01*
X95120335Y7850500D01*
X94871665Y7850500D01*
X94626383Y7809571D01*
X94391197Y7728831D01*
X94391188Y7728828D01*
X94172493Y7610476D01*
X93976257Y7457739D01*
X93817230Y7284990D01*
X93757342Y7248999D01*
X93687504Y7251100D01*
X93634770Y7284990D01*
X93589126Y7334572D01*
X93475744Y7457738D01*
X93279509Y7610474D01*
X93279507Y7610475D01*
X93279506Y7610476D01*
X93060811Y7728828D01*
X93060802Y7728831D01*
X92825616Y7809571D01*
X92580335Y7850500D01*
X92331665Y7850500D01*
X92086383Y7809571D01*
X91851197Y7728831D01*
X91851188Y7728828D01*
X91632493Y7610476D01*
X91436257Y7457739D01*
X91267837Y7274787D01*
X91267829Y7274776D01*
X91267455Y7274203D01*
X91267242Y7274022D01*
X91264690Y7270742D01*
X91264014Y7271268D01*
X91214304Y7228853D01*
X91150865Y7218698D01*
X91139434Y7219884D01*
X90399076Y6479525D01*
X90375493Y6559844D01*
X90297761Y6680798D01*
X90189100Y6774952D01*
X90058315Y6834680D01*
X90048534Y6836087D01*
X90786057Y7573610D01*
X90786056Y7573611D01*
X90739229Y7610057D01*
X90520614Y7728365D01*
X90520603Y7728370D01*
X90285493Y7809084D01*
X90040293Y7850000D01*
X89791707Y7850000D01*
X89546506Y7809084D01*
X89311396Y7728370D01*
X89311390Y7728368D01*
X89092761Y7610051D01*
X89045942Y7573612D01*
X89045942Y7573610D01*
X89783466Y6836087D01*
X89773685Y6834680D01*
X89642900Y6774952D01*
X89534239Y6680798D01*
X89456507Y6559844D01*
X89432923Y6479525D01*
X88676783Y7235665D01*
X88668536Y7237185D01*
X88617580Y7284990D01*
X88600559Y7352755D01*
X88600775Y7356652D01*
X88619610Y7620000D01*
X88599196Y7905428D01*
X88588925Y7952642D01*
X88538371Y8185038D01*
X88538370Y8185040D01*
X88538369Y8185046D01*
X88438367Y8453161D01*
X88433053Y8462892D01*
X88301229Y8704310D01*
X88301224Y8704318D01*
X88129745Y8933388D01*
X88129729Y8933406D01*
X87927405Y9135730D01*
X87927387Y9135746D01*
X87698317Y9307225D01*
X87698309Y9307230D01*
X87447166Y9444365D01*
X87447167Y9444365D01*
X87326155Y9489500D01*
X87179046Y9544369D01*
X87179043Y9544370D01*
X87179037Y9544372D01*
X86899433Y9605196D01*
X86614001Y9625610D01*
X86613999Y9625610D01*
X86328566Y9605196D01*
X86048962Y9544372D01*
X85780833Y9444365D01*
X85529690Y9307230D01*
X85529682Y9307225D01*
X85300612Y9135746D01*
X85300594Y9135730D01*
X85098270Y8933406D01*
X85098254Y8933388D01*
X84926775Y8704318D01*
X84926770Y8704310D01*
X84789635Y8453167D01*
X84689628Y8185038D01*
X84628804Y7905434D01*
X84608390Y7620002D01*
X84608390Y7619999D01*
X16898445Y7619999D01*
X17177124Y7898678D01*
X17177124Y7898679D01*
X17051843Y7992462D01*
X17051835Y7992467D01*
X16813310Y8122712D01*
X16813306Y8122714D01*
X16558653Y8217694D01*
X16292714Y8275546D01*
X16231390Y8309031D01*
X16197906Y8370354D01*
X16202890Y8440046D01*
X16231388Y8484389D01*
X16346682Y8599682D01*
X16408005Y8633166D01*
X16434362Y8636000D01*
X18034000Y8636000D01*
X22950681Y13552681D01*
X23012004Y13586166D01*
X23038362Y13589000D01*
X33521367Y13589000D01*
X33588406Y13569315D01*
X33634161Y13516511D01*
X33644105Y13447353D01*
X33641142Y13432907D01*
X33589939Y13241813D01*
X33589937Y13241803D01*
X33569342Y13006400D01*
X33569342Y13006399D01*
X33589937Y12770996D01*
X33589939Y12770986D01*
X33651095Y12542744D01*
X33651097Y12542740D01*
X33651098Y12542736D01*
X33750966Y12328570D01*
X33750966Y12328569D01*
X33750968Y12328565D01*
X33859282Y12173878D01*
X33886506Y12134998D01*
X34053600Y11967904D01*
X34239593Y11837670D01*
X34239595Y11837669D01*
X34283220Y11783092D01*
X34290414Y11713594D01*
X34258891Y11651239D01*
X34239596Y11634519D01*
X34053923Y11504509D01*
X34053921Y11504508D01*
X33886892Y11337479D01*
X33886887Y11337473D01*
X33751401Y11143979D01*
X33751400Y11143977D01*
X33651571Y10929892D01*
X33651568Y10929886D01*
X33594365Y10716400D01*
X33594365Y10716399D01*
X34491315Y10716399D01*
X34465508Y10676243D01*
X34425001Y10538288D01*
X34425001Y10394510D01*
X34465508Y10256555D01*
X34491315Y10216399D01*
X33594365Y10216399D01*
X33651568Y10002913D01*
X33651571Y10002907D01*
X33751400Y9788821D01*
X33886895Y9595317D01*
X34053918Y9428294D01*
X34247422Y9292799D01*
X34461508Y9192970D01*
X34461517Y9192966D01*
X34675001Y9135765D01*
X34675001Y10030898D01*
X34782686Y9981719D01*
X34889238Y9966399D01*
X34960764Y9966399D01*
X35067316Y9981719D01*
X35175001Y10030898D01*
X35175001Y9135766D01*
X35388484Y9192966D01*
X35388493Y9192970D01*
X35602579Y9292799D01*
X35796083Y9428294D01*
X35963106Y9595317D01*
X36098601Y9788821D01*
X36198430Y10002907D01*
X36198433Y10002913D01*
X36255637Y10216399D01*
X35358687Y10216399D01*
X35384494Y10256555D01*
X35425001Y10394510D01*
X35425001Y10538288D01*
X35384494Y10676243D01*
X35358687Y10716399D01*
X36255637Y10716399D01*
X36255636Y10716400D01*
X36198433Y10929886D01*
X36198430Y10929892D01*
X36098601Y11143977D01*
X36098600Y11143979D01*
X35963114Y11337473D01*
X35963109Y11337479D01*
X35796079Y11504509D01*
X35610406Y11634520D01*
X35566781Y11689097D01*
X35559589Y11758595D01*
X35591111Y11820950D01*
X35610407Y11837669D01*
X35796402Y11967904D01*
X35963496Y12134998D01*
X36043897Y12249823D01*
X36098474Y12293448D01*
X36145472Y12302700D01*
X41324529Y12302700D01*
X41391568Y12283015D01*
X41426104Y12249824D01*
X41506505Y12134999D01*
X41673599Y11967905D01*
X41859158Y11837975D01*
X41859594Y11837670D01*
X41903218Y11783093D01*
X41910411Y11713594D01*
X41878889Y11651240D01*
X41859593Y11634520D01*
X41783626Y11581328D01*
X41783625Y11581328D01*
X42412466Y10952487D01*
X42402685Y10951080D01*
X42271900Y10891352D01*
X42163239Y10797198D01*
X42085507Y10676244D01*
X42061923Y10595924D01*
X41430072Y11227775D01*
X41371401Y11143981D01*
X41271570Y10929893D01*
X41271566Y10929884D01*
X41210432Y10701727D01*
X41210430Y10701716D01*
X41189843Y10466402D01*
X41189843Y10466399D01*
X41210430Y10231085D01*
X41210432Y10231074D01*
X41271566Y10002917D01*
X41271570Y10002908D01*
X41371400Y9788821D01*
X41371402Y9788817D01*
X41430072Y9705027D01*
X41430073Y9705027D01*
X42061923Y10336877D01*
X42085507Y10256556D01*
X42163239Y10135602D01*
X42271900Y10041448D01*
X42402685Y9981720D01*
X42412466Y9980314D01*
X41783625Y9351475D01*
X41867421Y9292801D01*
X42081507Y9192971D01*
X42081516Y9192967D01*
X42309673Y9131833D01*
X42309684Y9131831D01*
X42544998Y9111243D01*
X42545002Y9111243D01*
X42780315Y9131831D01*
X42780326Y9131833D01*
X43008483Y9192967D01*
X43008492Y9192971D01*
X43222578Y9292800D01*
X43222582Y9292802D01*
X43306373Y9351474D01*
X43306373Y9351475D01*
X42677533Y9980314D01*
X42687315Y9981720D01*
X42818100Y10041448D01*
X42926761Y10135602D01*
X43004493Y10256556D01*
X43028076Y10336876D01*
X43659925Y9705027D01*
X43659926Y9705027D01*
X43718598Y9788818D01*
X43718600Y9788822D01*
X43818429Y10002908D01*
X43818433Y10002917D01*
X43879567Y10231074D01*
X43879569Y10231085D01*
X43900157Y10466399D01*
X43900157Y10466402D01*
X43879569Y10701716D01*
X43879567Y10701727D01*
X43818433Y10929884D01*
X43818429Y10929893D01*
X43718600Y11143977D01*
X43718599Y11143979D01*
X43659925Y11227774D01*
X43659925Y11227775D01*
X43028076Y10595925D01*
X43004493Y10676244D01*
X42926761Y10797198D01*
X42818100Y10891352D01*
X42687315Y10951080D01*
X42677533Y10952487D01*
X43306373Y11581327D01*
X43306373Y11581328D01*
X43230405Y11634520D01*
X43186780Y11689096D01*
X43179586Y11758595D01*
X43211108Y11820949D01*
X43230399Y11837666D01*
X43416401Y11967905D01*
X43583495Y12134999D01*
X43719035Y12328570D01*
X43818903Y12542737D01*
X43880063Y12770992D01*
X43900659Y13006400D01*
X43880063Y13241808D01*
X43828859Y13432907D01*
X43830522Y13502757D01*
X43869685Y13560619D01*
X43933913Y13588123D01*
X43948634Y13589000D01*
X64001366Y13589000D01*
X64068405Y13569315D01*
X64114160Y13516511D01*
X64124104Y13447353D01*
X64121141Y13432907D01*
X64069938Y13241814D01*
X64069936Y13241804D01*
X64049341Y13006401D01*
X64049341Y13006400D01*
X64069936Y12770997D01*
X64069938Y12770987D01*
X64131094Y12542745D01*
X64131096Y12542741D01*
X64131097Y12542737D01*
X64131098Y12542735D01*
X64230965Y12328570D01*
X64230967Y12328566D01*
X64286104Y12249823D01*
X64366505Y12134999D01*
X64533599Y11967905D01*
X64533601Y11967904D01*
X64533603Y11967902D01*
X64719158Y11837975D01*
X64762783Y11783398D01*
X64769977Y11713900D01*
X64738454Y11651545D01*
X64719158Y11634825D01*
X64533597Y11504895D01*
X64366505Y11337803D01*
X64230965Y11144231D01*
X64230964Y11144229D01*
X64148041Y10966400D01*
X64131098Y10930064D01*
X64131094Y10930056D01*
X64069938Y10701814D01*
X64069936Y10701804D01*
X64049341Y10466401D01*
X64049341Y10466400D01*
X64069936Y10230997D01*
X64069938Y10230987D01*
X64131094Y10002745D01*
X64131096Y10002741D01*
X64131097Y10002737D01*
X64180874Y9895990D01*
X64230965Y9788570D01*
X64230967Y9788566D01*
X64286104Y9709823D01*
X64366505Y9594999D01*
X64533599Y9427905D01*
X64533605Y9427901D01*
X64727165Y9292368D01*
X64727167Y9292367D01*
X64727170Y9292365D01*
X64941337Y9192497D01*
X65169592Y9131337D01*
X65357918Y9114861D01*
X65404999Y9110741D01*
X65405000Y9110741D01*
X65405001Y9110741D01*
X65444234Y9114174D01*
X65640408Y9131337D01*
X65868663Y9192497D01*
X66082830Y9292365D01*
X66276401Y9427905D01*
X66443495Y9594999D01*
X66523895Y9709824D01*
X66578471Y9753448D01*
X66625470Y9762700D01*
X71804528Y9762700D01*
X71871567Y9743015D01*
X71906103Y9709823D01*
X71986504Y9594997D01*
X72085594Y9495908D01*
X72153598Y9427904D01*
X72241113Y9366625D01*
X72347164Y9292367D01*
X72347166Y9292366D01*
X72347169Y9292364D01*
X72561336Y9192496D01*
X72789591Y9131336D01*
X72977917Y9114860D01*
X73024998Y9110740D01*
X73024999Y9110740D01*
X73025000Y9110740D01*
X73064233Y9114173D01*
X73260407Y9131336D01*
X73488662Y9192496D01*
X73702829Y9292364D01*
X73896400Y9427904D01*
X74063494Y9594998D01*
X74199034Y9788569D01*
X74298902Y10002736D01*
X74360062Y10230991D01*
X74380658Y10466399D01*
X74360062Y10701807D01*
X74298902Y10930062D01*
X74199034Y11144228D01*
X74199033Y11144230D01*
X74063493Y11337802D01*
X73896401Y11504893D01*
X73896395Y11504898D01*
X73710841Y11634824D01*
X73667216Y11689401D01*
X73660022Y11758899D01*
X73691545Y11821254D01*
X73710841Y11837974D01*
X73733025Y11853508D01*
X73896400Y11967904D01*
X74063494Y12134998D01*
X74199034Y12328569D01*
X74298902Y12542736D01*
X74360062Y12770991D01*
X74380658Y13006399D01*
X74360062Y13241807D01*
X74323945Y13376600D01*
X74308858Y13432907D01*
X74310521Y13502757D01*
X74349684Y13560619D01*
X74413913Y13588123D01*
X74428633Y13589000D01*
X120904000Y13589000D01*
X134112000Y26797000D01*
X134112000Y31465457D01*
X134131685Y31532496D01*
X134148319Y31553138D01*
X134240546Y31645365D01*
X134528862Y31933682D01*
X134531558Y31936218D01*
X134578195Y31977534D01*
X134613601Y32028832D01*
X134615793Y32031809D01*
X134654236Y32080875D01*
X134658435Y32090207D01*
X134669461Y32109757D01*
X134675271Y32118173D01*
X134697379Y32176471D01*
X134698789Y32179873D01*
X134724370Y32236709D01*
X134726212Y32246766D01*
X134732238Y32268381D01*
X134735870Y32277957D01*
X134743383Y32339843D01*
X134743939Y32343503D01*
X134755174Y32404799D01*
X134751413Y32466979D01*
X134751300Y32470723D01*
X134751300Y36998274D01*
X134751413Y37002018D01*
X134755174Y37064202D01*
X134743945Y37125474D01*
X134743382Y37129178D01*
X134735870Y37191044D01*
X134732243Y37200605D01*
X134726211Y37222242D01*
X134724370Y37232288D01*
X134724370Y37232289D01*
X134724336Y37232364D01*
X134698804Y37289097D01*
X134697370Y37292557D01*
X134675269Y37350831D01*
X134669461Y37359245D01*
X134658433Y37378798D01*
X134654236Y37388125D01*
X134654234Y37388127D01*
X134654233Y37388130D01*
X134615797Y37437190D01*
X134613577Y37440206D01*
X134578196Y37491464D01*
X134578194Y37491467D01*
X134531565Y37532777D01*
X134528838Y37535345D01*
X134148319Y37915864D01*
X134114834Y37977187D01*
X134112000Y38003545D01*
X134112000Y70104000D01*
X130937000Y73279000D01*
X119975178Y73279000D01*
X119970755Y73279158D01*
X119968000Y73279355D01*
X119965244Y73279158D01*
X119960822Y73279000D01*
X119379999Y73279000D01*
X119246090Y73145093D01*
X119201746Y73116594D01*
X119176490Y73107174D01*
X119176480Y73107169D01*
X118937892Y72976891D01*
X118937891Y72976890D01*
X118720259Y72813972D01*
X118720247Y72813962D01*
X118528038Y72621753D01*
X118528028Y72621741D01*
X118365110Y72404109D01*
X118365109Y72404108D01*
X118234830Y72165520D01*
X118210610Y72100583D01*
X118139825Y71910801D01*
X118139824Y71910798D01*
X118139823Y71910794D01*
X118082040Y71645168D01*
X118082039Y71645161D01*
X118062645Y71374002D01*
X118062645Y71373999D01*
X118082039Y71102840D01*
X118082040Y71102833D01*
X118139823Y70837204D01*
X118139825Y70837199D01*
X118176451Y70739000D01*
X118189682Y70703528D01*
X118197500Y70660195D01*
X118197500Y52208862D01*
X118177815Y52141823D01*
X118161181Y52121181D01*
X116114319Y50074319D01*
X116052996Y50040834D01*
X116026638Y50038000D01*
X116006958Y50038000D01*
X115939919Y50057685D01*
X115894164Y50110489D01*
X115884220Y50179647D01*
X115890776Y50205334D01*
X115897597Y50223624D01*
X115897598Y50223628D01*
X115903999Y50283156D01*
X115904000Y50283173D01*
X115904000Y50931000D01*
X114987686Y50931000D01*
X115013493Y50971156D01*
X115054000Y51109111D01*
X115054000Y51252889D01*
X115013493Y51390844D01*
X114987686Y51431000D01*
X115904000Y51431000D01*
X115904000Y52078828D01*
X115903999Y52078845D01*
X115897598Y52138373D01*
X115897596Y52138380D01*
X115847354Y52273087D01*
X115847350Y52273094D01*
X115761190Y52388188D01*
X115761187Y52388191D01*
X115646093Y52474351D01*
X115646086Y52474355D01*
X115511379Y52524597D01*
X115511372Y52524599D01*
X115451844Y52531000D01*
X114804000Y52531000D01*
X114804000Y51616502D01*
X114696315Y51665680D01*
X114589763Y51681000D01*
X114518237Y51681000D01*
X114411685Y51665680D01*
X114304000Y51616502D01*
X114304000Y52531000D01*
X113656155Y52531000D01*
X113596627Y52524599D01*
X113596620Y52524597D01*
X113461913Y52474355D01*
X113461906Y52474351D01*
X113346812Y52388191D01*
X113346809Y52388188D01*
X113260649Y52273094D01*
X113260645Y52273087D01*
X113210403Y52138380D01*
X113210401Y52138373D01*
X113204000Y52078845D01*
X113204000Y51431000D01*
X114120314Y51431000D01*
X114094507Y51390844D01*
X114054000Y51252889D01*
X114054000Y51109111D01*
X114094507Y50971156D01*
X114120314Y50931000D01*
X113204000Y50931000D01*
X113204000Y50283156D01*
X113210401Y50223628D01*
X113210402Y50223624D01*
X113217224Y50205334D01*
X113222208Y50135642D01*
X113188723Y50074319D01*
X113127400Y50040834D01*
X113101042Y50038000D01*
X95428362Y50038000D01*
X95361323Y50057685D01*
X95340681Y50074319D01*
X88428319Y56986681D01*
X88394834Y57048004D01*
X88392000Y57074362D01*
X88392000Y62550277D01*
X88407166Y62609701D01*
X88438367Y62666839D01*
X88538369Y62934954D01*
X88582794Y63139173D01*
X88599195Y63214567D01*
X88599195Y63214568D01*
X88599196Y63214572D01*
X88619610Y63500000D01*
X88600778Y63763302D01*
X88615630Y63831572D01*
X88665035Y63880977D01*
X88675756Y63883310D01*
X89432922Y64640477D01*
X89456507Y64560156D01*
X89534239Y64439202D01*
X89642900Y64345048D01*
X89773685Y64285320D01*
X89783466Y64283914D01*
X89045942Y63546391D01*
X89092768Y63509945D01*
X89092770Y63509944D01*
X89311385Y63391636D01*
X89311396Y63391631D01*
X89546506Y63310917D01*
X89791707Y63270000D01*
X90040293Y63270000D01*
X90285493Y63310917D01*
X90520603Y63391631D01*
X90520614Y63391636D01*
X90739228Y63509943D01*
X90739231Y63509945D01*
X90786056Y63546391D01*
X90048533Y64283914D01*
X90058315Y64285320D01*
X90189100Y64345048D01*
X90297761Y64439202D01*
X90375493Y64560156D01*
X90399076Y64640476D01*
X91139434Y63900118D01*
X91150862Y63901303D01*
X91219574Y63888640D01*
X91264099Y63848799D01*
X91264690Y63849258D01*
X91267220Y63846007D01*
X91267457Y63845795D01*
X91267833Y63845220D01*
X91267842Y63845207D01*
X91353308Y63752368D01*
X91384231Y63689714D01*
X91386044Y63671339D01*
X91386739Y63642153D01*
X91394140Y63608127D01*
X91395277Y63600838D01*
X91398583Y63566207D01*
X91398585Y63566198D01*
X91416007Y63506865D01*
X91417101Y63502577D01*
X91430256Y63442109D01*
X91430257Y63442105D01*
X91443965Y63410094D01*
X91446457Y63403160D01*
X91456262Y63369769D01*
X91456262Y63369767D01*
X91484608Y63314783D01*
X91486495Y63310779D01*
X91510849Y63253907D01*
X91518447Y63242681D01*
X91530364Y63225074D01*
X91534119Y63218744D01*
X91550074Y63187797D01*
X91588319Y63139165D01*
X91590924Y63135597D01*
X91625599Y63084364D01*
X91650206Y63059757D01*
X91655105Y63054238D01*
X91668425Y63037301D01*
X91676628Y63026870D01*
X91723388Y62986353D01*
X91726603Y62983360D01*
X93623946Y61086017D01*
X94945368Y59764595D01*
X94958693Y59748843D01*
X94960148Y59746799D01*
X94960153Y59746794D01*
X95025008Y59684954D01*
X95037335Y59672628D01*
X95052089Y59657874D01*
X95060239Y59651145D01*
X95063536Y59648218D01*
X95108317Y59605520D01*
X95108323Y59605515D01*
X95116168Y59600474D01*
X95137613Y59586693D01*
X95143554Y59582355D01*
X95170403Y59560186D01*
X95208712Y59539268D01*
X95224694Y59530541D01*
X95228491Y59528288D01*
X95280547Y59494834D01*
X95311372Y59482494D01*
X95312861Y59481898D01*
X95319538Y59478752D01*
X95350087Y59462071D01*
X95409010Y59443236D01*
X95413155Y59441746D01*
X95470609Y59418745D01*
X95504791Y59412158D01*
X95511935Y59410334D01*
X95545094Y59399734D01*
X95579316Y59395643D01*
X95606517Y59392390D01*
X95610892Y59391708D01*
X95671630Y59380001D01*
X95671631Y59380001D01*
X95671636Y59380000D01*
X95706439Y59380000D01*
X95713806Y59379561D01*
X95719616Y59378867D01*
X95748373Y59375428D01*
X95810085Y59379843D01*
X95814509Y59380000D01*
X107596137Y59380000D01*
X107616702Y59378283D01*
X107619176Y59377867D01*
X107706835Y59379954D01*
X107708783Y59380000D01*
X107747053Y59380000D01*
X107747063Y59380000D01*
X107757580Y59381005D01*
X107761969Y59381267D01*
X107823846Y59382739D01*
X107847689Y59387926D01*
X107857863Y59390139D01*
X107865156Y59391277D01*
X107865463Y59391307D01*
X107899800Y59394585D01*
X107959169Y59412019D01*
X107963408Y59413100D01*
X108023895Y59426257D01*
X108055904Y59439966D01*
X108062841Y59442458D01*
X108075630Y59446214D01*
X108096234Y59452263D01*
X108151235Y59480620D01*
X108155198Y59482487D01*
X108212092Y59506849D01*
X108240930Y59526368D01*
X108247249Y59530118D01*
X108278203Y59546074D01*
X108326860Y59584341D01*
X108330400Y59586923D01*
X108381636Y59621599D01*
X108406249Y59646214D01*
X108411756Y59651103D01*
X108439130Y59672628D01*
X108479660Y59719405D01*
X108482630Y59722595D01*
X108921717Y60161681D01*
X108983040Y60195166D01*
X109009398Y60198000D01*
X109093000Y60198000D01*
X109601000Y60706000D01*
X109601000Y60789603D01*
X109620685Y60856642D01*
X109637319Y60877284D01*
X109846052Y61086017D01*
X110415406Y61655372D01*
X110431166Y61668701D01*
X110433204Y61670151D01*
X110495066Y61735031D01*
X110522125Y61762089D01*
X110528854Y61770240D01*
X110531768Y61773524D01*
X110574482Y61818319D01*
X110593310Y61847618D01*
X110597648Y61853560D01*
X110619814Y61880403D01*
X110649482Y61934738D01*
X110651691Y61938462D01*
X110685166Y61990547D01*
X110698101Y62022861D01*
X110701248Y62029539D01*
X110705827Y62037925D01*
X110717929Y62060087D01*
X110736767Y62119024D01*
X110738262Y62123179D01*
X110761255Y62180609D01*
X110767844Y62214798D01*
X110769667Y62221938D01*
X110780265Y62255091D01*
X110780266Y62255093D01*
X110787610Y62316526D01*
X110788288Y62320875D01*
X110800000Y62381636D01*
X110800000Y62416440D01*
X110800439Y62423807D01*
X110802605Y62441926D01*
X110804572Y62458373D01*
X110800157Y62520086D01*
X110800000Y62524509D01*
X110800000Y68480144D01*
X110801718Y68500711D01*
X110802130Y68503166D01*
X110802132Y68503177D01*
X110800000Y68592760D01*
X110800000Y68631063D01*
X110798995Y68641574D01*
X110798732Y68645996D01*
X110797261Y68707846D01*
X110789858Y68741874D01*
X110788723Y68749147D01*
X110785415Y68783800D01*
X110767980Y68843174D01*
X110766895Y68847426D01*
X110753742Y68907895D01*
X110740036Y68939900D01*
X110737544Y68946833D01*
X110727737Y68980234D01*
X110699382Y69035232D01*
X110697513Y69039199D01*
X110673151Y69096092D01*
X110653640Y69124919D01*
X110649875Y69131265D01*
X110645732Y69139301D01*
X110633926Y69162203D01*
X110595686Y69210829D01*
X110593074Y69214405D01*
X110578398Y69236089D01*
X110558401Y69265636D01*
X110533780Y69290257D01*
X110528893Y69295764D01*
X110507372Y69323130D01*
X110460612Y69363647D01*
X110457393Y69366644D01*
X109637319Y70186718D01*
X109603834Y70248041D01*
X109601000Y70274399D01*
X109601000Y77672638D01*
X109620685Y77739677D01*
X109637319Y77760319D01*
X110275381Y78398381D01*
X110336704Y78431866D01*
X110363062Y78434700D01*
X140667645Y78434700D01*
X140714122Y78434700D01*
X140717866Y78434587D01*
G37*
G04 #@! TD.AperFunction*
G04 #@! TD*
M02*
