G04 #@! TF.GenerationSoftware,KiCad,Pcbnew,7.0.8*
G04 #@! TF.CreationDate,2023-11-12T13:04:05-06:00*
G04 #@! TF.ProjectId,WALL-E Carrier Board,57414c4c-2d45-4204-9361-727269657220,rev?*
G04 #@! TF.SameCoordinates,PX53d00e0PY8a12ae0*
G04 #@! TF.FileFunction,Profile,NP*
%FSLAX46Y46*%
G04 Gerber Fmt 4.6, Leading zero omitted, Abs format (unit mm)*
G04 Created by KiCad (PCBNEW 7.0.8) date 2023-11-12 13:04:05*
%MOMM*%
%LPD*%
G01*
G04 APERTURE LIST*
G04 #@! TA.AperFunction,Profile*
%ADD10C,0.100000*%
G04 #@! TD*
G04 APERTURE END LIST*
D10*
X143256001Y70739000D02*
G75*
G03*
X145161000Y68834001I1904999J0D01*
G01*
X6731000Y20066001D02*
G75*
G03*
X8635999Y21971000I0J1904999D01*
G01*
X140716000Y0D02*
X11176000Y0D01*
X5080000Y9906000D02*
X6731000Y9906000D01*
X146812000Y58674001D02*
G75*
G03*
X146812000Y68833999I0J5079999D01*
G01*
X143256000Y2540000D02*
X143256000Y8001000D01*
X143256000Y76200000D02*
G75*
G03*
X140716000Y78740000I-2540000J0D01*
G01*
X146812000Y68833999D02*
X145161000Y68833999D01*
X8636000Y2540000D02*
G75*
G03*
X11176000Y0I2540000J0D01*
G01*
X6731000Y68834000D02*
G75*
G03*
X8636000Y70739000I0J1905000D01*
G01*
X8636000Y2540000D02*
X8636000Y8001000D01*
X6731000Y20066000D02*
X5080000Y20066000D01*
X8635999Y8001000D02*
G75*
G03*
X6731000Y9905999I-1904999J0D01*
G01*
X140716000Y0D02*
G75*
G03*
X143256000Y2540000I0J2540000D01*
G01*
X145161000Y58674001D02*
X146812000Y58674001D01*
X145161000Y58673999D02*
G75*
G03*
X143256001Y56769000I0J-1904999D01*
G01*
X8635999Y56769000D02*
G75*
G03*
X6731000Y58673999I-1904999J0D01*
G01*
X146812000Y20065999D02*
X145161000Y20065999D01*
X5080000Y68834000D02*
G75*
G03*
X5080000Y58674000I0J-5080000D01*
G01*
X8635999Y21971000D02*
X8635999Y56769000D01*
X146812000Y9906001D02*
G75*
G03*
X146812000Y20065999I0J5079999D01*
G01*
X5080000Y20066000D02*
G75*
G03*
X5080000Y9906000I0J-5080000D01*
G01*
X143256000Y76200000D02*
X143256000Y70739000D01*
X11176000Y78740000D02*
G75*
G03*
X8636000Y76200000I0J-2540000D01*
G01*
X145161000Y9905999D02*
G75*
G03*
X143256001Y8001000I0J-1904999D01*
G01*
X8636000Y70739000D02*
X8636000Y76200000D01*
X6731000Y68834000D02*
X5080000Y68834000D01*
X143256001Y21971000D02*
G75*
G03*
X145161000Y20066001I1904999J0D01*
G01*
X143256001Y21971000D02*
X143256001Y56769000D01*
X145161000Y9906001D02*
X146812000Y9906001D01*
X5080000Y58674000D02*
X6731000Y58674000D01*
X11176000Y78740000D02*
X140716000Y78740000D01*
M02*
