M48
; DRILL file {KiCad 7.0.8} date 2023 November 12, Sunday 13:04:02
; FORMAT={-:-/ absolute / inch / decimal}
; #@! TF.CreationDate,2023-11-12T13:04:02-06:00
; #@! TF.GenerationSoftware,Kicad,Pcbnew,7.0.8
; #@! TF.FileFunction,MixedPlating,1,2
FMAT,2
INCH
; #@! TA.AperFunction,Plated,PTH,ComponentDrill
T1C0.0315
; #@! TA.AperFunction,Plated,PTH,ComponentDrill
T2C0.0394
; #@! TA.AperFunction,Plated,PTH,ViaDrill
T3C0.0400
; #@! TA.AperFunction,Plated,PTH,ComponentDrill
T4C0.0551
; #@! TA.AperFunction,Plated,PTH,ComponentDrill
T5C0.1457
; #@! TA.AperFunction,NonPlated,NPTH,ComponentDrill
T6C0.0984
%
G90
G05
T1
X3.15Y2.62
X3.15Y2.22
T2
X1.37Y2.92
X1.375Y2.2121
X1.375Y2.1121
X1.375Y2.0121
X1.375Y1.9121
X1.375Y1.8121
X1.375Y1.7121
X1.375Y1.6121
X1.375Y1.5121
X1.375Y1.4121
X1.375Y1.3121
X1.375Y1.2121
X1.375Y1.1121
X1.375Y1.0121
X1.375Y0.9121
X1.375Y0.8121
X1.375Y0.7121
X1.375Y0.6121
X1.375Y0.5121
X1.375Y0.4121
X1.47Y2.92
X1.57Y2.92
X1.67Y2.92
X1.675Y2.2121
X1.675Y2.1121
X1.675Y2.0121
X1.675Y1.9121
X1.675Y1.8121
X1.675Y1.7121
X1.675Y1.6121
X1.675Y1.5121
X1.675Y1.4121
X1.675Y1.3121
X1.675Y1.2121
X1.675Y1.1121
X1.675Y1.0121
X1.675Y0.9121
X1.675Y0.8121
X1.675Y0.7121
X1.675Y0.6121
X1.675Y0.5121
X1.675Y0.4121
X1.77Y2.92
X2.45Y2.92
X2.55Y2.92
X2.575Y2.2121
X2.575Y2.1121
X2.575Y2.0121
X2.575Y1.9121
X2.575Y1.8121
X2.575Y1.7121
X2.575Y1.6121
X2.575Y1.5121
X2.575Y1.4121
X2.575Y1.3121
X2.575Y1.2121
X2.575Y1.1121
X2.575Y1.0121
X2.575Y0.9121
X2.575Y0.8121
X2.575Y0.7121
X2.575Y0.6121
X2.575Y0.5121
X2.575Y0.4121
X2.65Y2.92
X2.75Y2.92
X2.85Y2.92
X2.875Y2.2121
X2.875Y2.1121
X2.875Y2.0121
X2.875Y1.9121
X2.875Y1.8121
X2.875Y1.7121
X2.875Y1.6121
X2.875Y1.5121
X2.875Y1.4121
X2.875Y1.3121
X2.875Y1.2121
X2.875Y1.1121
X2.875Y1.0121
X2.875Y0.9121
X2.875Y0.8121
X2.875Y0.7121
X2.875Y0.6121
X2.875Y0.5121
X2.875Y0.4121
X2.95Y2.92
X3.05Y2.92
X3.15Y2.92
X3.25Y2.92
X3.54Y2.55
X3.54Y0.25
X3.5992Y2.92
X3.64Y2.55
X3.64Y0.25
X3.6992Y2.92
X3.74Y2.55
X3.74Y0.25
X3.7992Y2.92
X3.84Y2.55
X3.84Y0.25
X3.8992Y2.92
X3.94Y2.55
X3.94Y0.25
X4.04Y2.55
X4.04Y0.25
X4.38Y1.06
X4.38Y0.96
X4.51Y2.015
X4.51Y1.915
X4.51Y1.815
X4.51Y1.715
X4.51Y1.615
X4.51Y1.515
X4.51Y1.415
X4.51Y1.315
X5.095Y2.22
X5.195Y2.22
X5.22Y2.015
X5.22Y1.915
X5.22Y1.815
X5.22Y1.715
X5.22Y1.615
X5.22Y1.515
X5.22Y1.415
X5.22Y1.315
T3
X1.01Y1.075
X1.095Y1.55
X1.18Y1.075
X2.9878Y2.1112
X3.06Y0.81
X4.05Y2.705
X4.1Y2.79
X4.16Y2.705
T4
X0.63Y0.9284
X0.63Y0.7316
X0.6308Y2.8484
X0.6308Y2.6516
X0.6308Y2.3684
X0.6308Y2.1716
X0.6308Y1.8884
X0.6308Y1.6916
X0.6308Y1.4084
X0.6308Y1.2116
X0.6308Y0.4484
X0.6308Y0.2516
X4.7231Y2.81
X4.92Y2.81
T5
X0.2Y2.51
X0.2Y0.59
X5.78Y2.51
X5.78Y0.59
T6
X3.41Y2.5
X3.41Y0.3
X4.16Y2.501
X4.16Y0.3
T0
M30
