<?xml version="1.0" standalone="no"?>
<!DOCTYPE svg PUBLIC "-//W3C//DTD SVG 1.1//EN"
"http://www.w3.org/Graphics/SVG/1.1/DTD/svg11.dtd">
<svg width="598.458" height="321.978" viewBox="0 0 12467.9 6707.87" version="1.1"
xmlns="http://www.w3.org/2000/svg"
xmlns:xlink="http://www.w3.org/1999/xlink">
<polyline points="10979.6,5959.17 10979.7,5959.3 10980,5959.68 10982,5963.19 10982.1,5963.29 10982.2,5963.71 10984.9,5970.16 10989.2,5974.78" style="stroke:rgb(255,0,0);stroke-width:15.748031;fill:none;stroke-opacity:0.5;stroke-linecap:round;stroke-linejoin:round;;fill:none"/>
<polyline points="10979.6,5959.17 10979.7,5959.3 10980,5959.68 10982,5963.19 10982.1,5963.29 10982.2,5963.71 10984.9,5970.16 10989.2,5974.78" style="stroke:rgb(0,0,0);stroke-width:1px;fill:none;stroke-opacity:1;stroke-linecap:round;stroke-linejoin:round;;fill:none"/>
<polyline points="10979.6,5959.17 10979.7,5959.3 10980,5959.68 10982,5963.19 10982.1,5963.29 10982.2,5963.71 10984.9,5970.16 10989.2,5974.78" style="stroke:rgb(255,0,0);stroke-width:15.748031;fill:none;stroke-opacity:0.5;stroke-linecap:round;stroke-linejoin:round;;fill:none"/>
<polyline points="10979.6,5959.17 10979.7,5959.3 10980,5959.68 10982,5963.19 10982.1,5963.29 10982.2,5963.71 10984.9,5970.16 10989.2,5974.78" style="stroke:rgb(0,0,0);stroke-width:1px;fill:none;stroke-opacity:1;stroke-linecap:round;stroke-linejoin:round;;fill:none"/>
<polyline points="11142.3,6069.15 11143.9,6070.19 11146.6,6071.71 11146.8,6071.81 11150.7,6072.49 11155.7,6071.63 11155.9,6071.6 11156.2,6071.52 11164.7,6069.09 11171.8,6066.9 11173.2,6066.4 11173.3,6066.35 11191.9,6059.08 11192.1,6059.02 11197.9,6056.5 11199.1,6055.9 11199.3,6055.79 11221,6042.98 11221.3,6042.85 11221.4,6042.74 11241,6027.15 11241.2,6026.99 11243.2,6025.16 11254.1,6014.19 11254.1,6014.12 11258,6010.42 11258.2,6010.14 11258.9,6009.41 11259.3,6008.98 11261.3,6007.21 11265.4,6005.23 11266.1,6005.05 11267.5,6005.03" style="stroke:rgb(255,0,0);stroke-width:15.748031;fill:none;stroke-opacity:0.5;stroke-linecap:round;stroke-linejoin:round;;fill:none"/>
<polyline points="11142.3,6069.15 11143.9,6070.19 11146.6,6071.71 11146.8,6071.81 11150.7,6072.49 11155.7,6071.63 11155.9,6071.6 11156.2,6071.52 11164.7,6069.09 11171.8,6066.9 11173.2,6066.4 11173.3,6066.35 11191.9,6059.08 11192.1,6059.02 11197.9,6056.5 11199.1,6055.9 11199.3,6055.79 11221,6042.98 11221.3,6042.85 11221.4,6042.74 11241,6027.15 11241.2,6026.99 11243.2,6025.16 11254.1,6014.19 11254.1,6014.12 11258,6010.42 11258.2,6010.14 11258.9,6009.41 11259.3,6008.98 11261.3,6007.21 11265.4,6005.23 11266.1,6005.05 11267.5,6005.03" style="stroke:rgb(0,0,0);stroke-width:1px;fill:none;stroke-opacity:1;stroke-linecap:round;stroke-linejoin:round;;fill:none"/>
<polyline points="11142.3,6069.15 11143.9,6070.19 11146.6,6071.71 11146.8,6071.81 11150.7,6072.49 11155.7,6071.63 11155.9,6071.6 11156.2,6071.52 11164.7,6069.09 11171.8,6066.9 11173.2,6066.4 11173.3,6066.35 11191.9,6059.08 11192.1,6059.02 11197.9,6056.5 11199.1,6055.9 11199.3,6055.79 11221,6042.98 11221.3,6042.85 11221.4,6042.74 11241,6027.15 11241.2,6026.99 11243.2,6025.16 11254.1,6014.19 11254.1,6014.12 11258,6010.42 11258.2,6010.14 11258.9,6009.41 11259.3,6008.98 11261.3,6007.21 11265.4,6005.23 11266.1,6005.05 11267.5,6005.03" style="stroke:rgb(255,0,0);stroke-width:15.748031;fill:none;stroke-opacity:0.5;stroke-linecap:round;stroke-linejoin:round;;fill:none"/>
<polyline points="11142.3,6069.15 11143.9,6070.19 11146.6,6071.71 11146.8,6071.81 11150.7,6072.49 11155.7,6071.63 11155.9,6071.6 11156.2,6071.52 11164.7,6069.09 11171.8,6066.9 11173.2,6066.4 11173.3,6066.35 11191.9,6059.08 11192.1,6059.02 11197.9,6056.5 11199.1,6055.9 11199.3,6055.79 11221,6042.98 11221.3,6042.85 11221.4,6042.74 11241,6027.15 11241.2,6026.99 11243.2,6025.16 11254.1,6014.19 11254.1,6014.12 11258,6010.42 11258.2,6010.14 11258.9,6009.41 11259.3,6008.98 11261.3,6007.21 11265.4,6005.23 11266.1,6005.05 11267.5,6005.03" style="stroke:rgb(0,0,0);stroke-width:1px;fill:none;stroke-opacity:1;stroke-linecap:round;stroke-linejoin:round;;fill:none"/>
<polyline points="10987.1,5972.52 10984.9,5970.16 10982.2,5963.71 10982.1,5963.29 10982,5963.19 10980,5959.68 10979.7,5959.3 10979.4,5959.02" style="stroke:rgb(255,0,0);stroke-width:15.748031;fill:none;stroke-opacity:0.5;stroke-linecap:round;stroke-linejoin:round;;fill:none"/>
<polyline points="10987.1,5972.52 10984.9,5970.16 10982.2,5963.71 10982.1,5963.29 10982,5963.19 10980,5959.68 10979.7,5959.3 10979.4,5959.02" style="stroke:rgb(0,0,0);stroke-width:1px;fill:none;stroke-opacity:1;stroke-linecap:round;stroke-linejoin:round;;fill:none"/>
<polyline points="10987.1,5972.52 10984.9,5970.16 10982.2,5963.71 10982.1,5963.29 10982,5963.19 10980,5959.68 10979.7,5959.3 10979.4,5959.02" style="stroke:rgb(255,0,0);stroke-width:15.748031;fill:none;stroke-opacity:0.5;stroke-linecap:round;stroke-linejoin:round;;fill:none"/>
<polyline points="10987.1,5972.52 10984.9,5970.16 10982.2,5963.71 10982.1,5963.29 10982,5963.19 10980,5959.68 10979.7,5959.3 10979.4,5959.02" style="stroke:rgb(0,0,0);stroke-width:1px;fill:none;stroke-opacity:1;stroke-linecap:round;stroke-linejoin:round;;fill:none"/>
<polyline points="11267.9,6005.02 11266.1,6005.05 11265.4,6005.23 11261.3,6007.21 11259.3,6008.98 11258.9,6009.41 11258.2,6010.14 11258,6010.42 11254.1,6014.12 11254.1,6014.19 11243.2,6025.16 11241.2,6026.99 11241,6027.15 11221.4,6042.74 11221.3,6042.85 11221,6042.98 11199.3,6055.79 11199.1,6055.9 11197.9,6056.5 11192.1,6059.02 11191.9,6059.08 11173.3,6066.35 11173.2,6066.4 11171.8,6066.9 11164.7,6069.09 11156.2,6071.52 11155.9,6071.6 11155.7,6071.63 11150.7,6072.49 11146.8,6071.81 11146.6,6071.71 11143.9,6070.19 11142.3,6069.18" style="stroke:rgb(255,0,0);stroke-width:15.748031;fill:none;stroke-opacity:0.5;stroke-linecap:round;stroke-linejoin:round;;fill:none"/>
<polyline points="11267.9,6005.02 11266.1,6005.05 11265.4,6005.23 11261.3,6007.21 11259.3,6008.98 11258.9,6009.41 11258.2,6010.14 11258,6010.42 11254.1,6014.12 11254.1,6014.19 11243.2,6025.16 11241.2,6026.99 11241,6027.15 11221.4,6042.74 11221.3,6042.85 11221,6042.98 11199.3,6055.79 11199.1,6055.9 11197.9,6056.5 11192.1,6059.02 11191.9,6059.08 11173.3,6066.35 11173.2,6066.4 11171.8,6066.9 11164.7,6069.09 11156.2,6071.52 11155.9,6071.6 11155.7,6071.63 11150.7,6072.49 11146.8,6071.81 11146.6,6071.71 11143.9,6070.19 11142.3,6069.18" style="stroke:rgb(0,0,0);stroke-width:1px;fill:none;stroke-opacity:1;stroke-linecap:round;stroke-linejoin:round;;fill:none"/>
<polyline points="11267.9,6005.02 11266.1,6005.05 11265.4,6005.23 11261.3,6007.21 11259.3,6008.98 11258.9,6009.41 11258.2,6010.14 11258,6010.42 11254.1,6014.12 11254.1,6014.19 11243.2,6025.16 11241.2,6026.99 11241,6027.15 11221.4,6042.74 11221.3,6042.85 11221,6042.98 11199.3,6055.79 11199.1,6055.9 11197.9,6056.5 11192.1,6059.02 11191.9,6059.08 11173.3,6066.35 11173.2,6066.4 11171.8,6066.9 11164.7,6069.09 11156.2,6071.52 11155.9,6071.6 11155.7,6071.63 11150.7,6072.49 11146.8,6071.81 11146.6,6071.71 11143.9,6070.19 11142.3,6069.18" style="stroke:rgb(255,0,0);stroke-width:15.748031;fill:none;stroke-opacity:0.5;stroke-linecap:round;stroke-linejoin:round;;fill:none"/>
<polyline points="11267.9,6005.02 11266.1,6005.05 11265.4,6005.23 11261.3,6007.21 11259.3,6008.98 11258.9,6009.41 11258.2,6010.14 11258,6010.42 11254.1,6014.12 11254.1,6014.19 11243.2,6025.16 11241.2,6026.99 11241,6027.15 11221.4,6042.74 11221.3,6042.85 11221,6042.98 11199.3,6055.79 11199.1,6055.9 11197.9,6056.5 11192.1,6059.02 11191.9,6059.08 11173.3,6066.35 11173.2,6066.4 11171.8,6066.9 11164.7,6069.09 11156.2,6071.52 11155.9,6071.6 11155.7,6071.63 11150.7,6072.49 11146.8,6071.81 11146.6,6071.71 11143.9,6070.19 11142.3,6069.18" style="stroke:rgb(0,0,0);stroke-width:1px;fill:none;stroke-opacity:1;stroke-linecap:round;stroke-linejoin:round;;fill:none"/>
<polyline points="2986.22,1056.02 2986.42,1055.97 2986.89,1055.84 2987.81,1055.62 2988.16,1055.53 2990.77,1054.81 2990.98,1054.75 2991.82,1054.54 2991.97,1054.5 2994.67,1053.77 2994.69,1053.76 2995.15,1053.64 2995.62,1053.53 2998.5,1052.91 2999.51,1052.74 3002.46,1052.4 3003.62,1052.32 3006.66,1052.27 3008.06,1052.32 3008.08,1052.32" style="stroke:rgb(255,0,0);stroke-width:15.748031;fill:none;stroke-opacity:0.5;stroke-linecap:round;stroke-linejoin:round;;fill:none"/>
<polyline points="2986.22,1056.02 2986.42,1055.97 2986.89,1055.84 2987.81,1055.62 2988.16,1055.53 2990.77,1054.81 2990.98,1054.75 2991.82,1054.54 2991.97,1054.5 2994.67,1053.77 2994.69,1053.76 2995.15,1053.64 2995.62,1053.53 2998.5,1052.91 2999.51,1052.74 3002.46,1052.4 3003.62,1052.32 3006.66,1052.27 3008.06,1052.32 3008.08,1052.32" style="stroke:rgb(0,0,0);stroke-width:1px;fill:none;stroke-opacity:1;stroke-linecap:round;stroke-linejoin:round;;fill:none"/>
<polyline points="2986.22,1056.02 2986.42,1055.97 2986.89,1055.84 2987.81,1055.62 2988.16,1055.53 2990.77,1054.81 2990.98,1054.75 2991.82,1054.54 2991.97,1054.5 2994.67,1053.77 2994.69,1053.76 2995.15,1053.64 2995.62,1053.53 2998.5,1052.91 2999.51,1052.74 3002.46,1052.4 3003.62,1052.32 3006.66,1052.27 3008.06,1052.32 3008.08,1052.32" style="stroke:rgb(255,0,0);stroke-width:15.748031;fill:none;stroke-opacity:0.5;stroke-linecap:round;stroke-linejoin:round;;fill:none"/>
<polyline points="2986.22,1056.02 2986.42,1055.97 2986.89,1055.84 2987.81,1055.62 2988.16,1055.53 2990.77,1054.81 2990.98,1054.75 2991.82,1054.54 2991.97,1054.5 2994.67,1053.77 2994.69,1053.76 2995.15,1053.64 2995.62,1053.53 2998.5,1052.91 2999.51,1052.74 3002.46,1052.4 3003.62,1052.32 3006.66,1052.27 3008.06,1052.32 3008.08,1052.32" style="stroke:rgb(0,0,0);stroke-width:1px;fill:none;stroke-opacity:1;stroke-linecap:round;stroke-linejoin:round;;fill:none"/>
<polyline points="3008.1,1052.32 3008.06,1052.32 3006.66,1052.27 3003.62,1052.32 3002.46,1052.4 2999.51,1052.74 2998.5,1052.91 2995.62,1053.53 2995.15,1053.64 2994.69,1053.76 2994.67,1053.77 2991.97,1054.5 2991.82,1054.54 2990.98,1054.75 2990.77,1054.81 2988.16,1055.53 2987.81,1055.62 2986.89,1055.84 2986.42,1055.97 2986.22,1056.02" style="stroke:rgb(255,0,0);stroke-width:15.748031;fill:none;stroke-opacity:0.5;stroke-linecap:round;stroke-linejoin:round;;fill:none"/>
<polyline points="3008.1,1052.32 3008.06,1052.32 3006.66,1052.27 3003.62,1052.32 3002.46,1052.4 2999.51,1052.74 2998.5,1052.91 2995.62,1053.53 2995.15,1053.64 2994.69,1053.76 2994.67,1053.77 2991.97,1054.5 2991.82,1054.54 2990.98,1054.75 2990.77,1054.81 2988.16,1055.53 2987.81,1055.62 2986.89,1055.84 2986.42,1055.97 2986.22,1056.02" style="stroke:rgb(0,0,0);stroke-width:1px;fill:none;stroke-opacity:1;stroke-linecap:round;stroke-linejoin:round;;fill:none"/>
<polyline points="3008.1,1052.32 3008.06,1052.32 3006.66,1052.27 3003.62,1052.32 3002.46,1052.4 2999.51,1052.74 2998.5,1052.91 2995.62,1053.53 2995.15,1053.64 2994.69,1053.76 2994.67,1053.77 2991.97,1054.5 2991.82,1054.54 2990.98,1054.75 2990.77,1054.81 2988.16,1055.53 2987.81,1055.62 2986.89,1055.84 2986.42,1055.97 2986.22,1056.02" style="stroke:rgb(255,0,0);stroke-width:15.748031;fill:none;stroke-opacity:0.5;stroke-linecap:round;stroke-linejoin:round;;fill:none"/>
<polyline points="3008.1,1052.32 3008.06,1052.32 3006.66,1052.27 3003.62,1052.32 3002.46,1052.4 2999.51,1052.74 2998.5,1052.91 2995.62,1053.53 2995.15,1053.64 2994.69,1053.76 2994.67,1053.77 2991.97,1054.5 2991.82,1054.54 2990.98,1054.75 2990.77,1054.81 2988.16,1055.53 2987.81,1055.62 2986.89,1055.84 2986.42,1055.97 2986.22,1056.02" style="stroke:rgb(0,0,0);stroke-width:1px;fill:none;stroke-opacity:1;stroke-linecap:round;stroke-linejoin:round;;fill:none"/>
<polyline points="3186.22,1056.02 3186.42,1055.97 3186.89,1055.84 3187.81,1055.62 3188.16,1055.53 3190.77,1054.81 3190.98,1054.75 3191.82,1054.54 3191.97,1054.5 3194.67,1053.77 3194.69,1053.76 3195.15,1053.64 3195.62,1053.53 3198.5,1052.91 3199.51,1052.74 3202.46,1052.4 3203.62,1052.32 3206.66,1052.27 3208.06,1052.32 3208.08,1052.32" style="stroke:rgb(255,0,0);stroke-width:15.748031;fill:none;stroke-opacity:0.5;stroke-linecap:round;stroke-linejoin:round;;fill:none"/>
<polyline points="3186.22,1056.02 3186.42,1055.97 3186.89,1055.84 3187.81,1055.62 3188.16,1055.53 3190.77,1054.81 3190.98,1054.75 3191.82,1054.54 3191.97,1054.5 3194.67,1053.77 3194.69,1053.76 3195.15,1053.64 3195.62,1053.53 3198.5,1052.91 3199.51,1052.74 3202.46,1052.4 3203.62,1052.32 3206.66,1052.27 3208.06,1052.32 3208.08,1052.32" style="stroke:rgb(0,0,0);stroke-width:1px;fill:none;stroke-opacity:1;stroke-linecap:round;stroke-linejoin:round;;fill:none"/>
<polyline points="3186.22,1056.02 3186.42,1055.97 3186.89,1055.84 3187.81,1055.62 3188.16,1055.53 3190.77,1054.81 3190.98,1054.75 3191.82,1054.54 3191.97,1054.5 3194.67,1053.77 3194.69,1053.76 3195.15,1053.64 3195.62,1053.53 3198.5,1052.91 3199.51,1052.74 3202.46,1052.4 3203.62,1052.32 3206.66,1052.27 3208.06,1052.32 3208.08,1052.32" style="stroke:rgb(255,0,0);stroke-width:15.748031;fill:none;stroke-opacity:0.5;stroke-linecap:round;stroke-linejoin:round;;fill:none"/>
<polyline points="3186.22,1056.02 3186.42,1055.97 3186.89,1055.84 3187.81,1055.62 3188.16,1055.53 3190.77,1054.81 3190.98,1054.75 3191.82,1054.54 3191.97,1054.5 3194.67,1053.77 3194.69,1053.76 3195.15,1053.64 3195.62,1053.53 3198.5,1052.91 3199.51,1052.74 3202.46,1052.4 3203.62,1052.32 3206.66,1052.27 3208.06,1052.32 3208.08,1052.32" style="stroke:rgb(0,0,0);stroke-width:1px;fill:none;stroke-opacity:1;stroke-linecap:round;stroke-linejoin:round;;fill:none"/>
<polyline points="3208.1,1052.32 3208.06,1052.32 3206.66,1052.27 3203.62,1052.32 3202.46,1052.4 3199.51,1052.74 3198.5,1052.91 3195.62,1053.53 3195.15,1053.64 3194.69,1053.76 3194.67,1053.77 3191.97,1054.5 3191.82,1054.54 3190.98,1054.75 3190.77,1054.81 3188.16,1055.53 3187.81,1055.62 3186.89,1055.84 3186.42,1055.97 3186.22,1056.02" style="stroke:rgb(255,0,0);stroke-width:15.748031;fill:none;stroke-opacity:0.5;stroke-linecap:round;stroke-linejoin:round;;fill:none"/>
<polyline points="3208.1,1052.32 3208.06,1052.32 3206.66,1052.27 3203.62,1052.32 3202.46,1052.4 3199.51,1052.74 3198.5,1052.91 3195.62,1053.53 3195.15,1053.64 3194.69,1053.76 3194.67,1053.77 3191.97,1054.5 3191.82,1054.54 3190.98,1054.75 3190.77,1054.81 3188.16,1055.53 3187.81,1055.62 3186.89,1055.84 3186.42,1055.97 3186.22,1056.02" style="stroke:rgb(0,0,0);stroke-width:1px;fill:none;stroke-opacity:1;stroke-linecap:round;stroke-linejoin:round;;fill:none"/>
<polyline points="3208.1,1052.32 3208.06,1052.32 3206.66,1052.27 3203.62,1052.32 3202.46,1052.4 3199.51,1052.74 3198.5,1052.91 3195.62,1053.53 3195.15,1053.64 3194.69,1053.76 3194.67,1053.77 3191.97,1054.5 3191.82,1054.54 3190.98,1054.75 3190.77,1054.81 3188.16,1055.53 3187.81,1055.62 3186.89,1055.84 3186.42,1055.97 3186.22,1056.02" style="stroke:rgb(255,0,0);stroke-width:15.748031;fill:none;stroke-opacity:0.5;stroke-linecap:round;stroke-linejoin:round;;fill:none"/>
<polyline points="3208.1,1052.32 3208.06,1052.32 3206.66,1052.27 3203.62,1052.32 3202.46,1052.4 3199.51,1052.74 3198.5,1052.91 3195.62,1053.53 3195.15,1053.64 3194.69,1053.76 3194.67,1053.77 3191.97,1054.5 3191.82,1054.54 3190.98,1054.75 3190.77,1054.81 3188.16,1055.53 3187.81,1055.62 3186.89,1055.84 3186.42,1055.97 3186.22,1056.02" style="stroke:rgb(0,0,0);stroke-width:1px;fill:none;stroke-opacity:1;stroke-linecap:round;stroke-linejoin:round;;fill:none"/>
<polyline points="3386.22,1056.02 3386.42,1055.97 3386.89,1055.84 3387.81,1055.62 3388.16,1055.53 3390.77,1054.81 3390.98,1054.75 3391.82,1054.54 3391.97,1054.5 3394.67,1053.77 3394.69,1053.76 3395.15,1053.64 3395.62,1053.53 3398.5,1052.91 3399.51,1052.74 3402.46,1052.4 3403.62,1052.32 3406.66,1052.27 3408.06,1052.32 3408.08,1052.32" style="stroke:rgb(255,0,0);stroke-width:15.748031;fill:none;stroke-opacity:0.5;stroke-linecap:round;stroke-linejoin:round;;fill:none"/>
<polyline points="3386.22,1056.02 3386.42,1055.97 3386.89,1055.84 3387.81,1055.62 3388.16,1055.53 3390.77,1054.81 3390.98,1054.75 3391.82,1054.54 3391.97,1054.5 3394.67,1053.77 3394.69,1053.76 3395.15,1053.64 3395.62,1053.53 3398.5,1052.91 3399.51,1052.74 3402.46,1052.4 3403.62,1052.32 3406.66,1052.27 3408.06,1052.32 3408.08,1052.32" style="stroke:rgb(0,0,0);stroke-width:1px;fill:none;stroke-opacity:1;stroke-linecap:round;stroke-linejoin:round;;fill:none"/>
<polyline points="3386.22,1056.02 3386.42,1055.97 3386.89,1055.84 3387.81,1055.62 3388.16,1055.53 3390.77,1054.81 3390.98,1054.75 3391.82,1054.54 3391.97,1054.5 3394.67,1053.77 3394.69,1053.76 3395.15,1053.64 3395.62,1053.53 3398.5,1052.91 3399.51,1052.74 3402.46,1052.4 3403.62,1052.32 3406.66,1052.27 3408.06,1052.32 3408.08,1052.32" style="stroke:rgb(255,0,0);stroke-width:15.748031;fill:none;stroke-opacity:0.5;stroke-linecap:round;stroke-linejoin:round;;fill:none"/>
<polyline points="3386.22,1056.02 3386.42,1055.97 3386.89,1055.84 3387.81,1055.62 3388.16,1055.53 3390.77,1054.81 3390.98,1054.75 3391.82,1054.54 3391.97,1054.5 3394.67,1053.77 3394.69,1053.76 3395.15,1053.64 3395.62,1053.53 3398.5,1052.91 3399.51,1052.74 3402.46,1052.4 3403.62,1052.32 3406.66,1052.27 3408.06,1052.32 3408.08,1052.32" style="stroke:rgb(0,0,0);stroke-width:1px;fill:none;stroke-opacity:1;stroke-linecap:round;stroke-linejoin:round;;fill:none"/>
<polyline points="3408.1,1052.32 3408.06,1052.32 3406.66,1052.27 3403.62,1052.32 3402.46,1052.4 3399.51,1052.74 3398.5,1052.91 3395.62,1053.53 3395.15,1053.64 3394.69,1053.76 3394.67,1053.77 3391.97,1054.5 3391.82,1054.54 3390.98,1054.75 3390.77,1054.81 3388.16,1055.53 3387.81,1055.62 3386.89,1055.84 3386.42,1055.97 3386.22,1056.02" style="stroke:rgb(255,0,0);stroke-width:15.748031;fill:none;stroke-opacity:0.5;stroke-linecap:round;stroke-linejoin:round;;fill:none"/>
<polyline points="3408.1,1052.32 3408.06,1052.32 3406.66,1052.27 3403.62,1052.32 3402.46,1052.4 3399.51,1052.74 3398.5,1052.91 3395.62,1053.53 3395.15,1053.64 3394.69,1053.76 3394.67,1053.77 3391.97,1054.5 3391.82,1054.54 3390.98,1054.75 3390.77,1054.81 3388.16,1055.53 3387.81,1055.62 3386.89,1055.84 3386.42,1055.97 3386.22,1056.02" style="stroke:rgb(0,0,0);stroke-width:1px;fill:none;stroke-opacity:1;stroke-linecap:round;stroke-linejoin:round;;fill:none"/>
<polyline points="3408.1,1052.32 3408.06,1052.32 3406.66,1052.27 3403.62,1052.32 3402.46,1052.4 3399.51,1052.74 3398.5,1052.91 3395.62,1053.53 3395.15,1053.64 3394.69,1053.76 3394.67,1053.77 3391.97,1054.5 3391.82,1054.54 3390.98,1054.75 3390.77,1054.81 3388.16,1055.53 3387.81,1055.62 3386.89,1055.84 3386.42,1055.97 3386.22,1056.02" style="stroke:rgb(255,0,0);stroke-width:15.748031;fill:none;stroke-opacity:0.5;stroke-linecap:round;stroke-linejoin:round;;fill:none"/>
<polyline points="3408.1,1052.32 3408.06,1052.32 3406.66,1052.27 3403.62,1052.32 3402.46,1052.4 3399.51,1052.74 3398.5,1052.91 3395.62,1053.53 3395.15,1053.64 3394.69,1053.76 3394.67,1053.77 3391.97,1054.5 3391.82,1054.54 3390.98,1054.75 3390.77,1054.81 3388.16,1055.53 3387.81,1055.62 3386.89,1055.84 3386.42,1055.97 3386.22,1056.02" style="stroke:rgb(0,0,0);stroke-width:1px;fill:none;stroke-opacity:1;stroke-linecap:round;stroke-linejoin:round;;fill:none"/>
<polyline points="3586.22,1056.02 3586.42,1055.97 3586.89,1055.84 3587.81,1055.62 3588.16,1055.53 3590.77,1054.81 3590.98,1054.75 3591.82,1054.54 3591.97,1054.5 3594.67,1053.77 3594.69,1053.76 3595.15,1053.64 3595.62,1053.53 3598.5,1052.91 3599.51,1052.74 3602.46,1052.4 3603.62,1052.32 3606.66,1052.27 3608.06,1052.32 3608.08,1052.32" style="stroke:rgb(255,0,0);stroke-width:15.748031;fill:none;stroke-opacity:0.5;stroke-linecap:round;stroke-linejoin:round;;fill:none"/>
<polyline points="3586.22,1056.02 3586.42,1055.97 3586.89,1055.84 3587.81,1055.62 3588.16,1055.53 3590.77,1054.81 3590.98,1054.75 3591.82,1054.54 3591.97,1054.5 3594.67,1053.77 3594.69,1053.76 3595.15,1053.64 3595.62,1053.53 3598.5,1052.91 3599.51,1052.74 3602.46,1052.4 3603.62,1052.32 3606.66,1052.27 3608.06,1052.32 3608.08,1052.32" style="stroke:rgb(0,0,0);stroke-width:1px;fill:none;stroke-opacity:1;stroke-linecap:round;stroke-linejoin:round;;fill:none"/>
<polyline points="3586.22,1056.02 3586.42,1055.97 3586.89,1055.84 3587.81,1055.62 3588.16,1055.53 3590.77,1054.81 3590.98,1054.75 3591.82,1054.54 3591.97,1054.5 3594.67,1053.77 3594.69,1053.76 3595.15,1053.64 3595.62,1053.53 3598.5,1052.91 3599.51,1052.74 3602.46,1052.4 3603.62,1052.32 3606.66,1052.27 3608.06,1052.32 3608.08,1052.32" style="stroke:rgb(255,0,0);stroke-width:15.748031;fill:none;stroke-opacity:0.5;stroke-linecap:round;stroke-linejoin:round;;fill:none"/>
<polyline points="3586.22,1056.02 3586.42,1055.97 3586.89,1055.84 3587.81,1055.62 3588.16,1055.53 3590.77,1054.81 3590.98,1054.75 3591.82,1054.54 3591.97,1054.5 3594.67,1053.77 3594.69,1053.76 3595.15,1053.64 3595.62,1053.53 3598.5,1052.91 3599.51,1052.74 3602.46,1052.4 3603.62,1052.32 3606.66,1052.27 3608.06,1052.32 3608.08,1052.32" style="stroke:rgb(0,0,0);stroke-width:1px;fill:none;stroke-opacity:1;stroke-linecap:round;stroke-linejoin:round;;fill:none"/>
<polyline points="3608.1,1052.32 3608.06,1052.32 3606.66,1052.27 3603.62,1052.32 3602.46,1052.4 3599.51,1052.74 3598.5,1052.91 3595.62,1053.53 3595.15,1053.64 3594.69,1053.76 3594.67,1053.77 3591.97,1054.5 3591.82,1054.54 3590.98,1054.75 3590.77,1054.81 3588.16,1055.53 3587.81,1055.62 3586.89,1055.84 3586.42,1055.97 3586.22,1056.02" style="stroke:rgb(255,0,0);stroke-width:15.748031;fill:none;stroke-opacity:0.5;stroke-linecap:round;stroke-linejoin:round;;fill:none"/>
<polyline points="3608.1,1052.32 3608.06,1052.32 3606.66,1052.27 3603.62,1052.32 3602.46,1052.4 3599.51,1052.74 3598.5,1052.91 3595.62,1053.53 3595.15,1053.64 3594.69,1053.76 3594.67,1053.77 3591.97,1054.5 3591.82,1054.54 3590.98,1054.75 3590.77,1054.81 3588.16,1055.53 3587.81,1055.62 3586.89,1055.84 3586.42,1055.97 3586.22,1056.02" style="stroke:rgb(0,0,0);stroke-width:1px;fill:none;stroke-opacity:1;stroke-linecap:round;stroke-linejoin:round;;fill:none"/>
<polyline points="3608.1,1052.32 3608.06,1052.32 3606.66,1052.27 3603.62,1052.32 3602.46,1052.4 3599.51,1052.74 3598.5,1052.91 3595.62,1053.53 3595.15,1053.64 3594.69,1053.76 3594.67,1053.77 3591.97,1054.5 3591.82,1054.54 3590.98,1054.75 3590.77,1054.81 3588.16,1055.53 3587.81,1055.62 3586.89,1055.84 3586.42,1055.97 3586.22,1056.02" style="stroke:rgb(255,0,0);stroke-width:15.748031;fill:none;stroke-opacity:0.5;stroke-linecap:round;stroke-linejoin:round;;fill:none"/>
<polyline points="3608.1,1052.32 3608.06,1052.32 3606.66,1052.27 3603.62,1052.32 3602.46,1052.4 3599.51,1052.74 3598.5,1052.91 3595.62,1053.53 3595.15,1053.64 3594.69,1053.76 3594.67,1053.77 3591.97,1054.5 3591.82,1054.54 3590.98,1054.75 3590.77,1054.81 3588.16,1055.53 3587.81,1055.62 3586.89,1055.84 3586.42,1055.97 3586.22,1056.02" style="stroke:rgb(0,0,0);stroke-width:1px;fill:none;stroke-opacity:1;stroke-linecap:round;stroke-linejoin:round;;fill:none"/>
<polyline points="3786.22,1056.02 3786.42,1055.97 3786.89,1055.84 3787.81,1055.62 3788.16,1055.53 3790.77,1054.81 3790.98,1054.75 3791.82,1054.54 3791.97,1054.5 3794.67,1053.77 3794.69,1053.76 3795.15,1053.64 3795.62,1053.53 3798.5,1052.91 3799.51,1052.74 3802.46,1052.4 3803.62,1052.32 3806.66,1052.27 3808.06,1052.32 3808.08,1052.32" style="stroke:rgb(255,0,0);stroke-width:15.748031;fill:none;stroke-opacity:0.5;stroke-linecap:round;stroke-linejoin:round;;fill:none"/>
<polyline points="3786.22,1056.02 3786.42,1055.97 3786.89,1055.84 3787.81,1055.62 3788.16,1055.53 3790.77,1054.81 3790.98,1054.75 3791.82,1054.54 3791.97,1054.5 3794.67,1053.77 3794.69,1053.76 3795.15,1053.64 3795.62,1053.53 3798.5,1052.91 3799.51,1052.74 3802.46,1052.4 3803.62,1052.32 3806.66,1052.27 3808.06,1052.32 3808.08,1052.32" style="stroke:rgb(0,0,0);stroke-width:1px;fill:none;stroke-opacity:1;stroke-linecap:round;stroke-linejoin:round;;fill:none"/>
<polyline points="3786.22,1056.02 3786.42,1055.97 3786.89,1055.84 3787.81,1055.62 3788.16,1055.53 3790.77,1054.81 3790.98,1054.75 3791.82,1054.54 3791.97,1054.5 3794.67,1053.77 3794.69,1053.76 3795.15,1053.64 3795.62,1053.53 3798.5,1052.91 3799.51,1052.74 3802.46,1052.4 3803.62,1052.32 3806.66,1052.27 3808.06,1052.32 3808.08,1052.32" style="stroke:rgb(255,0,0);stroke-width:15.748031;fill:none;stroke-opacity:0.5;stroke-linecap:round;stroke-linejoin:round;;fill:none"/>
<polyline points="3786.22,1056.02 3786.42,1055.97 3786.89,1055.84 3787.81,1055.62 3788.16,1055.53 3790.77,1054.81 3790.98,1054.75 3791.82,1054.54 3791.97,1054.5 3794.67,1053.77 3794.69,1053.76 3795.15,1053.64 3795.62,1053.53 3798.5,1052.91 3799.51,1052.74 3802.46,1052.4 3803.62,1052.32 3806.66,1052.27 3808.06,1052.32 3808.08,1052.32" style="stroke:rgb(0,0,0);stroke-width:1px;fill:none;stroke-opacity:1;stroke-linecap:round;stroke-linejoin:round;;fill:none"/>
<polyline points="3808.1,1052.32 3808.06,1052.32 3806.66,1052.27 3803.62,1052.32 3802.46,1052.4 3799.51,1052.74 3798.5,1052.91 3795.62,1053.53 3795.15,1053.64 3794.69,1053.76 3794.67,1053.77 3791.97,1054.5 3791.82,1054.54 3790.98,1054.75 3790.77,1054.81 3788.16,1055.53 3787.81,1055.62 3786.89,1055.84 3786.42,1055.97 3786.22,1056.02" style="stroke:rgb(255,0,0);stroke-width:15.748031;fill:none;stroke-opacity:0.5;stroke-linecap:round;stroke-linejoin:round;;fill:none"/>
<polyline points="3808.1,1052.32 3808.06,1052.32 3806.66,1052.27 3803.62,1052.32 3802.46,1052.4 3799.51,1052.74 3798.5,1052.91 3795.62,1053.53 3795.15,1053.64 3794.69,1053.76 3794.67,1053.77 3791.97,1054.5 3791.82,1054.54 3790.98,1054.75 3790.77,1054.81 3788.16,1055.53 3787.81,1055.62 3786.89,1055.84 3786.42,1055.97 3786.22,1056.02" style="stroke:rgb(0,0,0);stroke-width:1px;fill:none;stroke-opacity:1;stroke-linecap:round;stroke-linejoin:round;;fill:none"/>
<polyline points="3808.1,1052.32 3808.06,1052.32 3806.66,1052.27 3803.62,1052.32 3802.46,1052.4 3799.51,1052.74 3798.5,1052.91 3795.62,1053.53 3795.15,1053.64 3794.69,1053.76 3794.67,1053.77 3791.97,1054.5 3791.82,1054.54 3790.98,1054.75 3790.77,1054.81 3788.16,1055.53 3787.81,1055.62 3786.89,1055.84 3786.42,1055.97 3786.22,1056.02" style="stroke:rgb(255,0,0);stroke-width:15.748031;fill:none;stroke-opacity:0.5;stroke-linecap:round;stroke-linejoin:round;;fill:none"/>
<polyline points="3808.1,1052.32 3808.06,1052.32 3806.66,1052.27 3803.62,1052.32 3802.46,1052.4 3799.51,1052.74 3798.5,1052.91 3795.62,1053.53 3795.15,1053.64 3794.69,1053.76 3794.67,1053.77 3791.97,1054.5 3791.82,1054.54 3790.98,1054.75 3790.77,1054.81 3788.16,1055.53 3787.81,1055.62 3786.89,1055.84 3786.42,1055.97 3786.22,1056.02" style="stroke:rgb(0,0,0);stroke-width:1px;fill:none;stroke-opacity:1;stroke-linecap:round;stroke-linejoin:round;;fill:none"/>
<polyline points="5110,938.569 5110.89,938.319 5111.25,938.201 5112.22,937.925 5114.6,937.339 5115.43,937.095 5115.49,937.073 5116.19,936.863 5118.53,936.281 5119.08,936.115 5119.12,936.099 5119.62,935.949 5121.96,935.357 5122.38,935.231 5122.41,935.219 5122.81,935.097 5125.22,934.481 5125.58,934.375 5125.65,934.349 5126.01,934.241 5128.58,933.581 5128.86,933.501 5129.47,933.341 5132.48,932.711 5133.43,932.559 5136.62,932.205 5137.32,932.143 5138.27,932.083" style="stroke:rgb(255,0,0);stroke-width:15.748031;fill:none;stroke-opacity:0.5;stroke-linecap:round;stroke-linejoin:round;;fill:none"/>
<polyline points="5110,938.569 5110.89,938.319 5111.25,938.201 5112.22,937.925 5114.6,937.339 5115.43,937.095 5115.49,937.073 5116.19,936.863 5118.53,936.281 5119.08,936.115 5119.12,936.099 5119.62,935.949 5121.96,935.357 5122.38,935.231 5122.41,935.219 5122.81,935.097 5125.22,934.481 5125.58,934.375 5125.65,934.349 5126.01,934.241 5128.58,933.581 5128.86,933.501 5129.47,933.341 5132.48,932.711 5133.43,932.559 5136.62,932.205 5137.32,932.143 5138.27,932.083" style="stroke:rgb(0,0,0);stroke-width:1px;fill:none;stroke-opacity:1;stroke-linecap:round;stroke-linejoin:round;;fill:none"/>
<polyline points="5110,938.569 5110.89,938.319 5111.25,938.201 5112.22,937.925 5114.6,937.339 5115.43,937.095 5115.49,937.073 5116.19,936.863 5118.53,936.281 5119.08,936.115 5119.12,936.099 5119.62,935.949 5121.96,935.357 5122.38,935.231 5122.41,935.219 5122.81,935.097 5125.22,934.481 5125.58,934.375 5125.65,934.349 5126.01,934.241 5128.58,933.581 5128.86,933.501 5129.47,933.341 5132.48,932.711 5133.43,932.559 5136.62,932.205 5137.32,932.143 5138.27,932.083" style="stroke:rgb(255,0,0);stroke-width:15.748031;fill:none;stroke-opacity:0.5;stroke-linecap:round;stroke-linejoin:round;;fill:none"/>
<polyline points="5110,938.569 5110.89,938.319 5111.25,938.201 5112.22,937.925 5114.6,937.339 5115.43,937.095 5115.49,937.073 5116.19,936.863 5118.53,936.281 5119.08,936.115 5119.12,936.099 5119.62,935.949 5121.96,935.357 5122.38,935.231 5122.41,935.219 5122.81,935.097 5125.22,934.481 5125.58,934.375 5125.65,934.349 5126.01,934.241 5128.58,933.581 5128.86,933.501 5129.47,933.341 5132.48,932.711 5133.43,932.559 5136.62,932.205 5137.32,932.143 5138.27,932.083" style="stroke:rgb(0,0,0);stroke-width:1px;fill:none;stroke-opacity:1;stroke-linecap:round;stroke-linejoin:round;;fill:none"/>
<polyline points="5138.27,932.083 5137.32,932.143 5136.62,932.205 5133.43,932.559 5132.48,932.711 5129.47,933.341 5128.86,933.501 5128.58,933.581 5126.01,934.241 5125.65,934.349 5125.58,934.375 5125.22,934.481 5122.81,935.097 5122.41,935.219 5122.38,935.231 5121.96,935.357 5119.62,935.949 5119.12,936.099 5119.08,936.115 5118.53,936.281 5116.19,936.863 5115.49,937.073 5115.43,937.095 5114.6,937.339 5112.22,937.925 5111.25,938.201 5110.89,938.319 5109.98,938.573" style="stroke:rgb(255,0,0);stroke-width:15.748031;fill:none;stroke-opacity:0.5;stroke-linecap:round;stroke-linejoin:round;;fill:none"/>
<polyline points="5138.27,932.083 5137.32,932.143 5136.62,932.205 5133.43,932.559 5132.48,932.711 5129.47,933.341 5128.86,933.501 5128.58,933.581 5126.01,934.241 5125.65,934.349 5125.58,934.375 5125.22,934.481 5122.81,935.097 5122.41,935.219 5122.38,935.231 5121.96,935.357 5119.62,935.949 5119.12,936.099 5119.08,936.115 5118.53,936.281 5116.19,936.863 5115.49,937.073 5115.43,937.095 5114.6,937.339 5112.22,937.925 5111.25,938.201 5110.89,938.319 5109.98,938.573" style="stroke:rgb(0,0,0);stroke-width:1px;fill:none;stroke-opacity:1;stroke-linecap:round;stroke-linejoin:round;;fill:none"/>
<polyline points="5138.27,932.083 5137.32,932.143 5136.62,932.205 5133.43,932.559 5132.48,932.711 5129.47,933.341 5128.86,933.501 5128.58,933.581 5126.01,934.241 5125.65,934.349 5125.58,934.375 5125.22,934.481 5122.81,935.097 5122.41,935.219 5122.38,935.231 5121.96,935.357 5119.62,935.949 5119.12,936.099 5119.08,936.115 5118.53,936.281 5116.19,936.863 5115.49,937.073 5115.43,937.095 5114.6,937.339 5112.22,937.925 5111.25,938.201 5110.89,938.319 5109.98,938.573" style="stroke:rgb(255,0,0);stroke-width:15.748031;fill:none;stroke-opacity:0.5;stroke-linecap:round;stroke-linejoin:round;;fill:none"/>
<polyline points="5138.27,932.083 5137.32,932.143 5136.62,932.205 5133.43,932.559 5132.48,932.711 5129.47,933.341 5128.86,933.501 5128.58,933.581 5126.01,934.241 5125.65,934.349 5125.58,934.375 5125.22,934.481 5122.81,935.097 5122.41,935.219 5122.38,935.231 5121.96,935.357 5119.62,935.949 5119.12,936.099 5119.08,936.115 5118.53,936.281 5116.19,936.863 5115.49,937.073 5115.43,937.095 5114.6,937.339 5112.22,937.925 5111.25,938.201 5110.89,938.319 5109.98,938.573" style="stroke:rgb(0,0,0);stroke-width:1px;fill:none;stroke-opacity:1;stroke-linecap:round;stroke-linejoin:round;;fill:none"/>
<polyline points="5251.77,1017.19 5252.65,1016.85 5253.66,1016.4 5253.88,1016.29 5254.67,1015.94 5256.66,1015.12 5257.15,1014.91 5257.65,1014.68 5258.01,1014.52 5260.36,1013.53 5260.42,1013.51 5261.26,1013.15 5261.31,1013.13 5263.68,1012.1 5264.04,1011.95 5264.64,1011.71 5265.15,1011.5 5267.17,1010.6 5267.96,1010.27" style="stroke:rgb(255,0,0);stroke-width:15.748031;fill:none;stroke-opacity:0.5;stroke-linecap:round;stroke-linejoin:round;;fill:none"/>
<polyline points="5251.77,1017.19 5252.65,1016.85 5253.66,1016.4 5253.88,1016.29 5254.67,1015.94 5256.66,1015.12 5257.15,1014.91 5257.65,1014.68 5258.01,1014.52 5260.36,1013.53 5260.42,1013.51 5261.26,1013.15 5261.31,1013.13 5263.68,1012.1 5264.04,1011.95 5264.64,1011.71 5265.15,1011.5 5267.17,1010.6 5267.96,1010.27" style="stroke:rgb(0,0,0);stroke-width:1px;fill:none;stroke-opacity:1;stroke-linecap:round;stroke-linejoin:round;;fill:none"/>
<polyline points="5251.77,1017.19 5252.65,1016.85 5253.66,1016.4 5253.88,1016.29 5254.67,1015.94 5256.66,1015.12 5257.15,1014.91 5257.65,1014.68 5258.01,1014.52 5260.36,1013.53 5260.42,1013.51 5261.26,1013.15 5261.31,1013.13 5263.68,1012.1 5264.04,1011.95 5264.64,1011.71 5265.15,1011.5 5267.17,1010.6 5267.96,1010.27" style="stroke:rgb(255,0,0);stroke-width:15.748031;fill:none;stroke-opacity:0.5;stroke-linecap:round;stroke-linejoin:round;;fill:none"/>
<polyline points="5251.77,1017.19 5252.65,1016.85 5253.66,1016.4 5253.88,1016.29 5254.67,1015.94 5256.66,1015.12 5257.15,1014.91 5257.65,1014.68 5258.01,1014.52 5260.36,1013.53 5260.42,1013.51 5261.26,1013.15 5261.31,1013.13 5263.68,1012.1 5264.04,1011.95 5264.64,1011.71 5265.15,1011.5 5267.17,1010.6 5267.96,1010.27" style="stroke:rgb(0,0,0);stroke-width:1px;fill:none;stroke-opacity:1;stroke-linecap:round;stroke-linejoin:round;;fill:none"/>
<polyline points="5267.91,1010.29 5267.17,1010.6 5265.15,1011.5 5264.64,1011.71 5264.04,1011.95 5263.68,1012.1 5261.31,1013.13 5261.26,1013.15 5260.42,1013.51 5260.36,1013.53 5258.01,1014.52 5257.65,1014.68 5257.15,1014.91 5256.66,1015.12 5254.67,1015.94 5253.88,1016.29 5253.66,1016.4 5252.65,1016.85 5251.77,1017.19" style="stroke:rgb(255,0,0);stroke-width:15.748031;fill:none;stroke-opacity:0.5;stroke-linecap:round;stroke-linejoin:round;;fill:none"/>
<polyline points="5267.91,1010.29 5267.17,1010.6 5265.15,1011.5 5264.64,1011.71 5264.04,1011.95 5263.68,1012.1 5261.31,1013.13 5261.26,1013.15 5260.42,1013.51 5260.36,1013.53 5258.01,1014.52 5257.65,1014.68 5257.15,1014.91 5256.66,1015.12 5254.67,1015.94 5253.88,1016.29 5253.66,1016.4 5252.65,1016.85 5251.77,1017.19" style="stroke:rgb(0,0,0);stroke-width:1px;fill:none;stroke-opacity:1;stroke-linecap:round;stroke-linejoin:round;;fill:none"/>
<polyline points="5267.91,1010.29 5267.17,1010.6 5265.15,1011.5 5264.64,1011.71 5264.04,1011.95 5263.68,1012.1 5261.31,1013.13 5261.26,1013.15 5260.42,1013.51 5260.36,1013.53 5258.01,1014.52 5257.65,1014.68 5257.15,1014.91 5256.66,1015.12 5254.67,1015.94 5253.88,1016.29 5253.66,1016.4 5252.65,1016.85 5251.77,1017.19" style="stroke:rgb(255,0,0);stroke-width:15.748031;fill:none;stroke-opacity:0.5;stroke-linecap:round;stroke-linejoin:round;;fill:none"/>
<polyline points="5267.91,1010.29 5267.17,1010.6 5265.15,1011.5 5264.64,1011.71 5264.04,1011.95 5263.68,1012.1 5261.31,1013.13 5261.26,1013.15 5260.42,1013.51 5260.36,1013.53 5258.01,1014.52 5257.65,1014.68 5257.15,1014.91 5256.66,1015.12 5254.67,1015.94 5253.88,1016.29 5253.66,1016.4 5252.65,1016.85 5251.77,1017.19" style="stroke:rgb(0,0,0);stroke-width:1px;fill:none;stroke-opacity:1;stroke-linecap:round;stroke-linejoin:round;;fill:none"/>
<polyline points="5710.82,928.766 5710.84,928.759 5712.65,927.999 5713.83,927.443 5714.09,927.303 5715.05,926.845 5716.81,926.107 5717.5,925.779 5717.96,925.533 5718.55,925.249 5720.28,924.531 5720.76,924.303 5721.29,924.015 5721.74,923.803 5723.44,923.091 5723.87,922.887 5724.41,922.595 5724.86,922.383 5726.57,921.667 5727.09,921.419 5727.59,921.153 5728.18,920.871 5729.93,920.143 5730.72,919.763 5731.07,919.573 5732.03,919.119 5733.83,918.369 5735.21,917.707 5735.23,917.695 5735.49,917.572" style="stroke:rgb(255,0,0);stroke-width:15.748031;fill:none;stroke-opacity:0.5;stroke-linecap:round;stroke-linejoin:round;;fill:none"/>
<polyline points="5710.82,928.766 5710.84,928.759 5712.65,927.999 5713.83,927.443 5714.09,927.303 5715.05,926.845 5716.81,926.107 5717.5,925.779 5717.96,925.533 5718.55,925.249 5720.28,924.531 5720.76,924.303 5721.29,924.015 5721.74,923.803 5723.44,923.091 5723.87,922.887 5724.41,922.595 5724.86,922.383 5726.57,921.667 5727.09,921.419 5727.59,921.153 5728.18,920.871 5729.93,920.143 5730.72,919.763 5731.07,919.573 5732.03,919.119 5733.83,918.369 5735.21,917.707 5735.23,917.695 5735.49,917.572" style="stroke:rgb(0,0,0);stroke-width:1px;fill:none;stroke-opacity:1;stroke-linecap:round;stroke-linejoin:round;;fill:none"/>
<polyline points="5710.82,928.766 5710.84,928.759 5712.65,927.999 5713.83,927.443 5714.09,927.303 5715.05,926.845 5716.81,926.107 5717.5,925.779 5717.96,925.533 5718.55,925.249 5720.28,924.531 5720.76,924.303 5721.29,924.015 5721.74,923.803 5723.44,923.091 5723.87,922.887 5724.41,922.595 5724.86,922.383 5726.57,921.667 5727.09,921.419 5727.59,921.153 5728.18,920.871 5729.93,920.143 5730.72,919.763 5731.07,919.573 5732.03,919.119 5733.83,918.369 5735.21,917.707 5735.23,917.695 5735.49,917.572" style="stroke:rgb(255,0,0);stroke-width:15.748031;fill:none;stroke-opacity:0.5;stroke-linecap:round;stroke-linejoin:round;;fill:none"/>
<polyline points="5710.82,928.766 5710.84,928.759 5712.65,927.999 5713.83,927.443 5714.09,927.303 5715.05,926.845 5716.81,926.107 5717.5,925.779 5717.96,925.533 5718.55,925.249 5720.28,924.531 5720.76,924.303 5721.29,924.015 5721.74,923.803 5723.44,923.091 5723.87,922.887 5724.41,922.595 5724.86,922.383 5726.57,921.667 5727.09,921.419 5727.59,921.153 5728.18,920.871 5729.93,920.143 5730.72,919.763 5731.07,919.573 5732.03,919.119 5733.83,918.369 5735.21,917.707 5735.23,917.695 5735.49,917.572" style="stroke:rgb(0,0,0);stroke-width:1px;fill:none;stroke-opacity:1;stroke-linecap:round;stroke-linejoin:round;;fill:none"/>
<polyline points="5735.49,917.572 5735.23,917.695 5735.21,917.707 5733.83,918.369 5732.03,919.119 5731.07,919.573 5730.72,919.763 5729.93,920.143 5728.18,920.871 5727.59,921.153 5727.09,921.419 5726.57,921.667 5724.86,922.383 5724.41,922.595 5723.87,922.887 5723.44,923.091 5721.74,923.803 5721.29,924.015 5720.76,924.303 5720.28,924.531 5718.55,925.249 5717.96,925.533 5717.5,925.779 5716.81,926.107 5715.05,926.845 5714.09,927.303 5713.83,927.443 5712.65,927.999 5710.84,928.759 5710.82,928.767" style="stroke:rgb(255,0,0);stroke-width:15.748031;fill:none;stroke-opacity:0.5;stroke-linecap:round;stroke-linejoin:round;;fill:none"/>
<polyline points="5735.49,917.572 5735.23,917.695 5735.21,917.707 5733.83,918.369 5732.03,919.119 5731.07,919.573 5730.72,919.763 5729.93,920.143 5728.18,920.871 5727.59,921.153 5727.09,921.419 5726.57,921.667 5724.86,922.383 5724.41,922.595 5723.87,922.887 5723.44,923.091 5721.74,923.803 5721.29,924.015 5720.76,924.303 5720.28,924.531 5718.55,925.249 5717.96,925.533 5717.5,925.779 5716.81,926.107 5715.05,926.845 5714.09,927.303 5713.83,927.443 5712.65,927.999 5710.84,928.759 5710.82,928.767" style="stroke:rgb(0,0,0);stroke-width:1px;fill:none;stroke-opacity:1;stroke-linecap:round;stroke-linejoin:round;;fill:none"/>
<polyline points="5735.49,917.572 5735.23,917.695 5735.21,917.707 5733.83,918.369 5732.03,919.119 5731.07,919.573 5730.72,919.763 5729.93,920.143 5728.18,920.871 5727.59,921.153 5727.09,921.419 5726.57,921.667 5724.86,922.383 5724.41,922.595 5723.87,922.887 5723.44,923.091 5721.74,923.803 5721.29,924.015 5720.76,924.303 5720.28,924.531 5718.55,925.249 5717.96,925.533 5717.5,925.779 5716.81,926.107 5715.05,926.845 5714.09,927.303 5713.83,927.443 5712.65,927.999 5710.84,928.759 5710.82,928.767" style="stroke:rgb(255,0,0);stroke-width:15.748031;fill:none;stroke-opacity:0.5;stroke-linecap:round;stroke-linejoin:round;;fill:none"/>
<polyline points="5735.49,917.572 5735.23,917.695 5735.21,917.707 5733.83,918.369 5732.03,919.119 5731.07,919.573 5730.72,919.763 5729.93,920.143 5728.18,920.871 5727.59,921.153 5727.09,921.419 5726.57,921.667 5724.86,922.383 5724.41,922.595 5723.87,922.887 5723.44,923.091 5721.74,923.803 5721.29,924.015 5720.76,924.303 5720.28,924.531 5718.55,925.249 5717.96,925.533 5717.5,925.779 5716.81,926.107 5715.05,926.845 5714.09,927.303 5713.83,927.443 5712.65,927.999 5710.84,928.759 5710.82,928.767" style="stroke:rgb(0,0,0);stroke-width:1px;fill:none;stroke-opacity:1;stroke-linecap:round;stroke-linejoin:round;;fill:none"/>
<polyline points="6448.94,904.275 6448.71,904.337 6447.34,904.705 6444.38,905.499 6443.33,905.781 6440.48,906.545 6440,906.673 6439.53,906.811 6436.73,907.711 6435.76,908.073 6433.04,909.255 6432,909.769 6429.35,911.241 6428.16,911.983 6428.14,911.998" style="stroke:rgb(255,0,0);stroke-width:15.748031;fill:none;stroke-opacity:0.5;stroke-linecap:round;stroke-linejoin:round;;fill:none"/>
<polyline points="6448.94,904.275 6448.71,904.337 6447.34,904.705 6444.38,905.499 6443.33,905.781 6440.48,906.545 6440,906.673 6439.53,906.811 6436.73,907.711 6435.76,908.073 6433.04,909.255 6432,909.769 6429.35,911.241 6428.16,911.983 6428.14,911.998" style="stroke:rgb(0,0,0);stroke-width:1px;fill:none;stroke-opacity:1;stroke-linecap:round;stroke-linejoin:round;;fill:none"/>
<polyline points="6448.94,904.275 6448.71,904.337 6447.34,904.705 6444.38,905.499 6443.33,905.781 6440.48,906.545 6440,906.673 6439.53,906.811 6436.73,907.711 6435.76,908.073 6433.04,909.255 6432,909.769 6429.35,911.241 6428.16,911.983 6428.14,911.998" style="stroke:rgb(255,0,0);stroke-width:15.748031;fill:none;stroke-opacity:0.5;stroke-linecap:round;stroke-linejoin:round;;fill:none"/>
<polyline points="6448.94,904.275 6448.71,904.337 6447.34,904.705 6444.38,905.499 6443.33,905.781 6440.48,906.545 6440,906.673 6439.53,906.811 6436.73,907.711 6435.76,908.073 6433.04,909.255 6432,909.769 6429.35,911.241 6428.16,911.983 6428.14,911.998" style="stroke:rgb(0,0,0);stroke-width:1px;fill:none;stroke-opacity:1;stroke-linecap:round;stroke-linejoin:round;;fill:none"/>
<polyline points="6428.14,911.994 6428.16,911.983 6429.35,911.241 6432,909.769 6433.04,909.255 6435.76,908.073 6436.73,907.711 6439.53,906.811 6440,906.673 6440.48,906.545 6443.33,905.781 6444.38,905.499 6447.34,904.705 6448.71,904.337 6448.94,904.277" style="stroke:rgb(255,0,0);stroke-width:15.748031;fill:none;stroke-opacity:0.5;stroke-linecap:round;stroke-linejoin:round;;fill:none"/>
<polyline points="6428.14,911.994 6428.16,911.983 6429.35,911.241 6432,909.769 6433.04,909.255 6435.76,908.073 6436.73,907.711 6439.53,906.811 6440,906.673 6440.48,906.545 6443.33,905.781 6444.38,905.499 6447.34,904.705 6448.71,904.337 6448.94,904.277" style="stroke:rgb(0,0,0);stroke-width:1px;fill:none;stroke-opacity:1;stroke-linecap:round;stroke-linejoin:round;;fill:none"/>
<polyline points="6428.14,911.994 6428.16,911.983 6429.35,911.241 6432,909.769 6433.04,909.255 6435.76,908.073 6436.73,907.711 6439.53,906.811 6440,906.673 6440.48,906.545 6443.33,905.781 6444.38,905.499 6447.34,904.705 6448.71,904.337 6448.94,904.277" style="stroke:rgb(255,0,0);stroke-width:15.748031;fill:none;stroke-opacity:0.5;stroke-linecap:round;stroke-linejoin:round;;fill:none"/>
<polyline points="6428.14,911.994 6428.16,911.983 6429.35,911.241 6432,909.769 6433.04,909.255 6435.76,908.073 6436.73,907.711 6439.53,906.811 6440,906.673 6440.48,906.545 6443.33,905.781 6444.38,905.499 6447.34,904.705 6448.71,904.337 6448.94,904.277" style="stroke:rgb(0,0,0);stroke-width:1px;fill:none;stroke-opacity:1;stroke-linecap:round;stroke-linejoin:round;;fill:none"/>
<polyline points="7548.94,884.275 7548.71,884.337 7547.34,884.705 7544.38,885.499 7543.33,885.781 7540.48,886.545 7540,886.673 7539.53,886.811 7536.73,887.711 7535.76,888.073 7533.04,889.255 7532,889.769 7529.35,891.241 7528.16,891.983 7528.14,891.998" style="stroke:rgb(255,0,0);stroke-width:15.748031;fill:none;stroke-opacity:0.5;stroke-linecap:round;stroke-linejoin:round;;fill:none"/>
<polyline points="7548.94,884.275 7548.71,884.337 7547.34,884.705 7544.38,885.499 7543.33,885.781 7540.48,886.545 7540,886.673 7539.53,886.811 7536.73,887.711 7535.76,888.073 7533.04,889.255 7532,889.769 7529.35,891.241 7528.16,891.983 7528.14,891.998" style="stroke:rgb(0,0,0);stroke-width:1px;fill:none;stroke-opacity:1;stroke-linecap:round;stroke-linejoin:round;;fill:none"/>
<polyline points="7548.94,884.275 7548.71,884.337 7547.34,884.705 7544.38,885.499 7543.33,885.781 7540.48,886.545 7540,886.673 7539.53,886.811 7536.73,887.711 7535.76,888.073 7533.04,889.255 7532,889.769 7529.35,891.241 7528.16,891.983 7528.14,891.998" style="stroke:rgb(255,0,0);stroke-width:15.748031;fill:none;stroke-opacity:0.5;stroke-linecap:round;stroke-linejoin:round;;fill:none"/>
<polyline points="7548.94,884.275 7548.71,884.337 7547.34,884.705 7544.38,885.499 7543.33,885.781 7540.48,886.545 7540,886.673 7539.53,886.811 7536.73,887.711 7535.76,888.073 7533.04,889.255 7532,889.769 7529.35,891.241 7528.16,891.983 7528.14,891.998" style="stroke:rgb(0,0,0);stroke-width:1px;fill:none;stroke-opacity:1;stroke-linecap:round;stroke-linejoin:round;;fill:none"/>
<polyline points="7528.14,891.994 7528.16,891.983 7529.35,891.241 7532,889.769 7533.04,889.255 7535.76,888.073 7536.73,887.711 7539.53,886.811 7540,886.673 7540.48,886.545 7543.33,885.781 7544.38,885.499 7547.34,884.705 7548.71,884.337 7548.94,884.277" style="stroke:rgb(255,0,0);stroke-width:15.748031;fill:none;stroke-opacity:0.5;stroke-linecap:round;stroke-linejoin:round;;fill:none"/>
<polyline points="7528.14,891.994 7528.16,891.983 7529.35,891.241 7532,889.769 7533.04,889.255 7535.76,888.073 7536.73,887.711 7539.53,886.811 7540,886.673 7540.48,886.545 7543.33,885.781 7544.38,885.499 7547.34,884.705 7548.71,884.337 7548.94,884.277" style="stroke:rgb(0,0,0);stroke-width:1px;fill:none;stroke-opacity:1;stroke-linecap:round;stroke-linejoin:round;;fill:none"/>
<polyline points="7528.14,891.994 7528.16,891.983 7529.35,891.241 7532,889.769 7533.04,889.255 7535.76,888.073 7536.73,887.711 7539.53,886.811 7540,886.673 7540.48,886.545 7543.33,885.781 7544.38,885.499 7547.34,884.705 7548.71,884.337 7548.94,884.277" style="stroke:rgb(255,0,0);stroke-width:15.748031;fill:none;stroke-opacity:0.5;stroke-linecap:round;stroke-linejoin:round;;fill:none"/>
<polyline points="7528.14,891.994 7528.16,891.983 7529.35,891.241 7532,889.769 7533.04,889.255 7535.76,888.073 7536.73,887.711 7539.53,886.811 7540,886.673 7540.48,886.545 7543.33,885.781 7544.38,885.499 7547.34,884.705 7548.71,884.337 7548.94,884.277" style="stroke:rgb(0,0,0);stroke-width:1px;fill:none;stroke-opacity:1;stroke-linecap:round;stroke-linejoin:round;;fill:none"/>
<polyline points="10138.6,1570.81 10138.9,1570.82 10139,1570.83 10140.3,1570.85 10142.2,1570.79 10143.3,1570.82 10143.4,1570.82 10144.4,1570.84 10146.3,1570.79 10147.3,1570.82 10147.4,1570.82 10148.4,1570.85 10150.2,1570.79 10151.3,1570.82 10151.3,1570.82 10152.4,1570.85 10154.3,1570.79 10155.5,1570.82 10155.6,1570.82 10156.9,1570.85 10157.1,1570.84" style="stroke:rgb(255,0,0);stroke-width:15.748031;fill:none;stroke-opacity:0.5;stroke-linecap:round;stroke-linejoin:round;;fill:none"/>
<polyline points="10138.6,1570.81 10138.9,1570.82 10139,1570.83 10140.3,1570.85 10142.2,1570.79 10143.3,1570.82 10143.4,1570.82 10144.4,1570.84 10146.3,1570.79 10147.3,1570.82 10147.4,1570.82 10148.4,1570.85 10150.2,1570.79 10151.3,1570.82 10151.3,1570.82 10152.4,1570.85 10154.3,1570.79 10155.5,1570.82 10155.6,1570.82 10156.9,1570.85 10157.1,1570.84" style="stroke:rgb(0,0,0);stroke-width:1px;fill:none;stroke-opacity:1;stroke-linecap:round;stroke-linejoin:round;;fill:none"/>
<polyline points="10138.6,1570.81 10138.9,1570.82 10139,1570.83 10140.3,1570.85 10142.2,1570.79 10143.3,1570.82 10143.4,1570.82 10144.4,1570.84 10146.3,1570.79 10147.3,1570.82 10147.4,1570.82 10148.4,1570.85 10150.2,1570.79 10151.3,1570.82 10151.3,1570.82 10152.4,1570.85 10154.3,1570.79 10155.5,1570.82 10155.6,1570.82 10156.9,1570.85 10157.1,1570.84" style="stroke:rgb(255,0,0);stroke-width:15.748031;fill:none;stroke-opacity:0.5;stroke-linecap:round;stroke-linejoin:round;;fill:none"/>
<polyline points="10138.6,1570.81 10138.9,1570.82 10139,1570.83 10140.3,1570.85 10142.2,1570.79 10143.3,1570.82 10143.4,1570.82 10144.4,1570.84 10146.3,1570.79 10147.3,1570.82 10147.4,1570.82 10148.4,1570.85 10150.2,1570.79 10151.3,1570.82 10151.3,1570.82 10152.4,1570.85 10154.3,1570.79 10155.5,1570.82 10155.6,1570.82 10156.9,1570.85 10157.1,1570.84" style="stroke:rgb(0,0,0);stroke-width:1px;fill:none;stroke-opacity:1;stroke-linecap:round;stroke-linejoin:round;;fill:none"/>
<polyline points="10157.1,1570.84 10156.9,1570.85 10155.6,1570.82 10155.5,1570.82 10154.3,1570.79 10152.4,1570.85 10151.3,1570.82 10151.3,1570.82 10150.2,1570.79 10148.4,1570.85 10147.4,1570.82 10147.3,1570.82 10146.3,1570.79 10144.4,1570.84 10143.4,1570.82 10143.3,1570.82 10142.2,1570.79 10140.3,1570.85 10139,1570.83 10138.9,1570.82 10138.6,1570.81" style="stroke:rgb(255,0,0);stroke-width:15.748031;fill:none;stroke-opacity:0.5;stroke-linecap:round;stroke-linejoin:round;;fill:none"/>
<polyline points="10157.1,1570.84 10156.9,1570.85 10155.6,1570.82 10155.5,1570.82 10154.3,1570.79 10152.4,1570.85 10151.3,1570.82 10151.3,1570.82 10150.2,1570.79 10148.4,1570.85 10147.4,1570.82 10147.3,1570.82 10146.3,1570.79 10144.4,1570.84 10143.4,1570.82 10143.3,1570.82 10142.2,1570.79 10140.3,1570.85 10139,1570.83 10138.9,1570.82 10138.6,1570.81" style="stroke:rgb(0,0,0);stroke-width:1px;fill:none;stroke-opacity:1;stroke-linecap:round;stroke-linejoin:round;;fill:none"/>
<polyline points="10157.1,1570.84 10156.9,1570.85 10155.6,1570.82 10155.5,1570.82 10154.3,1570.79 10152.4,1570.85 10151.3,1570.82 10151.3,1570.82 10150.2,1570.79 10148.4,1570.85 10147.4,1570.82 10147.3,1570.82 10146.3,1570.79 10144.4,1570.84 10143.4,1570.82 10143.3,1570.82 10142.2,1570.79 10140.3,1570.85 10139,1570.83 10138.9,1570.82 10138.6,1570.81" style="stroke:rgb(255,0,0);stroke-width:15.748031;fill:none;stroke-opacity:0.5;stroke-linecap:round;stroke-linejoin:round;;fill:none"/>
<polyline points="10157.1,1570.84 10156.9,1570.85 10155.6,1570.82 10155.5,1570.82 10154.3,1570.79 10152.4,1570.85 10151.3,1570.82 10151.3,1570.82 10150.2,1570.79 10148.4,1570.85 10147.4,1570.82 10147.3,1570.82 10146.3,1570.79 10144.4,1570.84 10143.4,1570.82 10143.3,1570.82 10142.2,1570.79 10140.3,1570.85 10139,1570.83 10138.9,1570.82 10138.6,1570.81" style="stroke:rgb(0,0,0);stroke-width:1px;fill:none;stroke-opacity:1;stroke-linecap:round;stroke-linejoin:round;;fill:none"/>
<polyline points="10374.7,5299.05 10372.1,5299.05 10370.9,5299.05 10367.6,5299.05 10366.9,5299.05 10363.9,5299.05 10363.5,5299.05 10360.5,5299.05 10360.2,5299.05 10357.2,5299.05 10356.8,5299.05 10353.7,5299.05 10353.1,5299.05 10349.8,5299.05 10348.6,5299.05 10346,5299.05" style="stroke:rgb(255,0,0);stroke-width:15.748031;fill:none;stroke-opacity:0.5;stroke-linecap:round;stroke-linejoin:round;;fill:none"/>
<polyline points="10374.7,5299.05 10372.1,5299.05 10370.9,5299.05 10367.6,5299.05 10366.9,5299.05 10363.9,5299.05 10363.5,5299.05 10360.5,5299.05 10360.2,5299.05 10357.2,5299.05 10356.8,5299.05 10353.7,5299.05 10353.1,5299.05 10349.8,5299.05 10348.6,5299.05 10346,5299.05" style="stroke:rgb(0,0,0);stroke-width:1px;fill:none;stroke-opacity:1;stroke-linecap:round;stroke-linejoin:round;;fill:none"/>
<polyline points="10374.7,5299.05 10372.1,5299.05 10370.9,5299.05 10367.6,5299.05 10366.9,5299.05 10363.9,5299.05 10363.5,5299.05 10360.5,5299.05 10360.2,5299.05 10357.2,5299.05 10356.8,5299.05 10353.7,5299.05 10353.1,5299.05 10349.8,5299.05 10348.6,5299.05 10346,5299.05" style="stroke:rgb(255,0,0);stroke-width:15.748031;fill:none;stroke-opacity:0.5;stroke-linecap:round;stroke-linejoin:round;;fill:none"/>
<polyline points="10374.7,5299.05 10372.1,5299.05 10370.9,5299.05 10367.6,5299.05 10366.9,5299.05 10363.9,5299.05 10363.5,5299.05 10360.5,5299.05 10360.2,5299.05 10357.2,5299.05 10356.8,5299.05 10353.7,5299.05 10353.1,5299.05 10349.8,5299.05 10348.6,5299.05 10346,5299.05" style="stroke:rgb(0,0,0);stroke-width:1px;fill:none;stroke-opacity:1;stroke-linecap:round;stroke-linejoin:round;;fill:none"/>
<polyline points="10346,5299.05 10348.6,5299.05 10349.8,5299.05 10353.1,5299.05 10353.7,5299.05 10356.8,5299.05 10357.2,5299.05 10360.2,5299.05 10360.5,5299.05 10363.5,5299.05 10363.9,5299.05 10366.9,5299.05 10367.6,5299.05 10370.9,5299.05 10372.1,5299.05 10374.7,5299.05" style="stroke:rgb(255,0,0);stroke-width:15.748031;fill:none;stroke-opacity:0.5;stroke-linecap:round;stroke-linejoin:round;;fill:none"/>
<polyline points="10346,5299.05 10348.6,5299.05 10349.8,5299.05 10353.1,5299.05 10353.7,5299.05 10356.8,5299.05 10357.2,5299.05 10360.2,5299.05 10360.5,5299.05 10363.5,5299.05 10363.9,5299.05 10366.9,5299.05 10367.6,5299.05 10370.9,5299.05 10372.1,5299.05 10374.7,5299.05" style="stroke:rgb(0,0,0);stroke-width:1px;fill:none;stroke-opacity:1;stroke-linecap:round;stroke-linejoin:round;;fill:none"/>
<polyline points="10346,5299.05 10348.6,5299.05 10349.8,5299.05 10353.1,5299.05 10353.7,5299.05 10356.8,5299.05 10357.2,5299.05 10360.2,5299.05 10360.5,5299.05 10363.5,5299.05 10363.9,5299.05 10366.9,5299.05 10367.6,5299.05 10370.9,5299.05 10372.1,5299.05 10374.7,5299.05" style="stroke:rgb(255,0,0);stroke-width:15.748031;fill:none;stroke-opacity:0.5;stroke-linecap:round;stroke-linejoin:round;;fill:none"/>
<polyline points="10346,5299.05 10348.6,5299.05 10349.8,5299.05 10353.1,5299.05 10353.7,5299.05 10356.8,5299.05 10357.2,5299.05 10360.2,5299.05 10360.5,5299.05 10363.5,5299.05 10363.9,5299.05 10366.9,5299.05 10367.6,5299.05 10370.9,5299.05 10372.1,5299.05 10374.7,5299.05" style="stroke:rgb(0,0,0);stroke-width:1px;fill:none;stroke-opacity:1;stroke-linecap:round;stroke-linejoin:round;;fill:none"/>
<polyline points="10374.1,1611.35 10375.1,1611.36 10375.7,1611.36 10376.5,1611.34 10377.1,1611.33 10379.9,1611.36 10380.4,1611.35 10380.7,1611.34 10381.1,1611.33 10383.8,1611.36 10384.2,1611.35 10384.3,1611.34 10384.7,1611.33 10387.3,1611.36 10387.7,1611.35 10387.7,1611.35 10388.1,1611.33 10390.7,1611.36 10391.1,1611.35 10391.1,1611.34 10391.6,1611.33 10394.2,1611.36 10394.6,1611.35 10394.9,1611.34 10395.4,1611.33 10398.2,1611.36 10398.7,1611.36 10398.8,1611.35 10400,1611.37 10401.8,1611.48" style="stroke:rgb(255,0,0);stroke-width:15.748031;fill:none;stroke-opacity:0.5;stroke-linecap:round;stroke-linejoin:round;;fill:none"/>
<polyline points="10374.1,1611.35 10375.1,1611.36 10375.7,1611.36 10376.5,1611.34 10377.1,1611.33 10379.9,1611.36 10380.4,1611.35 10380.7,1611.34 10381.1,1611.33 10383.8,1611.36 10384.2,1611.35 10384.3,1611.34 10384.7,1611.33 10387.3,1611.36 10387.7,1611.35 10387.7,1611.35 10388.1,1611.33 10390.7,1611.36 10391.1,1611.35 10391.1,1611.34 10391.6,1611.33 10394.2,1611.36 10394.6,1611.35 10394.9,1611.34 10395.4,1611.33 10398.2,1611.36 10398.7,1611.36 10398.8,1611.35 10400,1611.37 10401.8,1611.48" style="stroke:rgb(0,0,0);stroke-width:1px;fill:none;stroke-opacity:1;stroke-linecap:round;stroke-linejoin:round;;fill:none"/>
<polyline points="10374.1,1611.35 10375.1,1611.36 10375.7,1611.36 10376.5,1611.34 10377.1,1611.33 10379.9,1611.36 10380.4,1611.35 10380.7,1611.34 10381.1,1611.33 10383.8,1611.36 10384.2,1611.35 10384.3,1611.34 10384.7,1611.33 10387.3,1611.36 10387.7,1611.35 10387.7,1611.35 10388.1,1611.33 10390.7,1611.36 10391.1,1611.35 10391.1,1611.34 10391.6,1611.33 10394.2,1611.36 10394.6,1611.35 10394.9,1611.34 10395.4,1611.33 10398.2,1611.36 10398.7,1611.36 10398.8,1611.35 10400,1611.37 10401.8,1611.48" style="stroke:rgb(255,0,0);stroke-width:15.748031;fill:none;stroke-opacity:0.5;stroke-linecap:round;stroke-linejoin:round;;fill:none"/>
<polyline points="10374.1,1611.35 10375.1,1611.36 10375.7,1611.36 10376.5,1611.34 10377.1,1611.33 10379.9,1611.36 10380.4,1611.35 10380.7,1611.34 10381.1,1611.33 10383.8,1611.36 10384.2,1611.35 10384.3,1611.34 10384.7,1611.33 10387.3,1611.36 10387.7,1611.35 10387.7,1611.35 10388.1,1611.33 10390.7,1611.36 10391.1,1611.35 10391.1,1611.34 10391.6,1611.33 10394.2,1611.36 10394.6,1611.35 10394.9,1611.34 10395.4,1611.33 10398.2,1611.36 10398.7,1611.36 10398.8,1611.35 10400,1611.37 10401.8,1611.48" style="stroke:rgb(0,0,0);stroke-width:1px;fill:none;stroke-opacity:1;stroke-linecap:round;stroke-linejoin:round;;fill:none"/>
<polyline points="10401.9,1611.48 10400,1611.37 10398.8,1611.35 10398.7,1611.36 10398.2,1611.36 10395.4,1611.33 10394.9,1611.34 10394.6,1611.35 10394.2,1611.36 10391.6,1611.33 10391.1,1611.34 10391.1,1611.35 10390.7,1611.36 10388.1,1611.33 10387.7,1611.35 10387.7,1611.35 10387.3,1611.36 10384.7,1611.33 10384.3,1611.34 10384.2,1611.35 10383.8,1611.36 10381.1,1611.33 10380.7,1611.34 10380.4,1611.35 10379.9,1611.36 10377.1,1611.33 10376.5,1611.34 10375.7,1611.36 10375.1,1611.36 10374.1,1611.35" style="stroke:rgb(255,0,0);stroke-width:15.748031;fill:none;stroke-opacity:0.5;stroke-linecap:round;stroke-linejoin:round;;fill:none"/>
<polyline points="10401.9,1611.48 10400,1611.37 10398.8,1611.35 10398.7,1611.36 10398.2,1611.36 10395.4,1611.33 10394.9,1611.34 10394.6,1611.35 10394.2,1611.36 10391.6,1611.33 10391.1,1611.34 10391.1,1611.35 10390.7,1611.36 10388.1,1611.33 10387.7,1611.35 10387.7,1611.35 10387.3,1611.36 10384.7,1611.33 10384.3,1611.34 10384.2,1611.35 10383.8,1611.36 10381.1,1611.33 10380.7,1611.34 10380.4,1611.35 10379.9,1611.36 10377.1,1611.33 10376.5,1611.34 10375.7,1611.36 10375.1,1611.36 10374.1,1611.35" style="stroke:rgb(0,0,0);stroke-width:1px;fill:none;stroke-opacity:1;stroke-linecap:round;stroke-linejoin:round;;fill:none"/>
<polyline points="10401.9,1611.48 10400,1611.37 10398.8,1611.35 10398.7,1611.36 10398.2,1611.36 10395.4,1611.33 10394.9,1611.34 10394.6,1611.35 10394.2,1611.36 10391.6,1611.33 10391.1,1611.34 10391.1,1611.35 10390.7,1611.36 10388.1,1611.33 10387.7,1611.35 10387.7,1611.35 10387.3,1611.36 10384.7,1611.33 10384.3,1611.34 10384.2,1611.35 10383.8,1611.36 10381.1,1611.33 10380.7,1611.34 10380.4,1611.35 10379.9,1611.36 10377.1,1611.33 10376.5,1611.34 10375.7,1611.36 10375.1,1611.36 10374.1,1611.35" style="stroke:rgb(255,0,0);stroke-width:15.748031;fill:none;stroke-opacity:0.5;stroke-linecap:round;stroke-linejoin:round;;fill:none"/>
<polyline points="10401.9,1611.48 10400,1611.37 10398.8,1611.35 10398.7,1611.36 10398.2,1611.36 10395.4,1611.33 10394.9,1611.34 10394.6,1611.35 10394.2,1611.36 10391.6,1611.33 10391.1,1611.34 10391.1,1611.35 10390.7,1611.36 10388.1,1611.33 10387.7,1611.35 10387.7,1611.35 10387.3,1611.36 10384.7,1611.33 10384.3,1611.34 10384.2,1611.35 10383.8,1611.36 10381.1,1611.33 10380.7,1611.34 10380.4,1611.35 10379.9,1611.36 10377.1,1611.33 10376.5,1611.34 10375.7,1611.36 10375.1,1611.36 10374.1,1611.35" style="stroke:rgb(0,0,0);stroke-width:1px;fill:none;stroke-opacity:1;stroke-linecap:round;stroke-linejoin:round;;fill:none"/>
<polyline points="10574.1,1611.35 10575.1,1611.36 10575.7,1611.36 10576.5,1611.34 10577.1,1611.33 10579.9,1611.36 10580.4,1611.35 10580.7,1611.34 10581.1,1611.33 10583.8,1611.36 10584.2,1611.35 10584.3,1611.34 10584.7,1611.33 10587.3,1611.36 10587.7,1611.35 10587.7,1611.35 10588.1,1611.33 10590.7,1611.36 10591.1,1611.35 10591.1,1611.34 10591.6,1611.33 10594.2,1611.36 10594.6,1611.35 10594.9,1611.34 10595.4,1611.33 10598.2,1611.36 10598.7,1611.36 10598.8,1611.35 10600,1611.37 10601.8,1611.48" style="stroke:rgb(255,0,0);stroke-width:15.748031;fill:none;stroke-opacity:0.5;stroke-linecap:round;stroke-linejoin:round;;fill:none"/>
<polyline points="10574.1,1611.35 10575.1,1611.36 10575.7,1611.36 10576.5,1611.34 10577.1,1611.33 10579.9,1611.36 10580.4,1611.35 10580.7,1611.34 10581.1,1611.33 10583.8,1611.36 10584.2,1611.35 10584.3,1611.34 10584.7,1611.33 10587.3,1611.36 10587.7,1611.35 10587.7,1611.35 10588.1,1611.33 10590.7,1611.36 10591.1,1611.35 10591.1,1611.34 10591.6,1611.33 10594.2,1611.36 10594.6,1611.35 10594.9,1611.34 10595.4,1611.33 10598.2,1611.36 10598.7,1611.36 10598.8,1611.35 10600,1611.37 10601.8,1611.48" style="stroke:rgb(0,0,0);stroke-width:1px;fill:none;stroke-opacity:1;stroke-linecap:round;stroke-linejoin:round;;fill:none"/>
<polyline points="10574.1,1611.35 10575.1,1611.36 10575.7,1611.36 10576.5,1611.34 10577.1,1611.33 10579.9,1611.36 10580.4,1611.35 10580.7,1611.34 10581.1,1611.33 10583.8,1611.36 10584.2,1611.35 10584.3,1611.34 10584.7,1611.33 10587.3,1611.36 10587.7,1611.35 10587.7,1611.35 10588.1,1611.33 10590.7,1611.36 10591.1,1611.35 10591.1,1611.34 10591.6,1611.33 10594.2,1611.36 10594.6,1611.35 10594.9,1611.34 10595.4,1611.33 10598.2,1611.36 10598.7,1611.36 10598.8,1611.35 10600,1611.37 10601.8,1611.48" style="stroke:rgb(255,0,0);stroke-width:15.748031;fill:none;stroke-opacity:0.5;stroke-linecap:round;stroke-linejoin:round;;fill:none"/>
<polyline points="10574.1,1611.35 10575.1,1611.36 10575.7,1611.36 10576.5,1611.34 10577.1,1611.33 10579.9,1611.36 10580.4,1611.35 10580.7,1611.34 10581.1,1611.33 10583.8,1611.36 10584.2,1611.35 10584.3,1611.34 10584.7,1611.33 10587.3,1611.36 10587.7,1611.35 10587.7,1611.35 10588.1,1611.33 10590.7,1611.36 10591.1,1611.35 10591.1,1611.34 10591.6,1611.33 10594.2,1611.36 10594.6,1611.35 10594.9,1611.34 10595.4,1611.33 10598.2,1611.36 10598.7,1611.36 10598.8,1611.35 10600,1611.37 10601.8,1611.48" style="stroke:rgb(0,0,0);stroke-width:1px;fill:none;stroke-opacity:1;stroke-linecap:round;stroke-linejoin:round;;fill:none"/>
<polyline points="10607.4,1500.44 10607.1,1500.41 10603.9,1499.97 10602.7,1499.76 10599.7,1499.04 10598.9,1498.81 10597.9,1498.46 10597.6,1498.35 10596.1,1497.91 10595.5,1497.7 10594.7,1497.41 10594.2,1497.21 10592.7,1496.78 10592.1,1496.58 10591.4,1496.29 10590.7,1496.08 10589.2,1495.64 10588.5,1495.39 10587.9,1495.13 10587,1494.84 10585.5,1494.4 10584.9,1494.2 10583.9,1493.86 10582.6,1493.47 10581.4,1493.17" style="stroke:rgb(255,0,0);stroke-width:15.748031;fill:none;stroke-opacity:0.5;stroke-linecap:round;stroke-linejoin:round;;fill:none"/>
<polyline points="10607.4,1500.44 10607.1,1500.41 10603.9,1499.97 10602.7,1499.76 10599.7,1499.04 10598.9,1498.81 10597.9,1498.46 10597.6,1498.35 10596.1,1497.91 10595.5,1497.7 10594.7,1497.41 10594.2,1497.21 10592.7,1496.78 10592.1,1496.58 10591.4,1496.29 10590.7,1496.08 10589.2,1495.64 10588.5,1495.39 10587.9,1495.13 10587,1494.84 10585.5,1494.4 10584.9,1494.2 10583.9,1493.86 10582.6,1493.47 10581.4,1493.17" style="stroke:rgb(0,0,0);stroke-width:1px;fill:none;stroke-opacity:1;stroke-linecap:round;stroke-linejoin:round;;fill:none"/>
<polyline points="10607.4,1500.44 10607.1,1500.41 10603.9,1499.97 10602.7,1499.76 10599.7,1499.04 10598.9,1498.81 10597.9,1498.46 10597.6,1498.35 10596.1,1497.91 10595.5,1497.7 10594.7,1497.41 10594.2,1497.21 10592.7,1496.78 10592.1,1496.58 10591.4,1496.29 10590.7,1496.08 10589.2,1495.64 10588.5,1495.39 10587.9,1495.13 10587,1494.84 10585.5,1494.4 10584.9,1494.2 10583.9,1493.86 10582.6,1493.47 10581.4,1493.17" style="stroke:rgb(255,0,0);stroke-width:15.748031;fill:none;stroke-opacity:0.5;stroke-linecap:round;stroke-linejoin:round;;fill:none"/>
<polyline points="10607.4,1500.44 10607.1,1500.41 10603.9,1499.97 10602.7,1499.76 10599.7,1499.04 10598.9,1498.81 10597.9,1498.46 10597.6,1498.35 10596.1,1497.91 10595.5,1497.7 10594.7,1497.41 10594.2,1497.21 10592.7,1496.78 10592.1,1496.58 10591.4,1496.29 10590.7,1496.08 10589.2,1495.64 10588.5,1495.39 10587.9,1495.13 10587,1494.84 10585.5,1494.4 10584.9,1494.2 10583.9,1493.86 10582.6,1493.47 10581.4,1493.17" style="stroke:rgb(0,0,0);stroke-width:1px;fill:none;stroke-opacity:1;stroke-linecap:round;stroke-linejoin:round;;fill:none"/>
<polyline points="10581.4,1493.17 10582.6,1493.47 10583.9,1493.86 10584.9,1494.2 10585.5,1494.4 10587,1494.84 10587.9,1495.13 10588.5,1495.39 10589.2,1495.64 10590.7,1496.08 10591.4,1496.29 10592.1,1496.58 10592.7,1496.78 10594.2,1497.21 10594.7,1497.41 10595.5,1497.7 10596.1,1497.91 10597.6,1498.35 10597.9,1498.46 10598.9,1498.81 10599.7,1499.04 10602.7,1499.76 10603.9,1499.97 10607.1,1500.41 10607.4,1500.44" style="stroke:rgb(255,0,0);stroke-width:15.748031;fill:none;stroke-opacity:0.5;stroke-linecap:round;stroke-linejoin:round;;fill:none"/>
<polyline points="10581.4,1493.17 10582.6,1493.47 10583.9,1493.86 10584.9,1494.2 10585.5,1494.4 10587,1494.84 10587.9,1495.13 10588.5,1495.39 10589.2,1495.64 10590.7,1496.08 10591.4,1496.29 10592.1,1496.58 10592.7,1496.78 10594.2,1497.21 10594.7,1497.41 10595.5,1497.7 10596.1,1497.91 10597.6,1498.35 10597.9,1498.46 10598.9,1498.81 10599.7,1499.04 10602.7,1499.76 10603.9,1499.97 10607.1,1500.41 10607.4,1500.44" style="stroke:rgb(0,0,0);stroke-width:1px;fill:none;stroke-opacity:1;stroke-linecap:round;stroke-linejoin:round;;fill:none"/>
<polyline points="10581.4,1493.17 10582.6,1493.47 10583.9,1493.86 10584.9,1494.2 10585.5,1494.4 10587,1494.84 10587.9,1495.13 10588.5,1495.39 10589.2,1495.64 10590.7,1496.08 10591.4,1496.29 10592.1,1496.58 10592.7,1496.78 10594.2,1497.21 10594.7,1497.41 10595.5,1497.7 10596.1,1497.91 10597.6,1498.35 10597.9,1498.46 10598.9,1498.81 10599.7,1499.04 10602.7,1499.76 10603.9,1499.97 10607.1,1500.41 10607.4,1500.44" style="stroke:rgb(255,0,0);stroke-width:15.748031;fill:none;stroke-opacity:0.5;stroke-linecap:round;stroke-linejoin:round;;fill:none"/>
<polyline points="10581.4,1493.17 10582.6,1493.47 10583.9,1493.86 10584.9,1494.2 10585.5,1494.4 10587,1494.84 10587.9,1495.13 10588.5,1495.39 10589.2,1495.64 10590.7,1496.08 10591.4,1496.29 10592.1,1496.58 10592.7,1496.78 10594.2,1497.21 10594.7,1497.41 10595.5,1497.7 10596.1,1497.91 10597.6,1498.35 10597.9,1498.46 10598.9,1498.81 10599.7,1499.04 10602.7,1499.76 10603.9,1499.97 10607.1,1500.41 10607.4,1500.44" style="stroke:rgb(0,0,0);stroke-width:1px;fill:none;stroke-opacity:1;stroke-linecap:round;stroke-linejoin:round;;fill:none"/>
<polyline points="10601.9,1611.48 10600,1611.37 10598.8,1611.35 10598.7,1611.36 10598.2,1611.36 10595.4,1611.33 10594.9,1611.34 10594.6,1611.35 10594.2,1611.36 10591.6,1611.33 10591.1,1611.34 10591.1,1611.35 10590.7,1611.36 10588.1,1611.33 10587.7,1611.35 10587.7,1611.35 10587.3,1611.36 10584.7,1611.33 10584.3,1611.34 10584.2,1611.35 10583.8,1611.36 10581.1,1611.33 10580.7,1611.34 10580.4,1611.35 10579.9,1611.36 10577.1,1611.33 10576.5,1611.34 10575.7,1611.36 10575.1,1611.36 10574.1,1611.35" style="stroke:rgb(255,0,0);stroke-width:15.748031;fill:none;stroke-opacity:0.5;stroke-linecap:round;stroke-linejoin:round;;fill:none"/>
<polyline points="10601.9,1611.48 10600,1611.37 10598.8,1611.35 10598.7,1611.36 10598.2,1611.36 10595.4,1611.33 10594.9,1611.34 10594.6,1611.35 10594.2,1611.36 10591.6,1611.33 10591.1,1611.34 10591.1,1611.35 10590.7,1611.36 10588.1,1611.33 10587.7,1611.35 10587.7,1611.35 10587.3,1611.36 10584.7,1611.33 10584.3,1611.34 10584.2,1611.35 10583.8,1611.36 10581.1,1611.33 10580.7,1611.34 10580.4,1611.35 10579.9,1611.36 10577.1,1611.33 10576.5,1611.34 10575.7,1611.36 10575.1,1611.36 10574.1,1611.35" style="stroke:rgb(0,0,0);stroke-width:1px;fill:none;stroke-opacity:1;stroke-linecap:round;stroke-linejoin:round;;fill:none"/>
<polyline points="10601.9,1611.48 10600,1611.37 10598.8,1611.35 10598.7,1611.36 10598.2,1611.36 10595.4,1611.33 10594.9,1611.34 10594.6,1611.35 10594.2,1611.36 10591.6,1611.33 10591.1,1611.34 10591.1,1611.35 10590.7,1611.36 10588.1,1611.33 10587.7,1611.35 10587.7,1611.35 10587.3,1611.36 10584.7,1611.33 10584.3,1611.34 10584.2,1611.35 10583.8,1611.36 10581.1,1611.33 10580.7,1611.34 10580.4,1611.35 10579.9,1611.36 10577.1,1611.33 10576.5,1611.34 10575.7,1611.36 10575.1,1611.36 10574.1,1611.35" style="stroke:rgb(255,0,0);stroke-width:15.748031;fill:none;stroke-opacity:0.5;stroke-linecap:round;stroke-linejoin:round;;fill:none"/>
<polyline points="10601.9,1611.48 10600,1611.37 10598.8,1611.35 10598.7,1611.36 10598.2,1611.36 10595.4,1611.33 10594.9,1611.34 10594.6,1611.35 10594.2,1611.36 10591.6,1611.33 10591.1,1611.34 10591.1,1611.35 10590.7,1611.36 10588.1,1611.33 10587.7,1611.35 10587.7,1611.35 10587.3,1611.36 10584.7,1611.33 10584.3,1611.34 10584.2,1611.35 10583.8,1611.36 10581.1,1611.33 10580.7,1611.34 10580.4,1611.35 10579.9,1611.36 10577.1,1611.33 10576.5,1611.34 10575.7,1611.36 10575.1,1611.36 10574.1,1611.35" style="stroke:rgb(0,0,0);stroke-width:1px;fill:none;stroke-opacity:1;stroke-linecap:round;stroke-linejoin:round;;fill:none"/>
</svg>
