<?xml version="1.0" standalone="no"?>
<!DOCTYPE svg PUBLIC "-//W3C//DTD SVG 1.1//EN"
"http://www.w3.org/Graphics/SVG/1.1/DTD/svg11.dtd">
<svg width="598.458" height="321.978" viewBox="0 0 12467.9 6707.87" version="1.1"
xmlns="http://www.w3.org/2000/svg"
xmlns:xlink="http://www.w3.org/1999/xlink">
<circle cx="6553.94" cy="1213.94" r="31.5" style=""/>
<circle cx="6553.94" cy="2013.94" r="31.5" style=""/>
<circle cx="3003.94" cy="3829.74" r="39.4" style=""/>
<circle cx="3003.94" cy="3629.74" r="39.4" style=""/>
<circle cx="3003.94" cy="3429.74" r="39.4" style=""/>
<circle cx="3003.94" cy="3229.74" r="39.4" style=""/>
<circle cx="3003.94" cy="3029.74" r="39.4" style=""/>
<circle cx="3003.94" cy="2829.74" r="39.4" style=""/>
<circle cx="3003.94" cy="2629.74" r="39.4" style=""/>
<circle cx="3003.94" cy="2429.74" r="39.4" style=""/>
<circle cx="3003.94" cy="2229.74" r="39.4" style=""/>
<circle cx="3003.94" cy="2029.74" r="39.4" style=""/>
<circle cx="2993.94" cy="613.937" r="39.4" style=""/>
<circle cx="3193.94" cy="613.937" r="39.4" style=""/>
<circle cx="3393.94" cy="613.937" r="39.4" style=""/>
<circle cx="3593.94" cy="613.937" r="39.4" style=""/>
<circle cx="3793.94" cy="613.937" r="39.4" style=""/>
<circle cx="5153.94" cy="613.937" r="39.4" style=""/>
<circle cx="5353.94" cy="613.937" r="39.4" style=""/>
<circle cx="5553.94" cy="613.937" r="39.4" style=""/>
<circle cx="5753.94" cy="613.937" r="39.4" style=""/>
<circle cx="5953.94" cy="613.937" r="39.4" style=""/>
<circle cx="6153.94" cy="613.937" r="39.4" style=""/>
<circle cx="6353.94" cy="613.937" r="39.4" style=""/>
<circle cx="6553.94" cy="613.937" r="39.4" style=""/>
<circle cx="6753.94" cy="613.937" r="39.4" style=""/>
<circle cx="7452.34" cy="613.937" r="39.4" style=""/>
<circle cx="7652.34" cy="613.937" r="39.4" style=""/>
<circle cx="7852.34" cy="613.937" r="39.4" style=""/>
<circle cx="8052.34" cy="613.937" r="39.4" style=""/>
<circle cx="8333.94" cy="1353.94" r="39.4" style=""/>
<circle cx="8133.94" cy="1353.94" r="39.4" style=""/>
<circle cx="7933.94" cy="1353.94" r="39.4" style=""/>
<circle cx="7733.94" cy="1353.94" r="39.4" style=""/>
<circle cx="7533.94" cy="1353.94" r="39.4" style=""/>
<circle cx="7333.94" cy="1353.94" r="39.4" style=""/>
<circle cx="6003.94" cy="2029.74" r="39.4" style=""/>
<circle cx="6003.94" cy="2229.74" r="39.4" style=""/>
<circle cx="6003.94" cy="2429.74" r="39.4" style=""/>
<circle cx="6003.94" cy="2629.74" r="39.4" style=""/>
<circle cx="6003.94" cy="2829.74" r="39.4" style=""/>
<circle cx="6003.94" cy="3029.74" r="39.4" style=""/>
<circle cx="6003.94" cy="3229.74" r="39.4" style=""/>
<circle cx="6003.94" cy="3429.74" r="39.4" style=""/>
<circle cx="6003.94" cy="3629.74" r="39.4" style=""/>
<circle cx="6003.94" cy="3829.74" r="39.4" style=""/>
<circle cx="6003.94" cy="4029.74" r="39.4" style=""/>
<circle cx="6003.94" cy="4229.74" r="39.4" style=""/>
<circle cx="5403.94" cy="3629.74" r="39.4" style=""/>
<circle cx="5403.94" cy="3429.74" r="39.4" style=""/>
<circle cx="5403.94" cy="3229.74" r="39.4" style=""/>
<circle cx="5403.94" cy="3029.74" r="39.4" style=""/>
<circle cx="5403.94" cy="2829.74" r="39.4" style=""/>
<circle cx="5403.94" cy="2629.74" r="39.4" style=""/>
<circle cx="5403.94" cy="2429.74" r="39.4" style=""/>
<circle cx="5403.94" cy="2229.74" r="39.4" style=""/>
<circle cx="5403.94" cy="2029.74" r="39.4" style=""/>
<circle cx="3603.94" cy="3629.74" r="39.4" style=""/>
<circle cx="3603.94" cy="3829.74" r="39.4" style=""/>
<circle cx="3603.94" cy="4029.74" r="39.4" style=""/>
<circle cx="3603.94" cy="4229.74" r="39.4" style=""/>
<circle cx="3603.94" cy="4429.74" r="39.4" style=""/>
<circle cx="3603.94" cy="4629.74" r="39.4" style=""/>
<circle cx="3603.94" cy="4829.74" r="39.4" style=""/>
<circle cx="3603.94" cy="5029.74" r="39.4" style=""/>
<circle cx="3603.94" cy="5229.74" r="39.4" style=""/>
<circle cx="3603.94" cy="5429.74" r="39.4" style=""/>
<circle cx="3603.94" cy="5629.74" r="39.4" style=""/>
<circle cx="3003.94" cy="5629.74" r="39.4" style=""/>
<circle cx="3003.94" cy="5429.74" r="39.4" style=""/>
<circle cx="3003.94" cy="5229.74" r="39.4" style=""/>
<circle cx="3003.94" cy="5029.74" r="39.4" style=""/>
<circle cx="3003.94" cy="4829.74" r="39.4" style=""/>
<circle cx="3003.94" cy="4629.74" r="39.4" style=""/>
<circle cx="3003.94" cy="4429.74" r="39.4" style=""/>
<circle cx="3003.94" cy="4229.74" r="39.4" style=""/>
<circle cx="3003.94" cy="4029.74" r="39.4" style=""/>
<circle cx="3603.94" cy="3429.74" r="39.4" style=""/>
<circle cx="3603.94" cy="3229.74" r="39.4" style=""/>
<circle cx="3603.94" cy="3029.74" r="39.4" style=""/>
<circle cx="3603.94" cy="2829.74" r="39.4" style=""/>
<circle cx="3603.94" cy="2629.74" r="39.4" style=""/>
<circle cx="3603.94" cy="2429.74" r="39.4" style=""/>
<circle cx="3603.94" cy="2229.74" r="39.4" style=""/>
<circle cx="3603.94" cy="2029.74" r="39.4" style=""/>
<circle cx="5403.94" cy="3829.74" r="39.4" style=""/>
<circle cx="5403.94" cy="4029.74" r="39.4" style=""/>
<circle cx="5403.94" cy="4229.74" r="39.4" style=""/>
<circle cx="5403.94" cy="4429.74" r="39.4" style=""/>
<circle cx="5403.94" cy="4629.74" r="39.4" style=""/>
<circle cx="6003.94" cy="4429.74" r="39.4" style=""/>
<circle cx="6003.94" cy="4629.74" r="39.4" style=""/>
<circle cx="6003.94" cy="4829.74" r="39.4" style=""/>
<circle cx="6003.94" cy="5029.74" r="39.4" style=""/>
<circle cx="5403.94" cy="4829.74" r="39.4" style=""/>
<circle cx="5403.94" cy="5029.74" r="39.4" style=""/>
<circle cx="5403.94" cy="5229.74" r="39.4" style=""/>
<circle cx="5403.94" cy="5429.74" r="39.4" style=""/>
<circle cx="5403.94" cy="5629.74" r="39.4" style=""/>
<circle cx="6003.94" cy="5229.74" r="39.4" style=""/>
<circle cx="6003.94" cy="5429.74" r="39.4" style=""/>
<circle cx="6003.94" cy="5629.74" r="39.4" style=""/>
<circle cx="7333.94" cy="5953.94" r="39.4" style=""/>
<circle cx="7533.94" cy="5953.94" r="39.4" style=""/>
<circle cx="7733.94" cy="5953.94" r="39.4" style=""/>
<circle cx="7933.94" cy="5953.94" r="39.4" style=""/>
<circle cx="8133.94" cy="5953.94" r="39.4" style=""/>
<circle cx="8333.94" cy="5953.94" r="39.4" style=""/>
<circle cx="9013.94" cy="4533.94" r="39.4" style=""/>
<circle cx="9013.94" cy="4333.94" r="39.4" style=""/>
<circle cx="9273.94" cy="3823.94" r="39.4" style=""/>
<circle cx="9273.94" cy="3623.94" r="39.4" style=""/>
<circle cx="9273.94" cy="3423.94" r="39.4" style=""/>
<circle cx="9273.94" cy="3223.94" r="39.4" style=""/>
<circle cx="9273.94" cy="3023.94" r="39.4" style=""/>
<circle cx="9273.94" cy="2823.94" r="39.4" style=""/>
<circle cx="9273.94" cy="2623.94" r="39.4" style=""/>
<circle cx="9273.94" cy="2423.94" r="39.4" style=""/>
<circle cx="10443.9" cy="2013.94" r="39.4" style=""/>
<circle cx="10643.9" cy="2013.94" r="39.4" style=""/>
<circle cx="10693.9" cy="2423.94" r="39.4" style=""/>
<circle cx="10693.9" cy="2623.94" r="39.4" style=""/>
<circle cx="10693.9" cy="2823.94" r="39.4" style=""/>
<circle cx="10693.9" cy="3023.94" r="39.4" style=""/>
<circle cx="10693.9" cy="3223.94" r="39.4" style=""/>
<circle cx="10693.9" cy="3423.94" r="39.4" style=""/>
<circle cx="10693.9" cy="3623.94" r="39.4" style=""/>
<circle cx="10693.9" cy="3823.94" r="39.4" style=""/>
<circle cx="2273.94" cy="4303.94" r="40" style=""/>
<circle cx="2613.94" cy="4303.94" r="40" style=""/>
<circle cx="2443.94" cy="3353.94" r="40" style=""/>
<circle cx="6229.54" cy="2231.54" r="40" style=""/>
<circle cx="8353.94" cy="1043.94" r="40" style=""/>
<circle cx="8453.94" cy="873.937" r="40" style=""/>
<circle cx="8573.94" cy="1043.94" r="40" style=""/>
<circle cx="6373.94" cy="4833.94" r="40" style=""/>
<circle cx="1515.54" cy="5950.74" r="55.1" style=""/>
<circle cx="1515.54" cy="5557.14" r="55.1" style=""/>
<circle cx="1513.94" cy="4990.74" r="55.1" style=""/>
<circle cx="1513.94" cy="4597.14" r="55.1" style=""/>
<circle cx="1515.54" cy="4030.74" r="55.1" style=""/>
<circle cx="1515.54" cy="3637.14" r="55.1" style=""/>
<circle cx="1515.54" cy="3070.74" r="55.1" style=""/>
<circle cx="1515.54" cy="2677.14" r="55.1" style=""/>
<circle cx="1515.54" cy="2110.74" r="55.1" style=""/>
<circle cx="1515.54" cy="1717.14" r="55.1" style=""/>
<circle cx="1515.54" cy="1150.74" r="55.1" style=""/>
<circle cx="1515.54" cy="757.137" r="55.1" style=""/>
<circle cx="9700.14" cy="833.937" r="55.1" style=""/>
<circle cx="10093.9" cy="833.937" r="55.1" style=""/>
<circle cx="7073.94" cy="1453.94" r="98.4" style=""/>
<circle cx="8573.94" cy="1451.94" r="98.4" style=""/>
<circle cx="7073.94" cy="5853.94" r="98.4" style=""/>
<circle cx="8573.94" cy="5853.94" r="98.4" style=""/>
</svg>
