<?xml version="1.0" standalone="no"?>
<!DOCTYPE svg PUBLIC "-//W3C//DTD SVG 1.1//EN"
"http://www.w3.org/Graphics/SVG/1.1/DTD/svg11.dtd">
<svg width="598.458" height="321.978" viewBox="0 0 12467.9 6707.87" version="1.1"
xmlns="http://www.w3.org/2000/svg"
xmlns:xlink="http://www.w3.org/1999/xlink">
<g fill-rule="evenodd"><path d="M 253.937,5273.94 L 261.621,5195.9 L 284.385,5120.87 L 321.349,5051.71 L 371.093,4991.1 L 431.707,4941.35 L 500.863,4904.39 L 575.899,4881.62 L 653.937,4873.94 L 783.937,4873.94 L 813.199,4871.06 L 841.339,4862.52 L 867.271,4848.66 L 890.001,4830 L 908.657,4807.27 L 922.517,4781.34 L 931.053,4753.2 L 933.935,4723.94 L 933.935,1983.94 L 931.053,1954.68 L 922.517,1926.54 L 908.657,1900.6 L 890.001,1877.87 L 867.271,1859.22 L 841.339,1845.36 L 813.199,1836.82 L 783.937,1833.94 L 653.937,1833.94 L 575.899,1826.25 L 500.863,1803.49 L 431.707,1766.53 L 371.093,1716.78 L 321.349,1656.17 L 284.385,1587.01 L 261.621,1511.98 L 253.937,1433.94 L 261.621,1355.9 L 284.385,1280.87 L 321.349,1211.71 L 371.093,1151.1 L 431.707,1101.35 L 500.863,1064.39 L 575.899,1041.62 L 653.937,1033.94 L 783.937,1033.94 L 813.199,1031.06 L 841.339,1022.52 L 867.271,1008.66 L 890.003,990.005 L 908.657,967.273 L 922.517,941.341 L 931.053,913.201 L 933.937,883.937 L 933.937,453.937 L 937.779,414.919 L 949.161,377.401 L 967.643,342.823 L 992.515,312.517 L 1022.82,287.645 L 1057.4,269.163 L 1094.92,257.781 L 1133.94,253.937 L 11333.9,253.937 L 11373,257.781 L 11410.5,269.163 L 11445.1,287.645 L 11475.4,312.517 L 11500.2,342.823 L 11518.7,377.401 L 11530.1,414.919 L 11533.9,453.937 L 11533.9,883.937 L 11536.8,913.201 L 11545.4,941.341 L 11559.2,967.273 L 11577.9,990.003 L 11600.6,1008.66 L 11626.5,1022.52 L 11654.7,1031.06 L 11683.9,1033.94 L 11813.9,1033.94 L 11892,1041.62 L 11967,1064.39 L 12036.2,1101.35 L 12096.8,1151.1 L 12146.5,1211.71 L 12183.5,1280.87 L 12206.3,1355.9 L 12213.9,1433.94 L 12206.3,1511.98 L 12183.5,1587.01 L 12146.5,1656.17 L 12096.8,1716.78 L 12036.2,1766.53 L 11967,1803.49 L 11892,1826.25 L 11813.9,1833.94 L 11683.9,1833.94 L 11654.7,1836.82 L 11626.5,1845.36 L 11600.6,1859.22 L 11577.9,1877.87 L 11559.2,1900.6 L 11545.4,1926.54 L 11536.8,1954.68 L 11533.9,1983.94 L 11533.9,4723.94 L 11536.8,4753.2 L 11545.4,4781.34 L 11559.2,4807.27 L 11577.9,4830 L 11600.6,4848.66 L 11626.5,4862.52 L 11654.7,4871.06 L 11683.9,4873.94 L 11813.9,4873.94 L 11892,4881.62 L 11967,4904.39 L 12036.2,4941.35 L 12096.8,4991.1 L 12146.5,5051.71 L 12183.5,5120.87 L 12206.3,5195.9 L 12213.9,5273.94 L 12206.3,5351.98 L 12183.5,5427.01 L 12146.5,5496.17 L 12096.8,5556.78 L 12036.2,5606.53 L 11967,5643.49 L 11892,5666.25 L 11813.9,5673.94 L 11683.9,5673.94 L 11654.7,5676.82 L 11626.5,5685.36 L 11600.6,5699.22 L 11577.9,5717.87 L 11559.2,5740.6 L 11545.4,5766.54 L 11536.8,5794.68 L 11533.9,5823.94 L 11533.9,6253.94 L 11530.1,6292.96 L 11518.7,6330.48 L 11500.2,6365.05 L 11475.4,6395.36 L 11445.1,6420.23 L 11410.5,6438.71 L 11373,6450.1 L 11333.9,6453.94 L 1133.94,6453.94 L 1094.92,6450.1 L 1057.4,6438.71 L 1022.82,6420.23 L 992.515,6395.36 L 967.643,6365.05 L 949.161,6330.48 L 937.779,6292.96 L 933.937,6253.94 L 933.935,5823.94 L 931.053,5794.68 L 922.517,5766.54 L 908.657,5740.6 L 890.001,5717.87 L 867.271,5699.22 L 841.339,5685.36 L 813.199,5676.82 L 783.937,5673.94 L 653.937,5673.94 L 575.899,5666.25 L 500.863,5643.49 L 431.707,5606.53 L 371.093,5556.78 L 321.349,5496.17 L 284.385,5427.01 L 261.621,5351.98 L 253.937,5273.94 z " style="fill-opacity:1.000000;fill:rgb(167,241,217);stroke:rgb(0,0,0);stroke-width:2"/></g>
</svg>
