<?xml version="1.0" standalone="no"?>
<!DOCTYPE svg PUBLIC "-//W3C//DTD SVG 1.1//EN"
"http://www.w3.org/Graphics/SVG/1.1/DTD/svg11.dtd">
<svg width="598.458" height="321.978" viewBox="0 0 12467.9 6707.87" version="1.1"
xmlns="http://www.w3.org/2000/svg"
xmlns:xlink="http://www.w3.org/1999/xlink">
<g fill-rule="evenodd"><path d="M 9.37916e-13,6707.87 L 9.37916e-13,0 L 12467.9,0 L 12467.9,6707.87 L 9.37916e-13,6707.87 z " style="fill-opacity:0.200000;fill:rgb(167,241,217);"/></g>
<polyline points="129.539,5286.19 137.223,5364.23 139.023,5376.36 142.005,5388.27 164.769,5463.3 174.145,5485.94 211.109,5555.09 217.415,5565.61 224.723,5575.47 274.465,5636.08 282.703,5645.17 291.793,5653.41 352.407,5703.15 362.261,5710.46 372.783,5716.77 441.939,5753.73 464.573,5763.11 539.609,5785.87 551.511,5788.85 563.649,5790.65 641.687,5798.34 653.935,5798.94 777.795,5798.94 788.695,5800.01 793.273,5801.4 797.487,5803.66 801.185,5806.69 804.219,5810.39 806.471,5814.6 807.861,5819.18 808.935,5830.08 808.937,6253.94 809.537,6266.19 813.379,6305.21 815.179,6317.35 818.161,6329.25 829.543,6366.77 838.919,6389.4 857.401,6423.98 863.709,6434.5 871.017,6444.36 895.889,6474.66 913.213,6491.98 943.519,6516.86 953.373,6524.16 963.897,6530.47 998.475,6548.95 1021.11,6558.33 1058.63,6569.71 1070.53,6572.69 1082.67,6574.49 1121.69,6578.34 1133.94,6578.94 11333.9,6578.94 11346.2,6578.34 11385.2,6574.49 11397.3,6572.69 11409.2,6569.71 11446.8,6558.33 11469.4,6548.95 11504,6530.47 11514.5,6524.16 11524.4,6516.86 11554.7,6491.98 11572,6474.66 11596.9,6444.36 11604.2,6434.5 11610.5,6423.98 11629,6389.4 11638.3,6366.77 11649.7,6329.25 11652.7,6317.35 11654.5,6305.21 11658.3,6266.19 11658.9,6253.94 11658.9,5830.08 11660,5819.18 11661.4,5814.6 11663.7,5810.39 11666.7,5806.69 11670.4,5803.66 11674.6,5801.4 11679.2,5800.01 11690.1,5798.94 11813.9,5798.94 11826.2,5798.34 11904.2,5790.65 11916.4,5788.85 11928.3,5785.87 12003.3,5763.11 12025.9,5753.73 12095.1,5716.77 12105.6,5710.46 12115.5,5703.15 12176.1,5653.41 12185.2,5645.17 12193.4,5636.08 12243.1,5575.47 12250.5,5565.61 12256.8,5555.09 12293.7,5485.94 12303.1,5463.3 12325.9,5388.27 12328.8,5376.36 12330.6,5364.23 12338.3,5286.19 12338.3,5261.69 12330.6,5183.65 12328.8,5171.52 12325.9,5159.61 12303.1,5084.58 12293.7,5061.94 12256.8,4992.79 12250.5,4982.27 12243.1,4972.41 12193.4,4911.8 12185.2,4902.71 12176.1,4894.47 12115.5,4844.73 12105.6,4837.42 12095.1,4831.11 12025.9,4794.15 12003.3,4784.77 11928.3,4762.01 11916.4,4759.03 11904.2,4757.23 11826.2,4749.54 11813.9,4748.94 11690.1,4748.94 11679.2,4747.87 11674.6,4746.48 11670.4,4744.22 11666.7,4741.19 11663.7,4737.49 11661.4,4733.28 11660,4728.7 11658.9,4717.8 11658.9,1990.08 11660,1979.18 11661.4,1974.6 11663.7,1970.39 11666.7,1966.69 11670.4,1963.66 11674.6,1961.4 11679.2,1960.01 11690.1,1958.94 11813.9,1958.94 11826.2,1958.34 11904.2,1950.65 11916.4,1948.85 11928.3,1945.87 12003.3,1923.11 12025.9,1913.73 12095.1,1876.77 12105.6,1870.46 12115.5,1863.15 12176.1,1813.41 12185.2,1805.17 12193.4,1796.08 12243.1,1735.47 12250.5,1725.61 12256.8,1715.09 12293.7,1645.94 12303.1,1623.3 12325.9,1548.27 12328.8,1536.36 12330.6,1524.23 12338.3,1446.19 12338.3,1421.69 12330.6,1343.65 12328.8,1331.52 12325.9,1319.61 12303.1,1244.58 12293.7,1221.94 12256.8,1152.79 12250.5,1142.27 12243.1,1132.41 12193.4,1071.8 12185.2,1062.71 12176.1,1054.47 12115.5,1004.73 12105.6,997.417 12095.1,991.111 12025.9,954.147 12003.3,944.771 11928.3,922.007 11916.4,919.025 11904.2,917.225 11826.2,909.541 11813.9,908.939 11690.1,908.939 11679.2,907.865 11674.6,906.475 11670.4,904.223 11666.7,901.189 11663.7,897.491 11661.4,893.277 11660,888.699 11658.9,877.797 11658.9,453.937 11658.3,441.683 11654.5,402.665 11649.7,378.631 11638.3,341.113 11629,318.479 11610.5,283.901 11604.2,273.377 11596.9,263.523 11572,233.217 11554.7,215.893 11524.4,191.021 11514.5,183.713 11504,177.405 11469.4,158.923 11446.8,149.547 11409.2,138.165 11385.2,133.385 11346.2,129.541 11333.9,128.937 1133.94,128.937 1121.68,129.541 1082.66,133.385 1070.53,135.185 1058.63,138.165 1021.11,149.547 998.475,158.923 963.897,177.405 953.373,183.713 943.519,191.021 913.213,215.893 895.889,233.217 871.017,263.523 863.709,273.377 857.401,283.901 838.919,318.479 829.543,341.113 818.161,378.631 815.179,390.533 813.379,402.671 809.537,441.689 808.937,453.937 808.937,877.793 807.861,888.695 806.471,893.277 804.217,897.495 801.185,901.189 797.491,904.221 793.273,906.475 788.695,907.865 777.795,908.937 653.937,908.937 641.683,909.539 563.645,917.225 551.511,919.027 539.609,922.007 464.573,944.771 441.939,954.147 372.783,991.111 362.261,997.417 352.407,1004.73 291.793,1054.47 282.703,1062.71 274.465,1071.8 224.723,1132.41 217.415,1142.27 211.109,1152.79 174.145,1221.94 164.769,1244.58 142.005,1319.61 139.023,1331.52 137.223,1343.65 129.539,1421.69 129.539,1446.19 137.223,1524.23 139.023,1536.36 142.005,1548.27 164.769,1623.3 174.145,1645.94 211.109,1715.09 217.415,1725.61 224.723,1735.47 274.465,1796.08 282.703,1805.17 291.793,1813.41 352.407,1863.15 362.261,1870.46 372.783,1876.77 441.939,1913.73 464.573,1923.11 539.609,1945.87 551.511,1948.85 563.649,1950.65 641.687,1958.34 653.935,1958.94 777.795,1958.94 788.695,1960.01 793.273,1961.4 797.487,1963.66 801.185,1966.69 804.219,1970.39 806.471,1974.6 807.861,1979.18 808.935,1990.08 808.935,4717.8 807.861,4728.7 806.471,4733.28 804.219,4737.49 801.185,4741.19 797.487,4744.22 793.273,4746.48 788.695,4747.87 777.795,4748.94 653.937,4748.94 641.683,4749.54 563.645,4757.23 551.511,4759.03 539.609,4762.01 464.573,4784.77 441.939,4794.15 372.783,4831.11 362.261,4837.42 352.407,4844.73 291.793,4894.47 282.703,4902.71 274.465,4911.8 224.723,4972.41 217.415,4982.27 211.109,4992.79 174.145,5061.94 164.769,5084.58 142.005,5159.61 139.023,5171.52 137.223,5183.65 129.539,5261.69 129.539,5286.19" style="stroke:rgb(167,241,217);stroke-width:250.000000;fill:none;stroke-opacity:0.5;stroke-linecap:round;stroke-linejoin:round;;fill:none"/>
<polyline points="129.539,5286.19 137.223,5364.23 139.023,5376.36 142.005,5388.27 164.769,5463.3 174.145,5485.94 211.109,5555.09 217.415,5565.61 224.723,5575.47 274.465,5636.08 282.703,5645.17 291.793,5653.41 352.407,5703.15 362.261,5710.46 372.783,5716.77 441.939,5753.73 464.573,5763.11 539.609,5785.87 551.511,5788.85 563.649,5790.65 641.687,5798.34 653.935,5798.94 777.795,5798.94 788.695,5800.01 793.273,5801.4 797.487,5803.66 801.185,5806.69 804.219,5810.39 806.471,5814.6 807.861,5819.18 808.935,5830.08 808.937,6253.94 809.537,6266.19 813.379,6305.21 815.179,6317.35 818.161,6329.25 829.543,6366.77 838.919,6389.4 857.401,6423.98 863.709,6434.5 871.017,6444.36 895.889,6474.66 913.213,6491.98 943.519,6516.86 953.373,6524.16 963.897,6530.47 998.475,6548.95 1021.11,6558.33 1058.63,6569.71 1070.53,6572.69 1082.67,6574.49 1121.69,6578.34 1133.94,6578.94 11333.9,6578.94 11346.2,6578.34 11385.2,6574.49 11397.3,6572.69 11409.2,6569.71 11446.8,6558.33 11469.4,6548.95 11504,6530.47 11514.5,6524.16 11524.4,6516.86 11554.7,6491.98 11572,6474.66 11596.9,6444.36 11604.2,6434.5 11610.5,6423.98 11629,6389.4 11638.3,6366.77 11649.7,6329.25 11652.7,6317.35 11654.5,6305.21 11658.3,6266.19 11658.9,6253.94 11658.9,5830.08 11660,5819.18 11661.4,5814.6 11663.7,5810.39 11666.7,5806.69 11670.4,5803.66 11674.6,5801.4 11679.2,5800.01 11690.1,5798.94 11813.9,5798.94 11826.2,5798.34 11904.2,5790.65 11916.4,5788.85 11928.3,5785.87 12003.3,5763.11 12025.9,5753.73 12095.1,5716.77 12105.6,5710.46 12115.5,5703.15 12176.1,5653.41 12185.2,5645.17 12193.4,5636.08 12243.1,5575.47 12250.5,5565.61 12256.8,5555.09 12293.7,5485.94 12303.1,5463.3 12325.9,5388.27 12328.8,5376.36 12330.6,5364.23 12338.3,5286.19 12338.3,5261.69 12330.6,5183.65 12328.8,5171.52 12325.9,5159.61 12303.1,5084.58 12293.7,5061.94 12256.8,4992.79 12250.5,4982.27 12243.1,4972.41 12193.4,4911.8 12185.2,4902.71 12176.1,4894.47 12115.5,4844.73 12105.6,4837.42 12095.1,4831.11 12025.9,4794.15 12003.3,4784.77 11928.3,4762.01 11916.4,4759.03 11904.2,4757.23 11826.2,4749.54 11813.9,4748.94 11690.1,4748.94 11679.2,4747.87 11674.6,4746.48 11670.4,4744.22 11666.7,4741.19 11663.7,4737.49 11661.4,4733.28 11660,4728.7 11658.9,4717.8 11658.9,1990.08 11660,1979.18 11661.4,1974.6 11663.7,1970.39 11666.7,1966.69 11670.4,1963.66 11674.6,1961.4 11679.2,1960.01 11690.1,1958.94 11813.9,1958.94 11826.2,1958.34 11904.2,1950.65 11916.4,1948.85 11928.3,1945.87 12003.3,1923.11 12025.9,1913.73 12095.1,1876.77 12105.6,1870.46 12115.5,1863.15 12176.1,1813.41 12185.2,1805.17 12193.4,1796.08 12243.1,1735.47 12250.5,1725.61 12256.8,1715.09 12293.7,1645.94 12303.1,1623.3 12325.9,1548.27 12328.8,1536.36 12330.6,1524.23 12338.3,1446.19 12338.3,1421.69 12330.6,1343.65 12328.8,1331.52 12325.9,1319.61 12303.1,1244.58 12293.7,1221.94 12256.8,1152.79 12250.5,1142.27 12243.1,1132.41 12193.4,1071.8 12185.2,1062.71 12176.1,1054.47 12115.5,1004.73 12105.6,997.417 12095.1,991.111 12025.9,954.147 12003.3,944.771 11928.3,922.007 11916.4,919.025 11904.2,917.225 11826.2,909.541 11813.9,908.939 11690.1,908.939 11679.2,907.865 11674.6,906.475 11670.4,904.223 11666.7,901.189 11663.7,897.491 11661.4,893.277 11660,888.699 11658.9,877.797 11658.9,453.937 11658.3,441.683 11654.5,402.665 11649.7,378.631 11638.3,341.113 11629,318.479 11610.5,283.901 11604.2,273.377 11596.9,263.523 11572,233.217 11554.7,215.893 11524.4,191.021 11514.5,183.713 11504,177.405 11469.4,158.923 11446.8,149.547 11409.2,138.165 11385.2,133.385 11346.2,129.541 11333.9,128.937 1133.94,128.937 1121.68,129.541 1082.66,133.385 1070.53,135.185 1058.63,138.165 1021.11,149.547 998.475,158.923 963.897,177.405 953.373,183.713 943.519,191.021 913.213,215.893 895.889,233.217 871.017,263.523 863.709,273.377 857.401,283.901 838.919,318.479 829.543,341.113 818.161,378.631 815.179,390.533 813.379,402.671 809.537,441.689 808.937,453.937 808.937,877.793 807.861,888.695 806.471,893.277 804.217,897.495 801.185,901.189 797.491,904.221 793.273,906.475 788.695,907.865 777.795,908.937 653.937,908.937 641.683,909.539 563.645,917.225 551.511,919.027 539.609,922.007 464.573,944.771 441.939,954.147 372.783,991.111 362.261,997.417 352.407,1004.73 291.793,1054.47 282.703,1062.71 274.465,1071.8 224.723,1132.41 217.415,1142.27 211.109,1152.79 174.145,1221.94 164.769,1244.58 142.005,1319.61 139.023,1331.52 137.223,1343.65 129.539,1421.69 129.539,1446.19 137.223,1524.23 139.023,1536.36 142.005,1548.27 164.769,1623.3 174.145,1645.94 211.109,1715.09 217.415,1725.61 224.723,1735.47 274.465,1796.08 282.703,1805.17 291.793,1813.41 352.407,1863.15 362.261,1870.46 372.783,1876.77 441.939,1913.73 464.573,1923.11 539.609,1945.87 551.511,1948.85 563.649,1950.65 641.687,1958.34 653.935,1958.94 777.795,1958.94 788.695,1960.01 793.273,1961.4 797.487,1963.66 801.185,1966.69 804.219,1970.39 806.471,1974.6 807.861,1979.18 808.935,1990.08 808.935,4717.8 807.861,4728.7 806.471,4733.28 804.219,4737.49 801.185,4741.19 797.487,4744.22 793.273,4746.48 788.695,4747.87 777.795,4748.94 653.937,4748.94 641.683,4749.54 563.645,4757.23 551.511,4759.03 539.609,4762.01 464.573,4784.77 441.939,4794.15 372.783,4831.11 362.261,4837.42 352.407,4844.73 291.793,4894.47 282.703,4902.71 274.465,4911.8 224.723,4972.41 217.415,4982.27 211.109,4992.79 174.145,5061.94 164.769,5084.58 142.005,5159.61 139.023,5171.52 137.223,5183.65 129.539,5261.69 129.539,5286.19" style="stroke:rgb(0,0,0);stroke-width:1px;fill:none;stroke-opacity:1;stroke-linecap:round;stroke-linejoin:round;;fill:none"/>
<g fill-rule="evenodd"><path d="M 253.937,5273.94 L 261.621,5195.9 L 284.385,5120.87 L 321.349,5051.71 L 371.093,4991.1 L 431.707,4941.35 L 500.863,4904.39 L 575.899,4881.62 L 653.937,4873.94 L 783.937,4873.94 L 813.199,4871.06 L 841.339,4862.52 L 867.271,4848.66 L 890.001,4830 L 908.657,4807.27 L 922.517,4781.34 L 931.053,4753.2 L 933.935,4723.94 L 933.935,1983.94 L 931.053,1954.68 L 922.517,1926.54 L 908.657,1900.6 L 890.001,1877.87 L 867.271,1859.22 L 841.339,1845.36 L 813.199,1836.82 L 783.937,1833.94 L 653.937,1833.94 L 575.899,1826.25 L 500.863,1803.49 L 431.707,1766.53 L 371.093,1716.78 L 321.349,1656.17 L 284.385,1587.01 L 261.621,1511.98 L 253.937,1433.94 L 261.621,1355.9 L 284.385,1280.87 L 321.349,1211.71 L 371.093,1151.1 L 431.707,1101.35 L 500.863,1064.39 L 575.899,1041.62 L 653.937,1033.94 L 783.937,1033.94 L 813.199,1031.06 L 841.339,1022.52 L 867.271,1008.66 L 890.003,990.005 L 908.657,967.273 L 922.517,941.341 L 931.053,913.201 L 933.937,883.937 L 933.937,453.937 L 937.779,414.919 L 949.161,377.401 L 967.643,342.823 L 992.515,312.517 L 1022.82,287.645 L 1057.4,269.163 L 1094.92,257.781 L 1133.94,253.937 L 11333.9,253.937 L 11373,257.781 L 11410.5,269.163 L 11445.1,287.645 L 11475.4,312.517 L 11500.2,342.823 L 11518.7,377.401 L 11530.1,414.919 L 11533.9,453.937 L 11533.9,883.937 L 11536.8,913.201 L 11545.4,941.341 L 11559.2,967.273 L 11577.9,990.003 L 11600.6,1008.66 L 11626.5,1022.52 L 11654.7,1031.06 L 11683.9,1033.94 L 11813.9,1033.94 L 11892,1041.62 L 11967,1064.39 L 12036.2,1101.35 L 12096.8,1151.1 L 12146.5,1211.71 L 12183.5,1280.87 L 12206.3,1355.9 L 12213.9,1433.94 L 12206.3,1511.98 L 12183.5,1587.01 L 12146.5,1656.17 L 12096.8,1716.78 L 12036.2,1766.53 L 11967,1803.49 L 11892,1826.25 L 11813.9,1833.94 L 11683.9,1833.94 L 11654.7,1836.82 L 11626.5,1845.36 L 11600.6,1859.22 L 11577.9,1877.87 L 11559.2,1900.6 L 11545.4,1926.54 L 11536.8,1954.68 L 11533.9,1983.94 L 11533.9,4723.94 L 11536.8,4753.2 L 11545.4,4781.34 L 11559.2,4807.27 L 11577.9,4830 L 11600.6,4848.66 L 11626.5,4862.52 L 11654.7,4871.06 L 11683.9,4873.94 L 11813.9,4873.94 L 11892,4881.62 L 11967,4904.39 L 12036.2,4941.35 L 12096.8,4991.1 L 12146.5,5051.71 L 12183.5,5120.87 L 12206.3,5195.9 L 12213.9,5273.94 L 12206.3,5351.98 L 12183.5,5427.01 L 12146.5,5496.17 L 12096.8,5556.78 L 12036.2,5606.53 L 11967,5643.49 L 11892,5666.25 L 11813.9,5673.94 L 11683.9,5673.94 L 11654.7,5676.82 L 11626.5,5685.36 L 11600.6,5699.22 L 11577.9,5717.87 L 11559.2,5740.6 L 11545.4,5766.54 L 11536.8,5794.68 L 11533.9,5823.94 L 11533.9,6253.94 L 11530.1,6292.96 L 11518.7,6330.48 L 11500.2,6365.05 L 11475.4,6395.36 L 11445.1,6420.23 L 11410.5,6438.71 L 11373,6450.1 L 11333.9,6453.94 L 1133.94,6453.94 L 1094.92,6450.1 L 1057.4,6438.71 L 1022.82,6420.23 L 992.515,6395.36 L 967.643,6365.05 L 949.161,6330.48 L 937.779,6292.96 L 933.937,6253.94 L 933.935,5823.94 L 931.053,5794.68 L 922.517,5766.54 L 908.657,5740.6 L 890.001,5717.87 L 867.271,5699.22 L 841.339,5685.36 L 813.199,5676.82 L 783.937,5673.94 L 653.937,5673.94 L 575.899,5666.25 L 500.863,5643.49 L 431.707,5606.53 L 371.093,5556.78 L 321.349,5496.17 L 284.385,5427.01 L 261.621,5351.98 L 253.937,5273.94 z " style="fill-opacity:1.000000;fill:rgb(167,241,217);stroke:rgb(0,0,0);stroke-width:2"/></g>
</svg>
