<?xml version="1.0" standalone="no"?>
<!DOCTYPE svg PUBLIC "-//W3C//DTD SVG 1.1//EN"
"http://www.w3.org/Graphics/SVG/1.1/DTD/svg11.dtd">
<svg width="780.094" height="99.7795" viewBox="0 0 16252 2078.74" version="1.1"
xmlns="http://www.w3.org/2000/svg"
xmlns:xlink="http://www.w3.org/1999/xlink">
<polyline points="11201.3,1285.91 11202.1,1286.32 11205.9,1289.7 11206.8,1290.63 11208.1,1292.08 11208.6,1292.7 11216.3,1300.04 11216.5,1300.19 11238.2,1322.13 11242.1,1325.76 11242.5,1326.1 11281.7,1357.29 11282,1357.48 11282.5,1357.78 11326,1383.4 11326.4,1383.63 11328.7,1384.8 11340.4,1389.86 11340.6,1389.95 11358.5,1397.1 11358.7,1397.16 11378,1404.53 11378.1,1404.59 11381,1405.63 11395,1410.13 11396.7,1410.63 11397,1410.69 11412.3,1414.88 11412.9,1415.02 11413.1,1415.07 11422.9,1416.78 11429.2,1415.81" style="stroke:rgb(255,0,0);stroke-width:15.748031;fill:none;stroke-opacity:0.5;stroke-linecap:round;stroke-linejoin:round;;fill:none"/>
<polyline points="11201.3,1285.91 11202.1,1286.32 11205.9,1289.7 11206.8,1290.63 11208.1,1292.08 11208.6,1292.7 11216.3,1300.04 11216.5,1300.19 11238.2,1322.13 11242.1,1325.76 11242.5,1326.1 11281.7,1357.29 11282,1357.48 11282.5,1357.78 11326,1383.4 11326.4,1383.63 11328.7,1384.8 11340.4,1389.86 11340.6,1389.95 11358.5,1397.1 11358.7,1397.16 11378,1404.53 11378.1,1404.59 11381,1405.63 11395,1410.13 11396.7,1410.63 11397,1410.69 11412.3,1414.88 11412.9,1415.02 11413.1,1415.07 11422.9,1416.78 11429.2,1415.81" style="stroke:rgb(0,0,0);stroke-width:1px;fill:none;stroke-opacity:1;stroke-linecap:round;stroke-linejoin:round;;fill:none"/>
<polyline points="11201.3,1285.91 11202.1,1286.32 11205.9,1289.7 11206.8,1290.63 11208.1,1292.08 11208.6,1292.7 11216.3,1300.04 11216.5,1300.19 11238.2,1322.13 11242.1,1325.76 11242.5,1326.1 11281.7,1357.29 11282,1357.48 11282.5,1357.78 11326,1383.4 11326.4,1383.63 11328.7,1384.8 11340.4,1389.86 11340.6,1389.95 11358.5,1397.1 11358.7,1397.16 11378,1404.53 11378.1,1404.59 11381,1405.63 11395,1410.13 11396.7,1410.63 11397,1410.69 11412.3,1414.88 11412.9,1415.02 11413.1,1415.07 11422.9,1416.78 11429.2,1415.81" style="stroke:rgb(255,0,0);stroke-width:15.748031;fill:none;stroke-opacity:0.5;stroke-linecap:round;stroke-linejoin:round;;fill:none"/>
<polyline points="11201.3,1285.91 11202.1,1286.32 11205.9,1289.7 11206.8,1290.63 11208.1,1292.08 11208.6,1292.7 11216.3,1300.04 11216.5,1300.19 11238.2,1322.13 11242.1,1325.76 11242.5,1326.1 11281.7,1357.29 11282,1357.48 11282.5,1357.78 11326,1383.4 11326.4,1383.63 11328.7,1384.8 11340.4,1389.86 11340.6,1389.95 11358.5,1397.1 11358.7,1397.16 11378,1404.53 11378.1,1404.59 11381,1405.63 11395,1410.13 11396.7,1410.63 11397,1410.69 11412.3,1414.88 11412.9,1415.02 11413.1,1415.07 11422.9,1416.78 11429.2,1415.81" style="stroke:rgb(0,0,0);stroke-width:1px;fill:none;stroke-opacity:1;stroke-linecap:round;stroke-linejoin:round;;fill:none"/>
<polyline points="11427.2,1416.12 11422.9,1416.78 11413.1,1415.07 11412.9,1415.02 11412.3,1414.88 11397,1410.69 11396.7,1410.63 11395,1410.13 11381,1405.63 11378.1,1404.59 11378,1404.53 11358.7,1397.16 11358.5,1397.1 11340.6,1389.95 11340.4,1389.86 11328.7,1384.8 11326.4,1383.63 11326,1383.4 11282.5,1357.78 11282,1357.48 11281.7,1357.29 11242.5,1326.1 11242.1,1325.76 11238.2,1322.13 11216.5,1300.19 11216.3,1300.04 11208.6,1292.7 11208.1,1292.08 11206.8,1290.63 11205.9,1289.7 11202.1,1286.32 11200,1285.22" style="stroke:rgb(255,0,0);stroke-width:15.748031;fill:none;stroke-opacity:0.5;stroke-linecap:round;stroke-linejoin:round;;fill:none"/>
<polyline points="11427.2,1416.12 11422.9,1416.78 11413.1,1415.07 11412.9,1415.02 11412.3,1414.88 11397,1410.69 11396.7,1410.63 11395,1410.13 11381,1405.63 11378.1,1404.59 11378,1404.53 11358.7,1397.16 11358.5,1397.1 11340.6,1389.95 11340.4,1389.86 11328.7,1384.8 11326.4,1383.63 11326,1383.4 11282.5,1357.78 11282,1357.48 11281.7,1357.29 11242.5,1326.1 11242.1,1325.76 11238.2,1322.13 11216.5,1300.19 11216.3,1300.04 11208.6,1292.7 11208.1,1292.08 11206.8,1290.63 11205.9,1289.7 11202.1,1286.32 11200,1285.22" style="stroke:rgb(0,0,0);stroke-width:1px;fill:none;stroke-opacity:1;stroke-linecap:round;stroke-linejoin:round;;fill:none"/>
<polyline points="11427.2,1416.12 11422.9,1416.78 11413.1,1415.07 11412.9,1415.02 11412.3,1414.88 11397,1410.69 11396.7,1410.63 11395,1410.13 11381,1405.63 11378.1,1404.59 11378,1404.53 11358.7,1397.16 11358.5,1397.1 11340.6,1389.95 11340.4,1389.86 11328.7,1384.8 11326.4,1383.63 11326,1383.4 11282.5,1357.78 11282,1357.48 11281.7,1357.29 11242.5,1326.1 11242.1,1325.76 11238.2,1322.13 11216.5,1300.19 11216.3,1300.04 11208.6,1292.7 11208.1,1292.08 11206.8,1290.63 11205.9,1289.7 11202.1,1286.32 11200,1285.22" style="stroke:rgb(255,0,0);stroke-width:15.748031;fill:none;stroke-opacity:0.5;stroke-linecap:round;stroke-linejoin:round;;fill:none"/>
<polyline points="11427.2,1416.12 11422.9,1416.78 11413.1,1415.07 11412.9,1415.02 11412.3,1414.88 11397,1410.69 11396.7,1410.63 11395,1410.13 11381,1405.63 11378.1,1404.59 11378,1404.53 11358.7,1397.16 11358.5,1397.1 11340.6,1389.95 11340.4,1389.86 11328.7,1384.8 11326.4,1383.63 11326,1383.4 11282.5,1357.78 11282,1357.48 11281.7,1357.29 11242.5,1326.1 11242.1,1325.76 11238.2,1322.13 11216.5,1300.19 11216.3,1300.04 11208.6,1292.7 11208.1,1292.08 11206.8,1290.63 11205.9,1289.7 11202.1,1286.32 11200,1285.22" style="stroke:rgb(0,0,0);stroke-width:1px;fill:none;stroke-opacity:1;stroke-linecap:round;stroke-linejoin:round;;fill:none"/>
</svg>
