<?xml version="1.0" standalone="no"?>
<!DOCTYPE svg PUBLIC "-//W3C//DTD SVG 1.1//EN"
"http://www.w3.org/Graphics/SVG/1.1/DTD/svg11.dtd">
<svg width="780.094" height="99.7795" viewBox="0 0 16252 2078.74" version="1.1"
xmlns="http://www.w3.org/2000/svg"
xmlns:xlink="http://www.w3.org/1999/xlink">
<circle cx="10437.7" cy="645.712" r="39.4" style=""/>
<circle cx="10237.7" cy="645.712" r="39.4" style=""/>
<circle cx="10037.7" cy="645.712" r="39.4" style=""/>
<circle cx="9837.74" cy="645.712" r="39.4" style=""/>
<circle cx="9637.74" cy="645.712" r="39.4" style=""/>
<circle cx="14403.9" cy="1039.31" r="68.9" style=""/>
<circle cx="13603.9" cy="1039.31" r="68.9" style=""/>
<circle cx="6474.74" cy="1039.31" r="68.9" style=""/>
<circle cx="5674.74" cy="1039.31" r="68.9" style=""/>
<circle cx="4561.34" cy="1039.31" r="68.9" style=""/>
<circle cx="3761.34" cy="1039.31" r="68.9" style=""/>
<circle cx="2647.94" cy="1039.31" r="68.9" style=""/>
<circle cx="1847.94" cy="1039.31" r="68.9" style=""/>
<circle cx="14203.9" cy="639.312" r="120.1" style=""/>
<circle cx="13703.9" cy="839.312" r="120.1" style=""/>
<circle cx="6274.74" cy="639.312" r="120.1" style=""/>
<circle cx="5774.74" cy="839.312" r="120.1" style=""/>
<circle cx="4361.34" cy="639.312" r="120.1" style=""/>
<circle cx="3861.34" cy="839.312" r="120.1" style=""/>
<circle cx="2447.94" cy="639.312" r="120.1" style=""/>
<circle cx="1947.94" cy="839.312" r="120.1" style=""/>
</svg>
