<?xml version="1.0" standalone="no"?>
<!DOCTYPE svg PUBLIC "-//W3C//DTD SVG 1.1//EN"
"http://www.w3.org/Graphics/SVG/1.1/DTD/svg11.dtd">
<svg width="780.094" height="99.7795" viewBox="0 0 16252 2078.74" version="1.1"
xmlns="http://www.w3.org/2000/svg"
xmlns:xlink="http://www.w3.org/1999/xlink">
<g fill-rule="evenodd"><path d="M 276.378,1055.69 L 276.378,1023.05 L 279.328,990.012 L 285.228,957.372 L 294.03,925.392 L 305.868,893.848 L 320.28,863.974 L 337.024,835.95 L 356.5,809.104 L 378.306,784.11 L 402.66,760.826 L 428.182,740.472 L 455.85,722.18 L 485.048,706.442 L 516.028,693.2 L 547.58,682.972 L 579.406,675.708 L 612.794,671.186 L 645.8,669.71 L 816.788,669.71 L 843.918,666.858 L 870.602,661.186 L 896.546,652.756 L 921.466,641.662 L 945.09,628.022 L 967.16,611.988 L 987.432,593.734 L 1005.69,573.462 L 1021.72,551.392 L 1035.36,527.768 L 1046.46,502.846 L 1054.89,476.902 L 1060.56,450.22 L 1063.41,423.09 L 1063.42,409.24 L 1064.71,391.296 L 1068.64,372.674 L 1075.87,353.282 L 1085.09,336.636 L 1095.5,322.736 L 1108.87,309.194 L 1124.03,297.694 L 1140.68,288.47 L 1160.07,281.236 L 1178.7,277.308 L 1197.06,276.01 L 15055.3,276.024 L 15073.3,277.308 L 15091.9,281.236 L 15111.3,288.47 L 15127.9,297.694 L 15143.1,309.196 L 15156.5,322.736 L 15166.9,336.634 L 15176.1,353.28 L 15183.3,372.674 L 15187.3,391.296 L 15188.5,409.24 L 15188.6,423.09 L 15191.4,450.218 L 15197.1,476.902 L 15205.5,502.846 L 15216.6,527.768 L 15230.2,551.392 L 15246.3,573.462 L 15264.5,593.734 L 15284.8,611.988 L 15306.9,628.022 L 15330.5,641.662 L 15355.4,652.756 L 15381.4,661.186 L 15408,666.858 L 15435.2,669.71 L 15606.2,669.71 L 15639.2,671.186 L 15672,675.616 L 15704.4,682.972 L 15736.4,693.384 L 15766.9,706.442 L 15795.7,721.91 L 15823.4,740.164 L 15849.3,760.826 L 15873.3,783.73 L 15895.5,809.104 L 15914.7,835.512 L 15931.7,863.974 L 15946.1,893.848 L 15957.8,924.894 L 15966.6,956.86 L 15972.6,990.012 L 15975.6,1023.05 L 15975.6,1055.69 L 15972.6,1088.73 L 15966.7,1121.37 L 15957.9,1153.35 L 15946.1,1184.9 L 15931.7,1214.77 L 15914.7,1243.23 L 15895.5,1269.64 L 15873.7,1294.63 L 15849.3,1317.92 L 15823.8,1338.27 L 15796.1,1356.56 L 15766.9,1372.3 L 15736.4,1385.36 L 15704.4,1395.77 L 15672,1403.13 L 15639.2,1407.56 L 15606.2,1409.03 L 15435.2,1409.03 L 15408,1411.88 L 15381.4,1417.56 L 15355.4,1425.99 L 15330.5,1437.08 L 15306.9,1450.72 L 15284.8,1466.76 L 15264.5,1485.01 L 15246.3,1505.28 L 15230.2,1527.35 L 15216.6,1550.97 L 15205.5,1575.9 L 15197.1,1601.84 L 15191.4,1628.52 L 15188.6,1655.65 L 15188.5,1669.5 L 15187.3,1687.45 L 15183.3,1706.07 L 15176.1,1725.46 L 15166.9,1742.11 L 15155.4,1757.27 L 15143.1,1769.55 L 15127.9,1781.05 L 15111.3,1790.27 L 15091.9,1797.51 L 15073.3,1801.44 L 15054.9,1802.73 L 1196.64,1802.72 L 1178.7,1801.44 L 1160.07,1797.51 L 1140.68,1790.27 L 1124.03,1781.05 L 1108.87,1769.55 L 1096.59,1757.27 L 1085.09,1742.11 L 1075.87,1725.46 L 1068.64,1706.07 L 1064.71,1687.45 L 1063.42,1669.5 L 1063.41,1655.65 L 1060.56,1628.52 L 1054.89,1601.84 L 1046.46,1575.9 L 1035.36,1550.97 L 1021.72,1527.35 L 1005.69,1505.28 L 987.432,1485.01 L 967.16,1466.76 L 945.09,1450.72 L 921.466,1437.08 L 896.544,1425.99 L 870.6,1417.56 L 843.918,1411.88 L 816.788,1409.03 L 645.8,1409.03 L 612.794,1407.56 L 579.924,1403.13 L 547.582,1395.77 L 515.536,1385.36 L 485.046,1372.3 L 455.85,1356.56 L 428.606,1338.58 L 402.66,1317.92 L 378.668,1295.01 L 356.5,1269.64 L 337.024,1242.79 L 320.28,1214.77 L 316.722,1207.43 L 305.662,1184.41 L 294.192,1153.85 L 285.344,1121.88 L 279.398,1089.25 L 276.378,1055.69M 1550.35,922.048 L 1551.18,930.142 L 1555.53,943.256 L 1562.78,955.014 L 1572.55,964.782 L 1584.3,972.034 L 1597.42,976.38 L 1605.51,977.206 L 1623.01,977.206 L 1628.88,978.778 L 1633.17,983.072 L 1634.75,988.938 L 1634.75,1033.65 L 1634.44,1038.87 L 1635.96,1048.86 L 1636.87,1052.11 L 1640.73,1061.44 L 1642.39,1064.38 L 1648.38,1072.51 L 1652.28,1075.99 L 2322.83,1746.53 L 2326.3,1750.44 L 2334.44,1756.43 L 2337.38,1758.09 L 2346.71,1761.95 L 2349.96,1762.86 L 2359.95,1764.38 L 2365.17,1764.07 L 9108.38,1764.07 L 9113.61,1764.38 L 9123.59,1762.86 L 9126.84,1761.95 L 9136.17,1758.09 L 9139.11,1756.43 L 9147.25,1750.44 L 9150.72,1746.54 L 9599.62,1297.63 L 10075.7,821.59 L 10079.6,818.116 L 10085.6,809.98 L 10087.2,807.042 L 10091.1,797.71 L 10092,794.462 L 10093.5,784.474 L 10093.2,779.254 L 10093.2,742.796 L 10094.8,736.93 L 10098.2,733.184 L 10106.4,727.442 L 10119.6,714.284 L 10128.2,701.976 L 10132.8,698.072 L 10138.8,697.018 L 10144.5,699.096 L 10147.4,701.976 L 10156,714.284 L 10169.2,727.442 L 10184.4,738.114 L 10201.3,745.978 L 10219.3,750.794 L 10237.8,752.416 L 10256.8,750.704 L 10262.3,750.808 L 10267.6,753.844 L 11161.9,1648.11 L 11165.3,1652.02 L 11173.5,1658 L 11176.4,1659.66 L 11185.8,1663.53 L 11189,1664.43 L 11199,1665.95 L 11204.2,1665.65 L 12828.9,1665.65 L 12834.1,1665.95 L 12844.1,1664.43 L 12847.3,1663.53 L 12856.6,1659.66 L 12859.6,1658 L 12867.7,1652.02 L 12871.2,1648.11 L 13483.9,1035.37 L 13487.8,1031.9 L 13489.6,1029.33 L 13494.2,1025.4 L 13500.2,1024.3 L 13505.9,1026.34 L 13509.9,1030.97 L 13511,1036 L 13511,1047.98 L 13514.2,1064.91 L 13520.4,1080.97 L 13529.5,1095.62 L 13541.1,1108.35 L 13554.8,1118.73 L 13570.2,1126.4 L 13586.8,1131.12 L 13599.6,1132.31 L 13608.2,1132.31 L 13621.1,1131.12 L 13637.7,1126.4 L 13653.1,1118.73 L 13666.8,1108.35 L 13678.4,1095.62 L 13687.5,1080.97 L 13693.7,1064.91 L 13696.9,1047.98 L 13696.9,1030.76 L 13693.7,1013.83 L 13688.1,999.46 L 13687.5,993.422 L 13689.9,987.866 L 13694.8,984.282 L 13699.1,983.49 L 13709.3,983.49 L 13725.5,982.28 L 13746.5,977.472 L 13766.6,969.582 L 13785.3,958.782 L 13802.2,945.314 L 13816.9,929.48 L 13829.1,911.632 L 13838.5,892.172 L 13844.8,871.53 L 13848.1,850.172 L 13848.1,828.572 L 13844.8,807.212 L 13838.5,786.572 L 13829.1,767.11 L 13816.9,749.264 L 13802.2,733.428 L 13785.3,719.962 L 13766.6,709.162 L 13746.5,701.27 L 13725.5,696.464 L 13709.3,695.254 L 13698.5,695.254 L 13682.4,696.464 L 13661.3,701.27 L 13641.2,709.162 L 13622.5,719.962 L 13605.6,733.428 L 13600.3,739.234 L 13595.1,742.464 L 13589,742.692 L 13583.7,739.854 L 13581.2,736.006 L 13581,736.106 L 13573.4,723.73 L 13563.7,713.96 L 13551.9,706.708 L 13538.8,702.364 L 13530.7,701.536 L 13361.4,701.536 L 13353.3,702.364 L 13340.2,706.708 L 13328.5,713.96 L 13318.7,723.728 L 13311.4,735.486 L 13307.1,748.6 L 13306.3,756.694 L 13306.3,922.048 L 13307.1,930.142 L 13311.4,943.256 L 13318.7,955.014 L 13328.5,964.782 L 13340.2,972.034 L 13353.3,976.38 L 13358.6,976.918 L 13364.3,979.078 L 13368.1,983.786 L 13369.1,989.782 L 13366.9,995.458 L 12811.2,1551.39 L 12805.9,1554.43 L 12802.9,1554.83 L 11230.2,1554.83 L 11224.3,1553.26 L 11221.9,1551.39 L 10441.9,771.368 L 10438.8,766.108 L 10438.8,760.036 L 10441.9,754.776 L 10447.1,751.74 L 10456.3,750.754 L 10474.3,745.94 L 10491.1,738.08 L 10506.4,727.412 L 10519.5,714.26 L 10530.2,699.024 L 10538.1,682.166 L 10542.6,665.356 L 10501.4,665.356 L 10498.9,672.892 L 10491.9,685.009 L 10482.6,695.407 L 10471.3,703.632 L 10458.5,709.323 L 10444.8,712.232 L 10430.8,712.232 L 10417.1,709.323 L 10404.3,703.632 L 10393,695.407 L 10383.6,685.009 L 10376.7,672.892 L 10372.3,659.585 L 10370.9,645.669 L 10372.3,631.754 L 10376.7,618.447 L 10383.6,606.329 L 10393,595.931 L 10404.3,587.707 L 10418.1,581.804 L 10418.1,540.896 L 10401.3,545.4 L 10384.4,553.262 L 10369.2,563.93 L 10356.1,577.082 L 10347.4,589.398 L 10342.8,593.302 L 10336.8,594.356 L 10331.1,592.28 L 10328.2,589.398 L 10319.6,577.056 L 10306.4,563.9 L 10291.2,553.226 L 10274.3,545.364 L 10256.3,540.548 L 10237.8,538.926 L 10219.3,540.548 L 10201.3,545.364 L 10184.4,553.226 L 10169.2,563.9 L 10156,577.056 L 10147.4,589.364 L 10142.8,593.268 L 10136.8,594.322 L 10131.1,592.246 L 10128.2,589.364 L 10119.6,577.056 L 10106.4,563.9 L 10091.2,553.226 L 10074.3,545.364 L 10056.3,540.548 L 10037.8,538.926 L 10019.3,540.548 L 10001.3,545.364 L 9984.42,553.226 L 9969.18,563.9 L 9956.02,577.056 L 9947.4,589.364 L 9942.75,593.268 L 9936.77,594.322 L 9931.06,592.246 L 9928.18,589.364 L 9919.57,577.056 L 9906.41,563.9 L 9891.17,553.226 L 9874.3,545.364 L 9856.33,540.548 L 9837.79,538.926 L 9819.26,540.548 L 9801.29,545.364 L 9784.42,553.226 L 9769.18,563.9 L 9761.75,571.334 L 9756.49,574.37 L 9750.41,574.37 L 9745.15,571.334 L 9742.46,567.138 L 9739.67,559.66 L 9732.88,550.588 L 9723.8,543.796 L 9713.19,539.836 L 9708.49,539.332 L 9567.09,539.332 L 9562.4,539.836 L 9551.78,543.796 L 9542.71,550.588 L 9535.92,559.66 L 9531.96,570.278 L 9531.46,574.97 L 9531.46,716.368 L 9531.96,721.062 L 9533.42,724.976 L 9534,731.022 L 9531.47,736.546 L 8854.5,1413.6 L 8849.24,1416.63 L 8846.2,1417.03 L 5981.68,1417.03 L 5975.81,1415.46 L 5973.38,1413.6 L 5705.14,1145.36 L 5702.11,1140.1 L 5702.11,1134.02 L 5705.14,1128.76 L 5708.21,1126.56 L 5723.94,1118.73 L 5737.68,1108.35 L 5749.28,1095.62 L 5758.35,1080.97 L 5764.57,1064.91 L 5767.74,1047.98 L 5767.74,1030.76 L 5764.57,1013.83 L 5759.01,999.46 L 5758.35,993.422 L 5760.81,987.866 L 5765.71,984.282 L 5769.95,983.49 L 5780.19,983.49 L 5796.34,982.28 L 5817.4,977.472 L 5837.51,969.582 L 5856.21,958.782 L 5873.1,945.314 L 5887.79,929.48 L 5899.96,911.632 L 5909.33,892.172 L 5915.7,871.53 L 5918.92,850.172 L 5918.92,828.572 L 5915.7,807.212 L 5909.33,786.572 L 5899.96,767.11 L 5887.79,749.264 L 5873.1,733.428 L 5856.21,719.962 L 5837.51,709.162 L 5817.4,701.27 L 5796.34,696.464 L 5780.19,695.254 L 5769.41,695.254 L 5753.26,696.464 L 5732.2,701.27 L 5712.1,709.162 L 5693.39,719.962 L 5676.5,733.428 L 5671.12,739.234 L 5665.97,742.464 L 5659.9,742.692 L 5654.54,739.854 L 5652.06,736.006 L 5651.85,736.106 L 5644.31,723.73 L 5634.54,713.96 L 5622.78,706.708 L 5609.67,702.364 L 5601.57,701.536 L 5432.28,701.536 L 5424.19,702.364 L 5411.07,706.708 L 5399.32,713.96 L 5389.55,723.728 L 5382.3,735.486 L 5377.95,748.6 L 5377.12,756.694 L 5377.12,922.048 L 5377.95,930.142 L 5382.3,943.256 L 5389.55,955.014 L 5399.32,964.782 L 5411.07,972.034 L 5424.19,976.38 L 5432.28,977.206 L 5449.79,977.206 L 5455.65,978.778 L 5459.95,983.072 L 5461.52,988.938 L 5461.52,1033.65 L 5461.21,1038.87 L 5462.73,1048.86 L 5463.64,1052.11 L 5467.51,1061.44 L 5469.16,1064.38 L 5475.15,1072.51 L 5479.06,1075.99 L 5913.38,1510.31 L 5917.32,1514.63 L 5920.66,1519.7 L 5921.03,1525.76 L 5918.32,1531.19 L 5913.25,1534.54 L 5909.54,1535.14 L 4186.4,1535.14 L 4180.54,1533.57 L 4178.11,1531.71 L 3791.76,1145.36 L 3788.72,1140.1 L 3788.72,1134.02 L 3791.76,1128.76 L 3794.82,1126.56 L 3810.55,1118.73 L 3824.3,1108.35 L 3835.9,1095.62 L 3844.97,1080.97 L 3851.19,1064.91 L 3854.35,1047.98 L 3854.35,1030.76 L 3851.19,1013.83 L 3845.62,999.46 L 3844.97,993.422 L 3847.42,987.866 L 3852.32,984.282 L 3856.56,983.49 L 3866.81,983.49 L 3882.96,982.28 L 3904.01,977.472 L 3924.12,969.582 L 3942.83,958.782 L 3959.72,945.314 L 3974.41,929.48 L 3986.58,911.632 L 3995.95,892.172 L 4002.31,871.53 L 4005.53,850.172 L 4005.53,828.572 L 4002.31,807.212 L 3995.95,786.572 L 3986.58,767.11 L 3974.41,749.264 L 3959.72,733.428 L 3942.83,719.962 L 3924.12,709.162 L 3904.01,701.27 L 3882.96,696.464 L 3866.81,695.254 L 3856.02,695.254 L 3839.88,696.464 L 3818.82,701.27 L 3798.71,709.162 L 3780,719.962 L 3763.12,733.428 L 3757.73,739.234 L 3752.59,742.464 L 3746.52,742.692 L 3741.15,739.854 L 3738.68,736.006 L 3738.46,736.106 L 3730.92,723.73 L 3721.15,713.96 L 3709.4,706.708 L 3696.28,702.364 L 3688.19,701.536 L 3518.9,701.536 L 3510.8,702.364 L 3497.69,706.708 L 3485.93,713.96 L 3476.16,723.728 L 3468.91,735.486 L 3464.57,748.6 L 3463.74,756.694 L 3463.74,922.048 L 3464.57,930.142 L 3468.91,943.256 L 3476.16,955.014 L 3485.93,964.782 L 3497.69,972.034 L 3510.8,976.38 L 3518.9,977.206 L 3536.4,977.206 L 3542.27,978.778 L 3546.56,983.072 L 3548.13,988.938 L 3548.13,1033.65 L 3547.83,1038.87 L 3549.35,1048.86 L 3550.25,1052.11 L 3554.12,1061.44 L 3555.78,1064.38 L 3561.76,1072.51 L 3565.67,1075.99 L 4118.1,1628.42 L 4122.04,1632.74 L 4125.39,1637.81 L 4125.76,1643.87 L 4123.04,1649.3 L 4117.98,1652.65 L 4114.26,1653.25 L 2391.13,1653.25 L 2385.26,1651.68 L 2382.83,1649.82 L 1878.37,1145.36 L 1875.33,1140.1 L 1875.33,1134.02 L 1878.37,1128.76 L 1881.44,1126.56 L 1897.16,1118.73 L 1910.91,1108.35 L 1922.51,1095.62 L 1931.58,1080.97 L 1937.8,1064.91 L 1940.97,1047.98 L 1940.97,1030.76 L 1937.8,1013.83 L 1932.24,999.46 L 1931.58,993.422 L 1934.04,987.866 L 1938.94,984.282 L 1943.18,983.49 L 1953.42,983.49 L 1969.57,982.28 L 1990.63,977.472 L 2010.74,969.582 L 2029.44,958.782 L 2046.33,945.314 L 2061.02,929.48 L 2073.19,911.632 L 2082.56,892.172 L 2088.93,871.53 L 2092.15,850.172 L 2092.15,828.572 L 2088.93,807.212 L 2082.56,786.572 L 2073.19,767.11 L 2061.02,749.264 L 2046.33,733.428 L 2029.44,719.962 L 2010.74,709.162 L 1990.63,701.27 L 1969.57,696.464 L 1953.42,695.254 L 1942.64,695.254 L 1926.49,696.464 L 1905.43,701.27 L 1885.32,709.162 L 1866.62,719.962 L 1849.73,733.428 L 1844.34,739.234 L 1839.2,742.464 L 1833.13,742.692 L 1827.76,739.854 L 1825.29,736.006 L 1825.08,736.106 L 1817.54,723.73 L 1807.77,713.96 L 1796.01,706.708 L 1782.9,702.364 L 1774.8,701.536 L 1605.51,701.536 L 1597.42,702.364 L 1584.3,706.708 L 1572.55,713.96 L 1562.78,723.728 L 1555.53,735.486 L 1551.18,748.6 L 1550.35,756.694 L 1550.35,922.048M 2066.12,1039.37 L 2067.68,1063.12 L 2070.21,1075.87 L 2072.32,1086.45 L 2079.97,1108.98 L 2090.49,1130.33 L 2103.71,1150.11 L 2119.4,1168 L 2137.29,1183.69 L 2157.08,1196.91 L 2178.42,1207.43 L 2200.95,1215.08 L 2224.29,1219.72 L 2242.09,1220.89 L 2253.97,1220.89 L 2271.77,1219.72 L 2295.11,1215.08 L 2317.64,1207.43 L 2338.98,1196.91 L 2358.77,1183.69 L 2376.66,1168 L 2392.35,1150.11 L 2405.57,1130.33 L 2416.09,1108.98 L 2423.74,1086.45 L 2428.38,1063.12 L 2429.94,1039.37 L 2428.38,1015.63 L 2423.74,992.29 L 2416.09,969.758 L 2405.57,948.416 L 2392.35,928.632 L 2376.66,910.742 L 2358.77,895.052 L 2338.98,881.834 L 2317.64,871.31 L 2295.11,863.66 L 2271.77,859.018 L 2253.97,857.852 L 2242.09,857.852 L 2224.29,859.018 L 2200.95,863.66 L 2178.42,871.31 L 2157.08,881.834 L 2137.29,895.054 L 2119.4,910.742 L 2103.71,928.632 L 2090.49,948.416 L 2079.97,969.758 L 2072.32,992.29 L 2067.68,1015.63 L 2066.12,1039.37M 2303.91,650.172 L 2307.13,671.53 L 2313.5,692.172 L 2322.87,711.632 L 2335.04,729.48 L 2349.73,745.314 L 2366.62,758.782 L 2385.32,769.582 L 2405.43,777.472 L 2426.49,782.28 L 2442.64,783.49 L 2453.42,783.49 L 2469.57,782.28 L 2490.63,777.472 L 2510.74,769.582 L 2529.44,758.782 L 2546.33,745.314 L 2553.31,737.788 L 2558.46,734.556 L 2564.52,734.33 L 2569.89,737.168 L 2580.68,754.988 L 2590.44,764.75 L 2602.19,771.998 L 2615.3,776.34 L 2623.39,777.166 L 2688.35,777.166 L 2688.35,737.795 L 2627.32,737.795 L 2625.27,737.687 L 2621.24,736.832 L 2617.48,735.158 L 2614.15,732.739 L 2611.4,729.681 L 2609.34,726.117 L 2608.07,722.203 L 2607.64,718.11 L 2607.64,560.63 L 2608.07,556.537 L 2609.34,552.623 L 2611.4,549.059 L 2614.15,546.001 L 2617.48,543.582 L 2621.24,541.908 L 2625.27,541.053 L 2688.35,540.945 L 2688.35,501.576 L 2623.39,501.576 L 2615.3,502.402 L 2602.19,506.744 L 2590.44,513.992 L 2580.68,523.754 L 2573.44,535.504 L 2573.05,536.666 L 2569.71,541.738 L 2564.29,544.464 L 2558.22,544.112 L 2553.31,540.954 L 2546.33,533.428 L 2529.44,519.962 L 2510.74,509.162 L 2490.63,501.27 L 2469.57,496.464 L 2453.42,495.254 L 2442.64,495.254 L 2426.49,496.464 L 2405.43,501.27 L 2385.32,509.162 L 2366.62,519.962 L 2349.73,533.428 L 2335.04,549.264 L 2322.87,567.11 L 2313.5,586.572 L 2307.13,607.212 L 2303.91,628.57 L 2303.91,650.172M 2555.09,1047.98 L 2558.26,1064.91 L 2564.48,1080.97 L 2573.55,1095.62 L 2585.15,1108.35 L 2598.9,1118.73 L 2614.31,1126.4 L 2630.88,1131.12 L 2643.73,1132.31 L 2652.33,1132.31 L 2665.18,1131.12 L 2681.75,1126.4 L 2697.16,1118.73 L 2710.91,1108.35 L 2722.51,1095.62 L 2731.58,1080.97 L 2737.8,1064.91 L 2740.97,1047.98 L 2740.97,1030.76 L 2737.8,1013.83 L 2731.58,997.768 L 2722.51,983.124 L 2710.91,970.396 L 2697.16,960.016 L 2681.75,952.338 L 2665.18,947.626 L 2652.33,946.434 L 2643.73,946.434 L 2630.88,947.626 L 2614.31,952.338 L 2598.9,960.016 L 2585.15,970.396 L 2573.55,983.124 L 2564.48,997.768 L 2558.26,1013.83 L 2555.09,1030.76 L 2555.09,1047.98M 2727.72,777.166 L 2792.67,777.166 L 2800.76,776.34 L 2813.87,771.998 L 2825.62,764.75 L 2835.38,754.988 L 2842.63,743.24 L 2846.97,730.134 L 2847.79,722.048 L 2847.79,659.056 L 2808.43,659.056 L 2808.43,718.11 L 2808,722.203 L 2806.72,726.117 L 2804.67,729.681 L 2801.91,732.739 L 2798.58,735.158 L 2794.82,736.832 L 2790.8,737.687 L 2788.74,737.795 L 2727.72,737.795 L 2727.72,777.166M 2727.72,540.945 L 2788.74,540.945 L 2790.8,541.053 L 2794.82,541.908 L 2798.58,543.582 L 2801.91,546.001 L 2804.67,549.059 L 2806.72,552.623 L 2808,556.537 L 2808.43,560.63 L 2808.43,619.686 L 2847.79,619.686 L 2847.79,556.696 L 2846.97,548.608 L 2842.63,535.504 L 2835.38,523.754 L 2825.62,513.992 L 2813.87,506.744 L 2800.76,502.402 L 2792.68,501.576 L 2727.72,501.576 L 2727.72,540.945M 3979.51,1039.37 L 3981.06,1063.12 L 3983.6,1075.87 L 3985.71,1086.45 L 3993.35,1108.98 L 4003.88,1130.33 L 4017.1,1150.11 L 4032.79,1168 L 4050.68,1183.69 L 4070.46,1196.91 L 4091.8,1207.43 L 4114.33,1215.08 L 4137.67,1219.72 L 4155.47,1220.89 L 4167.36,1220.89 L 4185.16,1219.72 L 4208.5,1215.08 L 4231.03,1207.43 L 4252.37,1196.91 L 4272.16,1183.69 L 4290.05,1168 L 4305.73,1150.11 L 4318.95,1130.33 L 4329.48,1108.98 L 4337.13,1086.45 L 4341.77,1063.12 L 4343.33,1039.37 L 4341.77,1015.63 L 4337.13,992.29 L 4329.48,969.758 L 4318.95,948.416 L 4305.73,928.632 L 4290.04,910.742 L 4272.15,895.052 L 4252.37,881.834 L 4231.03,871.31 L 4208.5,863.66 L 4185.16,859.018 L 4167.36,857.852 L 4155.47,857.852 L 4137.67,859.018 L 4114.33,863.66 L 4091.8,871.31 L 4070.46,881.834 L 4050.68,895.054 L 4032.79,910.742 L 4017.1,928.632 L 4003.88,948.416 L 3993.35,969.758 L 3985.71,992.29 L 3981.06,1015.63 L 3979.51,1039.37M 4217.3,650.172 L 4220.52,671.53 L 4226.88,692.172 L 4236.26,711.632 L 4248.42,729.48 L 4263.12,745.314 L 4280,758.782 L 4298.71,769.582 L 4318.82,777.472 L 4339.88,782.28 L 4356.02,783.49 L 4366.81,783.49 L 4382.96,782.28 L 4404.01,777.472 L 4424.12,769.582 L 4442.83,758.782 L 4459.72,745.314 L 4466.7,737.788 L 4471.84,734.556 L 4477.91,734.33 L 4483.28,737.168 L 4494.07,754.988 L 4503.83,764.75 L 4515.58,771.998 L 4528.68,776.34 L 4536.77,777.166 L 4601.73,777.166 L 4601.73,737.795 L 4540.71,737.795 L 4538.65,737.687 L 4534.63,736.832 L 4530.87,735.158 L 4527.54,732.739 L 4524.78,729.681 L 4522.73,726.117 L 4521.45,722.203 L 4521.02,718.11 L 4521.02,560.63 L 4521.45,556.537 L 4522.73,552.623 L 4524.78,549.059 L 4527.54,546.001 L 4530.87,543.582 L 4534.63,541.908 L 4538.65,541.053 L 4601.73,540.945 L 4601.73,501.576 L 4536.77,501.576 L 4528.68,502.402 L 4515.58,506.744 L 4503.83,513.992 L 4494.07,523.754 L 4486.82,535.504 L 4486.44,536.666 L 4483.1,541.738 L 4477.67,544.464 L 4471.61,544.112 L 4466.7,540.954 L 4459.72,533.428 L 4442.83,519.962 L 4424.12,509.162 L 4404.01,501.27 L 4382.96,496.464 L 4366.81,495.254 L 4356.02,495.254 L 4339.88,496.464 L 4318.82,501.27 L 4298.71,509.162 L 4280,519.962 L 4263.12,533.428 L 4248.42,549.264 L 4236.26,567.11 L 4226.88,586.572 L 4220.52,607.212 L 4217.3,628.57 L 4217.3,650.172M 4468.48,1047.98 L 4471.64,1064.91 L 4477.87,1080.97 L 4486.93,1095.62 L 4498.54,1108.35 L 4512.28,1118.73 L 4527.7,1126.4 L 4544.27,1131.12 L 4557.12,1132.31 L 4565.71,1132.31 L 4578.57,1131.12 L 4595.13,1126.4 L 4610.55,1118.73 L 4624.3,1108.35 L 4635.9,1095.62 L 4644.97,1080.97 L 4651.19,1064.91 L 4654.35,1047.98 L 4654.35,1030.76 L 4651.19,1013.83 L 4644.97,997.768 L 4635.9,983.124 L 4624.3,970.396 L 4610.55,960.016 L 4595.13,952.338 L 4578.57,947.626 L 4565.71,946.434 L 4557.12,946.434 L 4544.27,947.626 L 4527.7,952.338 L 4512.28,960.016 L 4498.54,970.396 L 4486.93,983.124 L 4477.87,997.768 L 4471.64,1013.83 L 4468.48,1030.76 L 4468.48,1047.98M 4641.1,777.166 L 4706.06,777.166 L 4714.15,776.34 L 4727.25,771.998 L 4739,764.75 L 4748.76,754.988 L 4756.01,743.24 L 4760.35,730.134 L 4761.18,722.048 L 4761.18,659.056 L 4721.81,659.056 L 4721.81,718.11 L 4721.38,722.203 L 4720.11,726.117 L 4718.05,729.681 L 4715.3,732.739 L 4711.97,735.158 L 4708.21,736.832 L 4704.18,737.687 L 4702.13,737.795 L 4641.1,737.795 L 4641.1,777.166M 4641.1,540.945 L 4702.13,540.945 L 4704.18,541.053 L 4708.21,541.908 L 4711.97,543.582 L 4715.3,546.001 L 4718.05,549.059 L 4720.11,552.623 L 4721.38,556.537 L 4721.81,560.63 L 4721.81,619.686 L 4761.18,619.686 L 4761.18,556.696 L 4760.35,548.608 L 4756.01,535.504 L 4748.76,523.754 L 4739,513.992 L 4727.25,506.744 L 4714.15,502.402 L 4706.06,501.576 L 4641.1,501.576 L 4641.1,540.945M 5892.89,1039.37 L 5894.45,1063.12 L 5896.99,1075.87 L 5899.09,1086.45 L 5906.74,1108.98 L 5917.26,1130.33 L 5930.48,1150.11 L 5946.17,1168 L 5964.06,1183.69 L 5983.85,1196.91 L 6005.19,1207.43 L 6027.72,1215.08 L 6051.06,1219.72 L 6068.86,1220.89 L 6080.74,1220.89 L 6098.55,1219.72 L 6121.88,1215.08 L 6144.42,1207.43 L 6165.76,1196.91 L 6185.54,1183.69 L 6203.43,1168 L 6219.12,1150.11 L 6232.34,1130.33 L 6242.86,1108.98 L 6250.51,1086.45 L 6255.15,1063.12 L 6256.71,1039.37 L 6255.15,1015.63 L 6250.51,992.29 L 6242.86,969.758 L 6232.34,948.416 L 6219.12,928.632 L 6203.43,910.742 L 6185.54,895.052 L 6165.76,881.834 L 6144.42,871.31 L 6121.88,863.66 L 6098.55,859.018 L 6080.74,857.852 L 6068.86,857.852 L 6051.06,859.018 L 6027.72,863.66 L 6005.19,871.31 L 5983.85,881.834 L 5964.06,895.054 L 5946.17,910.742 L 5930.48,928.632 L 5917.26,948.416 L 5906.74,969.758 L 5899.09,992.29 L 5894.45,1015.63 L 5892.89,1039.37M 6130.68,650.172 L 6133.9,671.53 L 6140.27,692.172 L 6149.64,711.632 L 6161.81,729.48 L 6176.5,745.314 L 6193.39,758.782 L 6212.1,769.582 L 6232.2,777.472 L 6253.26,782.28 L 6269.41,783.49 L 6280.19,783.49 L 6296.34,782.28 L 6317.4,777.472 L 6337.51,769.582 L 6356.21,758.782 L 6373.1,745.314 L 6380.08,737.788 L 6385.23,734.556 L 6391.3,734.33 L 6396.67,737.168 L 6407.45,754.988 L 6417.22,764.75 L 6428.97,771.998 L 6442.07,776.34 L 6450.16,777.166 L 6515.12,777.166 L 6515.12,737.795 L 6454.09,737.795 L 6452.04,737.687 L 6448.01,736.832 L 6444.25,735.158 L 6440.92,732.739 L 6438.17,729.681 L 6436.11,726.117 L 6434.84,722.203 L 6434.41,718.11 L 6434.41,560.63 L 6434.84,556.537 L 6436.11,552.623 L 6438.17,549.059 L 6440.92,546.001 L 6444.25,543.582 L 6448.01,541.908 L 6452.04,541.053 L 6515.12,540.945 L 6515.12,501.576 L 6450.16,501.576 L 6442.07,502.402 L 6428.97,506.744 L 6417.22,513.992 L 6407.45,523.754 L 6400.21,535.504 L 6399.82,536.666 L 6396.48,541.738 L 6391.06,544.464 L 6384.99,544.112 L 6380.08,540.954 L 6373.1,533.428 L 6356.21,519.962 L 6337.51,509.162 L 6317.4,501.27 L 6296.34,496.464 L 6280.19,495.254 L 6269.41,495.254 L 6253.26,496.464 L 6232.2,501.27 L 6212.1,509.162 L 6193.39,519.962 L 6176.5,533.428 L 6161.81,549.264 L 6149.64,567.11 L 6140.27,586.572 L 6133.9,607.212 L 6130.68,628.57 L 6130.68,650.172M 6381.86,1047.98 L 6385.03,1064.91 L 6391.25,1080.97 L 6400.32,1095.62 L 6411.92,1108.35 L 6425.67,1118.73 L 6441.09,1126.4 L 6457.65,1131.12 L 6470.5,1132.31 L 6479.1,1132.31 L 6491.95,1131.12 L 6508.52,1126.4 L 6523.94,1118.73 L 6537.68,1108.35 L 6549.28,1095.62 L 6558.35,1080.97 L 6564.57,1064.91 L 6567.74,1047.98 L 6567.74,1030.76 L 6564.57,1013.83 L 6558.35,997.768 L 6549.28,983.124 L 6537.68,970.396 L 6523.94,960.016 L 6508.52,952.338 L 6491.95,947.626 L 6479.1,946.434 L 6470.5,946.434 L 6457.65,947.626 L 6441.09,952.338 L 6425.67,960.016 L 6411.92,970.396 L 6400.32,983.124 L 6391.25,997.768 L 6385.03,1013.83 L 6381.86,1030.76 L 6381.86,1047.98M 6554.49,777.166 L 6619.45,777.166 L 6627.53,776.34 L 6640.64,771.998 L 6652.39,764.75 L 6662.15,754.988 L 6669.4,743.24 L 6673.74,730.134 L 6674.57,722.048 L 6674.57,659.056 L 6635.2,659.056 L 6635.2,718.11 L 6634.77,722.203 L 6633.49,726.117 L 6631.44,729.681 L 6628.68,732.739 L 6625.35,735.158 L 6621.59,736.832 L 6617.57,737.687 L 6615.51,737.795 L 6554.49,737.795 L 6554.49,777.166M 6554.49,540.945 L 6615.51,540.945 L 6617.57,541.053 L 6621.59,541.908 L 6625.35,543.582 L 6628.68,546.001 L 6631.44,549.059 L 6633.49,552.623 L 6634.77,556.537 L 6635.2,560.63 L 6635.2,619.686 L 6674.57,619.686 L 6674.57,556.696 L 6673.74,548.608 L 6669.4,535.504 L 6662.15,523.754 L 6652.39,513.992 L 6640.64,506.744 L 6627.53,502.402 L 6619.45,501.576 L 6554.49,501.576 L 6554.49,540.945M 9667.93,1642.77 L 9668.72,1649.32 L 9672.47,1654.75 L 9678.31,1657.81 L 9681.61,1658.21 L 9687.51,1658.21 L 9687.51,1690.37 L 9689.09,1696.77 L 9693.46,1701.71 L 9699.63,1704.05 L 9706.18,1703.25 L 9711.6,1699.5 L 9714.67,1693.66 L 9715.07,1690.37 L 9715.07,1658.21 L 9766.91,1658.21 L 9769.66,1657.94 L 9773.31,1656.64 L 9775.62,1655.11 L 9778.25,1652.26 L 9779.58,1649.84 L 9780.59,1646.1 L 9780.64,1643.33 L 9779.98,1640.08 L 9747.17,1541.65 L 9743.65,1536.08 L 9737.94,1532.78 L 9731.35,1532.51 L 9725.39,1535.33 L 9721.42,1540.6 L 9720.36,1547.11 L 9721.03,1550.37 L 9747.79,1630.65 L 9715.07,1630.65 L 9715.07,1598.5 L 9713.49,1592.1 L 9709.12,1587.16 L 9702.95,1584.82 L 9696.4,1585.62 L 9690.98,1589.37 L 9687.91,1595.2 L 9687.51,1598.5 L 9687.51,1630.65 L 9681.61,1630.65 L 9675.2,1632.23 L 9670.27,1636.61 L 9667.93,1642.77M 9805.62,1578.82 L 9805.67,1593.04 L 9806.33,1596.3 L 9812.89,1615.98 L 9813.71,1617.28 L 9814.17,1618.75 L 9816.22,1621.37 L 9871.44,1676.59 L 9819.4,1676.59 L 9813,1678.16 L 9808.06,1682.54 L 9805.72,1688.71 L 9806.52,1695.25 L 9810.26,1700.68 L 9816.1,1703.75 L 9819.4,1704.15 L 9904.7,1704.15 L 9907.19,1703.92 L 9911.11,1702.57 L 9913.2,1701.21 L 9916.04,1698.19 L 9917.27,1696.02 L 9918.38,1692.03 L 9918.46,1689.53 L 9917.59,1685.48 L 9916.49,1683.24 L 9914.45,1680.62 L 9838.01,1604.18 L 9833.18,1589.7 L 9833.18,1582.07 L 9837.29,1573.86 L 9840.69,1570.46 L 9848.9,1566.35 L 9875.2,1566.35 L 9883.42,1570.46 L 9888.4,1575.44 L 9894.04,1578.85 L 9900.62,1579.25 L 9906.64,1576.54 L 9910.71,1571.35 L 9911.9,1564.86 L 9909.93,1558.57 L 9907.88,1555.95 L 9900.51,1548.64 L 9897.74,1546.81 L 9884.62,1540.25 L 9883.12,1539.91 L 9881.75,1539.19 L 9878.46,1538.79 L 9845.65,1538.79 L 9844.15,1539.16 L 9842.61,1539.13 L 9839.49,1540.25 L 9825.4,1547.34 L 9822.78,1549.39 L 9815.47,1556.76 L 9813.64,1559.53 L 9807.08,1572.66 L 9806.74,1574.16 L 9806.02,1575.52 L 9805.62,1578.82M 9917.19,1125.25 L 9918.39,1131.73 L 9920.11,1134.57 L 9949.51,1171.99 L 9920.11,1209.41 L 9917.4,1215.42 L 9917.79,1222.01 L 9921.19,1227.66 L 9926.83,1231.07 L 9933.41,1231.48 L 9939.43,1228.78 L 9941.78,1226.44 L 9967.04,1194.3 L 9992.29,1226.44 L 9997.49,1230.5 L 10004,1231.68 L 10010.3,1229.71 L 10014.9,1225.04 L 10016.9,1218.74 L 10015.7,1212.25 L 10014,1209.41 L 9984.56,1171.99 L 10014,1134.57 L 10016.7,1128.56 L 10016.3,1121.98 L 10012.9,1116.33 L 10007.2,1112.91 L 10000.7,1112.5 L 9994.64,1115.2 L 9992.29,1117.55 L 9967.04,1149.69 L 9941.78,1117.55 L 9936.59,1113.49 L 9930.1,1112.31 L 9923.8,1114.28 L 9919.15,1118.95 L 9917.19,1125.25M 9936.85,1637.92 L 9937.27,1641.21 L 9943.83,1667.46 L 9944.87,1670.28 L 9951.97,1684.37 L 9954.01,1686.99 L 9960.58,1693.55 L 9964.16,1696.13 L 9977.28,1702.69 L 9978.78,1703.03 L 9980.15,1703.75 L 9983.44,1704.15 L 9996.57,1704.15 L 9998.06,1703.78 L 9999.6,1703.81 L 10002.7,1702.69 L 10016.8,1695.6 L 10019.4,1693.55 L 10026.7,1686.18 L 10028.6,1683.41 L 10035.1,1670.28 L 10036.2,1667.46 L 10042.8,1641.17 L 10043.2,1637.87 L 10043.2,1605.02 L 10042.7,1601.72 L 10036.2,1575.48 L 10035.1,1572.66 L 10028.6,1559.53 L 10026,1555.95 L 10018.6,1548.64 L 10015.9,1546.81 L 10002.7,1540.25 L 10001.2,1539.91 L 9999.86,1539.19 L 9996.57,1538.79 L 9983.44,1538.79 L 9981.95,1539.16 L 9980.41,1539.13 L 9977.28,1540.25 L 9964.16,1546.81 L 9960.58,1549.39 L 9953.27,1556.76 L 9951.43,1559.53 L 9944.87,1572.66 L 9943.83,1575.48 L 9937.27,1601.72 L 9936.85,1605.06 L 9936.85,1637.92M 10035.3,1145.75 L 10035.5,1161.13 L 10036.9,1165.27 L 10038.1,1167.19 L 10041.2,1170.21 L 10043.2,1171.34 L 10046.4,1172.38 L 10100.9,1183.29 L 10100.9,1194.99 L 10097.8,1201.09 L 10091.7,1204.15 L 10072,1204.15 L 10061.8,1199.04 L 10055.4,1197.59 L 10049,1199.29 L 10044.1,1203.76 L 10041.9,1209.97 L 10042.8,1216.5 L 10046.7,1221.86 L 10049.5,1223.69 L 10062.6,1230.25 L 10064.1,1230.59 L 10065.4,1231.3 L 10068.7,1231.7 L 10095,1231.7 L 10096.5,1231.34 L 10098,1231.37 L 10101.2,1230.25 L 10114.3,1223.69 L 10118.6,1220.3 L 10119.3,1219.41 L 10127,1204.4 L 10127.3,1202.9 L 10128.1,1201.54 L 10128.5,1198.24 L 10128.5,1145.75 L 10128.1,1144.25 L 10128.1,1142.71 L 10127,1139.58 L 10120.4,1126.46 L 10117,1122.13 L 10114.3,1120.3 L 10101.2,1113.74 L 10099.7,1113.4 L 10098.3,1112.68 L 10095,1112.28 L 10068.7,1112.28 L 10067.3,1112.65 L 10065.7,1112.62 L 10062.6,1113.74 L 10049.5,1120.3 L 10045.1,1123.69 L 10044.4,1124.57 L 10036.7,1139.58 L 10036.4,1141.09 L 10035.7,1142.45 L 10035.3,1145.75M 10061.5,1416.07 L 10061.9,1419.36 L 10068.5,1445.61 L 10069.5,1448.43 L 10076.6,1462.52 L 10078.7,1465.14 L 10085.2,1471.7 L 10088.8,1474.28 L 10102,1480.84 L 10104.8,1481.89 L 10108.1,1482.3 L 10121.2,1482.3 L 10122.7,1481.93 L 10124.3,1481.96 L 10127.4,1480.84 L 10141.5,1473.75 L 10144.1,1471.7 L 10151.4,1464.33 L 10153.2,1461.55 L 10159.8,1448.43 L 10160.9,1445.61 L 10167.4,1419.32 L 10167.8,1416.02 L 10167.8,1383.17 L 10167.4,1379.87 L 10160.9,1353.63 L 10159.8,1350.8 L 10153.2,1337.68 L 10150.7,1334.1 L 10143.3,1326.79 L 10140.5,1324.96 L 10127.4,1318.4 L 10124.5,1317.34 L 10121.2,1316.94 L 10108.1,1316.94 L 10106.6,1317.31 L 10105.1,1317.28 L 10102,1318.4 L 10088.8,1324.96 L 10085.2,1327.54 L 10077.9,1334.91 L 10076.1,1337.68 L 10069.5,1350.8 L 10068.5,1353.63 L 10061.9,1379.87 L 10061.5,1383.21 L 10061.5,1416.07M 10068.1,1578.82 L 10068.1,1593.04 L 10068.8,1596.3 L 10075.4,1615.98 L 10076.2,1617.28 L 10076.6,1618.75 L 10078.7,1621.37 L 10133.9,1676.59 L 10081.9,1676.59 L 10075.5,1678.16 L 10070.5,1682.54 L 10068.2,1688.71 L 10069,1695.25 L 10072.7,1700.68 L 10078.6,1703.75 L 10081.9,1704.15 L 10167.2,1704.15 L 10169.7,1703.92 L 10173.6,1702.57 L 10175.7,1701.21 L 10178.5,1698.19 L 10179.7,1696.02 L 10180.8,1692.03 L 10180.9,1689.53 L 10180.1,1685.48 L 10179,1683.24 L 10176.9,1680.62 L 10100.5,1604.18 L 10095.6,1589.7 L 10095.6,1582.07 L 10099.8,1573.86 L 10103.2,1570.46 L 10111.4,1566.35 L 10137.7,1566.35 L 10145.9,1570.46 L 10150.9,1575.44 L 10156.5,1578.85 L 10163.1,1579.25 L 10169.1,1576.54 L 10173.2,1571.35 L 10174.4,1564.86 L 10172.4,1558.57 L 10170.4,1555.95 L 10163,1548.64 L 10160.2,1546.81 L 10147.1,1540.25 L 10145.6,1539.91 L 10144.2,1539.19 L 10140.9,1538.79 L 10108.1,1538.79 L 10106.6,1539.16 L 10105.1,1539.13 L 10102,1540.25 L 10087.9,1547.34 L 10085.2,1549.39 L 10077.9,1556.76 L 10076.1,1559.53 L 10069.5,1572.66 L 10068.5,1575.52 L 10068.1,1578.82M 10153.4,1126.06 L 10153.8,1127.56 L 10153.7,1129.1 L 10154.8,1132.22 L 10161.4,1145.35 L 10164,1148.93 L 10171.4,1156.24 L 10174.1,1158.07 L 10187.6,1164.71 L 10155.9,1210.02 L 10153.5,1216.17 L 10154.3,1222.73 L 10158,1228.18 L 10163.8,1231.28 L 10170.4,1231.33 L 10176.2,1228.3 L 10178.5,1225.83 L 10220.3,1166.09 L 10232.1,1166.09 L 10232.1,1217.93 L 10233.7,1224.33 L 10238.1,1229.27 L 10244.3,1231.6 L 10250.8,1230.81 L 10256.2,1227.06 L 10259.3,1221.22 L 10259.7,1217.93 L 10259.7,1080.13 L 10258.8,1075.24 L 10258.1,1073.73 L 10255,1069.82 L 10253.7,1068.79 L 10249.2,1066.75 L 10247.6,1066.45 L 10193.4,1066.35 L 10191.9,1066.72 L 10190.4,1066.69 L 10187.3,1067.81 L 10173.2,1074.9 L 10170.6,1076.95 L 10164,1083.51 L 10161.4,1087.09 L 10154.8,1100.21 L 10154.5,1101.72 L 10153.8,1103.08 L 10153.4,1106.38 L 10153.4,1126.06M 10297.8,1462.79 L 10298,1464.44 L 10299.7,1469.08 L 10301.8,1471.7 L 10308.3,1478.26 L 10310.3,1479.86 L 10314,1481.67 L 10316.4,1482.19 L 10318.9,1482.27 L 10323,1481.4 L 10325.2,1480.31 L 10327.8,1478.26 L 10334.4,1471.7 L 10337.2,1467.61 L 10337.8,1466.05 L 10338.4,1461.12 L 10338.2,1459.47 L 10336.4,1454.83 L 10334.4,1452.21 L 10327.8,1445.65 L 10325.9,1444.05 L 10322.2,1442.24 L 10319.8,1441.71 L 10317.3,1441.64 L 10313.2,1442.51 L 10311,1443.6 L 10308.3,1445.65 L 10301.8,1452.21 L 10299,1456.3 L 10298.4,1457.85 L 10297.8,1462.79M 10297.8,1390.61 L 10298,1392.26 L 10299.7,1396.9 L 10301.8,1399.52 L 10308.3,1406.08 L 10310.3,1407.68 L 10314,1409.49 L 10316.4,1410.02 L 10318.9,1410.09 L 10323,1409.22 L 10325.2,1408.13 L 10327.8,1406.08 L 10334.4,1399.52 L 10337.2,1395.43 L 10337.8,1393.87 L 10338.4,1388.94 L 10338.2,1387.29 L 10336.4,1382.65 L 10334.4,1380.03 L 10327.8,1373.47 L 10325.9,1371.87 L 10322.2,1370.06 L 10319.8,1369.53 L 10317.3,1369.46 L 10313.2,1370.33 L 10311,1371.42 L 10308.3,1373.47 L 10301.8,1380.03 L 10299,1384.12 L 10298.4,1385.68 L 10297.8,1390.61M 10304.3,1684.64 L 10304.5,1686.29 L 10306.3,1690.93 L 10308.3,1693.55 L 10314.9,1700.11 L 10316.8,1701.71 L 10320.6,1703.52 L 10323,1704.05 L 10325.5,1704.12 L 10329.5,1703.25 L 10331.8,1702.16 L 10334.4,1700.11 L 10341,1693.55 L 10343.8,1689.46 L 10344.4,1687.9 L 10345,1682.97 L 10344.8,1681.32 L 10343,1676.68 L 10341,1674.06 L 10334.4,1667.5 L 10332.5,1665.9 L 10330.3,1664.68 L 10326.3,1663.56 L 10323.8,1663.49 L 10319.8,1664.36 L 10317.5,1665.45 L 10314.9,1667.5 L 10308.3,1674.06 L 10305.5,1678.15 L 10304.9,1679.71 L 10304.3,1684.64M 10356.9,1378.05 L 10357.6,1381.29 L 10390.4,1473.15 L 10392.2,1476.56 L 10394.1,1478.65 L 10397.2,1480.84 L 10399.8,1481.83 L 10403.7,1482.29 L 10406.4,1481.96 L 10410,1480.59 L 10412.3,1479.01 L 10414.9,1476.12 L 10416.4,1473.15 L 10449.2,1381.29 L 10449.8,1374.73 L 10447.4,1368.61 L 10442.4,1364.33 L 10435.9,1362.88 L 10429.6,1364.58 L 10424.7,1369.05 L 10423.2,1372.02 L 10403.4,1427.55 L 10383.6,1372.02 L 10379.9,1366.52 L 10374.1,1363.34 L 10367.5,1363.21 L 10361.6,1366.16 L 10357.8,1371.52 L 10356.9,1378.05M 10376.5,1690.37 L 10378.1,1696.77 L 10382.4,1701.71 L 10388.6,1704.05 L 10395.2,1703.25 L 10400.6,1699.5 L 10403.6,1693.66 L 10404,1690.37 L 10404,1621.44 L 10407.1,1615.33 L 10413.2,1612.28 L 10426.4,1612.28 L 10434.6,1616.39 L 10435.5,1617.33 L 10435.5,1690.37 L 10437.1,1696.77 L 10441.5,1701.71 L 10447.7,1704.05 L 10454.2,1703.25 L 10459.6,1699.5 L 10462.7,1693.66 L 10463.1,1690.37 L 10463.1,1598.5 L 10461.5,1592.1 L 10457.2,1587.16 L 10451,1584.82 L 10444.4,1585.62 L 10440.3,1588.45 L 10435.8,1586.18 L 10432.9,1585.12 L 10429.6,1584.72 L 10410,1584.72 L 10408.5,1585.09 L 10406.9,1585.06 L 10403.8,1586.18 L 10390.7,1592.74 L 10386.3,1596.13 L 10385.6,1597.02 L 10377.9,1612.03 L 10377.6,1613.53 L 10376.9,1614.89 L 10376.5,1618.19 L 10376.5,1690.37M 10396.2,1212.2 L 10396.4,1213.85 L 10398.2,1218.49 L 10400.2,1221.11 L 10406.8,1227.67 L 10408.7,1229.27 L 10410.9,1230.49 L 10414.9,1231.6 L 10417.3,1231.68 L 10421.4,1230.81 L 10423.6,1229.72 L 10426.3,1227.67 L 10432.8,1221.11 L 10435.6,1217.02 L 10436.2,1215.46 L 10436.8,1210.53 L 10436.6,1208.88 L 10434.9,1204.23 L 10432.8,1201.62 L 10426.3,1195.06 L 10424.3,1193.46 L 10420.6,1191.65 L 10418.2,1191.12 L 10415.7,1191.05 L 10411.6,1191.92 L 10409.4,1193.01 L 10406.8,1195.06 L 10400.2,1201.62 L 10397.4,1205.71 L 10396.8,1207.26 L 10396.2,1212.2M 10457.5,581.804 L 10471.3,587.707 L 10482.6,595.931 L 10491.9,606.329 L 10498.9,618.447 L 10501.4,625.986 L 10542.6,625.986 L 10538.1,609.176 L 10530.2,592.318 L 10519.5,577.082 L 10506.4,563.93 L 10491.1,553.262 L 10474.3,545.4 L 10457.5,540.896 L 10457.5,581.804M 10468.4,1396.34 L 10468.5,1411.73 L 10469.9,1415.86 L 10471.1,1417.78 L 10474.3,1420.8 L 10476.3,1421.93 L 10479.4,1422.97 L 10534,1433.88 L 10534,1445.58 L 10530.9,1451.68 L 10524.8,1454.74 L 10505.1,1454.74 L 10494.9,1449.63 L 10488.4,1448.18 L 10482.1,1449.88 L 10477.2,1454.35 L 10475,1460.56 L 10475.9,1467.09 L 10479.8,1472.45 L 10482.5,1474.28 L 10495.7,1480.84 L 10498.5,1481.89 L 10501.8,1482.3 L 10528.1,1482.3 L 10529.6,1481.93 L 10531.1,1481.96 L 10534.2,1480.84 L 10547.3,1474.28 L 10551.7,1470.89 L 10552.4,1470 L 10560.1,1454.99 L 10560.4,1453.49 L 10561.1,1452.13 L 10561.5,1448.83 L 10561.5,1396.34 L 10561.2,1394.84 L 10561.2,1393.3 L 10560.1,1390.17 L 10553.5,1377.05 L 10550.1,1372.72 L 10547.3,1370.89 L 10534.2,1364.33 L 10532.7,1363.99 L 10531.4,1363.27 L 10528.1,1362.87 L 10501.8,1362.87 L 10500.3,1363.24 L 10498.8,1363.21 L 10495.7,1364.33 L 10482.5,1370.89 L 10478.2,1374.28 L 10477.5,1375.16 L 10469.8,1390.17 L 10468.8,1393.04 L 10468.4,1396.34M 10468.4,1217.93 L 10469.9,1224.33 L 10474.3,1229.27 L 10480.5,1231.6 L 10487,1230.81 L 10492.4,1227.06 L 10495.5,1221.22 L 10495.9,1217.93 L 10495.9,1080.13 L 10494.3,1073.73 L 10490,1068.79 L 10483.8,1066.45 L 10477.2,1067.25 L 10471.8,1070.99 L 10468.8,1076.83 L 10468.4,1080.13 L 10468.4,1217.93M 10501.2,1690.37 L 10502.7,1696.77 L 10507.1,1701.71 L 10513.3,1704.05 L 10519.8,1703.25 L 10521.2,1702.32 L 10524.8,1703.75 L 10528.1,1704.15 L 10560.9,1704.15 L 10562.4,1703.78 L 10563.9,1703.81 L 10567,1702.69 L 10580.2,1696.13 L 10584.5,1692.74 L 10585.2,1691.85 L 10592.9,1676.84 L 10593.9,1673.98 L 10594.3,1670.68 L 10594.3,1657.56 L 10594,1656.06 L 10594,1654.52 L 10592.9,1651.4 L 10586.3,1638.27 L 10582.9,1633.94 L 10580.2,1632.11 L 10567,1625.55 L 10564.2,1624.49 L 10560.9,1624.09 L 10531.3,1624.09 L 10528.7,1622.79 L 10528.7,1621.44 L 10531.8,1615.33 L 10537.9,1612.28 L 10557.6,1612.28 L 10567.8,1617.39 L 10574.3,1618.84 L 10580.6,1617.14 L 10585.5,1612.67 L 10587.7,1606.46 L 10586.8,1599.93 L 10582.9,1594.57 L 10580.2,1592.74 L 10567,1586.18 L 10564.2,1585.12 L 10560.9,1584.72 L 10534.6,1584.72 L 10533.1,1585.09 L 10531.6,1585.06 L 10528.5,1586.18 L 10515.3,1592.74 L 10511,1596.13 L 10510.3,1597.02 L 10502.6,1612.03 L 10501.6,1614.89 L 10501.2,1618.19 L 10501.2,1690.37M 10586.5,1376.65 L 10586.8,1378.15 L 10586.8,1379.69 L 10587.9,1382.81 L 10594.5,1395.94 L 10597.1,1399.52 L 10604.4,1406.83 L 10607.2,1408.66 L 10620.7,1415.3 L 10589,1460.61 L 10586.6,1466.76 L 10587.3,1473.32 L 10591,1478.77 L 10596.9,1481.87 L 10603.5,1481.92 L 10609.3,1478.89 L 10611.5,1476.42 L 10653.3,1416.68 L 10665.2,1416.68 L 10665.2,1468.52 L 10666.8,1474.92 L 10671.2,1479.86 L 10677.3,1482.19 L 10683.9,1481.4 L 10689.3,1477.65 L 10692.4,1471.81 L 10692.8,1468.52 L 10692.8,1330.72 L 10691.9,1325.83 L 10691.2,1324.32 L 10688.1,1320.41 L 10686.8,1319.38 L 10682.3,1317.34 L 10680.6,1317.04 L 10626.5,1316.94 L 10625,1317.31 L 10623.5,1317.28 L 10620.3,1318.4 L 10606.2,1325.49 L 10603.6,1327.54 L 10597.1,1334.1 L 10594.5,1337.68 L 10587.9,1350.8 L 10586.9,1353.67 L 10586.5,1356.97 L 10586.5,1376.65M 10625.8,1552.57 L 10625.9,1652.1 L 10626.5,1655.35 L 10633.1,1675.04 L 10633.9,1676.34 L 10634.4,1677.81 L 10636.4,1680.42 L 10649.6,1693.55 L 10650.9,1694.34 L 10651.9,1695.45 L 10654.9,1696.88 L 10675.7,1703.75 L 10679,1704.15 L 10692.1,1704.15 L 10698.5,1702.57 L 10703.4,1698.19 L 10705.8,1692.03 L 10705,1685.48 L 10701.2,1680.05 L 10695.4,1676.99 L 10692.1,1676.59 L 10681.2,1676.59 L 10666.7,1671.76 L 10658.2,1663.24 L 10653.4,1648.76 L 10653.4,1552.57 L 10651.8,1546.17 L 10647.4,1541.23 L 10641.3,1538.89 L 10634.7,1539.69 L 10629.3,1543.43 L 10626.2,1549.27 L 10625.8,1552.57M 11124.3,1130.75 L 11124.8,1164.57 L 11128,1198.42 L 11131.7,1217.26 L 11133.8,1225.56 L 11136.2,1231.93 L 11137.3,1233.97 L 11148.9,1261.97 L 11149.6,1264.3 L 11153.2,1272.04 L 11156.9,1277.96 L 11159.4,1283.52 L 11159.3,1287.5 L 11158.7,1290.74 L 11158.7,1293.16 L 11159.8,1302.13 L 11160.7,1304.25 L 11161.5,1307.75 L 11166.8,1319.32 L 11168.8,1321.87 L 11174.9,1331.78 L 11190.7,1354.51 L 11215.8,1383.02 L 11217.1,1384.94 L 11223.1,1391.12 L 11228.2,1395.4 L 11230.2,1396.66 L 11263.1,1422.35 L 11311.4,1448.57 L 11365,1468.35 L 11422.6,1481.86 L 11435.1,1483.98 L 11452.6,1486.01 L 11479.4,1487.9 L 11510.2,1489.2 L 11542.7,1489.9 L 11579.7,1489.93 L 11609,1489.22 L 11633.5,1487.72 L 11668.1,1483.68 L 11700.9,1479.18 L 11734.8,1474.01 L 11762.9,1469.39 L 11793.1,1463.95 L 11822.8,1457.88 L 11834.5,1455 L 11876.8,1441.71 L 11908,1427.68 L 11915.7,1423.92 L 11938.9,1408.14 L 11941.6,1406.73 L 11948.2,1401.23 L 11951.6,1398.03 L 11953.3,1395.52 L 11965.4,1382.1 L 11968.4,1379.33 L 11973.5,1371.21 L 11974.8,1367.33 L 11984.3,1345.28 L 11985.7,1338.29 L 11985.7,1313.95 L 11986.1,1309.32 L 11984.6,1301.16 L 11982.7,1296.92 L 11976.4,1279.92 L 11975.6,1276.71 L 11969.7,1265.61 L 11967.5,1263.15 L 11959.3,1251.56 L 11957.9,1249.04 L 11952.4,1242.49 L 11948.8,1238.76 L 11946.4,1237.12 L 11933.3,1225.4 L 11931.6,1223.5 L 11924.8,1218.2 L 11919.7,1214.92 L 11917.4,1213.89 L 11890.5,1198.39 L 11848.4,1181.7 L 11827.1,1175.42 L 11808.7,1170.55 L 11803.6,1167.25 L 11800.8,1161.84 L 11801,1156.35 L 11808.5,1123.15 L 11814.5,1093.53 L 11820.5,1059.27 L 11825.3,1025.23 L 11828.6,988.91 L 11830.5,949.502 L 11831,908.836 L 11830.3,868.776 L 11828.1,827.236 L 11825,797.332 L 11820.6,770.93 L 11804.6,715.382 L 11783.3,666.978 L 11761.3,633.102 L 11760.2,630.942 L 11755.1,624.024 L 11750.8,619.244 L 11748.9,617.688 L 11729.2,597.556 L 11727.5,595.32 L 11723.5,591.728 L 11716.7,586.516 L 11714.2,585.276 L 11684.6,566.13 L 11676,562.11 L 11643.6,551.72 L 11640.8,550.464 L 11636.1,549.332 L 11627.7,547.898 L 11624.7,548.036 L 11598.3,546.066 L 11595.6,545.544 L 11590,545.45 L 11581.5,546.036 L 11578.8,546.744 L 11552,550.642 L 11549.6,550.754 L 11543.1,551.938 L 11534.8,554.364 L 11532.7,555.34 L 11496,568.098 L 11450.4,592.54 L 11406,624.524 L 11361.9,664.25 L 11319.5,710.344 L 11299.1,734.94 L 11276,763.916 L 11274,766.822 L 11269.6,775.956 L 11267.7,785.416 L 11267.6,788.554 L 11268.5,796.838 L 11269.2,799.884 L 11272.4,807.594 L 11274,810.302 L 11279.2,816.81 L 11283.5,820.624 L 11290.4,825.646 L 11294.7,828.28 L 11297.4,829.328 L 11301.8,831.716 L 11307,835.62 L 11312.9,841.846 L 11316.3,847.3 L 11317.3,849.156 L 11318.4,854.966 L 11319.1,868.494 L 11318.9,897.26 L 11318,906.632 L 11316.5,913.238 L 11312.3,923.59 L 11308.6,931.198 L 11291.3,959.226 L 11271.8,981.022 L 11270.1,982.594 L 11250.7,996.818 L 11248.4,998.118 L 11229.1,1006.52 L 11226.3,1007.34 L 11202.7,1010.99 L 11180.5,1010.99 L 11177.8,1010.68 L 11166.4,1011.54 L 11163.8,1012.21 L 11155.7,1015.58 L 11153.4,1016.97 L 11146.6,1022.47 L 11144.7,1024.46 L 11139.7,1031.66 L 11138.5,1034.09 L 11136.8,1039.7 L 11135.3,1045.07 L 11135,1047.81 L 11130.1,1070.82 L 11126,1099.78 L 11124.3,1130.75M 13822,1039.37 L 13823.6,1063.12 L 13828.2,1086.45 L 13835.9,1108.98 L 13846.4,1130.33 L 13859.6,1150.11 L 13875.3,1168 L 13893.2,1183.69 L 13913,1196.91 L 13934.3,1207.43 L 13956.9,1215.08 L 13980.2,1219.72 L 13998,1220.89 L 14009.9,1220.89 L 14027.7,1219.72 L 14051,1215.08 L 14073.6,1207.43 L 14094.9,1196.91 L 14114.7,1183.69 L 14132.6,1168 L 14148.3,1150.11 L 14161.5,1130.33 L 14172,1108.98 L 14179.6,1086.45 L 14184.3,1063.12 L 14185.8,1039.37 L 14184.3,1015.63 L 14179.6,992.29 L 14172,969.758 L 14161.5,948.416 L 14148.3,928.632 L 14132.6,910.742 L 14114.7,895.052 L 14094.9,881.834 L 14073.6,871.31 L 14051,863.66 L 14027.7,859.018 L 14009.9,857.852 L 13998,857.852 L 13980.2,859.018 L 13956.9,863.66 L 13934.3,871.31 L 13913,881.834 L 13893.2,895.054 L 13875.3,910.742 L 13859.6,928.632 L 13846.4,948.416 L 13835.9,969.758 L 13828.2,992.29 L 13823.6,1015.63 L 13822,1039.37M 14059.8,650.172 L 14063,671.53 L 14069.4,692.172 L 14078.8,711.632 L 14090.9,729.48 L 14105.6,745.314 L 14122.5,758.782 L 14141.2,769.582 L 14161.3,777.472 L 14182.4,782.28 L 14198.5,783.49 L 14209.3,783.49 L 14225.5,782.28 L 14246.5,777.472 L 14266.6,769.582 L 14285.3,758.782 L 14302.2,745.314 L 14309.2,737.788 L 14314.4,734.556 L 14320.4,734.33 L 14325.8,737.168 L 14336.6,754.988 L 14346.4,764.75 L 14358.1,771.998 L 14371.2,776.34 L 14379.3,777.166 L 14444.3,777.166 L 14444.3,737.795 L 14383.2,737.795 L 14381.2,737.687 L 14377.1,736.832 L 14373.4,735.158 L 14370.1,732.739 L 14367.3,729.681 L 14365.2,726.117 L 14364,722.203 L 14363.5,718.11 L 14363.5,560.63 L 14364,556.537 L 14365.2,552.623 L 14367.3,549.059 L 14370.1,546.001 L 14373.4,543.582 L 14377.1,541.908 L 14381.2,541.053 L 14444.3,540.945 L 14444.3,501.576 L 14379.3,501.576 L 14371.2,502.402 L 14358.1,506.744 L 14346.4,513.992 L 14336.6,523.754 L 14329.3,535.504 L 14329,536.666 L 14325.6,541.738 L 14320.2,544.464 L 14314.1,544.112 L 14309.2,540.954 L 14302.2,533.428 L 14285.3,519.962 L 14266.6,509.162 L 14246.5,501.27 L 14225.5,496.464 L 14209.3,495.254 L 14198.5,495.254 L 14182.4,496.464 L 14161.3,501.27 L 14141.2,509.162 L 14122.5,519.962 L 14105.6,533.428 L 14090.9,549.264 L 14078.8,567.11 L 14069.4,586.572 L 14063,607.212 L 14059.8,628.57 L 14059.8,650.172M 14311,1047.98 L 14314.2,1064.91 L 14320.4,1080.97 L 14329.5,1095.62 L 14341.1,1108.35 L 14354.8,1118.73 L 14370.2,1126.4 L 14386.8,1131.12 L 14399.6,1132.31 L 14408.2,1132.31 L 14421.1,1131.12 L 14437.7,1126.4 L 14453.1,1118.73 L 14466.8,1108.35 L 14478.4,1095.62 L 14487.5,1080.97 L 14493.7,1064.91 L 14496.9,1047.98 L 14496.9,1030.76 L 14493.7,1013.83 L 14487.5,997.768 L 14478.4,983.124 L 14466.8,970.396 L 14453.1,960.016 L 14437.7,952.338 L 14421.1,947.626 L 14408.2,946.434 L 14399.6,946.434 L 14386.8,947.626 L 14370.2,952.338 L 14354.8,960.016 L 14341.1,970.396 L 14329.5,983.124 L 14320.4,997.768 L 14314.2,1013.83 L 14311,1030.76 L 14311,1047.98M 14483.6,777.166 L 14548.6,777.166 L 14556.7,776.34 L 14569.8,771.998 L 14581.5,764.75 L 14591.3,754.988 L 14598.5,743.24 L 14602.9,730.134 L 14603.7,722.048 L 14603.7,659.056 L 14564.3,659.056 L 14564.3,718.11 L 14563.9,722.203 L 14562.6,726.117 L 14560.6,729.681 L 14557.8,732.739 L 14554.5,735.158 L 14550.7,736.832 L 14546.7,737.687 L 14544.6,737.795 L 14483.6,737.795 L 14483.6,777.166M 14483.6,540.945 L 14544.6,540.945 L 14546.7,541.053 L 14550.7,541.908 L 14554.5,543.582 L 14557.8,546.001 L 14560.6,549.059 L 14562.6,552.623 L 14563.9,556.537 L 14564.3,560.63 L 14564.3,619.686 L 14603.7,619.686 L 14603.7,556.696 L 14602.9,548.608 L 14598.5,535.504 L 14591.3,523.754 L 14581.5,513.992 L 14569.8,506.744 L 14556.7,502.402 L 14548.6,501.576 L 14483.6,501.576 L 14483.6,540.945 z " style="fill-opacity:1.000000;fill:rgb(167,241,217);stroke:rgb(0,0,0);stroke-width:2"/></g>
<g fill-rule="evenodd"><path d="M 1589.76,918.11 L 1589.76,760.63 L 1590.19,756.537 L 1591.47,752.623 L 1593.52,749.059 L 1596.28,746.001 L 1599.61,743.582 L 1603.37,741.908 L 1607.39,741.053 L 1609.45,740.945 L 1770.87,740.945 L 1772.92,741.053 L 1776.95,741.908 L 1780.71,743.582 L 1784.04,746.001 L 1786.79,749.059 L 1788.85,752.623 L 1790.12,756.537 L 1790.55,760.63 L 1790.55,918.11 L 1790.12,922.203 L 1788.85,926.117 L 1786.79,929.681 L 1784.04,932.739 L 1780.71,935.158 L 1776.95,936.832 L 1772.92,937.687 L 1706.16,937.795 L 1706.16,1028.87 L 2369.95,1692.66 L 9103.61,1692.66 L 10021.8,774.476 L 10021.8,710.318 L 10017.1,709.323 L 10004.3,703.632 L 9993.01,695.407 L 9983.65,685.009 L 9976.65,672.892 L 9972.33,659.585 L 9970.87,645.669 L 9972.33,631.754 L 9976.65,618.447 L 9983.65,606.329 L 9993.01,595.931 L 10004.3,587.707 L 10017.1,582.016 L 10030.8,579.107 L 10044.8,579.107 L 10058.5,582.016 L 10071.3,587.707 L 10082.6,595.931 L 10091.9,606.329 L 10098.9,618.447 L 10103.3,631.754 L 10104.7,645.669 L 10103.3,659.585 L 10098.9,672.892 L 10091.9,685.009 L 10082.6,695.407 L 10071.3,703.632 L 10058.5,709.323 L 10053.8,710.318 L 10053.8,781.104 L 10053.5,784.225 L 10052.6,787.227 L 10051.1,789.993 L 10049.1,792.418 L 9121.55,1719.98 L 9117.5,1722.92 L 9112.74,1724.46 L 9110.24,1724.66 L 2363.32,1724.66 L 2360.2,1724.35 L 2357.2,1723.44 L 2354.43,1721.97 L 2352,1719.98 L 1678.84,1046.82 L 1675.9,1042.77 L 1674.94,1040.45 L 1674.16,1035.5 L 1674.16,937.795 L 1609.45,937.795 L 1607.39,937.687 L 1603.37,936.832 L 1599.61,935.158 L 1596.28,932.739 L 1593.52,929.681 L 1591.47,926.117 L 1590.19,922.203 L 1589.76,918.11 z " style="fill-opacity:1.000000;fill:rgb(42,130,200);stroke:rgb(0,0,0);stroke-width:2"/></g>
<g fill-rule="evenodd"><path d="M 3503.15,918.11 L 3503.15,760.63 L 3503.58,756.537 L 3504.85,752.623 L 3506.91,749.059 L 3509.66,746.001 L 3512.99,743.582 L 3516.75,741.908 L 3520.78,741.053 L 3522.83,740.945 L 3684.25,740.945 L 3686.31,741.053 L 3690.33,741.908 L 3694.09,743.582 L 3697.42,746.001 L 3700.18,749.059 L 3702.24,752.623 L 3703.51,756.537 L 3703.94,760.63 L 3703.94,918.11 L 3703.51,922.203 L 3702.24,926.117 L 3700.18,929.681 L 3697.42,932.739 L 3694.09,935.158 L 3690.33,936.832 L 3686.31,937.687 L 3619.54,937.795 L 3619.54,1028.87 L 4165.22,1574.55 L 8985.5,1574.55 L 9821.79,738.256 L 9821.79,710.318 L 9817.11,709.323 L 9804.33,703.632 L 9793.01,695.407 L 9783.65,685.009 L 9776.65,672.892 L 9772.33,659.585 L 9770.87,645.669 L 9772.33,631.754 L 9776.65,618.447 L 9783.65,606.329 L 9793.01,595.931 L 9804.33,587.707 L 9817.11,582.016 L 9830.8,579.107 L 9844.79,579.107 L 9858.48,582.016 L 9871.26,587.707 L 9882.58,595.931 L 9891.94,606.329 L 9898.94,618.447 L 9903.26,631.754 L 9904.72,645.669 L 9903.26,659.585 L 9898.94,672.892 L 9891.94,685.009 L 9882.58,695.407 L 9871.26,703.632 L 9858.48,709.323 L 9853.79,710.318 L 9853.6,747.387 L 9852.05,752.148 L 9849.11,756.198 L 9003.44,1601.87 L 9001.01,1603.86 L 8998.25,1605.33 L 8995.25,1606.24 L 8992.12,1606.55 L 4158.59,1606.55 L 4155.47,1606.24 L 4152.47,1605.33 L 4149.7,1603.86 L 4147.28,1601.87 L 3592.23,1046.82 L 3590.24,1044.39 L 3588.76,1041.62 L 3587.85,1038.62 L 3587.54,1035.5 L 3587.54,937.795 L 3522.83,937.795 L 3520.78,937.687 L 3516.75,936.832 L 3512.99,935.158 L 3509.66,932.739 L 3506.91,929.681 L 3504.85,926.117 L 3503.58,922.203 L 3503.15,918.11 z " style="fill-opacity:1.000000;fill:rgb(216,254,67);stroke:rgb(0,0,0);stroke-width:2"/></g>
<g fill-rule="evenodd"><path d="M 5416.54,918.11 L 5416.54,760.63 L 5416.97,756.537 L 5418.24,752.623 L 5420.29,749.059 L 5423.05,746.001 L 5426.38,743.582 L 5430.14,741.908 L 5434.16,741.053 L 5436.22,740.945 L 5597.64,740.945 L 5599.7,741.053 L 5603.72,741.908 L 5607.48,743.582 L 5610.81,746.001 L 5613.56,749.059 L 5615.62,752.623 L 5616.89,756.537 L 5617.32,760.63 L 5617.32,918.11 L 5616.89,922.203 L 5615.62,926.117 L 5613.56,929.681 L 5610.81,932.739 L 5607.48,935.158 L 5603.72,936.832 L 5599.7,937.687 L 5532.93,937.795 L 5532.93,1028.87 L 5960.5,1456.44 L 8867.39,1456.44 L 9611.23,712.598 L 9570.87,712.598 L 9570.87,578.74 L 9704.72,578.74 L 9704.72,712.598 L 9653.24,712.598 L 9652.58,714.785 L 9651.1,717.551 L 9649.11,719.976 L 8885.33,1483.76 L 8881.28,1486.7 L 8876.52,1488.24 L 5951.37,1488.24 L 5946.6,1486.7 L 5942.55,1483.76 L 5505.61,1046.82 L 5503.62,1044.39 L 5502.15,1041.62 L 5501.24,1038.62 L 5500.93,1035.5 L 5500.93,937.795 L 5436.22,937.795 L 5434.16,937.687 L 5430.14,936.832 L 5426.38,935.158 L 5423.05,932.739 L 5420.29,929.681 L 5418.24,926.117 L 5416.97,922.203 L 5416.54,918.11 z " style="fill-opacity:1.000000;fill:rgb(77,152,85);stroke:rgb(0,0,0);stroke-width:2"/></g>
<g fill-rule="evenodd"><path d="M 9964.41,1636.18 L 9964.41,1606.76 L 9970.2,1583.63 L 9975.08,1573.86 L 9978.48,1570.46 L 9986.7,1566.35 L 9993.31,1566.35 L 10001.5,1570.46 L 10004.9,1573.86 L 10009.8,1583.63 L 10015.6,1606.76 L 10015.6,1636.18 L 10009.8,1659.31 L 10004.9,1669.08 L 10001.5,1672.48 L 9993.31,1676.59 L 9986.7,1676.59 L 9978.48,1672.48 L 9975.08,1669.08 L 9970.2,1659.31 L 9964.41,1636.18 z " style="fill-opacity:1.000000;fill:rgb(140,226,179);stroke:rgb(0,0,0);stroke-width:2"/></g>
<g fill-rule="evenodd"><path d="M 10063.5,1147.7 L 10065.9,1142.89 L 10072,1139.84 L 10091.7,1139.84 L 10097.8,1142.89 L 10100.9,1149 L 10100.9,1155.18 L 10063.5,1147.7 z " style="fill-opacity:1.000000;fill:rgb(71,23,17);stroke:rgb(0,0,0);stroke-width:2"/></g>
<g fill-rule="evenodd"><path d="M 10089.1,1414.33 L 10089.1,1384.91 L 10094.9,1361.78 L 10099.8,1352.01 L 10103.2,1348.61 L 10111.4,1344.5 L 10118,1344.5 L 10126.2,1348.61 L 10129.6,1352.01 L 10134.5,1361.78 L 10140.3,1384.91 L 10140.3,1414.33 L 10134.5,1437.46 L 10129.6,1447.23 L 10126.2,1450.63 L 10118,1454.74 L 10111.4,1454.74 L 10103.2,1450.63 L 10099.8,1447.23 L 10094.9,1437.46 L 10089.1,1414.33 z " style="fill-opacity:1.000000;fill:rgb(152,84,47);stroke:rgb(0,0,0);stroke-width:2"/></g>
<g fill-rule="evenodd"><path d="M 10170.9,645.669 L 10172.3,631.754 L 10176.7,618.447 L 10183.6,606.329 L 10193,595.931 L 10204.3,587.707 L 10217.1,582.016 L 10230.8,579.107 L 10244.8,579.107 L 10258.5,582.016 L 10271.3,587.707 L 10282.6,595.931 L 10291.9,606.329 L 10298.9,618.447 L 10303.3,631.754 L 10304.7,645.669 L 10303.3,659.585 L 10298.9,672.892 L 10294.8,680.052 L 11209,1594.24 L 12824.1,1594.24 L 13430.1,988.256 L 13430.1,937.795 L 13363.3,937.687 L 13359.3,936.832 L 13355.5,935.158 L 13352.2,932.739 L 13349.4,929.681 L 13347.4,926.117 L 13346.1,922.203 L 13345.7,918.11 L 13345.7,760.63 L 13346.1,756.537 L 13347.4,752.623 L 13349.4,749.059 L 13352.2,746.001 L 13355.5,743.582 L 13359.3,741.908 L 13363.3,741.053 L 13365.4,740.945 L 13526.8,740.945 L 13528.8,741.053 L 13532.9,741.908 L 13536.6,743.582 L 13539.9,746.001 L 13542.7,749.059 L 13544.8,752.623 L 13546,756.537 L 13546.5,760.63 L 13546.5,918.11 L 13546,922.203 L 13544.8,926.117 L 13542.7,929.681 L 13539.9,932.739 L 13536.6,935.158 L 13532.9,936.832 L 13528.8,937.687 L 13526.8,937.795 L 13462.1,937.795 L 13462.1,994.884 L 13461.8,998.005 L 13460.8,1001.01 L 13459.4,1003.77 L 13457.4,1006.2 L 12842,1621.55 L 12838,1624.49 L 12835.7,1625.45 L 12830.7,1626.24 L 11199.9,1626.04 L 11195.1,1624.49 L 11191,1621.55 L 10272.3,702.845 L 10271.3,703.632 L 10258.5,709.323 L 10244.8,712.232 L 10230.8,712.232 L 10217.1,709.323 L 10204.3,703.632 L 10193,695.407 L 10183.6,685.009 L 10176.7,672.892 L 10172.3,659.585 L 10170.9,645.669 z " style="fill-opacity:1.000000;fill:rgb(17,45,5);stroke:rgb(0,0,0);stroke-width:2"/></g>
<g fill-rule="evenodd"><path d="M 10181,1122.81 L 10181,1109.63 L 10185.1,1101.42 L 10188.5,1098.02 L 10196.7,1093.91 L 10232.1,1093.91 L 10232.1,1138.53 L 10196.7,1138.53 L 10188.5,1134.42 L 10185.1,1131.02 L 10181,1122.81 z " style="fill-opacity:1.000000;fill:rgb(88,245,107);stroke:rgb(0,0,0);stroke-width:2"/></g>
<g fill-rule="evenodd"><path d="M 10496.6,1398.29 L 10499,1393.48 L 10505.1,1390.43 L 10524.8,1390.43 L 10530.9,1393.48 L 10534,1399.59 L 10534,1405.78 L 10496.6,1398.29 z " style="fill-opacity:1.000000;fill:rgb(214,136,7);stroke:rgb(0,0,0);stroke-width:2"/></g>
<g fill-rule="evenodd"><path d="M 10528.7,1675.29 L 10528.7,1651.65 L 10557.6,1651.65 L 10563.7,1654.7 L 10566.8,1660.81 L 10566.8,1667.43 L 10563.7,1673.53 L 10557.6,1676.59 L 10531.3,1676.59 L 10528.7,1675.29 z " style="fill-opacity:1.000000;fill:rgb(153,146,72);stroke:rgb(0,0,0);stroke-width:2"/></g>
<g fill-rule="evenodd"><path d="M 10614,1373.4 L 10614,1360.22 L 10618.1,1352.01 L 10621.5,1348.61 L 10629.7,1344.5 L 10665.2,1344.5 L 10665.2,1389.12 L 10629.7,1389.12 L 10621.5,1385.01 L 10618.1,1381.61 L 10614,1373.4 z " style="fill-opacity:1.000000;fill:rgb(51,98,65);stroke:rgb(0,0,0);stroke-width:2"/></g>
<g fill-rule="evenodd"><path d="M 11163.7,1132.9 L 11165.4,1102.73 L 11169.3,1076.29 L 11174.7,1050.72 L 11175.1,1050.4 L 11207.1,1050.36 L 11238.9,1045.22 L 11269.4,1031.98 L 11297.5,1011.32 L 11322.4,983.94 L 11343,950.507 L 11348.1,940.025 L 11353.8,926.565 L 11356.9,914.199 L 11358.2,899.575 L 11358.5,867.567 L 11357.8,851.336 L 11355.9,839.965 L 11352.4,830.799 L 11346.6,821.178 L 11343,816.195 L 11331.9,804.613 L 11321.2,797.21 L 11311.2,792.047 L 11307.4,788.527 L 11311.4,782.709 L 11319.6,772.21 L 11347.8,737.861 L 11389,692.99 L 11430.3,655.639 L 11471.4,626.051 L 11511.8,604.295 L 11551.5,590.548 L 11589.9,584.966 L 11626.7,587.711 L 11661.7,598.921 L 11665.6,600.781 L 11697.3,621.283 L 11724.9,649.537 L 11748.4,685.449 L 11767.4,728.641 L 11781.9,779.105 L 11785.7,801.24 L 11788.9,832.218 L 11790.8,868.106 L 11791.6,906.781 L 11791.1,946.179 L 11789.4,984.252 L 11786.3,1018.93 L 11781.8,1051.03 L 11776.1,1084.02 L 11769.5,1117.08 L 11762.4,1148 L 11755.3,1174.54 L 11748.7,1194.45 L 11743.5,1207.12 L 11743.1,1207 L 11729.1,1191 L 11721.7,1183.37 L 11697.7,1166.34 L 11670,1157.23 L 11638.9,1156.04 L 11604.8,1162.82 L 11568,1177.61 L 11535.3,1196.87 L 11500.8,1226.32 L 11471,1263.07 L 11450.3,1298.59 L 11435.9,1337.61 L 11429.2,1378.62 L 11427.6,1396.02 L 11425.8,1406.83 L 11423.9,1411.19 L 11413.8,1409.5 L 11398.4,1405.29 L 11379.8,1399.36 L 11360.3,1392.52 L 11342.3,1385.56 L 11328.4,1379.31 L 11284.6,1354.04 L 11244.6,1323.38 L 11212.1,1289.38 L 11187.6,1252.5 L 11171.4,1213.17 L 11167,1191.9 L 11164.3,1163.64 L 11163.7,1132.9M 11468.4,703.193 L 11469.6,716.463 L 11473.4,725.192 L 11480.5,729.561 L 11494.1,730.635 L 11509.3,725.766 L 11523.5,715.393 L 11529,709.226 L 11537.1,693.938 L 11538,680.079 L 11532.8,669.035 L 11522.5,662.171 L 11507.9,660.915 L 11490.1,666.754 L 11479.8,673.861 L 11472.7,681.866 L 11470,689.413 L 11468.4,703.193M 11592.6,953.129 L 11594.8,980.646 L 11602.4,1006.49 L 11614.9,1028.59 L 11632,1044.91 L 11649.5,1052.95 L 11667.9,1053.99 L 11684.7,1047.65 L 11699.3,1034.67 L 11710.7,1015.76 L 11718.1,991.669 L 11720.6,962.139 L 11717.6,934.169 L 11709.6,910.515 L 11697.8,891.648 L 11683.2,878.063 L 11666.9,870.235 L 11649.7,868.643 L 11632.8,873.759 L 11617.1,886.107 L 11603.6,906.208 L 11596.3,925.995 L 11592.6,953.129 z " style="fill-opacity:1.000000;fill:rgb(243,13,35);stroke:rgb(0,0,0);stroke-width:2"/></g>
<g fill-rule="evenodd"><path d="M 11198.5,1292.46 L 11199,1292.23 L 11203.4,1294.47 L 11213.4,1303.3 L 11235.7,1324.92 L 11279.2,1360.84 L 11326.5,1389.18 L 11379.1,1410.89 L 11393.4,1415.54 L 11411.9,1420.54 L 11429.8,1423.8 L 11450.4,1425.83 L 11485.3,1427.45 L 11518.3,1427.57 L 11545.6,1425.46 L 11569.7,1420.66 L 11593.2,1412.74 L 11618.3,1401.22 L 11643.6,1386.21 L 11677.5,1358.08 L 11708.6,1322.68 L 11736,1280.84 L 11759.2,1233.38 L 11771.9,1202.96 L 11772.3,1202.72 L 11782.5,1204.71 L 11796.6,1208.18 L 11814.4,1212.83 L 11836.5,1219.4 L 11873.2,1233.92 L 11902.7,1250.92 L 11924.1,1270.02 L 11937.9,1289.55 L 11946.3,1312.15 L 11946.2,1333.67 L 11937.5,1354.11 L 11920.7,1372.81 L 11895.9,1389.74 L 11863,1404.68 L 11822.6,1417.33 L 11812.1,1419.84 L 11788,1424.78 L 11758.6,1430.1 L 11726.1,1435.47 L 11692.8,1440.51 L 11660.7,1444.86 L 11628.4,1448.54 L 11605.2,1449.88 L 11576.8,1450.52 L 11545.6,1450.5 L 11513.8,1449.86 L 11483.9,1448.64 L 11458.1,1446.89 L 11438.8,1444.64 L 11431.9,1443.47 L 11376.7,1430.62 L 11327.7,1412.57 L 11285.1,1389.56 L 11249.5,1361.75 L 11221.3,1329.46 L 11206.9,1308.65 L 11199.9,1297.3 L 11198.5,1292.46 z " style="fill-opacity:1.000000;fill:rgb(229,95,48);stroke:rgb(0,0,0);stroke-width:2"/></g>
</svg>
