<?xml version="1.0" standalone="no"?>
<!DOCTYPE svg PUBLIC "-//W3C//DTD SVG 1.1//EN"
"http://www.w3.org/Graphics/SVG/1.1/DTD/svg11.dtd">
<svg width="780.094" height="99.7795" viewBox="0 0 16252 2078.74" version="1.1"
xmlns="http://www.w3.org/2000/svg"
xmlns:xlink="http://www.w3.org/1999/xlink">
<g fill-rule="evenodd"><path d="M 254.124,1080.52 L 254.124,998.218 L 271.236,917.712 L 304.714,842.52 L 353.092,775.934 L 414.256,720.86 L 485.536,679.708 L 563.814,654.274 L 645.668,645.67 L 803.148,645.67 L 849.232,641.132 L 893.546,627.69 L 934.386,605.86 L 970.182,576.484 L 999.558,540.688 L 1021.39,499.848 L 1034.83,455.534 L 1042.39,378.728 L 1051.36,349.184 L 1065.91,321.958 L 1085.49,298.094 L 1109.36,278.51 L 1136.58,263.958 L 1166.13,254.996 L 1196.85,251.97 L 15055.1,251.97 L 15085.8,254.996 L 15115.4,263.958 L 15142.6,278.51 L 15166.5,298.094 L 15186.1,321.958 L 15200.6,349.184 L 15209.6,378.728 L 15217.1,455.534 L 15230.6,499.848 L 15252.4,540.688 L 15281.8,576.484 L 15317.6,605.86 L 15358.4,627.69 L 15402.7,641.132 L 15448.8,645.67 L 15606.3,645.67 L 15688.2,654.274 L 15766.4,679.708 L 15837.7,720.86 L 15898.9,775.934 L 15947.3,842.52 L 15980.7,917.712 L 15997.8,998.218 L 15997.8,1080.52 L 15980.7,1161.03 L 15947.3,1236.22 L 15898.9,1302.81 L 15837.7,1357.88 L 15766.4,1399.03 L 15688.2,1424.47 L 15606.3,1433.07 L 15448.8,1433.07 L 15402.7,1437.61 L 15358.4,1451.05 L 15317.6,1472.88 L 15281.8,1502.26 L 15252.4,1538.06 L 15230.6,1578.89 L 15217.1,1623.21 L 15209.6,1700.02 L 15200.6,1729.56 L 15186.1,1756.78 L 15166.5,1780.65 L 15142.6,1800.23 L 15115.4,1814.79 L 15085.8,1823.75 L 15055.1,1826.77 L 1196.85,1826.77 L 1166.13,1823.75 L 1136.58,1814.79 L 1109.36,1800.23 L 1085.49,1780.65 L 1065.91,1756.78 L 1051.36,1729.56 L 1042.39,1700.02 L 1034.83,1623.21 L 1021.39,1578.89 L 999.558,1538.06 L 970.182,1502.26 L 934.386,1472.88 L 893.546,1451.05 L 849.232,1437.61 L 803.148,1433.07 L 645.668,1433.07 L 563.814,1424.47 L 485.536,1399.03 L 414.256,1357.88 L 353.092,1302.81 L 304.714,1236.22 L 271.236,1161.03 L 254.124,1080.52 z " style="fill-opacity:1.000000;fill:rgb(167,241,217);stroke:rgb(0,0,0);stroke-width:2"/></g>
</svg>
