<?xml version="1.0" standalone="no"?>
<!DOCTYPE svg PUBLIC "-//W3C//DTD SVG 1.1//EN"
"http://www.w3.org/Graphics/SVG/1.1/DTD/svg11.dtd">
<svg width="780.094" height="99.7795" viewBox="0 0 16252 2078.74" version="1.1"
xmlns="http://www.w3.org/2000/svg"
xmlns:xlink="http://www.w3.org/1999/xlink">
<g fill-rule="evenodd"><path d="M 3.12639e-13,2078.74 L 3.12639e-13,0 L 16252,0 L 16252,2078.74 L 3.12639e-13,2078.74 z " style="fill-opacity:0.200000;fill:rgb(167,241,217);"/></g>
<polyline points="129.126,1080.52 129.81,1093.59 131.856,1106.51 148.968,1187.02 152.356,1199.66 157.044,1211.88 190.52,1287.07 196.46,1298.72 203.586,1309.7 251.964,1376.28 260.198,1386.45 269.448,1395.7 330.612,1450.77 340.782,1459.01 351.756,1466.14 423.036,1507.29 434.694,1513.23 446.908,1517.92 525.186,1543.35 537.824,1546.74 550.746,1548.78 632.6,1557.39 645.668,1558.07 797.008,1558.07 824.726,1560.8 845.478,1567.1 864.604,1577.32 881.364,1591.08 895.122,1607.84 905.344,1626.96 911.638,1647.71 917.994,1712.27 919.794,1724.4 922.776,1736.3 931.738,1765.85 935.872,1777.4 941.118,1788.49 955.672,1815.71 969.282,1836.08 988.866,1859.95 997.104,1869.04 1006.2,1877.28 1030.06,1896.86 1050.43,1910.47 1077.65,1925.02 1088.75,1930.27 1100.3,1934.4 1129.84,1943.36 1153.87,1948.14 1184.6,1951.17 1196.85,1951.77 15055.1,1951.77 15067.4,1951.17 15098.1,1948.14 15122.1,1943.36 15151.7,1934.4 15163.2,1930.27 15174.3,1925.02 15201.5,1910.47 15221.9,1896.86 15245.8,1877.28 15263.1,1859.95 15282.7,1836.09 15290,1826.23 15296.3,1815.71 15310.9,1788.48 15320.2,1765.85 15329.2,1736.3 15332.2,1724.4 15334,1712.27 15340.3,1647.71 15346.6,1626.96 15356.8,1607.84 15370.6,1591.08 15387.4,1577.32 15406.5,1567.1 15427.2,1560.8 15455,1558.07 15606.3,1558.07 15619.4,1557.39 15701.2,1548.78 15714.1,1546.74 15726.8,1543.35 15805.1,1517.92 15817.3,1513.23 15828.9,1507.29 15900.2,1466.14 15911.2,1459.01 15921.4,1450.77 15982.5,1395.7 15991.8,1386.45 16000,1376.28 16048.4,1309.7 16055.5,1298.72 16061.4,1287.07 16094.9,1211.88 16099.6,1199.66 16103,1187.02 16120.1,1106.51 16122.2,1093.59 16122.8,1080.52 16122.8,998.218 16122.2,985.154 16120.1,972.23 16103,891.724 16099.6,879.086 16094.9,866.87 16061.4,791.678 16055.5,780.02 16048.4,769.048 16000,702.462 15991.8,692.294 15982.5,683.044 15921.4,627.97 15911.2,619.734 15900.2,612.606 15828.9,571.454 15817.3,565.516 15805.1,560.828 15726.8,535.394 15714.1,532.006 15701.2,529.96 15619.4,521.356 15606.3,520.67 15455,520.67 15427.2,517.942 15406.5,511.648 15387.4,501.424 15370.6,487.668 15356.8,470.908 15346.6,451.782 15340.3,431.032 15334,366.478 15332.2,354.344 15329.2,342.444 15320.2,312.9 15310.9,290.262 15296.3,263.036 15290,252.512 15282.7,242.656 15263.1,218.792 15245.8,201.468 15221.9,181.884 15212.1,174.576 15201.5,168.27 15174.3,153.718 15151.7,144.342 15122.1,135.38 15110.2,132.4 15098.1,130.598 15067.4,127.572 15055.1,126.97 1196.85,126.97 1184.6,127.572 1153.87,130.598 1141.74,132.4 1129.84,135.38 1100.3,144.342 1077.66,153.718 1050.43,168.27 1039.91,174.576 1030.06,181.884 1006.2,201.468 997.104,209.706 988.866,218.798 969.282,242.662 955.672,263.03 941.118,290.256 935.87,301.348 931.738,312.9 922.776,342.444 919.794,354.344 917.994,366.478 911.638,431.032 905.344,451.782 895.12,470.908 881.364,487.668 864.604,501.424 845.478,511.648 824.728,517.942 797.008,520.67 645.668,520.67 632.6,521.356 550.746,529.96 537.824,532.006 525.186,535.392 446.908,560.826 434.694,565.516 423.036,571.454 351.756,612.606 340.782,619.734 330.612,627.97 269.448,683.044 260.198,692.294 251.964,702.462 203.586,769.048 196.46,780.02 190.52,791.678 157.044,866.87 152.354,879.086 148.968,891.724 131.856,972.23 129.81,985.154 129.126,998.218 129.126,1080.52" style="stroke:rgb(167,241,217);stroke-width:250.000000;fill:none;stroke-opacity:0.5;stroke-linecap:round;stroke-linejoin:round;;fill:none"/>
<polyline points="129.126,1080.52 129.81,1093.59 131.856,1106.51 148.968,1187.02 152.356,1199.66 157.044,1211.88 190.52,1287.07 196.46,1298.72 203.586,1309.7 251.964,1376.28 260.198,1386.45 269.448,1395.7 330.612,1450.77 340.782,1459.01 351.756,1466.14 423.036,1507.29 434.694,1513.23 446.908,1517.92 525.186,1543.35 537.824,1546.74 550.746,1548.78 632.6,1557.39 645.668,1558.07 797.008,1558.07 824.726,1560.8 845.478,1567.1 864.604,1577.32 881.364,1591.08 895.122,1607.84 905.344,1626.96 911.638,1647.71 917.994,1712.27 919.794,1724.4 922.776,1736.3 931.738,1765.85 935.872,1777.4 941.118,1788.49 955.672,1815.71 969.282,1836.08 988.866,1859.95 997.104,1869.04 1006.2,1877.28 1030.06,1896.86 1050.43,1910.47 1077.65,1925.02 1088.75,1930.27 1100.3,1934.4 1129.84,1943.36 1153.87,1948.14 1184.6,1951.17 1196.85,1951.77 15055.1,1951.77 15067.4,1951.17 15098.1,1948.14 15122.1,1943.36 15151.7,1934.4 15163.2,1930.27 15174.3,1925.02 15201.5,1910.47 15221.9,1896.86 15245.8,1877.28 15263.1,1859.95 15282.7,1836.09 15290,1826.23 15296.3,1815.71 15310.9,1788.48 15320.2,1765.85 15329.2,1736.3 15332.2,1724.4 15334,1712.27 15340.3,1647.71 15346.6,1626.96 15356.8,1607.84 15370.6,1591.08 15387.4,1577.32 15406.5,1567.1 15427.2,1560.8 15455,1558.07 15606.3,1558.07 15619.4,1557.39 15701.2,1548.78 15714.1,1546.74 15726.8,1543.35 15805.1,1517.92 15817.3,1513.23 15828.9,1507.29 15900.2,1466.14 15911.2,1459.01 15921.4,1450.77 15982.5,1395.7 15991.8,1386.45 16000,1376.28 16048.4,1309.7 16055.5,1298.72 16061.4,1287.07 16094.9,1211.88 16099.6,1199.66 16103,1187.02 16120.1,1106.51 16122.2,1093.59 16122.8,1080.52 16122.8,998.218 16122.2,985.154 16120.1,972.23 16103,891.724 16099.6,879.086 16094.9,866.87 16061.4,791.678 16055.5,780.02 16048.4,769.048 16000,702.462 15991.8,692.294 15982.5,683.044 15921.4,627.97 15911.2,619.734 15900.2,612.606 15828.9,571.454 15817.3,565.516 15805.1,560.828 15726.8,535.394 15714.1,532.006 15701.2,529.96 15619.4,521.356 15606.3,520.67 15455,520.67 15427.2,517.942 15406.5,511.648 15387.4,501.424 15370.6,487.668 15356.8,470.908 15346.6,451.782 15340.3,431.032 15334,366.478 15332.2,354.344 15329.2,342.444 15320.2,312.9 15310.9,290.262 15296.3,263.036 15290,252.512 15282.7,242.656 15263.1,218.792 15245.8,201.468 15221.9,181.884 15212.1,174.576 15201.5,168.27 15174.3,153.718 15151.7,144.342 15122.1,135.38 15110.2,132.4 15098.1,130.598 15067.4,127.572 15055.1,126.97 1196.85,126.97 1184.6,127.572 1153.87,130.598 1141.74,132.4 1129.84,135.38 1100.3,144.342 1077.66,153.718 1050.43,168.27 1039.91,174.576 1030.06,181.884 1006.2,201.468 997.104,209.706 988.866,218.798 969.282,242.662 955.672,263.03 941.118,290.256 935.87,301.348 931.738,312.9 922.776,342.444 919.794,354.344 917.994,366.478 911.638,431.032 905.344,451.782 895.12,470.908 881.364,487.668 864.604,501.424 845.478,511.648 824.728,517.942 797.008,520.67 645.668,520.67 632.6,521.356 550.746,529.96 537.824,532.006 525.186,535.392 446.908,560.826 434.694,565.516 423.036,571.454 351.756,612.606 340.782,619.734 330.612,627.97 269.448,683.044 260.198,692.294 251.964,702.462 203.586,769.048 196.46,780.02 190.52,791.678 157.044,866.87 152.354,879.086 148.968,891.724 131.856,972.23 129.81,985.154 129.126,998.218 129.126,1080.52" style="stroke:rgb(0,0,0);stroke-width:1px;fill:none;stroke-opacity:1;stroke-linecap:round;stroke-linejoin:round;;fill:none"/>
<g fill-rule="evenodd"><path d="M 254.124,1080.52 L 254.124,998.218 L 271.236,917.712 L 304.714,842.52 L 353.092,775.934 L 414.256,720.86 L 485.536,679.708 L 563.814,654.274 L 645.668,645.67 L 803.148,645.67 L 849.232,641.132 L 893.546,627.69 L 934.386,605.86 L 970.182,576.484 L 999.558,540.688 L 1021.39,499.848 L 1034.83,455.534 L 1042.39,378.728 L 1051.36,349.184 L 1065.91,321.958 L 1085.49,298.094 L 1109.36,278.51 L 1136.58,263.958 L 1166.13,254.996 L 1196.85,251.97 L 15055.1,251.97 L 15085.8,254.996 L 15115.4,263.958 L 15142.6,278.51 L 15166.5,298.094 L 15186.1,321.958 L 15200.6,349.184 L 15209.6,378.728 L 15217.1,455.534 L 15230.6,499.848 L 15252.4,540.688 L 15281.8,576.484 L 15317.6,605.86 L 15358.4,627.69 L 15402.7,641.132 L 15448.8,645.67 L 15606.3,645.67 L 15688.2,654.274 L 15766.4,679.708 L 15837.7,720.86 L 15898.9,775.934 L 15947.3,842.52 L 15980.7,917.712 L 15997.8,998.218 L 15997.8,1080.52 L 15980.7,1161.03 L 15947.3,1236.22 L 15898.9,1302.81 L 15837.7,1357.88 L 15766.4,1399.03 L 15688.2,1424.47 L 15606.3,1433.07 L 15448.8,1433.07 L 15402.7,1437.61 L 15358.4,1451.05 L 15317.6,1472.88 L 15281.8,1502.26 L 15252.4,1538.06 L 15230.6,1578.89 L 15217.1,1623.21 L 15209.6,1700.02 L 15200.6,1729.56 L 15186.1,1756.78 L 15166.5,1780.65 L 15142.6,1800.23 L 15115.4,1814.79 L 15085.8,1823.75 L 15055.1,1826.77 L 1196.85,1826.77 L 1166.13,1823.75 L 1136.58,1814.79 L 1109.36,1800.23 L 1085.49,1780.65 L 1065.91,1756.78 L 1051.36,1729.56 L 1042.39,1700.02 L 1034.83,1623.21 L 1021.39,1578.89 L 999.558,1538.06 L 970.182,1502.26 L 934.386,1472.88 L 893.546,1451.05 L 849.232,1437.61 L 803.148,1433.07 L 645.668,1433.07 L 563.814,1424.47 L 485.536,1399.03 L 414.256,1357.88 L 353.092,1302.81 L 304.714,1236.22 L 271.236,1161.03 L 254.124,1080.52 z " style="fill-opacity:1.000000;fill:rgb(167,241,217);stroke:rgb(0,0,0);stroke-width:2"/></g>
</svg>
