M48
; DRILL file {KiCad 7.0.8} date 2024 January 14, Sunday 08:30:57
; FORMAT={-:-/ absolute / inch / decimal}
; #@! TF.CreationDate,2024-01-14T08:30:57-06:00
; #@! TF.GenerationSoftware,Kicad,Pcbnew,7.0.8
; #@! TF.FileFunction,MixedPlating,1,2
FMAT,2
INCH
; #@! TA.AperFunction,Plated,PTH,ComponentDrill
T1C0.0394
; #@! TA.AperFunction,Plated,PTH,ComponentDrill
T2C0.1693
; #@! TA.AperFunction,NonPlated,NPTH,ComponentDrill
T3C0.0689
; #@! TA.AperFunction,NonPlated,NPTH,ComponentDrill
T4C0.1201
; #@! TA.AperFunction,NonPlated,NPTH,ComponentDrill
T5C0.1575
%
G90
G05
T1
X4.7295Y0.6299
X4.8295Y0.6299
X4.9295Y0.6299
X5.0295Y0.6299
X5.1295Y0.6299
T2
X0.2335Y0.4331
X3.7374Y0.4331
X6.1193Y0.4331
X7.7138Y0.4331
T3
X0.8346Y0.4331
X1.2346Y0.4331
X1.7913Y0.4331
X2.1913Y0.4331
X2.748Y0.4331
X3.148Y0.4331
X6.7126Y0.4331
X7.1126Y0.4331
T4
X0.8846Y0.5331
X1.1346Y0.6331
X1.8413Y0.5331
X2.0913Y0.6331
X2.798Y0.5331
X3.048Y0.6331
X6.7626Y0.5331
X7.0126Y0.6331
T5
X1.0346Y0.4331
X1.9913Y0.4331
X2.948Y0.4331
X6.9126Y0.4331
T0
M30
